/* XPM */
static char *f0c0688a3af945d9e31e07f74dc540bet9OKO5oTxfTgHL8u[] = {
/* columns rows colors chars-per-pixel */
"64 64 161 2 ",
"   c None",
".  c black",
"X  c #020000",
"o  c #030000",
"O  c #030100",
"+  c #070100",
"@  c #0C0100",
"#  c #090400",
"$  c #180701",
"%  c #1A0601",
"&  c #1F0801",
"*  c #2A0A02",
"=  c #2D1600",
"-  c #301405",
";  c #391401",
":  c #341A02",
">  c #381A00",
",  c #3F1A00",
"<  c #3D1E02",
"1  c #3F2000",
"2  c #3E2104",
"3  c #401A00",
"4  c #401C02",
"5  c #402002",
"6  c #452200",
"7  c #472300",
"8  c #442302",
"9  c #442404",
"0  c #4A2802",
"q  c #4C2900",
"w  c #4D2A00",
"e  c #4D2A01",
"r  c #4F2C00",
"t  c #482806",
"y  c #472909",
"u  c #4C2C0A",
"i  c #502D00",
"p  c #512D00",
"a  c #512E00",
"s  c #512F03",
"d  c #543000",
"f  c #543201",
"g  c #53300A",
"h  c #52310C",
"j  c #50300E",
"k  c #57360D",
"l  c #58340B",
"z  c #542F12",
"x  c #4B3214",
"c  c #563114",
"v  c #583413",
"b  c #5B3716",
"n  c #513916",
"m  c #5E3A11",
"M  c #5C3912",
"N  c #5E3A12",
"B  c #5E3A1A",
"V  c #613E13",
"C  c #633E14",
"Z  c #613D1A",
"A  c #59411C",
"S  c #674317",
"D  c #64411B",
"F  c #64411C",
"G  c #65401F",
"H  c #67441F",
"J  c #69451B",
"K  c #6B471E",
"L  c #6A461F",
"P  c #5F4621",
"I  c #5F4E27",
"U  c #694620",
"Y  c #6B4722",
"T  c #6E4921",
"R  c #6F4A23",
"E  c #684A27",
"W  c #6D4824",
"Q  c #6E4A25",
"!  c #6F4A25",
"~  c #6E4A26",
"^  c #6F4B26",
"/  c #6E4C29",
"(  c #704B24",
")  c #714C26",
"_  c #704C27",
"`  c #714C27",
"'  c #714D27",
"]  c #714E27",
"[  c #724D28",
"{  c #734D28",
"}  c #724D29",
"|  c #734E29",
" . c #724F2A",
".. c #744F2A",
"X. c #754F2A",
"o. c #66522B",
"O. c #69532E",
"+. c #6F542F",
"@. c #75502B",
"#. c #76502B",
"$. c #77512C",
"%. c #74502E",
"&. c #79532D",
"*. c #7A532D",
"=. c #7A532E",
"-. c #7A542E",
";. c #6A5732",
":. c #6C5C36",
">. c #775430",
",. c #7B5733",
"<. c #7C5530",
"1. c #7D5731",
"2. c #7E5730",
"3. c #7D5732",
"4. c #7E5833",
"5. c #745B38",
"6. c #76653F",
"7. c #7B6B44",
"8. c #825A35",
"9. c #805C37",
"0. c #825C37",
"q. c #835C39",
"w. c #825E38",
"e. c #84633E",
"r. c #89603A",
"t. c #88603B",
"y. c #846743",
"u. c #886B46",
"i. c #83724C",
"p. c #8A744D",
"a. c #90714B",
"s. c #8D7C58",
"d. c #947854",
"f. c #997D56",
"g. c #9D815B",
"h. c #A2865F",
"j. c #938460",
"k. c #9E8E66",
"l. c #A78F68",
"z. c #AD976F",
"x. c #AF9B77",
"c. c #B4A075",
"v. c #B8A477",
"b. c #B2A47E",
"n. c #BAA77F",
"m. c #BFAD7F",
"M. c #C6B386",
"N. c #C4B58D",
"B. c #CEBC8E",
"V. c #CCBC98",
"C. c #D3C292",
"Z. c #D4C397",
"A. c #D7C696",
"S. c #D7C89D",
"D. c #DAC999",
"F. c #DBCA9A",
"G. c #DBCA9C",
"H. c #DDCB9C",
"J. c #D9CAA3",
"K. c #DECEA1",
"L. c #E1D1A5",
/* pixels */
"                                                                                                                                ",
"                                                                                                                                ",
"                                                                                                                                ",
"                                                                                                                                ",
"                                                                                                                                ",
"                                                                                                                                ",
"                                                                                                                                ",
"                                                                                                                                ",
"                                                                        C l i s                                                 ",
"                                                                      4.>.^ m f f g                                             ",
"                                                                       .J K 3.U r d f                                           ",
"                                                                    X.^ / ` X.9. .d 0 e h                                       ",
"            T m m l c M C                                           X.X. .` ) ` >.$.h f f M                                     ",
"        q.t.,.^ Y Z k e 7 0 r 7 :                                   K J T ) X.X.X.,.,.V f e 7                                   ",
"      9.$.$.$.&.3.4.9.3.X.H b u 7 7 e s g C                         H D J S J K T ^  .,.v 4 e s                                 ",
"      ' ^ ^ T J K T T ' X.,.4.,.$.T Z k s f m m H m                 ^  .X.X.X.X. .) ) &.3.V 0 4 4                               ",
"      ^ ^ ^ ^ W T T K K Y H T T ` &.,.4.,.&.T V k f e q e 7 2       <.X.` ` ^ ) ^ ^ ^ ^ ` >.z 7 e i                             ",
"       . .)  .` ) ) ` ` ) ) ` ` ` ^ / ^ ' @.$.,.,.$.^ Z k r r e t l &.<.<.X. . .^ ) / ` `  .4.B e s e                           ",
"      ) ) J J K ) { X. .X.` ` W Y / ` / )  . .)  . .$.>.,.>.) G k b ^ `  .X.X.X.X. .X.` ` / ` %.z ; 7 f                         ",
"      ) T K J J S J K (  .f.n.x.j.i.;.>. .)  .` ` `  .`  . .X.>.>. .` ` ^ ) ` ` X.X.X.X.X.X.{ Z b z s f f                       ",
"      X. .) ` ` ) ` ) ^ e.J.L.K.L.J.b.:.O.W ^  .' ' '  .' ^ ^ ^ T T  .) ) ` ` ` ` `  . .X.X.X.X.X.3.S s 7 ,                     ",
"      ' ) X.X.X.X.X.X.` a.S.D.G.D.D.H.i.n d.p.;./ ^ X.>.+. .'  .T Y J K K T ) ) ` ` ` ) ` `  . .) W / z 4 4 4                   ",
"      X.X.X.X.X. .)  .) f.G.D.c.f.v.B.y.E J.B.7.o.u.V.b.6.E T ^ /  .) T T K J J K T ^ ` / ^ ^ )  .X.Y / z 7 e a                 ",
"      X.{ {  . .X.X.X.) g.G.C.7.x E 9.` 9.B.D.k.I N.K.Z.i.x y.x.i.:. .^ ^ ^ ^ W ) W ) ^ ^ Y T ^ ) / )  .>.v i f e               ",
"      @.X. .X.X.X.{ ` ) h.G.A.b.j.7.+. . .c.G.M.g.J.D.B.O.y n.L.N.:.B p.l.k.g.i.6.+./ ' T U Z B B Z Y `  .<.b 7 4 e             ",
"      &.<.X.X.`  . .X.` h.G.D.K.L.n.;.P ^ a.C.A.S.S.A.p.9 B l.F.B.I ;.J.K.K.K.J.V.b.s.5.+. . .) W Z b B Z Z Z ; 4 7 e           ",
"      Z Z W  .X.X.` ` ^ g.G.D.D.D.C.o.5 b -.z.D.D.D.k.y b ' 4.v.m.P 5.A.D.D.D.D.D.G.S.b.6.;.^ ) `  .` ` / T Z U u 7 s s         ",
"      -.` T W ` ` ` X.` d.H.B.k.c.m.E 9 c X.l.G.D.m.I h ^ @.g.V.k.:. .f.M.Z.D.D.D.D.D.D.k.B ^  .X.` ` `  .` #.3.$.k s e s       ",
"      ' { X.$.X.X. .` ` u.C.A.k.:.>.E ^ ^ 9.A.G.D.N.6.A S J c.L.M.7.P ^ 1.l.D.D.C.B.A.C.p.u $.3.<.&.$.X. .X.)  .X. .0 e e h     ",
"       . .X.` X.X.X.X. .$.M.D.D.N.k.6.;./ z.K.A.Z.D.z.;.P ^ x.H.B.i.n Z K f.F.D.M.6.u.e.U W $.$.&.<.3.4.3.3.4.9.3./ Z e f e     ",
"      T H Z ) X.X. .X.X.` f.A.A.G.L.V.;.O.Z.D.C.l.C.C.i.P Y z.H.C.i.n m V p.H.D.m.O.Z ^ ` ` ` `  .` ` X. .X.&.&.3.3.4.m s 4     ",
"      $.#.K V M Y X.X.&. .X.l.B.D.D.D.7.I Z.D.M.o.c.H.c.I A l.H.C.7.u G T d.G.D.M.;.k V C Z U T ) / ` ^ ^ ^ ^ ^ ^ K K D 7 4 <   ",
"        &.,.4.@.J N S R X.X.{ 9.f.c.c.E c m.A.p.7 p.D.C.6.x h.G.B.;.y Y ^ f.G.D.n.;.U W Y Y K U Y ^ ` ` ` ` ` ^ W G B b ; ;     ",
"        t.$.T @.-.-.@.K J ( '  . .X.X.` ) e.a.^ Z ,.n.H.p.4 u.G.B.o.y Z W d.H.D.n.O.Y ` ) ) ^ ^ ^ ^ ` ` ` X. .` ` Y Z c 4 7     ",
"      9.t.t.9.8.4.@. .^ ) ) ) ) X.` `  .' ' ) X.X.X.9.g.8.B 8.B.M.A 9 ^ ` d.D.G.c.o.Y ` ^ ` `  .{  .X.` ` ` / ` ` ` X.T 5       ",
"              q.t.t.t.q.q.8.3.@.` ^ T ) )  . .' ` ) ^ ^ ' X.#.p.f.G Z `  .9.M.H.z.P / X. .) ` ^ ^ ^ / ` ` ` X. . . . .z         ",
"                          q.9.8.<.<.X.X.K K K Y W W ) / ' ) ) ) ` X.X.X.` ` a.M.u.h ` X.X.X.X.X.X.` ` / ) W T W Y T  .          ",
"                                4 4 u x x G &.3.4.&.) J D J Y Y G B W ` ` X.X.9.X.W  .`  .` X.X.X.) ) X.X.X.X. .^ C             ",
"                                > * > & O O         X.3.&.-.3.4.K D ` `  .` ^ ^ ` `  .X.X.$.&.<.3.&.Y Z b b B Y                 ",
"                                4 ; < * # O                     9.' ` ) ) ` `  .` ) ^ ^ ) ` )  .X.X.&.&.X./ h                   ",
"                                9 4 0 - @ O                       X. .X. .` ` ) `  .X.X. .X.) ) ) ) )  .X.                      ",
"                                y 9 e - % O                       $. .` ` ) X.X.X.X. .` X. . .X.X.X. .                          ",
"                                u 0 f > % +                         X.X.X. .` W J K ) )  .X.X. .) X.                            ",
"                                g u k : % O                         ` ) ) )  .` K S S D S S K X.                                ",
"                                k h k 1 % O                         ` `  .) ` ` { ) ) ) ' T                                     ",
"                                b k k 1 & O                         ^ '  .) ) ) ) X.' Y                                         ",
"                              < k k k 9 & O                         ' ( ) ) X. .) B -                                           ",
"                              < k k g < & +                         m ^ ) W Y Z u * @ #                                         ",
"                                s h s 1 & O #                         c h h y 1 9 * # O                                         ",
"                                2 t u > % +                               : 9 9 0 - # O                                         ",
"                                      #                                   : u u u ; @ O                                         ",
"                                                                          : u h s 1 % O                                         ",
"                                                                          : u h s 1 % O                                         ",
"                                                                            5 y u > % O                                         ",
"                                                                              2 7 = +                                           ",
"                                                                                                                                ",
"                                                                                                                                ",
"                                                                                                                                ",
"                                                                                                                                ",
"                                                                                                                                ",
"                                                                                                                                ",
"                                                                                                                                ",
"                                                                                                                                ",
"                                                                                                                                "
};
