/* XPM */
static char *_740007f2d9641c0cce7029205a63cfaTF4qBvoIQZ1vW2ny[] = {
/* columns rows colors chars-per-pixel */
"64 69 178 2 ",
"   c #191307",
".  c #1C160A",
"X  c #1E180D",
"o  c #1F1B11",
"O  c #241B0D",
"+  c #291F0F",
"@  c #241D11",
"#  c #291F10",
"$  c #2A200F",
"%  c #252016",
"&  c #2C2212",
"*  c #26241C",
"=  c #2A251B",
"-  c #2E291D",
";  c #312614",
":  c #352915",
">  c #3B2C16",
",  c #302719",
"<  c #342A1A",
"1  c #3C2E18",
"2  c #3F3017",
"3  c #3F3019",
"4  c #2B2A22",
"5  c #312E24",
"6  c #343026",
"7  c #3C3425",
"8  c #35332B",
"9  c #39362C",
"0  c #3C392D",
"q  c #3D3B32",
"w  c #403017",
"e  c #44341B",
"r  c #48371D",
"t  c #47381F",
"y  c #4A391E",
"u  c #473820",
"i  c #4C3B20",
"p  c #41392D",
"a  c #413E34",
"s  c #4F422B",
"d  c #454136",
"f  c #4A4337",
"g  c #46433A",
"h  c #4A463B",
"j  c #4C483E",
"k  c #504B3E",
"l  c #4E4B41",
"z  c #524E43",
"x  c #555145",
"c  c #5A5344",
"v  c #575349",
"b  c #5A554A",
"n  c #5E594C",
"m  c #5E5C54",
"M  c #635C4D",
"N  c #625E51",
"B  c #666153",
"V  c #6A6455",
"C  c #6E6857",
"Z  c #666359",
"A  c #6C6759",
"S  c #6E695A",
"D  c #706754",
"F  c #736D5D",
"G  c #77705F",
"H  c #78715F",
"J  c #6F6C65",
"K  c #746E61",
"L  c #777161",
"P  c #7B7463",
"I  c #7F7867",
"U  c #75726A",
"Y  c #7C7669",
"T  c #7E786A",
"R  c #7D7970",
"E  c #807966",
"W  c #847D6B",
"Q  c #827E73",
"!  c #87806E",
"~  c #88816F",
"^  c #878170",
"/  c #8B8472",
"(  c #8F8876",
")  c #838079",
"_  c #88867F",
"`  c #8F8879",
"'  c #908773",
"]  c #918976",
"[  c #948D7A",
"{  c #988F7C",
"}  c #97907D",
"|  c #99917E",
" . c #8A8780",
".. c #8D8B84",
"X. c #958F80",
"o. c #969184",
"O. c #9C9482",
"+. c #94918A",
"@. c #9C968B",
"#. c #9D9889",
"$. c #9A9A96",
"%. c #9E9D99",
"&. c #A49C8C",
"*. c #A19F99",
"=. c #A6A196",
"-. c #ABA495",
";. c #A6A49D",
":. c #AFA99D",
">. c #B2AB9D",
",. c #ADABA4",
"<. c #AFAEAB",
"1. c #B1ADA3",
"2. c #B0AEAA",
"3. c #B5B1A5",
"4. c #B6B4AC",
"5. c #BAB5A9",
"6. c #BFBAAE",
"7. c #B7B6B2",
"8. c #BDBAB4",
"9. c #BEBEBB",
"0. c #C2BDB4",
"q. c #C1BFBC",
"w. c #C4C1B9",
"e. c #C9C5BC",
"r. c #C6C4C0",
"t. c #C9C7C3",
"y. c #CDCAC3",
"u. c #CDCCC9",
"i. c #D1CEC5",
"p. c #D1CECA",
"a. c #D4D2CC",
"s. c #D8D4CF",
"d. c #D5D4D3",
"f. c #D9D7D4",
"g. c #DBD9D6",
"h. c #DCDBD9",
"j. c #E0DED9",
"k. c #E6E3DF",
"l. c #E3E1DD",
"z. c #E4E3E2",
"x. c #E8E7E3",
"c. c #EBEAE7",
"v. c #EAE9E6",
"b. c #EDECEB",
"n. c #F0EFED",
"m. c #F1F0EF",
"M. c #F3F3F1",
"N. c #F3F3F3",
"B. c #F5F4F4",
"V. c #F5F5F4",
"C. c gray96",
"Z. c #F4F4F4",
"A. c #F6F5F5",
"S. c #F6F6F6",
"D. c #F6F6F7",
"F. c gray97",
"G. c #F6F6F5",
"H. c #F6F5F5",
"J. c #F8F8F7",
"K. c #F8F8F7",
"L. c #F7F7F8",
"P. c #F7F7F8",
"I. c #F8F7F8",
"U. c #F7F8F8",
"Y. c #F7F8F8",
"T. c #F8F8F8",
"R. c #F9F9F9",
"E. c #FAFAFB",
"W. c #F9FAFA",
"Q. c #FAFBFC",
"!. c #FBFCFD",
"~. c #FCFCFD",
"^. c #FCFDFD",
"/. c #FDFDFE",
"(. c white",
"). c #FEFEFF",
"_. c #FDFEFE",
"`. c #FBFCFC",
/* pixels */
"S.S.S.S.S.S.S.S.S.S.S.S.S.S.S.S.S.S.S.S.S.S.B.B.B.S.S.S.K.B.B.K.B.S.K.B.B.K.B.K.S.S.S.S.S.S.S.S.S.S.S.S.S.S.S.S.S.S.S.S.S.S.S.S.",
"S.S.S.S.S.S.S.S.S.S.S.S.S.S.S.S.S.S.S.S.B.B.S.`.~.~.`.B.B.K.~.~.E.K.K.`.`.B.S.S.B.K.S.S.S.S.S.S.S.S.S.S.S.S.S.S.S.S.S.S.S.S.S.S.",
"S.S.S.S.S.S.S.S.S.S.S.S.S.S.S.S.S.S.S.B.E.`.B.j.i.e.h.`.B.l.y.6.>.-.:.3.l.~.M.S.K.K.K.V.B.B.K.S.S.S.S.S.S.S.S.S.S.S.S.S.S.S.S.S.",
"S.S.S.S.S.S.S.S.S.S.S.S.S.S.S.S.S.S.S.~.v.0.&.} ] [ ] a.:.} ( ! E ~ } W P s.~.`.m.m.K.~.~.E.M.K.S.S.S.S.S.S.S.S.S.S.S.S.S.S.S.S.",
"S.S.S.S.S.S.S.S.S.S.S.S.S.S.S.S.S.P.!.a.O.W W ] ] } V W [ / W ! ] { [ / G F ,.w.| O.-.5.i.m.`.S.S.S.S.S.S.S.S.S.S.S.S.S.S.S.S.S.",
"S.S.S.S.S.S.S.S.S.S.S.S.S.S.P.E.N.E.y.E ! ! ! W ~ P x E / W ! ! ~ ~ ! W P n n / E E E ! } O.e.K.S.S.S.S.S.S.S.S.S.S.S.S.S.S.S.S.",
"S.S.S.S.S.S.S.S.S.S.S.S.S.K.m.0.&.&.^ L P E I I E M g S E ! W W W W L L F z A ~ ! ! W ! ] / P 0._.S.S.S.S.S.S.S.S.S.S.S.S.S.S.S.",
"S.S.S.S.S.S.S.S.S.S.S.S.K.n.-.] } [ / E N A G F F h 8 l N Z F L P P L K M h S L E ! ! ! ! W b +.~.M.S.S.S.S.S.S.S.S.S.S.S.S.S.S.",
"S.S.S.S.S.S.S.S.S.S.B.N.~.1.W | [ / Q W V d n m l 8 * 4 5 8 9 a h x b x v q n L K P E P P P v  .~.K.~.S.S.S.S.S.S.S.S.S.S.S.S.S.",
"S.S.S.S.S.S.S.S.N.E.~.`.E.O.E W W W W E N 4 5 = o X O . .   O O X X . o - - 8 v N F L L L K x I >.3.i.B.S.S.S.S.S.S.S.S.S.S.S.S.",
"S.S.S.S.S.S.P.S.E.k.a.g.v.X.W W L L L K h o . . O X O X # O # O O O O X X X O * 6 g V K S z n [ } [ / 0.`.B.S.S.S.S.S.S.S.S.S.S.",
"S.S.S.S.S.S.N.~.e./ ] ~ ` K n L K F A v 4 X O O O O O O # @ @ O O O O @ O O X . X % 8 j h 8 A ^ ] ] / / v.E.S.S.S.S.S.S.S.S.S.S.",
"S.S.S.S.S.N.E.c.W W ~ Q E F 8 a h a 9 @ X X O O # O O O # @ # # $ $ O O $ O O X . . X % 4 5 A P W W W P ,.~.B.K.S.S.S.S.S.S.S.S.",
"S.S.S.S.S.S.~.5.W ~ W P L N 6 X   O O .   O & & & # # O # # : ; $ ; ; $ $ O O O . @ O . o 4 l A G W ! ~ E g.~.S.S.S.S.S.S.S.S.S.",
"S.S.S.S.N.~.i.] [ ~ L K N h * X O O O @ X O ; ; ; & ; & # # ; : : > > & ; + + O . @ & O . . % d M S I ! W ` b.S.V.S.S.S.S.S.S.S.",
"S.S.S.S.P.M.[ W W E K v a =   O O O O O X @ ; > > & & ; # # & 1 2 1 : : ; $ & O . & & @ O X . o 9 b F P V R M._.V.S.S.S.S.S.S.S.",
"S.S.S.S.S.I.Q F Q P A j = . O O & ; + ; O O : > : ; # ; ; O ; 1 > > > > ; # & # X # : : # # O X . 4 x n N 0.p.l.~.S.S.S.S.S.S.S.",
"S.S.S.S.M.~.q.6 h v b 9 X O O + ; & ; ; # # : 1 > : ; & : O : > w w e e ; + ; ; @ & 1 > ; & # O X . * B / L A A ,.~.V.S.S.S.S.S.",
"S.S.S.S.E.h.,.b 8 4 4 @ O O & ; $ > : + & # < 1 > : > ; ; # < w r e e e : # ; # O & w 1 : : > # O X o B / W W F x 8.~.V.S.S.S.S.",
"S.S.S.E.e./ G L V l 9 @ O # > : : w ; : & # > w w : > : : ; > e r r r e : : ; ; # # e e 1 > > ; O O . % F O.' ~ H F b.!.V.S.S.S.",
"S.B.K.m.&.[ O./ L V l = O & 1 : : 1 : : , & > e e w 1 : : & : r r e r e : > : ; # # u r e > > : & O @   a / ' ~ W n %._.Z.P.S.S.",
"S.S.K.m.[ W ~ ( / P v = O : e > 1 1 : > : & < e r e 1 : > ; ; y r e r e > > : : # @ w r u 1 1 > & O O . < G ~ [ P n J W.V.S.S.S.",
"S.S.S.B.o.E W E E P x = O : r e w r > < : & > e r w 1 1 > ; ; r y r y r > : > : # @ w i u w w > ; ; & O = F ` Q L N m n.P.V.S.S.",
"S.S.S.K.#.E ~ P V B j % O : r r w r e > & & : e i 1 1 r > & : y e 1 y e > > : > # # e r u w e > ; ; & O @ F / P K M x c.Y.V.S.S.",
"S.S.S.`.=.E ! I G F b % O > r y r r w > & & : r y 2 3 r > ; ; y 3 3 y r w > > : & O r r y 3 r w : ; & O @ A ~ P L v l x.!.V.S.S.",
"S.S.S.~.,.V W W W L z @ O > r r y r e : & & : r i 3 3 r > $ ; w r i y e 1 1 > > & @ e r r 3 e 1 : : & + O F W L F h g v.E.V.S.S.",
"S.K.S.`.2.x x b b l 8 @ O > y y y r e ; $ O 1 e i e 3 r > ; ; r e y y e > > > 1 & + e e > > r 1 : : & + . z K M j 6 ..~.V.S.S.S.",
"S.S.~.i./ L n z h a 4 X O 1 y e y r e : & + 1 w e > e e > + ; r r y r e > > > 1 ; @ r r : 1 r w > > & + O h W K B z ..S.V.S.S.S.",
"S.S.Y.#.( O.| L A n q o @ 3 y e e r e : $ + 1 e e e r e : $ : w e i r e ; > > 1 ; O r r w y r e > > $ + % K [ O.( P j 7.~.S.S.S.",
"S.K.M.` E / ( P F b q @ @ e y r e > e > & O 1 e r y y 2 : O ; w y y e : : 1 > > ; O r r e y e w 1 > ; + - E E L F L k ;.~.S.S.S.",
"S.E.x./ W W W G F N a @ & e y y e w e : & O 1 r r y e > ; O ; e r r e r w 1 > > ; $ r r e y e w 1 > ; + 7 E / [ / E x ,.~.Z.S.S.",
"S.Y.c./ W / ( E L F 8 @ & e y y w w e : & O 1 y r e e : ; O ; e r y w y e 1 1 > : $ e y r y r w > > : + p Q [ [ / W b 4.~.M.S.S.",
"S.M._.4.I [ [ [ Q Z 4 @ ; r r y e e w : & + 1 r y e w : > + ; e r y e e > 3 > > ; & r y e i e e 3 3 > O p W { ( E P N <.~.M.P.S.",
"S.S.S.m.T S L ! W d * @ ; r r y e r w : # # 3 r y y w w > + $ e y r r r e e 3 > $ ; e y e y e 3 3 1 > + p W ' W L L N *.~.S.S.S.",
"S.S.E.v.Z z q g q = @ O : e y r e r w : + & e r y w w w > O ; r y y r r r e 3 > : $ r y r e w : 1 > > O p W ~ W L L c Q ~.N.S.S.",
"S.V.Y.b.I M l 9 4 4 @ O ; 1 r y e r 1 > # ; e y r > w w : O ; y r y e r r r 3 > : $ r y y e e e e > 1 + p W W W L V d N E.S.S.S.",
"S.S.V.!.o.b v h z q 4 * ; e y r e r w > # ; e y r y w w : O ; y r y e y r y 2 3 : ; e y y e r y e ; 1 $ < P Q E A z a q f.~.N.S.",
"S.S.V.!.s.P A B S B q - : e y r e e > : O : e r y r e w ; O ; w r i e y r y 3 > : & r y y e e r e ; 1 ; & G P L v d q m c.E.S.S.",
"S.S.V.!.x./ P G L n l 4 : r r e w e 1 : + : e r i e e w ; O ; e y r r i r e 3 > ; & r y y r r y e ; 1 > @ x F n x b z t.~.M.S.S.",
"S.S.P.b.( I ! W S b l - > r r > w w : ; O : e i r e u w $ O ; r y 2 3 r r 3 > > $ $ e y r r r y w : 1 1 O 4 A L F N x U M.P.S.S.",
"S.V.~.f.E ~ W W S b h 4 e r r 1 w > & + O > e r r r y e : X ; e y e 3 y e : > > $ & 3 s y r e y w > > > @ 4 P / ! I F d %.~.S.S.",
"S.V.~.f.E W ~ E A b h - e y r e e : ; & O > e e r r r e : X ; r y e e r 3 > 3 > $ $ w e r e e y e 1 > : # * L ! W W W M m E.S.S.",
"S.V.!.j.~ W W W F n d - e i e e e 1 : ; + > e w y e r e : O ; r y e e 2 ; ; 3 > $ $ e e w e e i r e > ; & * L ! W ! ! F h l.!.S.",
"S.V.!.g.] W ~ ~ I M q - r u e r w > : & + 1 e r r e y e < O ; w y r e e > : > ; $ $ w e e e < e y e 1 : @ * F / W W I L d 9.~.M.",
"S.B.~.y.H E E I V z 8 < y y r e e > : & O w r e 1 e y w ; O > r y y 3 e e 3 > & $ $ e r e e : e r w 1 > $ % S ! W ^ I L d <.~.V.",
"S.S.E.v./ W / L F B 8 - y y e e e 1 : + + > r r e r r e ; O > e y y 3 e e > > ; X $ e y e < : e y r > : % @ B ! [ } ! L 6 <.~.V.",
"S.S.B.~.1.' / K K N 6 ; y i e w e > > + $ w r r e r y 1 & O 1 w r r > e y > > & O $ r y e r 3 2 r r > > @ X j L P L B l J z.!.V.",
"S.S.B.~.y.P L K V x % > i i w r r 1 > $ $ w r y r r r 1 & O e 1 r r : 2 y > < ; O $ e y r r > 3 y r 1 : O X x P I K B S h.~.V.S.",
"S.S.M.~.t.V V M x q % 1 i y r y r w > & $ e y y r e e 1 + O e 1 3 > : e r : > : O + r y r y 1 3 y e w : O o b ' O.O./ E N y.~.S.",
"S.S.~.a.E F F F F n 4 e y r e r e 1 > O $ e y y r e 3 : O + e > > > 1 e w : > > + @ r r r y 1 3 y r w : O o m [ | ~ K V 9 $.~.Z.",
"S.S.`.-.E W ^ W L N 5 3 r r e e 1 > ; O ; w y y y e e > # # e 1 1 w e e w > > > O & r e e y 3 3 y w e ; O o B ( ~ L F N 9 2.~.S.",
"S.E.b.| E Q ( I L N < 1 i i r r e > : O ; w y y r y y 3 & & 1 1 1 e r r r > > > $ $ e e > r e 2 e 1 e & O @ A W W / E V l d.~.S.",
"B.E.x.[ ~ P A V L n - > r y e y y w > O ; e y e r y i e : # : 1 > e r r r : > > & $ e e 3 y e 2 e 1 e & O @ N W ( / I F h u.~.V.",
"S.K.b.O.[ [ / W L j % > r y e i e w : + : e y e r i y e < & ; > > e e i e e 1 1 & $ 1 e 3 y e r e > 2 ; O X v W / [ ^ Y b g._.S.",
"S.S.S.y.I A n z d 5 @ > e i e r > > : + : w y e u i r 3 : & : > 1 1 1 y y e 1 > & ; 1 1 3 y e e e > > : + @ d P P ! / B ..~.Z.V.",
"S.B.~.w.S V n h 6 @ O : 3 y e i 1 : & & > e e 3 u i e 3 ; & : > > > e y r e > > & & 1 > 2 r e 1 e 1 > > & @ q S x g g q l p._.Z.",
"B.E.k.{ X.[ L V z 4 % > e r e y 1 > $ $ > e e 2 e y e 3 : & ; : > > > r y e : ; $ $ : > 1 e e > > > > ; : @ g L W ( P P k m E.N.",
"B.`.e.~ / E K L A 8 % 1 r e e e : > ; & > y r : e r e < > & ; ; > > : e y e : ; + O & 1 w w e > $ 1 : & ; % g K / O./ Q A l c.E.",
"B.~.5.E W E E W A 9 % e r y r 3 : ; & $ > r e > e i 3 : < & ; ; > > ; e y 2 : & + O + : 2 w e 1 $ > : ; ; @ q K / / W E Z v c.!.",
"B.~.1.E Q / [ W A 8 & e r y y r > & ; + > i e > > u > : < & $ ; > : + e e 2 ; & + O O ; > > > : + & & & & @ 6 F W E L L B Z M.P.",
"B.~.3.P ( { / L N 9 : e r e 3 > ; $ ; + > y w : 1 r & > : ; & + & & + 2 e 1 ; + X O O $ : > > > & & & O O X - V W W W W n U ~.S.",
"B.~.5.E ( / L A b 8 . < s > @ O O $ ; - 3 w w + & > ; : & < d h 7 > O $ > ; $ + & < < % + $ : ; O & & % p f % N L E ^ P a +.~.M.",
"B.~.:.I W E I A x - & V E D N M M M B V C D D M M k c c M D E W E L D M M M b M B C H B h f f f d d z n F W M h B A N g m c.~.S.",
"M.`.8.G x m N z l q c M M B A F F G G F F S D D B V B N B M B M B V D F F H H F F C C D F V M M M M M M M n M q q d Z  .y.c.M.S.",
"K.S.Y.x.u.4.4.u.u.d.,.@.*.*.>.0.y.i.a.a.d.f.p.,.Q K J U K K N V A A A A A V N J K K K A V Q @.;.2.2.;. .R Y R w.t.r.g.h.u.f.V.D.",
"S.S.V.E.`.Y._._.M.P.!.~.`.K.`.~.~.~.E.E.P.b.h.d.d.g.l.P.n.v.v.b.m.n.Z.b.z.p.9.t.d.z.N.b.v.S.~.~.~.m.g.d.p.c._.b.h._.Z.v.N.W.D.V.",
"S.S.S.S.V.S.Z.V.P.Z.V.V.A.A.A.B.S.b.z.M.x.f.d.d.v.L.L.Z.I.W.W.W.N.h.N.N.l.h.g.h.d.l.N.W.I.P.N.N.B.N.m.n.n.Z.V.b.M.V.P.P.L.D.D.D.",
"S.S.S.S.S.S.S.S.P.V.P.S.A.K.K.B.S.S.S.S.P.E.E.E.L.D.L.L.S.N.N.L.S.S.N.S.L.W.L.L.W.W.N.L.S.I.I.N.K.S.K.S.P.D.D.W.P.V.P.V.D.D.V.D.",
"S.S.S.S.S.S.S.S.S.S.S.S.S.S.S.S.S.S.S.S.S.S.S.S.S.S.S.S.P.N.P.S.S.S.S.S.K.N.S.S.L.L.L.N.L.L.N.L.P.V.P.V.D.D.V.P.V.P.V.P.P.V.P.V."
};
