/* XPM */
static char *_ce1232c01134efbf9e184e9d3994812i8ZpzQzyN2eDWs9q[] = {
/* columns rows colors chars-per-pixel */
"64 64 66 1 ",
"  c #010002",
". c #020003",
"X c #030104",
"o c #040205",
"O c #050306",
"+ c #060407",
"@ c #070508",
"# c #080609",
"$ c #09070A",
"% c #0A080B",
"& c #0B090C",
"* c #0C0A0D",
"= c #0D0B0E",
"- c #0E0C0F",
"; c #0F0D10",
": c #100E11",
"> c #110F12",
", c #121013",
"< c #131114",
"1 c #141215",
"2 c #151316",
"3 c #161417",
"4 c #171518",
"5 c #181619",
"6 c #19171A",
"7 c #1A181B",
"8 c #1B191C",
"9 c #1C1A1D",
"0 c #1D1B1E",
"q c #1E1C1F",
"w c #1F1D20",
"e c #201E21",
"r c #211F22",
"t c #222023",
"y c #232124",
"u c #242225",
"i c #252326",
"p c #262427",
"a c #272528",
"s c #282629",
"d c #29272A",
"f c #2A282B",
"g c #2B292C",
"h c #2C2A2D",
"j c #2D2B2E",
"k c #2E2C2F",
"l c #2F2D30",
"z c #302E31",
"x c #312F32",
"c c #323033",
"v c #333134",
"b c #343235",
"n c #353336",
"m c #363437",
"M c #373538",
"N c #383639",
"B c #39373A",
"V c #3A383B",
"C c #3B393C",
"Z c #3C3A3D",
"A c #3D3B3E",
"S c #3E3C3F",
"D c #3F3D40",
"F c #413F42",
"G c #444245",
"H c #4C4A4D",
/* pixels */
"20cx1*:+5355=o=t5@wgzX@5:599:$&:X51=rct$@91@161521&$9dw@$@9giat@",
"MlNb,.*1q,%=1333XX19t&$101&&121&195:wgw=X@:551$&6w9&XXXXOX1www2X",
"gegbq*7zt7*=5q3%&1XXX=:aw1&:991$605:=:=O5X:9:&>11wt1OO:20:$&&11X",
"jw0t,.#7173=,93%@6@159@51111::::@&::@=9aa$19O&t0&:125wajzw>@$12&",
"p5@XX..@%11&=53+59&w9w@5:::@X@:60wgi::aMw@9t@2g55:&&:6tgww9551&O",
"oX.&ew,,wt7,15=.t5&1:19t@&&1651:ggcg&&taw&50@9Mtgw1=$$5a161&:=&&",
"<;&qvt+%tsaq31,=@X5w55w&&&1war1@&@55@5ztg:29@1dagr995:2t:1@X&11r",
"j4.:t%.3.3pr:%9j@Xw1@1zX95::&::1:@11@5a:t@1t1X&:w1:wt9=&@:@X9iwa",
"w%q=.@tt7o:*+0jmaX51acX1:@@w57c79t9X:XX:::5X&t5&@&+X9a9&1X&55696",
"9X1,&pztj7,o5Cg&X&,@&@X=@:9a&&VCzMz@1591&&1X:gagX@11@X@55:5wwwww",
"5@::3fawtt9X&q&.3M3==@w&7wgg&XttgxaX115@:&1@&95w@5cz:@qaw5159wgc",
"93959ttg7tt=@..5cHw35:a1&7ga:@1&5&1:w:::5191:&X@.1za&9g,&:&@&:59",
":@1:=5,9q9015:Xqtjq:&@1tX5zt@X.@X.X@9:9995w91:X:X&95@waXX,:&:&X.",
":.&&%&..+:1@:7%oz95:55&w&:w1&1&1&@1X&:t5w5w1:11ww:15=&117a9&9011",
"w@wt,55:.X1#X:o.c5:1aa:1&X@X5cagjwt115a15:1@&119w&@1:X+:gMq@wgtg",
"@.wp+:gmz&,957:*.X.@1:@=wwa:1w19wX@&:X1@XX:@&51511&:ww1&5g5@9w&X",
"&,%95@wtX@9twt9@351&@&:1p5t9.1p@X@1:59&1VcM3X.1.X35&,pw@,9qXX:..",
"tt,&@&9@&%1twtw:599511::,1aa::1.@:5&17&:twt1:wztz9&&:=1w&X@X5w1q",
"w@.5:+1:w119w95:,311:1:&wgcg1+X+twq:7p1=71=&@tfwm1@qw=%q1&&@7f99",
"@.:g7+,3t1115tw1&&&@:553&1&+XX:cga9X,w:&@&X&Xppa1&:qt9,=1tt+&a1+",
":wcw@15X&=::5gz911::1999+:@@3,3Mapt&&51t5a99%519&=&&,55:X9a@@9:@",
"wqq&&915%&1:=9t1:11,11:&1tazcw&55wa5&&1Mgca9=@X.,&%::&&1@&3,::+5",
"5X@1a5+Mt9ww:%:1&:::=::&.:wtf9::,@::,&Xw&:&%wq13&&:51%&15&&&3,X1",
"X:pgCw.zDgzMt@:a135:19tg:15,&&:5z:@5za%&%@+XMmjt@15:&19ww3&.1w:&",
".wcw@@@@wt:&.&XX@95X&5tagXXX5@1&pg%@ap1:,&5gzzw&@:559tat=&:11qgg",
"%:11:&=&XXX:::&,@&199:1t:&aw5&5.:t5@:::11@@9a9:&w93:@&@X3571:wfw",
"5&&,:&:3&X9zj:5c5&%9w&X&.1Cz1:w%X15@X:1:1:@@71X:@&&&1991&:1:=wa9",
":135::5a::zct.1Mc9=1wa9X:&ag&&at::5:5cg::g9X&5::&&:5wtw5@+:,:5tw",
"@151,5wtX&at9X5zt1&&1ww&5@=5@3aw:@:&9CtX1Mg%=5,551:155:@1%:9:%:3",
"111&195@@@:191111X&9@X&&:,&==a9@&@5@1g&Xwgt55&&w51=&:&&:1@&5,@%%",
"w5111:%X9:.&@:X+51ta::w5&9&:1w&&wtz5wg&9tw531&:1w9755::11@@:5t7X",
"5:1w9&:wca:9&11a&&9:@aC919X55:Xgwwt@9tX5t95&@55X&:7agpwt991,wCgX",
"X%7ztt&w1&95:1@99&@1wazCCr599gzw9wg9:wj5@1a@:@@a5951Ct:1&:9::gaw",
"1@17w5&&XX:wat@X:19w91wjGzgdwta5ataaaMz:Mtt:ta11wzf+1&&:&X:@1zgw",
"5.:.1:5tg5XX:195::11>:::grtw:>51&&51:5w5:@,15zzctztX:X&11&1&1t95",
"%X5&:&9Mga&&&@991:&X@11::&&=@@&:@1w7@@:5&7azXqgVt:&&t:&&15t1@XX&",
"@1ta19:w:9:55&5&&56:@:9a:&:161$&wagt9:+X9tttX=1=5XX&g9:X:50:&@X:",
"3119:t&515@&::1@>1565555::&9gw&Opcg1:::5.:@&X&5&X&9@wgg:&::$tz6t",
"1%@X@519&:9515:&0:&9tw:X51@>at&=1gw&:waVX95:1&9:@5t@1ac1:1=OaCwt",
"X.9&:&&&&1z5&9wMw55ww:@:ca&&w9:9X&XXwct1Xw1X9&5Xw9w&159X&w5X6t&=",
".aMX1C51wt5&15wMc519:$0ngtX15@g1:XXacta5Xw5&95&wa5&&:XX&9:2::1@@",
"tcC@@9X&:951tgzzXX@@O5w17:X5t0tX1::tjzMa&5:&tt121:&:591@2==@=:X&",
"gtc5@:@w@&:::91XX2t5>rt&w1@:5w9@11:15wz9&5&:ta::@11:wza&>:15gt&w",
":@99:55gw:99&X@X29gg>X&:1%9&X:&:55&&@&5&@15151&=:51:5at:&@1rMiX>",
"&X&&%,155&wc5X&905tg1X@5.Xggwa11w5&5&X1&=1511:&::=&&::::r119g9X$",
"5,@+@&&=&X5ctX@atwtt925:,@tggj5:5:@51&1:5:&15551:@&51@X&x51:121w",
"55X&91:9915da&Xtwta9&=1:qXX&&&&1:1&:::5&5=:555551::99=$&5X1:X@19",
"&:.5z5&wa9@:6OX:azMtOX9zt:%1&@wM9t6516tX=:ww:@19w5:151&@:@xc&:2&",
"1&:9at1@zp:@11X.&X@.&9wgX&55,+@w9t=$tr&@5&=z5:X@&&@@&@:tt1@99&1:",
"X::X@7w3@&@@9aw9XX5111&1X:1:1555@ww:&@:d=19w@@&::1112:1r@@@2&X11",
"199&@:&.1q5&,5:&1:5111@&595&195X:55:@&1919t>&1t9&9511::5&6wt>X1&",
"w:&195,:tca::1359&&&1w:&21:&:97@5@@1wgwX2&:X1tz:&52&&::11acx9=5X",
"a:.@115w:w9@@:15:@::50&$&X&115tt@O:9ajt=w&:&azc1@551551:&56955w&",
"155:@:35X:,&=&@::1w5=::ww&5w::53@=&:591&9:25w9w:X15909::5:X&1wz9",
"X@155795&:15tq9t519:@>9za199&:5.16&X:=@&&@&:.@XX:1:151:6a5O1wgx9",
"w&X11%X@51@&:+X&XX&&1w9w&X@::az:@w5$:&:a90>5@w3@a9&@&&5gi1@0jzg&",
"@1a:@wwg@1::pa992g@Xtt:@&651tza5@1:1gt:=7t5:5tw5X1t5a9w9X55@:95&",
"@:9&&wtt:&.@tzt5ww2ww@@&Ma:=jCzw:1&>it>:&:&:ta5@1:919@@&:01X&995",
"@:&:5591=&=:&::@:&=9@Xacca@X1jr$21@O15:1&1&:53:3g&@@1@11X:&X:95&",
"&1X55@1X&&75XX&XX$XXX:zctMa&1zg>>56552:&w7:&:&@1q@1:1:ac&1&X&1&:",
"9w&11X519@:519t5:0@&w1@XX11@@@@@@6jzi9:Xaw1191+XX1ct1.9gMz5@@&1w",
"tt:::&tg91:::5gcciX0D:X&1@@5w@X9:195@&:@wjgw1&1t9ta&5&::za1:115t",
"5:1&&9wa151:&@9cc>XtM&@gr=O9g>@9:@$XX&5@1zz9%@5cca&Xg9&@1&@1aw:1",
"..1&:t:1::X@951w2XXa0X$21525w6:&&@1wwawX@5:&19:X&1&&GwX5t:X1gt::"
};
