/* XPM */
static char *_5bb3b8b80ac4779e7856616ef192330e3sjqNGt0wcIwsOL[] = {
/* columns rows colors chars-per-pixel */
"64 64 84 1 ",
"  c #150800",
". c #1B0E04",
"X c #1C0E0B",
"o c #1C1206",
"O c #1E130A",
"+ c #1E1510",
"@ c #221406",
"# c #261906",
"$ c #22150C",
"% c #28170F",
"& c #251A0D",
"* c #291C0E",
"= c #231611",
"- c #261A12",
"; c #2A1D14",
": c #261D18",
"> c #2B1E19",
", c #301F15",
"< c #2B210E",
"1 c #2D2115",
"2 c #2E221A",
"3 c #2F281E",
"4 c #322415",
"5 c #342917",
"6 c #32251B",
"7 c #38271D",
"8 c #35291D",
"9 c #3A2C1E",
"0 c #3B311E",
"q c #2F2820",
"w c #322621",
"e c #362A21",
"r c #3A2D23",
"t c #372E29",
"y c #392B28",
"u c #353025",
"i c #3D3124",
"p c #3D3229",
"a c #42331E",
"s c #412F26",
"d c #423425",
"f c #463825",
"g c #483926",
"h c #42352B",
"j c #48372D",
"k c #45392C",
"l c #4A3C2D",
"z c #503F2F",
"x c #423731",
"c c #463A31",
"v c #4A3D32",
"b c #503E30",
"n c #4E422E",
"m c #51432E",
"M c #4D4134",
"N c #4E433A",
"B c #524435",
"V c #544834",
"C c #594B36",
"Z c #52463A",
"A c #58473D",
"S c #55493C",
"D c #5A4C3D",
"F c #5D523E",
"G c #61543E",
"H c #514640",
"J c #564B42",
"K c #5A4E42",
"L c #5D5143",
"P c #5D5249",
"I c #615444",
"U c #62554A",
"Y c #65594C",
"T c #6B5D4D",
"R c #655B52",
"E c #6A5E52",
"W c #6C6153",
"Q c #726355",
"! c #736856",
"~ c #72665A",
"^ c #75695B",
"/ c #7A6C61",
"( c #7F7363",
") c #867A6E",
/* pixels */
":+-10iu301::+O<<++3::3i2tu<e9*5Cnf5**9d4#459554;%66er>2;e-;>-$--",
"Oq28u5ikcq:++3cSN3-3:3uueppMg<0FYLj9gW!C*nTEETl#1e4wr6ee6eyxe;;$",
"+e<3i529q<O+<uNFWc333133iNNFB*5bVDB59LTMdDIVVIl*6pewpeiiwrjh4-%$",
"13p05551uu22upkn03<++3u3MNNSG57g<df4<MDglBBMBMd*4sehvcMkje62-$;>",
"12Ig#flBKJs;180i10i8420hZSAAIdjbd9949ll9ZDDDCBd*1rrdNMNNS5;1;<69",
"6;B9#BGGDKy-1550VCCFg12NALUDG5gGCng04<44CIFBMBd*dliikgkfh1*0p754",
"76**aCFmbAh,dgfnnnMCZ09NALIbA,sCMMBl440gCKIFDB9#vSkdhii2129iiir1",
"6b#aGzmzbAs#9gfnVCVVLCgMZVAvIazbCBBl9595UCBDVd68gZvkMgi5*0Mkigv9",
"6l4gGmnmIIs,bLCCnVVVFTPVzzAjCjmVbVlZf#99dmDKCvf5kCZklMlf1gi5inZi",
".9a4affVAj6sIDbGVVVVLYYLAzALIdzWMnCB6#1d0dflVZg4nPDihZM9iMhhnNN5",
"*sB5aFnnljrjIIVVfnVFYPLFZdbGIagWTVDj454dllBDYTV9NPDpnDBrhMkMZBM0",
"%;0<5n006rw6sf99053knkui,,74s,9fM5i5#<11fdjVBBg10ie5ir66899idir4",
";=;5<<<i8:-2>$*iSu&:6w3e;;-#ffn09fMBd0DFi<49599#12446-@-e4e6e424",
"w69NV03ueqq2:;iVRc13peepy44rFYFCjVdgfdITC9iVBgd;5cvt6>;>e6eetdtp",
"<2pkSno23pu+ouMnJu1qptq2i22iPLILILfpldgDL9gTDld46xcy4>>ey,yrxvt7",
"qpPupnokxppq3ucnHp23ttupuepiFFLFVDLCIg#hV*9Dk5kBeerry;;xZvZvAKr;",
"<kBBCf5nDkS91NBZUhpvpetr8r9hCKDLDLDDLDMk91dDl9hvj4k6>r-pdkvkhi62",
"<knMLl5MVlKj4jvVCjMSkephtr8kSNvKDFZCLDMMZhkvhpr4v-tkAD%19dkvkg02",
"1BnmUB9MDDEv6gBKKhpMdti9e85iSNkBZFZVDDSJYfpMv96pv$7cvx-rKJJZCZMh",
"5DDBTV0MDDId19cKUvcZZvk55ppiJYKMZSVNCVCLLhkDNerDv6hjpy4JLKZMMNch",
"6CCnDm9ldfs#@46jircDZvh52989cCM9MMnplkkMiNVkhhhcc>6eyy6svvvvHZvh",
"#hgdd049,6%@-;,;1o1rrhci9&2p922O59545514&ee566>>r;--26-;>>>;2e6>",
"#9i44444*4%%6r4;5&-48cJZc2kJ6<81&<&&11&&-#-6r-X>py66;>>ew>-X$>2w",
"9dg95ar;46$@9ye,&;ih6iNCk6SL1-h11115ir41;ityr4$6hwryr6;6>>-==>>w",
"1gZCjrjpr%$47e74$rhMi1hh&hZN91e9<9p9dr41jPj%>,;,c42reye:>,=X=yw>",
"0C51cvjCBh66yr4>-iMZp4hh4kMk52p95dd88r88HKxwhh>wvp6e76e6w>=:>>>w",
"sIc9BBvJZBh6yswwpMSLNpp46kNMe2p9tck57rteJvshvx:,Zvi8pr6e>;>ww>>w",
"rZJDbBAhvAh4ssyhMvNJCve$tMCN91ip5kktdjt1HvcHJs>>NBhhvj64-ey6>ww:",
"dbbBBAJsHPv,yysvMgvMMBk8hCKM2&kZehhpvMi;hvPPZt26vDCMMi4e-ey6>ww=",
"dUZvKBjZPPv,6dvPSMSMcvNSrNKS9;iMkMkgNBcpevPPkw24VIYZd8pB6>;wy>>>",
"9IZjBr7BAvw;6jAJZvZljMvZ4ivv9-eivMjixxhxyrxct41-nVVg59vZd6-,7,>>",
"de;4>;rrjw,;whjht;tphNi9ie11&&9eppr7re4ph46yr621i442<ikdjh,%>y,X",
"-:-2:O2-2+&&up6pr>;>-252*<O#ih5&1;&1hckk91501#59O<5iki@1589s7,,6",
"xHNHp<32512uSWW~Ry;66595414ili1* .&kKSSLL9k!TMgVkMLUUM14IDZBld99",
"xHNNt-2t132pSSNNJ>=pMSDZd5iNMi22o ;ALchBl1p(QViMMNCDKg17JBjgss77",
"wtte1+<epMunNxnuw:eNJUUNCigDlire;o;NN8;8419QVMilMcnMBf;ijjs99ass",
"ppe3w1+2RPpu6121-$yvSJDgFMMNkpp4-.;xcrre,6pUkvjvMgkNLk*4jjdassad",
"cptep6o-23O&24phx%%xZSSZnMBMir4$-X>vchy66-2KvhtvniicSg1rdgjs99as",
"eet8p8owphkkvMkvYy>dMcMh9vNnd81%>@6jyee4eX6KMervMhhnDneZjvzjddss",
"6ep8pe&nVNDMZJkZZreyicke9NNMvr5p4X>h6>wr;$yJj;rZkhMCLn6Mbvzjjds4",
"6jhp91pLBJJZZZDJK744hp#6hZJBvct6;@-eeee4>=hPc-4xZBMvFj;ZjgA9zb7*",
"*1*;414vjrdcj18Zro-4-281shy6ee48$X:4>;;-$.;w>;rhi8954948j47@rs*#",
"5;#;hgkMcc74pvjy*nDT~St4cr--rjvKMdre86e6e6>;;62.8iMMrhv#O$g9a,@,",
"Bf9hBKDKIUd$dEK4dWLU~c6reyhhw7S)EB764ti2->r6$X-;NY!^LLT7.5QQIssI",
"UDVBBZDDDB6;jBhrLFMLM46erryye4hUKh55rhi5j6&8t42riDZVkil9$%AAAs7G",
"FCKDBBAZjr$;BvhcIFDYUt6ehw>eyeekggMNMMk9Ec5vPc219ZZZZhhM9,bbbs7G",
"mMDIBBAB7g;$xJvZFFBlAh;j6hvx7;sUknVVnMki7MKPSe%8ikCSCv9j,*Zbj4,b",
"lgCFBnj7pKj$;,iJLgLKcHNvyhye6ehKSMnknVLVgUUJJj61kiNkhd4694bjb97A",
"gzbzds76BNp<:3pNPJHZHZvvywew;-yJckiuSJk3NPHMJHt1ihkt77hvr;,sbjwj",
"dsaa749dhht23qupvhrrxvvcvy76%=sKckncNNptPPHNJJp3epr5wxvvw,esjs,s",
"s,,,w68re5;13u3:yee6yryrvh6;=;xPcNNNSNMNHJNNPJpqereehZZj,wdssy7j",
"ss,,6441ht62pk33exvjryryhr>-$>hKJJSSSNNPMNNJRRNurrrwjvx6$-w,%ssv",
"jsr62er844--33<1>eyw6;>>>>-=$%6hkkuuiu5tuppMvNc26e62et6$;;w>,jjj",
";;2>;;*;4666i00phw$X=$$@O=$O$---+<3<u31<3231:qe-;;:<%-;;%X%>%>%%",
"rtvJZiwpZSVCIIIT~v;;2>;2----=-%=3xkkpNNNM3+2+2t222ww4;;es,jvswws",
"NhNRJyeNckpdllVL/Z646;>e46,>;6e,pLLcuMHRM+O22<2teekMc66tw;jbw%>s",
"HNpHP1tp4pvjfzlDYB-66yphhpjHc8iikYSxu3kSx&222tetqucNp21p6erry76e",
"xxuMJii6e444jIADUM2hhypvyvJJvtpuNLNcVcxue:2uepJRRcNNHnephe>ehhsr",
":upNN3r48er6sjzLSc2idhjMkZMkrhM8cSkxNMu3<2:puuRENNJNNMupve%4xvjh",
":upMSwip4hAh,,sLDN19pZKSZZgpkZLikSMcSMMM1:1i32NMNNMNPN82y6>;yvvv",
"333kJr418hvs76sKKv1rrhcMMvkMNNn3kJNMNcSJp2quuuuuNcxNKpO22e4-wKPA",
"VnnnJ6&;7eye76sKPv8Zh;1vMMvZnup8xSNNNNNNN<twuMpuuNJupu+utt>.6KUZ",
"LFRSB41822e6>;6AYApLN08kMZZSk0nnpFVNSMMxp:2uuxxucJc3MPp1p9:o>jvv",
"00k<51%-;@;;e2>pMk*rpk9;4thciupu3xpuuuuu221kpuc3kuuuJM:u22;$->wy"
};
