/* XPM */
static char *_8530_1d72db2b6e31f884d7847e3c374ecf1e7f14393526df06d0a616e9794a0eb936[] = {
/* columns rows colors chars-per-pixel */
"64 64 57 1 ",
"  c #565F6A",
". c #57636B",
"X c #5A646E",
"o c #5D6671",
"O c #5E6973",
"+ c #606771",
"@ c #626B76",
"# c #646E79",
"$ c #66717C",
"% c #6A737D",
"& c #667280",
"* c #6C7681",
"= c #6E7883",
"- c #707781",
"; c #727B85",
": c #757E89",
"> c #797F8A",
", c #76818B",
"< c #7A838D",
"1 c #7D8691",
"2 c #7E8893",
"3 c #808692",
"4 c #828B95",
"5 c #858E99",
"6 c #888F9A",
"7 c #86919B",
"8 c #8A939D",
"9 c #91969F",
"0 c #8D96A1",
"q c #8F99A2",
"w c #9097A2",
"e c #939BA5",
"r c #999EA7",
"t c #969EA9",
"y c #999FAA",
"u c #97A0A7",
"i c #99A0A6",
"p c #96A0AA",
"a c #9BA3AD",
"s c #9EA6B1",
"d c #9EA9B2",
"f c #A1A5AE",
"g c #A3A8AE",
"h c #A1A6B1",
"j c #A3ABB4",
"k c #A9ADB6",
"l c #A5AEB8",
"z c #A8AFB9",
"x c #ABB0B6",
"c c #A7B1BA",
"v c #AAB2BC",
"b c #B0B4BF",
"n c #ADB6C0",
"m c #AEB8C2",
"M c #B1B7C2",
"N c #B1BAC3",
"B c #B5BFC8",
/* pixels */
"jddcd02$,qpdddpp22:&=&11<2p09q7%$$7egvlvk9<-@o428req5:*%%%,0qddd",
"djclda2,#,27q01=&&&&=22qpddqe972$%4svdavhw8-o;88rjjat872,%O$&,2q",
"lddpdd77&$*%&OO&&&&:0edddpddddp9%=8uvj9dgae;@7rdajcldjda82$$@$$=",
"lddsap77,$%@%&:1;&;:t0epl7qsjjj9,,apsv9aka9;%8ecvfjjjjss85$O$=$$",
"pdapqqq2,O$$,7eaq=;=aw1epqppdjdp8:yjgcrjxa9;<9gvbfdjjjjfe9%@,qtq",
"dpqpe07=O=0q7220nw&1de4582ppasa9q<8vgajjxjw:7ivbjjgjlvvjuq*=0dcp",
"dq0q0,&%2sclt27qdm>7ntp0eqde8qu8q44kaeljja9,qsbxjvxkkzlaaq%2accc",
"e05;#O=qdnsdpappqnt:tsaapdjquuuuq54ja9ajjuw1ugvxgxxcvjfah8*0cclj",
"2<$$O$ulcddqdpcdpdn;0tqsahhyaapdae5deeehj033eixjfzbkfglaa2<abjsb",
"&OO$@*pmdcddvdpcdpl02d8=6hzzlndet71eyeazy5:1r9wfyhjhalxg919lbvll",
",&,$@=jccddccdlddplp1dp>8yyhhscaq,#<eyde93%;69waahfhfasi85pljlxj",
"<2u2$Ouclcvvlcmpddnd20dejhetttat1%$*2442>%#-%3rasyraarps47jvjjjs",
"222dq=2cdvmlvllsdddd8>e0etetas0,*$&&#%##*#$>-%<4yyyhju99<evlgljj",
"2pppp2$alvcdlddppptd3&34008421;,2222*=#=-;->64>>4666ii81,aMjajll",
"pdp2uu2<clcddccdjjs0*@&-*>38012p000q;OO;-3>3fjrwee4>,%%%$4gljckj",
"dddlddc,7ccddddcznd:#$O#2e8edepcsp7p5#&=>86yfjfkkkaw1%$$$#5fkbMv",
"pdcppdpp,aBdmdcNdq,O$$$%q20qdppddndt0&#-51exgalaikyku=O%%O=5jlcn",
"ddlpppad0,dcNmnq,,,1,O@,eqpdcndcddspy>$:44ivxga9rgzhj<$#*$#@:qlj",
"pdddajdad<&2pq1,,112q2$=qqddcndddddls2&>9ujxgii9rrkjv5$-56q1#$7a",
"dlcldccdd2O&$&<2qq2qpp$,q0tdndcccnnns0-6lvxgggjjfahkx<%6t4qju<%%",
"qpddudjjp#&&=2qpppdp8p2,e0qdnclcmnncls1ejljgxxxjjfjla,,aywwvBj54",
"28uddsdu2#O=pdqpqddpq2q%0qqdlcnnnnncjh4tufjkxkgjlajcs-8lzh9ekvjd",
"puqudjd8##,qqddpldqpc8822pedlnnnnnndhy4wrkkklglvcjlvr,iljjaajvlc",
"qdpqpu8@#&2p2dcppldllvdq1teddnlndcdpyw>6wiiigxxxvvxj36lgjzlkjxkj",
"qpq2q2,O$&2dppdpqlddcccl02ddslMldlewy1&<9ryfxxggfkxa<zlaajvjzkjl",
"2pqq2,OO$O2ddp2cdcddllmlp1sdldsvljas0&o%>99wiaagkak94jfvjzzjvhcv",
"$<2,<2<,&#$ppcdppdddcccdp2qccdddja8:#O@@++>ea99gga9<8yhhzvhhfwjc",
",@@&22pq2#,2qcpddddclccdq2=21171;*$OO&O#%++%>>33<,-,94ahvvjkjwaj",
"2=@2pppp22,,p2pdldlcdddq2&%**<27tq0:&&O&X#>4553%,@%%<6rhkhjcljaf",
"2,,pudpdddp222pdp0qdldq<$=2qpdlcjnd7#O&X+;rkggjji84%%5hhaajlallv",
"2@2duppdccpd222222qpdp2%=7adcdcdjpty>X&O*wxlgjxjjlg9;%wjajaargll",
",,dpqdcddcd2p2ppttdd02,&<2cdccjdqdsnw@&&4ejxjjdgaavs3%#,fjwreaa4",
"$2pppscddddd07,0pyy3:&&&7sdssllttplml:&&wjajgajsfhjbu*#$<7adq7<1",
"$0pttdddddddq22;:=&&&o&&eyssq7ppsddnc2o&gkagjjkfebkxd%o$#$%12,=d",
",1qdpsdappdpq02$&O;&&&&&0ssy77spdddcnw&4vblggajcajkkp%O#O$$%*==a",
"2220spaldddaqq&O&:>w>@&&2dssttdppldlny;ybvjfjjjkjyvle=oo$4e7%=<p",
"=,<,70padppd81o%>0ttp2&&2sdsdtppyndsst;szkjkkkhkzjllr$@;pdml2=$2",
"2<:,,272702q7$$2tnnddpq&:djsdspddhssye:yzvvcjgjvzljv4@4acddlc7%=",
"ye2;=;=2121q2$<8sqdnpss7:pnasldcdsyssw>7kzlgjjjlhslz:,hjsdsllq<$",
"40e:$@*$&&:2%&2qqswtlssd:2djddddnhnjt>&:8ajjjfghlhz0%ejjdptpssu$",
"w>e3-&+-%O#%-:qdsppppddd0:2lldncnne3>&&&34fkgfgfcgr38lgapdajjpt7",
"f6r3#+-97;%%%;5upssdddcdp11qtpddt6>&&#%$%%>69rgja94,ucagjlcjeqa0",
"yww>*3818w8:#+,5ttpllllde:&;&:224>;&#@&+%%--%>,3<:;%3jjjdaadaq0*",
"e69&:ww8wyf01%#$<0sddpsp>=&&&:12063>####%3eyr6>-#o%%-udadaaa0,$O",
"664#1ahlhyyfa5%#$;2qppq2&&&:20adsy02=&&#-4wrfaww4,$$;8eddu81*O%2",
"86&*yzkshafyhw3:$@$=22,&&&=2tdndssyt:&@#<6eygarygw3%+,598,$@O<0p",
"w>#4zyhjhayyae83%%%%$&=&&&;7dnndsssa5&&&4wafyeerfue,+$=#$o$#$2pa",
"4->ejffkawhzh448=%$%&&=&&&1tasddhsyyw=#&werrrerffi9%$OOoOO$@=2tl",
"5-6thyazjwyyja65&%&&%#$%%#38ppddndsaw:&:we99e8aawa5O$OOO@@O$$2ac",
"*#5yjshjarryhae1+&--#@%$$%;40addsddsa1O>yw999eurar$O@%O$=22=$<ua",
"#*6tfjjwarraja6&+:53>*##$$%<5asjdssap5&2yeaffieua1o@@@$<77u7=$qu",
"X&1tfjfaa8jjyy4+>0w08>$$$#&;0eedyssda2O2aw99e9ul9$@$@$248uuu7$=q",
"&X%wyealawajs6;4yhyhhw>&$$&&36qpssssw3O1aywagiuu%$O+@3742duuu2,,",
"6&o:6etahawte;:hyhMMnnw*#&#&*60eydss01#;wsyggi91@O+O,44qudcjqau%",
"a3o@*5q6aar7%2awyhzzahy6$&###:476eee6>$@>9azxi4%O.$;944idcjdjju2",
"h3@#O@;1688:;weyhhahnles-@##&#=140>;-%*#+@>494%XOO%84989ddcccddu",
"r6#@#;>%%%+$9wffhhwaMnhww+++-&&&=&;>>33>1%%+@+o@O%,2uddddcccdcdq",
"r>+-<ww8-X+,6whfyhwyhwyww3+#&@&&&&3>6ww642<+o@@oO@$,22udddccgdcd",
"w#%6e88e8$ 46ajayye6hhy>ww&&@+& &&66tyhyq82@oXoO@$%;22uuccdddddu",
"6-6e69jww6@<9waayhhyhyyww3-&@&X&&&3washhi82@oXoO.OOO,22uqucddduu",
"-wr6eaaa8w4%96wfynhjww6w>&&#&++&&&>wysyzuu<O.OO.O@O.O$22uuuuupu2",
"66wfarhaaw8;<w8yhzyyw6;&&&&&&&&+&&:wwyyngu;XO.O@,=$OO..,2q2uuuq2",
"eeykffcvxae6%88wy66w>-+&@#+&&&+&&&:6wyyzx8%.@.$272<;=O.O$,2u2222",
"yykMvblklahr:*e663>&+@@&@->6w>+&&&:>wyyzi7$.O@<uggi222=O@.$22=,2"
};
