/* XPM */
static char *result[] = {
/* columns rows colors chars-per-pixel */
"64 64 217 2 ",
"   c #322B16",
".  c #373019",
"X  c #3E361A",
"o  c #413717",
"O  c #473C17",
"+  c #64551F",
"@  c #725E19",
"#  c #7A641C",
"$  c #7C671F",
"%  c #4C4221",
"&  c #6C5C26",
"*  c #6F5F27",
"=  c #615428",
"-  c #64572B",
";  c #675828",
":  c #6A5A28",
">  c #6E5F2F",
",  c #7F6B29",
"<  c #776730",
"1  c #7E6C30",
"2  c #836D23",
"3  c #897225",
"4  c #897227",
"5  c #8C762C",
"6  c #927925",
"7  c #977D29",
"8  c #977F2B",
"9  c #806E31",
"0  c #887534",
"q  c #8C7C36",
"w  c #8D7A39",
"e  c #917C30",
"r  c #9C832A",
"t  c #9E862B",
"y  c #958034",
"u  c #978135",
"i  c #9B8430",
"p  c #9E8631",
"a  c #998335",
"s  c #9F8938",
"d  c #A2892E",
"f  c #A88C28",
"g  c #A88D2C",
"h  c #AD912C",
"j  c #BB9D2E",
"k  c #A68D32",
"l  c #A38D39",
"z  c #A08B3D",
"x  c #A48E3C",
"c  c #A99033",
"v  c #AB9336",
"b  c #AE9638",
"n  c #A8923D",
"m  c #B19631",
"M  c #B59931",
"N  c #B79C36",
"B  c #B09838",
"V  c #B1993A",
"C  c #B69C38",
"Z  c #B39B3F",
"A  c #B49B3E",
"S  c #B49C3D",
"D  c #B79F3C",
"F  c #BBA03A",
"G  c #B9A13D",
"H  c #C1A431",
"J  c #C7A830",
"K  c #CAAC34",
"L  c #C7AB3B",
"P  c #CCAF3B",
"I  c #CDB03A",
"U  c #CCB03B",
"Y  c #CDB03C",
"T  c #CFB13D",
"R  c #D1B132",
"E  c #D0B238",
"W  c #D2B43B",
"Q  c #D6B83C",
"!  c #D9BA3A",
"~  c #9A8847",
"^  c #9E8B44",
"/  c #A69143",
"(  c #AB9646",
")  c #AE9841",
"_  c #A9964F",
"`  c #B79F40",
"'  c #B39C46",
"]  c #B89F40",
"[  c #B29F50",
"{  c #B7A047",
"}  c #BBA342",
"|  c #BEA642",
" . c #BBA447",
".. c #B4A04F",
"X. c #BDA749",
"o. c #B9A44D",
"O. c #BDA750",
"+. c #BAA656",
"@. c #C2A841",
"#. c #C0A843",
"$. c #C1AA47",
"%. c #C3AB46",
"&. c #C5AD47",
"*. c #C4AC4B",
"=. c #C1AA4C",
"-. c #C6AF4C",
";. c #C4AD4F",
":. c #CCB248",
">. c #CAB34F",
",. c #D4B840",
"<. c #D4B842",
"1. c #D3B947",
"2. c #DABD42",
"3. c #D8BC44",
"4. c #D0B74D",
"5. c #D6BB4B",
"6. c #D3BA4F",
"7. c #D8BF4F",
"8. c #C1AC52",
"9. c #C2AE54",
"0. c #C1AD5A",
"q. c #C6B051",
"w. c #CCB550",
"e. c #CCB653",
"r. c #C9B254",
"t. c #CFB853",
"y. c #C6B159",
"u. c #CDB759",
"i. c #CAB55C",
"p. c #D2BA51",
"a. c #D2BB57",
"s. c #D7BF57",
"d. c #D1BB59",
"f. c #D7BF5B",
"g. c #D1BB5E",
"h. c #D4BE5E",
"j. c #D6BF5F",
"k. c #C4B260",
"l. c #CDB861",
"z. c #D2BD67",
"x. c #DCC046",
"c. c #DFC34A",
"v. c #DCC455",
"b. c #DAC259",
"n. c #DFC759",
"m. c #DBC35E",
"M. c #E5C84A",
"N. c #E1C651",
"B. c #E5CA53",
"V. c #E6CB53",
"C. c #E5CB57",
"Z. c #EBCE52",
"A. c #E3CA5B",
"S. c #E7CD58",
"D. c #E6CD5F",
"F. c #E9CF59",
"G. c #ECD258",
"H. c #EED45B",
"J. c #EFD55B",
"K. c #E9D15F",
"L. c #EED55F",
"P. c #D6C165",
"I. c #DBC462",
"U. c #DDC660",
"Y. c #DEC765",
"T. c #DFC863",
"R. c #D6C26C",
"E. c #DEC96B",
"W. c #E2CB66",
"Q. c #E5CE66",
"!. c #E8CF60",
"~. c #E6CF6A",
"^. c #EBD363",
"/. c #ECD367",
"(. c #EBD466",
"). c #EED765",
"_. c #EBD36A",
"`. c #E9D26C",
"'. c #EED66C",
"]. c #ECD56E",
"[. c #F1D862",
"{. c #F4DB63",
"}. c #F2D964",
"|. c #F3DB67",
" X c #F6DD66",
".X c #F0D96D",
"XX c #F4DD6D",
"oX c #F5DD6F",
"OX c #F8DE6B",
"+X c #E5D171",
"@X c #E9D472",
"#X c #EFD873",
"$X c #F4DD72",
"%X c #F5DE7A",
"&X c #F7E06E",
"*X c #F8E069",
"=X c #FBE068",
"-X c #FAE26B",
";X c #FCE46D",
":X c #FBE470",
">X c #FEE671",
",X c #FEE572",
"<X c #FCE575",
"1X c #FEE674",
"2X c #F9E279",
"3X c #FDE77A",
"4X c #FEE97E",
"5X c #FCE681",
"6X c #FFEA84",
"7X c #FFEB88",
"8X c #FFEB8C",
"9X c #FFED91",
"0X c #FFEE96",
"qX c #FFF09B",
"wX c #FFF29D",
"eX c #FFF6A0",
"rX c None",
/* pixels */
"rXrXrXrXrXrXrXrXrXrXrXrXrXrXrXrXrXrXrXrXrXrXrXrXrXrXrXrXrXrXrXrXrXrXrXrXrXrXrXrXrXrXrXrXrXrXrXrXrXrXrXrXrXrXrXrXrXrXrXrXrXrXrXrX",
"rXrXrXrXrXrXrXrXrXrXrXrXrX/._.C.V.V.C.2.p.5.rXrXrXrXrXrXrXrXrXrXrXrXrXrXrXrXrXrXrXrXrXrXrXrXrXrXrXrXrXrXrXrXrXrXrXrXrXrXrXrXrXrX",
"rXrXrXrXrXrXrXrXrXrX'.=X{.[.J.G.G.Z.B.N.c.x.1.<.P T rXrXrXrXrXrXrXrXrXrXrXrXrXrXrXrXrXrXrXrXrXrXrXrXrXrXrXrXrXrXrXrXrXrXrXrXrXrX",
"rXrXrXrXrXrXrXoX,X-X-X*X X X{.[.[.L.L.G.F.B.N.x.,.U P rXrXrXrXrXrXrXrXrXrXp.9.rXrXrXrXrXrXrXrXrXrXrXrXrXrXrXrXrXrXrXrXrXrXrXrXrX",
"rXrXrXrXrXrX1X-X X[.J.G.Z.Z.Z.Z.Z.G.L.L.L.K.F.B.c.3.,.I @.rXrXrXrXrXrXrXrX] rXrXrXrXrXrXrXrXrXrXrXrXrXrXrXrXrXrXrXrXrXrXrXrXrXrX",
"rXrXrXrXoXOX}.H.Z.Z.Z.M.M.c.x.! ! ! ! x.c.B.F.F.B.N.7.1.U @.rXrXrXrXrXrXP rXrXrXrXrXrXrXrXrXrXrXrXrXrXrXrXrXrXrXrXrXrXrXrXrXrXrX",
"rXrXrXrXrXrXrXrX@.p.C.H.G.G.Z.M.x.3.! W R R ! x.N.B.N.7.1.I rXrXrXrXrXrXZ rXrXrXrXrXrXrXrXrXrXrXrXrXrXrXrXrXrXrXrXrXrXrXrXrXrXrX",
"rXrXrXrXrXrXrXrXrXrXrXq Z p.C.S.S.N.x.3.W Y R R R ,.7.7.7.:.B rXrXrXrXZ rXrXrXrXrXrXrXrXrXrXrXrXrXrXrXrXrXrXrXrXrXrXrXrXrXrXrXrX",
"rXrXrXrXrXrXrXrXrXrXrXrXrXrXrXq 9.d.V.N.c.,.Y K J J R W 1.1.] rXrXrXrXZ rXrXrXrXrXrXrXrXrXrXrXrXrXrXrXrXrXrXrXrXrXrXrXrXrXrXrXrX",
"rXrXrXrXrXrXrXrXrXrXrXrXrXrXrXrXrXrXrXl 9.d.<.U L H H J K Y ] rXrXrXrXl rXrXrXrXrXrXrXrXrXrXrXrXrXrXrXrXrXrXrXrXrXrXrXrXrXrXrXrX",
"rXrXrXrXrXrXrXrXrXrXrXrXrXrXrXrXrXrXrXrXrXrXrXq B [ N M M j N rXrXrXrXl rXrXrXrXrXrXrXrXrXrXrXrXrXrXrXrXrXrXrXrXrXrXrXrXrXrXrXrX",
"rXrXrXrXrXrXrXrXrXrXrXrXrXrXrXrXrXrXrXrXrXrX  . % ; 1 0 5 8 5 4 l A i i l A T T T T T T rXrXrXrXrXrXrXrXrXrXrXrXrXrXrXrXrXrXrXrX",
"rXrXrXrXrXrXrXrXrXrXrXrXrXrXrXrXrXrXrX& : 1 0 y k M H H H j j h F F c j L U U Y Y W W W W I <.2.Q rXrXrXrXrXrXrXrXrXrXrXrXrXrXrX",
"rXrXrXrXrXrXrXrXrXrXrXrXrXrXrXrXrXu ~ / S j J ! B.Z.Z.M.M.c.x.x.3.3.,.! ! ! W W W Y Y Y K K K K K U E Q rXrXrXrXrXrXrXrXrXrXrXrX",
"rXrXrXrXrXrXrXrXrXrXrXrXrXrXrXA ] ;.:.K K 3.J. X{.[.J.G.Z.B.B.N.c.c.x.x.x.3.3.,.,.,.W Y Y K K J H H J J I Q rXrXrXrXrXrXrXrXrXrX",
"rXrXrXrXrXrXrXrXrXrXrXrXrXrX@.h.v.3.R ! G.;X;X;X;X-X*X X{.{.[.J.J.G.G.F.B.B.N.N.c.c.x.3.3.,.,.Y K J H j H J P rXrXrXrXrXrXrXrXrX",
"rXrXrXrXrXrXrXrXrXrXrXrXrX5.U.K.x.! Z.-X>X>X;X;X>X>X>X>X>X;X;X;X-X*X*X X{.{.[.L.J.F.F.B.N.N.c.x.3.W L H j j H E rXrXrXrXrXrXrXrX",
"rXrXrXrXrXrXrXrXrXrXrXrXrX!.|.G.G.-X>X>X-X{.[.L.L.L.L.L.[.{.|. X*X-X-X-X-X-X*X*X X{.[.L.G.F.B.N.c.3.,.Y H j j H P rXrXrXrXrXrXrX",
"rXrXrXrXrXrXrXrXrXrXrXrXC.|. X X>X>X>X;X X[.F.S.B.N.N.N.B.F.L.[.|.*X-X;X;X-X*X*X*X*X*X*X X{.L.F.B.c.3.1.Y H j j H @.rXrXrXrXrXrX",
"rXrXrXrXrXrXrXrXrXrXrX/.(.|.L.|.*X*X;X>X:X*X[.L.F.S.A.A.S.K.L.|.*X:X>X>X>X&X|.[.[.|.*X;X>X<X<X&X[.F.N.3.Y L H j H N rXrXrXrXrXrX",
"rXrXrXrXrXrXrXrXrXrXrX!.[.L.F.[.[.|.<X6X6X3X:X X[.L.K.K.L.L.|.|.&X&X&X*X|.^.K.F.^.|.:X4X7X8X8X7X6X<X[.N.1.Y L H j H B rXrXrXrXrX",
"rXrXrXrXrXrXrXrXrXrXoX^.K.F.[.|.L.|.3X9X0X8X3X:X|.).K.K.K.K.^.^.K.D.n.v.7.7.v.D.|.<X7X0XqXqXqXqX0X9X6X&XB.1.L H j j N rXrXrXrXrX",
"rXrXrXrXrXrXrXrXrXrX'.K.A.).3X&X).|.<X7X8X7X3X&X).K.A.v.7.7.6.4.:.:.&.:.6.n.^.&X5X9XwXeXeXeXeXeXwXqX0X8X&Xv.Y L j M m q rXrXrXrX",
"rXrXrXrXrXrXrXrXrXrX}.A.A.2X0X3X|.).XX<X3X4X<XXX^.n.7.:.&.#.| | %.:.6.v.K.XX<X6X9X0XqXwXwXeXeXeXeXwXqX0X8XXX6.L j h h u rXrXrXrX",
"rXrXrXrXrXrXrXrXrXrX(.n.D.9XqX4XXX|.&X3X7X8X6X:X).A.7.:.&.#.| #.%.:.6.v.D.).XX&X<X4X6X7X8X9X0XqXqXqXqXqXqX7XA.L C h h i rXrXrXrX",
"rXrXrXrXrXrXrXrXrXoX(.7.n.7X8X&X).|.:X6X7X6X2X.XD.v.6.:.%.| G D D G | %.:.6.v.A.^.).XX:X<X3X4X7X9X0XqXqXqX0X.X&.M h f t rXrXrXrX",
"rXrXrXrXrXrXrXrXrX/.K.1.:.^.XX^.K.).XXXX.X^.A.b.6.:.%.| G S b v c c v V G %.:.6.b.A.K.).XX&X<X3X4X7X9X0X0X9X2X:.M h f g rXrXrXrX",
"rXrXrXrXrXrXrXrXrX_.D.:.C :.A.v.n.A.A.n.s.4.:.&.%.| } G D V b v k k k c V G #.-.4.s.n.D.^..XXX&X<X3X6X8X9X9X5X6.M h f h rXrXrXrX",
"rXrXrXrXrXrXrXrXrX'.A.&.h &.n.4.:.4.>.-.%.#.| } G G G D D S b v c k k c v V G $.>.6.s.n.D.(..X$X&X3X6X8X9X0X7Xs.C h f m + rXrXrX",
"rXrXrXrXrXrXrXrXrX'.n.#.f %.A.&.C D D D D D D D D D D D S S V b v c c c v V G %.>.a.s.U.Q.)..X$X2X3X6X9X0X0X8Xb.C m f h + rXrXrX",
"rXrXrXrXrXrXrXrXrX'.n.| r D b.D k c b V S D G G ` ` ` G D D S V V b b b V S } &.t.s.m.D.^..X$X2X<X4X7X9X0X0X7Xb.D m h c + rXrXrX",
"rXrXrXrXrXrXrXrXrX'.n.G 6 b w.c r d b S } | #.#.#.| | | } } G ` S V V b S ` | -.t.s.U.W.(..X$X2X2X4X6X8X8X8X5Xs.G m h g rXrXrXrX",
"rXrXrXrXrXrXrXrXrX_.m.C 6 V >.d 6 r v G #.&.&.&.&.%.$.$.#.| } ` S V V V S ` | -.t.s.b.U.Q.`..X$X$X2X3X4X6X6X2Xa.G m h t rXrXrXrX",
"rXrXrXrXrXrXrXrXrX_.b.C 6 S t.d 6 8 k S | $.%.&.&.&.&.$.$.| } ` S V V V S ` | &.>.t.s.f.U.W.~.].].$X2X2X3X4X$Xt.D b c t rXrXrXrX",
"rXrXrXrXrXrXrXrXrX/.m.V 6 S t.d 6 8 k b ` } | #.$.$.%.%.$.#.} ` S S V S S ` | $.-.w.t.a.f.m.U.T.Q.]..X$X2X2X].>.D b k i rXrXrXrX",
"rXrXrXrXrXrXrXrXrXrXI.V 6 V t.k d c b S } } } | | #.$.*.*.$.$. .} ` ` ` ` } X.$.-.>.e.a.s.f.m.U.T.Q.`.].#X$X~.-.S v k , rXrXrXrX",
"rXrXrXrXrXrXrXrXrXrXI.D 6 v t.k c } $.*.-.-.*.$.$.$.*.-.-.-.-.*.$.X. . . . .X.$.-.>.e.a.f.m.m.U.T.W.Q.`.`.`.U.$.V c d & rXrXrXrX",
"rXrXrXrXrXrXrXrXrXrXY.} 6 d w.c k *.a.s.f.f.f.a.t.w.w.w.w.w.w.>.-.-.*.=.=.$.$.$.*.-.w.a.f.m.U.W.W.~.~.`.~.Q.a.} V k p + rXrXrXrX",
"rXrXrXrXrXrXrXrXrXrX'.$.8 r -.v r } f.W.~.`.`.~.W.T.U.m.f.a.t.e.e.>.>.-.-.-.*.=.=.*.-.e.a.m.U.W.~.`.].].`.W.w.` b d t rXrXrXrXrX",
"rXrXrXrXrXrXrXrXrXrX/.>.8 6 X.b 6 k q.W.#X%X2X%X%X%X#X`.Q.U.f.a.t.e.e.>.>.>.-.*.=.=.*.>.t.f.m.T.~.`.].].].W.-.S v d i rXrXrXrXrX",
"rXrXrXrXrXrXrXrXrXrXrXg.p 3 S V 3 5 b t.`.2X5X6X7X6X5X2X#X~.T.f.a.t.e.e.e.>.q.;.=.=.=.-.e.a.f.U.W.~.`.].].T.$.V k p , rXrXrXrXrX",
"rXrXrXrXrXrXrXrXrXrXrXY.v 2 k ) 2 $ 6 S f.#X5X7X9X8X7X5X%X].W.U.f.a.t.e.>.r.q.;.;.=.=.;.r.e.a.m.T.W.~.`.`.f.} b d 7 + rXrXrXrXrX",
"rXrXrXrXrXrXrXrXrXrXrX'.{ 2 8 V 3 @ $ 8 X.T.%X6X8X8X7X5X%X].W.U.f.a.t.e.r.q.;.;.;.=.;.;.q.e.a.f.m.T.W.W.W.e.S c r 4 rXrXrXrXrXrX",
"rXrXrXrXrXrXrXrXrXrXrXR.r.3 3 n 5 @ @ 3 n e.~.%X5X5X5X%X#X~.T.j.a.e.r.r.;.;.=.=.=.=.;.;.q.r.t.a.m.U.T.T.m.*.b k 8 , rXrXrXrXrXrX",
"rXrXrXrXrXrXrXrXrXrXrXrXh.a # p 8 @ @ 2 s X.j.`.%X%X%X#X`.T.j.u.q.;.=.=.X.X.X.X.X.=.=.;.;.r.e.a.j.m.U.U.a. .v p 7 & rXrXrXrXrXrX",
"rXrXrXrXrXrXrXrXrXrXrXrX_.' # 3 p # @ 2 p ' r.U.@X#X#X@XW.j.u.;.X.{ ' ' ' ' { {  . .X.=.;.r.u.a.j.j.I.I.r.S k 8 4 rXrXrXrXrXrXrX",
"rXrXrXrXrXrXrXrXrXrXrXrXrXi.3 $ a 3 @ 2 a ) ;.j.W.@X@X~.T.g.q.X.' ) n n n n ) ) ' {  .X.;.r.u.a.f.j.P.j.=.b p 6 , rXrXrXrXrXrXrX",
"rXrXrXrXrXrXrXrXrXrXrXrXrXz.x # 5 y $ 2 y ) 8.g.E.+X@X~.I.u.8.{ ) x s p p s x n ) ' { X.8.r.u.g.j.j.j.g.{ x 8 5 & rXrXrXrXrXrXrX",
"rXrXrXrXrXrXrXrXrXrXrXrXrXR.0.2 $ a 5 2 e n O.g.E.+X@X+XE.g.8.' n s a y y y a z n ) { o.8.r.u.g.g.j.j.r.) s 6 4 rXrXrXrXrXrXrXrX",
"rXrXrXrXrXrXrXrXrXrXrXrXrXrXz.z $ 5 a 5 e x o.i.P.+X@X@XE.j.8.' n s a y e e y a x ) ' o.8.r.u.g.g.j.g.O.n a 3 : rXrXrXrXrXrXrXrX",
"rXrXrXrXrXrXrXrXrXrXrXrXrXrXR.+.5 2 a s y z ' 8.g.E.+X@X+XP.y.{ n s a e e e e a s n ' o.8.r.u.g.g.j.i.' s e 1 o rXrXrXrXrXrXrXrX",
"rXrXrXrXrXrXrXrXrXrXrXrXrXrXrXd./ 2 5 x z z ( o.y.P.E.+X+XE.l.O.) z a y e e e y s n ' o.8.y.u.g.g.g.8.n a 3 : rXrXrXrXrXrXrXrXrX",
"rXrXrXrXrXrXrXrXrXrXrXrXrXrXrXrX0.y 3 a / / ( ' O.i.P.E.E.E.P.y.o.( z a y y y a s n ' o.8.y.i.g.g.i.' s e 1 o rXrXrXrXrXrXrXrXrX",
"rXrXrXrXrXrXrXrXrXrXrXrXrXrXrXrX9...5 5 z ( ( ( ' o.y.l.P.P.P.g.y.O.' / z s s z x / ' o.8.y.i.g.l.O./ y 3 : rXrXrXrXrXrXrXrXrXrX",
"rXrXrXrXrXrXrXrXrXrXrXrXrXrXrXrXrX[ / 5 e z ( ( ( ( ..8.i.l.l.l.l.i.0.o.' ( / ( ( ( ' O.8.y.i.l.y.' s 5 ; rXrXrXrXrXrXrXrXrXrXrX",
"rXrXrXrXrXrXrXrXrXrXrXrXrXrXrXrXrXrX[ a 0 y z z z ^ / ( ..+.0.y.i.l.l.i.0.+.........o.O.y.i.i.y...z e * o rXrXrXrXrXrXrXrXrXrXrX",
"rXrXrXrXrXrXrXrXrXrXrXrXrXrXrXrXrXrXrX~ w 0 w y y y a a z ^ / ( ..+.0.k.l.i.k.0.0.0.0.k.k.k.0.../ w * O rXrXrXrXrXrXrXrXrXrXrXrX",
"rXrXrXrXrXrXrXrXrXrXrXrXrXrXrXrXrXrXrXrX~ w 9 9 9 9 9 9 9 9 9 0 w w ^ / ..+.k.k.k.k.k.k.0.+._ ^ 0 * O rXrXrXrXrXrXrXrXrXrXrXrXrX",
"rXrXrXrXrXrXrXrXrXrXrXrXrXrXrXrXrXrXrXrXrX, 1 < < < < < < < < 9 < 9 9 9 0 w ^ ^ _ _ _ _ ^ ^ w < ; o rXrXrXrXrXrXrXrXrXrXrXrXrXrX",
"rXrXrXrXrXrXrXrXrXrXrXrXrXrXrXrXrXrXrXrXrXrXo : ; - - - = = = = = = = = - = > > < < 9 < < * %   rXrXrXrXrXrXrXrXrXrXrXrXrXrXrXrX",
"rXrXrXrXrXrXrXrXrXrXrXrXrXrXrXrXrXrXrXrXrXrXrXrXrX      . . . . .         . X X % % X .   rXrXrXrXrXrXrXrXrXrXrXrXrXrXrXrXrXrXrX",
"rXrXrXrXrXrXrXrXrXrXrXrXrXrXrXrXrXrXrXrXrXrXrXrXrXrXrXrXrXrXrXrXrXrXrXrXrXrXrXrXrXrXrXrXrXrXrXrXrXrXrXrXrXrXrXrXrXrXrXrXrXrXrXrX",
"rXrXrXrXrXrXrXrXrXrXrXrXrXrXrXrXrXrXrXrXrXrXrXrXrXrXrXrXrXrXrXrXrXrXrXrXrXrXrXrXrXrXrXrXrXrXrXrXrXrXrXrXrXrXrXrXrXrXrXrXrXrXrXrX",
"rXrXrXrXrXrXrXrXrXrXrXrXrXrXrXrXrXrXrXrXrXrXrXrXrXrXrXrXrXrXrXrXrXrXrXrXrXrXrXrXrXrXrXrXrXrXrXrXrXrXrXrXrXrXrXrXrXrXrXrXrXrXrXrX"
};
