/* XPM */
static char *_727_a5657feb20e49d5cc4919e75581c054527aeb21ea53442b40941ae5b697e11eb[] = {
/* columns rows colors chars-per-pixel */
"64 64 82 1 ",
"  c #2A2A2A",
". c gray17",
"X c #2B2B2D",
"o c #2C2C2C",
"O c #2D2D2D",
"+ c #2E2E2C",
"@ c #2F2F2D",
"# c #2D2D2F",
"$ c gray18",
"% c #2F2F2F",
"& c #30302E",
"* c #31312F",
"= c #2F2F31",
"- c gray19",
"; c #313131",
": c #323230",
"> c #333331",
", c #303032",
"< c #313133",
"1 c #323232",
"2 c gray20",
"3 c #343432",
"4 c #353533",
"5 c #323234",
"6 c #333335",
"7 c #323136",
"8 c #333237",
"9 c #343434",
"0 c #353535",
"q c #363634",
"w c #373735",
"e c #343436",
"r c #353537",
"t c gray21",
"y c #373737",
"u c #383836",
"i c #393937",
"p c #343338",
"a c #353439",
"s c #363638",
"d c #373739",
"f c #36353A",
"g c #37363B",
"h c #38373C",
"j c gray22",
"k c #393939",
"l c #3A3A38",
"z c #3B3B39",
"x c #38383A",
"c c #39393B",
"v c #3A3A3A",
"b c gray23",
"n c #3C3C3A",
"m c #3D3D3B",
"M c #39383D",
"N c #3A3A3C",
"B c #3B3B3D",
"V c #3A393E",
"C c #3B3A3F",
"Z c #3C3C3C",
"A c gray24",
"S c #3E3E3C",
"D c #3F3F3D",
"F c #3C3C3E",
"G c #3D3D3F",
"H c #3E3E3E",
"J c #3F3F3F",
"K c #3C3B40",
"L c #3D3C41",
"P c #3E3E40",
"I c #3F3F41",
"U c #3E3D42",
"Y c #3F3E43",
"T c #403F44",
"R c gray25",
"E c #414141",
"W c #404042",
"Q c #414143",
"! c #424244",
"~ c #434345",
"^ c #424146",
"/ c #444444",
/* pixels */
"1y-0--0t9201jt0-oj92%0t011299222$y022102j;90>+w*o990ytt1k12099--",
"RH0kyvkykyj0vkvt1b0yjJHvyyyyyjjjoyjyyyZZt0bRn4l:0kyvv999byybvjvk",
"vvkvtbyvt90-09t10b0kkZvjbvjyjkkjot0990jyjkvRjyvtykyvv20j902ky2bk",
"19kk9v9vkyk0j0t11ktvt090vvjtyyt99v09yyj9bZyb2tkj0ktyy9yv9j2vj2Hb",
"bjkkyJtyvvHbHkj91ktbjytjyjjyyy01tZjtjkbjBINPxNcerFxssdNcdBrFNd!P",
"bbjy9bjk9tbkZjj9tv2kvby09yjyyyt21bvyt0kkcPBBxxg75BdesNGNrdrxdsIG",
"1j0y;tvb9tvyvjvy9k1tyk010kvytyy09AZvvjxsdPCaa8ga<deexNFNxxNcrsGI",
"9v2vkZAytyk0ytvkOy2t0kkjvAHvyyjy1j0yZZx=rPTgh8VhscesNxxdccPc6ecP",
"vkyAjy9kbtAbv0by;90kkb19t0yy0tjy0ttkbkxBdNMVhMLh=xxcscrssFNscNdc",
"kvtj0vkv00HZy1vk;yjkyv0jj00jjjy90t0ykjdNBBhVfphpscrdxFr6dNs6xcss",
"xFxdrPFcNsBcxxFd1bvk0vjby0jbvjy0tjyjvjykFNxNdrhfNFsxcGs6FFxsBPFN",
"sGBBdPcrWNcddBGs1Zjy0vvk90vAj9ty9jjjkjtyNBcNcxBdxBdxdNsddde6rcNN",
"rNBPxcreNNBNexBs1b9ttbk9jjvbt909;yjykj00jbvkjkZ20k0y0ktkvbbkykAH",
"scNPxdrxrdcNrFB62Z9vvZb0HZbkjky;2vZvbZkjyvkkkbHtyk9yjZjvkkbk99jk",
"scxBsdrdrredePN=1HyHbkbkvZZjtvk12vbkvZvkvy0vlimztk0jtktvZkvbjkvt",
"5srx6s5<<reeXss<$ZyHj2jv$yZt-0j9O90;1000Jy1kj2yk-yyy---jy--90t0$",
"1t21%O9t;$t-t%t19ky-exer6ed=;%21 --;9yNrde<e56x,;Ot2j2$1v1$101$O",
"AZyjkjvtb2y1vtb9vAJjG~BGINdFHAvb-yjvbAINNBU^YLLrr9ZyZj0jyykvvkvZ",
"HZykZvv9v12%y9j19yvtFWxccxrGjv0j$tyjjjNrcBFGMgVretv9yt9y90t0yvkt",
"0ytjy0jtj9j0j9j9;ktjGBNcrNcx9j01;jjytyNsBPNxaaVxsvb0tyyj0t00tjt2",
"2ytjy0vvytvvbyj22EsPQdTKCVcecBv-tZvytyZkBWGFFNVsrZkttkbb9tkvy0yZ",
"ty9jvkvyy9tkbvy-;J5BP6LMMadeNet90vy090ktdPBcNxg6;k900kbvytyjt9tv",
"0t2jbvk9kyjbbZvt2v6cPdMhagNcd69t9kjjyyk2dINssrds0Z9kjbbvAbjtyjy0",
"2ttbAvbyyyvv0yvb09rsPGpgpCcxeB0$-yyjkyt%eWFddessyA2vjjy0yZb9;9yt",
"009tktj0jkj09vZt;jNdBGhCMYxescb0tj9tvjkjykjbccFx$ttjyb009kk00bbt",
"tjtjvkby2jby;2jj2kNdcNfhhfeBBr099j9yvyjtyjykdrx60vyjjZt09yyttjky",
"%bZv11kvtyvj0tjy1jj0ssrrcerWA0yt1ytkZkjyjvvbkyk9bAyjjZt9vkvvkttj",
"jAttyAZ9jtyjjjj00bvjdxFFBcNZtjHt;ytvAvvkjvvAZbHjkb0ttv00vvvvkyty",
"tv190JZ299yjttyy4ziuttHAAZvj1uD41jykbjkk0yybbbHj2y9t0j0y0yjyyjyt",
"Ok0j-kvkjtyjjbbt>luu21ZjAvjvwql30vkvvtyjtjjbbbAy;ytkykybvbvkvvj9",
"0b1ktRb0vy00jAb1>zzSw3Hyvj3ilqq>2kjkk0tyjkyvvkb02jtktjtbHvkbZk09",
"1k;j-y2-;90;$19%OtjA0-v19t;>u4>+o22tt129002000y-1t29;2-0y-%yvt19",
"9yo%-Ot;-%t%t%0;9r6=6r5rx;y;otw* 991;%90%O-0.%;%O;222;-2j1%12%O%",
"bAykj0vyk0y;byv9NPKVUTKUPxAj9Zz3;kjjkyvvvkA/vZk2;jbZZvjyZvkvbbbv",
"HAvkjjvvk99%jtj16xggKKhVBsvj0vw@%t00yty0vjkHtky1vvkvj1-t12920jjt",
"29vvvk99ytk9k0y95xfhLVhhBxvkjvw&1jttyyjtyt0j1jyt0jy00tjA0yjykbbk",
"t0jttjtjtybkbjy2dGcFQGKKBNjvvvi3tAvjjyvk0kkZtvjjObA90HAy090yytyj",
"kj090tjk00yjbvt-eBecPxMhsd2tj0q>9bjtt0yytbjj10202jj00990kyjvvjkZ",
"-09ZHky-jjkvZZvt1k5xGsxdrc0kb0wq9vjjvjktjAjt1y0t000yj0tAyjky0tjk",
"tk;jbjJjtkvktjkb;k5NIdcdsByZAtuu2jtjZbk90bkbvHjt-HRttZk-jZb02tjt",
";y909v09tyb929Zb1kvkPN6FFNt20vlq9y9jHbvjjkkvbbvvkkt9jvytjjkZytZj",
"1y0t9bkyjjZtt0k0;0vjxxssddvZAvq>9y9ybjjtjbk9tZZtykytkk02vvjvjyZb",
"9yty1vvjt0ktkkAy0kJHjZIxcxvAbt4w9ktjvyjyykt20bv20jyyvk02jvtyy0yy",
"yjjk2kj0bjbty0j9;tkktjBdFBvkt94u1jykvykkt90kbj092t0tkkttjAkvZy00",
"jvkbtkt9kyv0t9j0>njvHkNPBFbkjy4>-jkkktkky0jAHktj0t99yyykyZyjZjtt",
"yZjbvZty92kjvkAv&z2tA9rFBFvyykw:1bbvkykkvbZbbZZbkkytyyybyj9tvkbk",
"0AtyZA9kktkyktj24SwlbtbbFNt99tqq1bkjytvvHZkyjvbbyjyyjttvvktkbZRZ",
"0A22bA1jj;;-92t11i0y1;b;xe20t99t$t9112jkEj2jk00v-120t91tt21yyjb9",
"exss<F%1k929tky-$25,#5x<,<,6<,s9-11%0vt0010y0tt%4>+>y;-;65ssrr6r",
"BP!Bcc9yAjyjvZv9rBNccGQcdxxBcxFNO0kyvHHJZbJJbZZyqu4lHkjjNBFGFNKU",
"sxFxxd9kkttyjvy;,sssdcBedxdNxsxe.9y0tyjjjkAZjyj0wzuuy11;rcscdeCK",
"sc6BdPtbkykbbZk1<xdxxdx6BNxNxsd52kt9tyy9jvZbjkky3zuq09jk6x5xx6LC",
"NGrGxGtvjjbAZZk2dIGGPBBBFBxNxdcrtAy0yjbjZJJZbZvj3zkyyjAAsN6BFxQP",
"ecdss50y90jvkky16BxcFccBssedrrxr1Zy092kjvHZyjj02>iyyjtjtrxexcsGF",
"<cdssevkyykkykvy2k0yAkyk0ttkytvt1Hjkj9k9yHZtyy991t9ybvbvxccxsrNP",
"eG<xeFvjytyt9yvk0v9yRbtt0yjbj0k0-v9kAkv%9AZtyytjkv9tvjjyNNGceexW",
"cxsPcs2jyjRbk0bvtykjvvtvvjt000yjyytkZvjvkvjbvvAy$yyktk0t0vcdNxdB",
"ccscsNkb90vky0y9-yvyjkyjyjkvvjyt0ttykjtkbbjkyyk2tZvvjb09jbxsNNxc",
"xBddsPZvjkkbjbj91ARZbAAZtkZZbky00yyykytkHAkvjyv9jbykjZ09vZj0kAbv",
"sFBBxPvtvvtj2vjt%kvjjjvjkvbkyttt0jjykjtyAAvbvvAjtk0yybttjvj0tbAb",
"rNBIcNttvbyk2bvy0bjvZkZZZZvt90ty2yjjvvy9jkjbbbAjtvyktktjtvby2ybb",
"sxcPxd0kjvbvyZby9k2yk9kkbZvt0tt02kvkZZkyyjjbvvZt2jyktkyZvZHb0tvv",
"sxdBsd0j90j0tjv9tJjvbyAvkvktyjy2;kZkkbvvjkyvkkb0<srctkyZAkbZjjky",
"scdNsx90ytj2yvHt%Ajyt2v0yjy0tky2Oyv09tjvjjtjyyv9rcdNyj9jv12kjjy2"
};
