/* XPM */
static char *_6e9744dfc464c4f9357adeee402aa0004CyJeWNG3iYFwWf[] = {
/* columns rows colors chars-per-pixel */
"64 64 229 2 ",
"   c None",
".  c #020201",
"X  c #030302",
"o  c #020203",
"O  c #030403",
"+  c #040401",
"@  c #040402",
"#  c #030006",
"$  c #000505",
"%  c #020405",
"&  c #040504",
"*  c #060605",
"=  c #060705",
"-  c #090704",
";  c #090807",
":  c #040708",
">  c #080D0B",
",  c #110905",
"<  c #1F0D07",
"1  c #0C1109",
"2  c #131806",
"3  c #090E10",
"4  c #060919",
"5  c #0B151A",
"6  c #0C161A",
"7  c #10151E",
"8  c #151D1F",
"9  c #240C06",
"0  c #2D0B06",
"q  c #290C04",
"w  c #2B0F07",
"e  c #251B0D",
"r  c #391308",
"t  c #23290B",
"y  c #363C0F",
"u  c #362810",
"i  c #343910",
"p  c #0E1D24",
"a  c #0E1828",
"s  c #080F32",
"d  c #112631",
"f  c #45160E",
"g  c #4B180B",
"h  c #561D0A",
"j  c #421819",
"k  c #49340B",
"l  c #5E350F",
"z  c #563C0C",
"x  c #593E0C",
"c  c #6E200D",
"v  c #76230D",
"b  c #76330E",
"n  c #4F1C28",
"m  c #76262B",
"M  c #65312B",
"N  c #1F501E",
"B  c #3B470D",
"V  c #3B500A",
"C  c #166E1D",
"Z  c #205C20",
"A  c #2A6E29",
"S  c #2C7229",
"D  c #5F5A12",
"F  c #69450C",
"G  c #724E0F",
"H  c #486F12",
"J  c #4F7512",
"K  c #796918",
"L  c #6C781C",
"P  c #090C45",
"I  c #080C49",
"U  c #0D1749",
"Y  c #0B1154",
"T  c #0D145B",
"R  c #163342",
"E  c #1B3C4D",
"W  c #1B3E51",
"Q  c #1C3E57",
"!  c #0D166F",
"~  c #111D6A",
"^  c #341B64",
"/  c #0B2074",
"(  c #52275F",
")  c #7B3642",
"_  c #6C3D61",
"`  c #1F4458",
"'  c #37404A",
"]  c #394748",
"[  c #3B4F53",
"{  c #1C4577",
"}  c #204960",
"|  c #245069",
" . c #25516A",
".. c #295C7A",
"X. c #3C687D",
"o. c #485859",
"O. c #4B7256",
"+. c #5E616C",
"@. c #496F7E",
"#. c #5B7477",
"$. c #80260F",
"%. c #8B2A0F",
"&. c #8E290F",
"*. c #942D0E",
"=. c #963111",
"-. c #953211",
";. c #973311",
":. c #983010",
">. c #89362B",
",. c #804C12",
"<. c #875410",
"1. c #8C5C13",
"2. c #A64812",
"3. c #AE5B1B",
"4. c #9A761D",
"5. c #A16916",
"6. c #AD6F14",
"7. c #BF6315",
"8. c #AD7219",
"9. c #B77814",
"0. c #865539",
"q. c #A6532D",
"w. c #C67116",
"e. c #D37B1A",
"r. c #866060",
"t. c #369335",
"y. c #719A0E",
"u. c #7AA70F",
"i. c #73AD19",
"p. c #7A8A24",
"a. c #62A923",
"s. c #5EC739",
"d. c #6DC92F",
"f. c #79C723",
"g. c #65C935",
"h. c #44B441",
"j. c #49C74A",
"k. c #8A841D",
"l. c #B18E1D",
"z. c #919C22",
"x. c #B78620",
"c. c #BC9724",
"v. c #81AC3F",
"b. c #A2A72A",
"n. c #EC9B1B",
"m. c #EFA11B",
"M. c #F1A11A",
"N. c #DF9A25",
"B. c #CC9D3E",
"V. c #C3A827",
"C. c #C2AC27",
"Z. c #DBB424",
"A. c #8EC813",
"S. c #80CA20",
"D. c #A8CD33",
"F. c #CACA2E",
"G. c #D7DD31",
"H. c #E6D12A",
"J. c #D8E833",
"K. c #DDF936",
"L. c #AF8053",
"P. c #C38948",
"I. c #CCB647",
"U. c #93D348",
"Y. c #BCD451",
"T. c #0C1585",
"R. c #0D1998",
"E. c #0A2680",
"W. c #0C2C96",
"Q. c #3A2F8A",
"!. c #0D24AB",
"~. c #1921AE",
"^. c #0F2EB5",
"/. c #243DAC",
"(. c #2C6586",
"). c #357396",
"_. c #1E49B4",
"`. c #3576A0",
"'. c #387EA6",
"]. c #604987",
"[. c #5B668A",
"{. c #555BA9",
"}. c #5970BA",
"|. c #102CC6",
" X c #0C37C0",
".X c #1034DA",
"XX c #113BEA",
"oX c #2144D7",
"OX c #2762C7",
"+X c #2F74C1",
"@X c #3167D1",
"#X c #1C54E8",
"$X c #1142F1",
"%X c #1149FF",
"&X c #1A55F8",
"*X c #3765E2",
"=X c #3A7BED",
"-X c #2866F5",
";X c #2165FF",
":X c #2F7DFF",
">X c #3B86B1",
",X c #52858C",
"<X c #6A868A",
"1X c #729499",
"2X c #6AA784",
"3X c #698EB1",
"4X c #7DDC8F",
"5X c #3A84E2",
"6X c #3F9CFF",
"7X c #4388C7",
"8X c #4A9DD1",
"9X c #54ACDD",
"0X c #4EAEEE",
"qX c #4EB5FC",
"wX c #60BDED",
"eX c #55C3FF",
"rX c #6CCBFC",
"tX c #7ED7FE",
"yX c #8DA681",
"uX c #80A3A8",
"iX c #84A8AC",
"pX c #82C7C0",
"aX c #9BC6CD",
"sX c #A7D4DB",
"dX c #8FD5F1",
"fX c #97E5FF",
"gX c #B3E6EF",
"hX c #BAF2FB",
"jX c #C3F9FF",
/* pixels */
"                                                                                                                                ",
"                                                                                            1                                   ",
"                                                                                          Z C 1                                 ",
"                                                                                        Z h.h.A 1                               ",
"                                                                                      Z h.4X4Xh.A 1                             ",
"                                                                                    Z h.g.U.U.d.h.A 1                           ",
"                                                                                z Z h.g.A.f.f.A.d.h.A z m.                      ",
"                                                                              M.F S g.A.f.s.s.f.A.d.t.k M.                      ",
"                                                                              M.F ,XU.A.d.j.  g.A.U.2Xk M.                      ",
"                                                                              H.D ' a.A.g.j.  g.A.v.o.i H.                      ",
"                                                                              K.D : D y.A.s.s.f.u.V + i K.                      ",
"                                                                              K.b.i   B y.f.f.y.V % i z.K.                      ",
"                                                                              V.G.D     V v.v.D     B J.V.                      ",
"                                                                              &.c.z.i   w o.+.0   1 p.F.-.                      ",
"                                                                              &.c.K.z.u F K K G u p.J.c.-.                      ",
"                                                                                -.c.J.8.8.G.J.x.3.G.F.:.:.                      ",
"                                                                                &.l.4.c v 8.x.%.c 1.c.-.                        ",
"                                                                                  *.g o r %.%.g * r :.:.                        ",
"                                                                                  &.r * ; j n = % w v                           ",
"                                                                                  @ -   * / W.X   * ;                           ",
"                                                                                  1       / W.*     +                           ",
"                                                                            :.            / W.+                                 ",
"                                                                            M.x           / W.+                                 ",
"                                                        9 &.              + 9.x         1 T ~ +                                 ",
"                                                        w -.    : 3 3 3 3 ; b           * 4 4 X                                 ",
"                                            Y ! %     9 ,.b.; 3 >X7X_.M z.i 9 6.z     #.+.o X * %                               ",
"                                          I _.OXI     w 2.B./. X-X-X_ e.J.D.G e.F   + <X<XX X E (.%                             ",
"                                        I _.`.Q a :   c 2.P.*XyX_ _ :.n.D.J.8.e.C.V o <XsX3X>X8X'.:                             ",
"                                      P !./.Q       ; g ;.3.L.8.=.=.e.n.8.F.F.9.N.D } X.iXhXtXeX'.:                             ",
"                                    + T .XE.o       4 U g ;.7.w.;.=.7.n.Z.J.c.2.e.F )...X.tXrX8XR :                             ",
"                                    + T .XOXE o     s T.9 %.-.7.7.h %.7.J.C.F r 9.F )...@.tXeX`.o                               ",
"                                    + T .X;X+X(.| 7 / R.U h %.-.3.< r g 4.l > B 5.4.O.d @.tX8XE :                               ",
"                                    + T .X%X:XeX>XU |.~.T.< %.&.h B > X r , N i.D l.D % R (.E X                                 ",
"                                    + s ^.%X;X6X`.T XXR.T g $.g 2 a.H 2 X = N H t G 8.i X X X X                                 ",
"                                      X / $X%X;XOXW.XXT.< %.$., > S J 2 X X % X = r l.K o o X X                                 ",
"                                        P !.$X%X%X$X|.T g %.h , % * o o % X # B t u 1.k t y % X                                 ",
"                                          P !.$X%XXXT.< c v w - o * B 2 X X = L K 1.k t b.k.*                                   ",
"                                            P !.XX.XT.< < c $.r k x z.t X & & = 1.x t z.Z.G                                     ",
"                                              I T.T.^ c w r c -.9.8.t # & X X & c h 4.Z.<.                                      ",
"                                                X % w %.-.v g %.< w u & X & X e M m 7.w.                                        ",
"                                                  = < v ;.;.2.w.e v w.k ; + e 5.{.( *.                                          ",
"                                            8 a     = w $.;.e.) Q.) 2.w.k t 5.w.{.!                                             ",
"                                      1 8 <XdX`.a   = = , w >.oX&X8X0.2.C.F.5.C.pX|                                             ",
"                                a 8 8 <XsXgXhXtX`.6 6 & = 9 m ~.&X6X9XY.5.;.r b.pX+.                                            ",
"                          p 8 1 1XsXsXgXjXdXwXwX9X8X).& X < $.) oX;X0XI.k , > 8.3X_                                             ",
"                        8 1XaXaXgXhXjXjXfX).d d d ..>X3 & s /.>.) oX*XB.u W.U 8.N.q.f                                           ",
"                      7 iXhXjXtXrX@.iXjX1X6 X o X 6 d = X s #X3X>.) P.N.u  XU 8.w.].T                                           ",
"                      3 aXjXhX@.R 6 ).tXX.X X X X X X & 4 R.&XqX3X>.2.l ~ !.s b ].=X{                                           ",
"                        [ 9X[.5 ..R ).eX..X X & X & X < n ~.&XqXqX{.b.t T.T p.[.=XqX| X                                         ",
"                          W 5 ..0X` d ` d % & X & X & w m ~.oXqXeX0XY.i !.U b.7X6XeX+.w %                                       ",
"                            & >XtXo.o.' X X X X X & X ; j ( /.qXeXwXI.u  XU l.}.6X5X_ g %                                       ",
"                            = >XfXo.,XpX1X1Xo.% & X & X < m ~.@XqXwXB.u  XU 9.}.#XQ.n w                                         ",
"                            > >XfXo.R 8XfXfX,X& X & X & ; j ( ( @XwXB.u  XU 9.{.].M q                                           ",
"                              | @.] % ` (.(.E X X X s T & , h ;.r.}.B.u  XU 9.L.0.u                                             ",
"                                +       1 ; X & X X U oX` > ; h 1.r.N.u  XU 9.9.o.d                                             ",
"                                            X % & X U ;X9X} - X , 1.N.u  XU F ' 7X|                                             ",
"                                            X X p ` { _.6X9X} ` > , ,.e E.s U .X6X .                                            ",
"                                            X X } 0X).{ &X6X0X>X: : : : * = E.$X6X .                                            ",
"                                              X } >X` 6X%X;X8X8         3 X = E.+XE                                             ",
"                                                ` ..R +X^._.`.6         X ; ; ; ; ;                                             ",
"                                                  3 3 3 3 3 3 :                                                                 ",
"                                                                                                                                ",
"                                                                                                                                ",
"                                                                                                                                "
};
