/* XPM */
static char *result[] = {
/* columns rows colors chars-per-pixel */
"64 64 256 2 ",
"   c #181313",
".  c #191414",
"X  c #1A1515",
"o  c #1B1616",
"O  c #1E1817",
"+  c #1C1818",
"@  c #1E1818",
"#  c #1E1919",
"$  c #1F1919",
"%  c #1F1A1A",
"&  c #1F1A1B",
"*  c #201A19",
"=  c #201B1C",
"-  c #241E1E",
";  c #262020",
":  c #262121",
">  c #272222",
",  c #282222",
"<  c #292323",
"1  c #2B2423",
"2  c #2B2626",
"3  c #2C2726",
"4  c #302B2B",
"5  c #332D2D",
"6  c #342F2F",
"7  c #35302F",
"8  c #36302F",
"9  c #3A312F",
"0  c #353030",
"q  c #373131",
"w  c #383232",
"e  c #393333",
"r  c #491C19",
"t  c #4B1D1A",
"y  c #4D1F1C",
"u  c #4E201D",
"i  c #4F211E",
"p  c #50221F",
"a  c #51221F",
"s  c #4F2422",
"d  c #482A28",
"f  c #522320",
"g  c #532320",
"h  c #532421",
"j  c #542421",
"k  c #552522",
"l  c #562623",
"z  c #572623",
"x  c #572724",
"c  c #532A26",
"v  c #562926",
"b  c #562B27",
"n  c #582A26",
"m  c #592E2A",
"M  c #5B2F2B",
"N  c #5D2C29",
"B  c #5E2C29",
"V  c #5F2E2B",
"C  c #42352E",
"Z  c #56312B",
"A  c #59342D",
"S  c #5C342E",
"D  c #4A2D37",
"F  c #423630",
"G  c #4D433E",
"H  c #53443D",
"J  c #67412C",
"K  c #634239",
"L  c #6A423C",
"P  c #553C4A",
"I  c #5A4940",
"U  c #5D4A40",
"Y  c #5A4755",
"T  c #675144",
"R  c #685144",
"E  c #685245",
"W  c #6A5447",
"Q  c #6B5548",
"!  c #6D574A",
"~  c #6E584B",
"^  c #6F594C",
"/  c #70584C",
"(  c #675A53",
")  c #6A5950",
"_  c #735D50",
"`  c #755F52",
"'  c #766053",
"]  c #766154",
"[  c #796457",
"{  c #7A6457",
"}  c #7A6558",
"|  c #7B6558",
" . c #7A6559",
".. c #7C675A",
"X. c #7D675A",
"o. c #7E695C",
"O. c #7B6C6B",
"+. c #7C6D6C",
"@. c #7D6D6C",
"#. c #805B53",
"$. c #875E53",
"%. c #80604E",
"&. c #80655B",
"*. c #816C5F",
"=. c #826D5F",
"-. c #A1735C",
";. c #806C60",
":. c #826D60",
">. c #836E61",
",. c #846E61",
"<. c #846F62",
"1. c #8D6F62",
"2. c #836E6A",
"3. c #846F6A",
"4. c #867063",
"5. c #867164",
"6. c #897266",
"7. c #887366",
"8. c #897466",
"9. c #897467",
"0. c #81716E",
"q. c #897569",
"w. c #8B7568",
"e. c #8B7669",
"r. c #8D786B",
"t. c #8E796C",
"y. c #8F7A6D",
"u. c #907667",
"i. c #9E7666",
"p. c #947368",
"a. c #93756A",
"s. c #907B6E",
"d. c #917C6F",
"f. c #847370",
"g. c #927D70",
"h. c #948179",
"j. c #968078",
"k. c #A08176",
"l. c #A48A7C",
"z. c #D29D52",
"x. c #F8BD5C",
"c. c #C08262",
"v. c #D5AA65",
"b. c #31508B",
"n. c #38558D",
"m. c #2A5FAB",
"M. c #2A60AC",
"N. c #2B60AC",
"B. c #2B61AD",
"V. c #2B61AE",
"C. c #2D63AE",
"Z. c #2C63AF",
"A. c #3464A9",
"S. c #2D64B0",
"D. c #2F65B0",
"F. c #2E66B3",
"G. c #2F67B4",
"H. c #2F68B4",
"J. c #2F68B5",
"K. c #306AB6",
"L. c #306AB7",
"P. c #326DBA",
"I. c #356FBA",
"U. c #336EBC",
"Y. c #3370BC",
"T. c #3472BF",
"R. c #4278BC",
"E. c #477DBC",
"W. c #627CA5",
"Q. c #3573C1",
"!. c #3674C2",
"~. c #3776C3",
"^. c #3776C4",
"/. c #3978C3",
"(. c #397BC9",
"). c #3A7DCA",
"_. c #3B7ECC",
"`. c #3C7FCC",
"'. c #3C80CD",
"]. c #3D82D0",
"[. c #3E82D0",
"{. c #3E83D1",
"}. c #3E84D2",
"|. c #3F85D3",
" X c #4986C9",
".X c #4E8ACE",
"XX c #4087D6",
"oX c #4188D6",
"OX c #4188D7",
"+X c #4189D7",
"@X c #428AD9",
"#X c #428BD9",
"$X c #448EDD",
"%X c #448FDD",
"&X c #458FDE",
"*X c #4590DF",
"=X c #5A96D4",
"-X c #5197DE",
";X c #669AD0",
":X c #709FD0",
">X c #7CA0C7",
",X c #4591E0",
"<X c #4691E0",
"1X c #4693E2",
"2X c #4793E2",
"3X c #4794E3",
"4X c #4995E3",
"5X c #4B96E2",
"6X c #4C95E0",
"7X c #4E96E0",
"8X c #A2868A",
"9X c #A89180",
"0X c #B59983",
"qX c #B99F8E",
"wX c #AF9E9C",
"eX c #B9A18C",
"rX c #BCA291",
"tX c #BCAA99",
"yX c #A1A5AB",
"uX c #BDBCBF",
"iX c #D4A187",
"pX c #D7A487",
"aX c #D9A78D",
"sX c #C2A593",
"dX c #C2A992",
"fX c #C6AC93",
"gX c #C9AF96",
"hX c #D2A891",
"jX c #C4B09D",
"kX c #CAB098",
"lX c #CAB199",
"zX c #CAB29B",
"xX c #CDB5A2",
"cX c #D5B9A5",
"vX c #D3BCA6",
"bX c #D5BEAB",
"nX c #F3C883",
"mX c #D7C3B1",
"MX c #D8C2B1",
"NX c #E1C1A6",
"BX c #F2CAAB",
"VX c #E1CCB8",
"CX c #E5D1BD",
"ZX c #F6D0B1",
"AX c #F7D3B4",
"SX c #FAD7B7",
"DX c #FBD7B7",
"FX c #95ADC6",
"GX c #80A8D0",
"HX c #95B2D1",
"JX c gainsboro",
"KX c #E9D5C2",
"LX c #EAD7C3",
"PX c #EBD8C5",
"IX c #E0D9CD",
"UX c None",
/* pixels */
"UXUXUXUXUXUXUXUXUXUXUXUXUXUXUXUXUXUXUXUXUXUXUXUXUXUXUXUXUXUXUXUXUXUXUXUXUXUXUXUXUXUXUXUXUXUXUXUXUXUXUXUXUXUXUXUXUXUXUXUXUXUXUXUX",
"UXUXUXUXUXUXUXUXUXUXUXUXUXUXUXUXUXUXUXUXUXUXUXUXUXUXUXUXUXUXUXUXUXUXUXUXUXUXUXUXUXUXUXUXUXUXUXUXUXUXUXUXUXUXUXUXUXUXUXUXUXUXUXUX",
"UXUXUXUXUXUXUXUXUXUXUXUXUXUXUXUXUXUXUXUXUXUXUXUXUXUXUXUXUXUXUXUXUXUXUXUXUXUXUXUXUXUXUXUXUXUXUXUXUXUXUXUXUXUXUXUXUXUXUXUXUXUXUXUX",
"UXUXUXUXUXUXUXUXUXUXUXUXUXUXUXUXUXUXUXUXUXUXUXUXUXUXUXUXUXUXUXUXUXUXUXUXUXUXUXUXUXUXUXUXUXUXUXUXUXUXUXUXUXUXUXUXUXUXUXUXUXUXUXUX",
"UXUXUXUXUXUXUXUXUXUXUXUXUXUXUXUXUXUXUXUXUXUXUXUXUXUXUXUXUXUXUXUXUXUXUXUXUXUXUXUXUXUXUXUXUXUXUXUXUXUXUXUXUXUXUXUXUXUXUXUXUXUXUXUX",
"UXUXUXUXUXUXUXUXUXUXUXUXUXUXUXUXUXUXUXUXUXUXUXUXUXUXUXUXUXUXUXUXUXUXUXUXUXUXUXUXUXUXUXUXUXUXUXUXUXUXUXUXUXUXUXUXUXUXUXUXUXUXUXUX",
"UXUXUXUXUXUXUXUXUXUXUXUXUXUXUXUXUXUXUXUXUXUXUXUXUXUXUXUXUXUXUXUXUXUXUXUXUXUXUXUXUXUXUXUXUXUXUXUXUXUXUXUXUXUXUXUXUXUXUXUXUXUXUXUX",
"UXUXUXUXUXUXUXUXUXUXUXUXUXUXUXUXUXUXUXUXUXUXUXUXUXUXUXUXUXUXUXUXUXUXUXUXUXUXUXUXUXUXUXUXUXUXUXUXUXUXUXUXUXUXUXUXUXUXUXUXUXUXUXUX",
"UXUXUXUXUXUXUXUXUXUXUXUXUXUXUXUXUXUXUXUXUXUXUXUXUXUXUXUXUXUXUXUXUXUXUXUXUXUXUXUXUXUXUXUXUXUXUXUXUXUXUXUXUXUXUXUXUXUXUXUXUXUXUXUX",
"UXUXUXUXUXUXUXUXUXUXUXUXUXUXUXUXUXUXUXUXUXUXUXUXUXUXUXUXUXUXUXUXUXUXUXUXUXUXUXUXUXUXUXUXUXUXUXUXUXUXUXUXUXUXUXUXUXUXUXUXUXUXUXUX",
"UXUXUXUXUXUXUXUXUXUXUXUXUXUXUXUXUXUXUXUXUXUXUXUXUXUXUXUXUXUXUXUXUXUXUXUXUXUXUXUXUXUXUXUXUXUXUXUXUXUXUXUXUXUXUXUXUXUXUXUXUXUXUXUX",
"UXUXUXUXUXUXUXUXUXUXUXUXUXUXUXUXUXUXUXUXUXUXUXUXUXUXUXUXUXUXUXUXUXUXUXUXUXUXUXUXUXUXUXUXUXUXUXUXUXUXUXUXUXUXUXUXUXUXUXUXUXUXUXUX",
"UXUXUXUXUXUXUXUXUXUXUXUXUXUXUXUXUXUXUXUXUXUXUXUXUXUXUXUXUXUXUXUXUXUXUXUXUXUXUXUXUXUXUXUXUXUXUXUXUXUXUXUXUXUXUXUXUXUXUXUXUXUXUXUX",
"UXUXUXUXUXJXUXUXUXUXUXUXUXUXUXUXUXUXUXUXUXUXUXUXUXUXUXUXUXUXUXUXUXUXUXUXUXUXUXUXUXUXUXUXUXUXUXUXUXUXUXUXUXUXUXUXUXUXUXUXUXUXUXUX",
"UXUXUXUXUXJXJXUXUXUXUXUXUXUXUXUXUXUXUXUXUXUXUXUXUXUXUXUXUXUXUXUXUXUXUXUXUXUXUXUXUXUXUXUXUXUXUXUXUXUXUXUXUXUXUXUXUXUXUXUXUXUXUXUX",
"UXUXUXUXUXJXJXUXUXUXUXUXUXUXUXO.O.O.O.O.UXUXUXUXUXUXUXUXUXUXUXUXUXUXUXUXUXUXUXUXUXUXUXUXUXUXUXUXUXUXUXUXUXUXUXUXUXUXUXUXUXUXUXUX",
"UXUXUXUXUXUXJXUXUXUXUXUXUXUXO.O.O.O.O.O.UXUXUXUXUXUXUXUXUXUXUXUXUXUXUXUXUXUXUXUXUXUXUXUXUXUXUXUXUXUXUXUXUXUXUXUXUXUXUXUXUXUXUXUX",
"UXUXUXUXUXUXJXUXUXUXUXUXUXUXO.@.O.O.O.O.i.p.O.UXUXUXUXUXUXUXUXUXUXUXUXUXUXUXUXUXUXUXUXUXUXUXUXUXUXUXUXUXUXUXUXUXUXUXUXUXUXUXUXUX",
"UXUXUXUXUXUXJXJXUXUXUXUXUXUX0.qXh.+.f.O.3.2.O.O.UXUXUXUXUXUXUXUXUXUXUXUXUXUXUXUXUXUXUXUXUXUXUXUXUXUXUXUXUXUXUXUXUXUXUXUXUXUXUXUX",
"UXUXUXUXUXUXJXJXUXUXUXUXUXUXUX9XNXrXj.O.O.UXO.O.O.O.UXUXUXUXUXUXUXUXUXUXUXUXUXUXUXUXUXUXUXUXUXUXUXUXUXUXUXUXUXUXUXUXUXUXUXUXUXUX",
"UXUXUXUXUXUXUXJXUXUXUXUXUXUXUXSXDXDXpXa.UXUXUXUXO.O.UXUXUXUXUXUXUXUXUXUXUXUXUXUXUXUXUXUXUXUXUXUXUXUXUXUXUXUXUXUXUXUXUXUXUXUXUXUX",
"UXUXUXUXUXUXUXJXUXUXUXUXUXUXUXAXDXZXiXsXA.K.P.UXUXUXUXUXUXUXUXUXUXUXUXUXUXUXUXUXUXUXUXUXUXUXUXUXUXUXUXUXUXUXUXUXUXUXUXUXUXUXUXUX",
"UXUXUXUXUXUXUXJXJXUXUXUXUXUXUXUXBXaXhXuXC.m.B.M.m.M.UXUXUXUXUXUXUXUXUXUXUXUXUXUXUXUXUXUXUXUXUXUXUXUXUXUXUXUXUXUXUXUXUXUXUXUXUXUX",
"UXUXUXUXUXUXUXJXJXUXUXUXUXUXUXUXUXUXcXGX|.G.m.m.m.m.D.W.UXUXUXUXUXUXUXUXUXUXUXUXUXUXUXUXUXUXUXUXUXUXUXUXUXUXUXUXUXUXUXUXUXUXUXUX",
"UXUXUXUXUXUXUXJXJXUXUXUXUXUXUXUXUXUXwX-X_.S.m.m.m.m.J./.R.UXUXUXUXUXUXUXUXUXUXUXUXUXUXUXUXUXUXUXUXUXUXUXUXUXUXUXUXUXUXUXUXUXUXUX",
"UXUXUXUXUXUXUXUXJXUXUXUXUXUXUXUXUXUX8X3X*X!.N.m.m.m.m.Y.$X`.UXUXUXUXUXUXUXUXUXUXUX1XXX'.+X3X3XUXUXUXUXUXUXUXUXUXUXUXUXUXUXUXUXUX",
"UXUXUXUXUXUXUXUXJXJXUXUXUXUXUXUXUXUXI.3X3X<X~.B.N.Z.T. XE.].%XUXUXUXUXUXUX3X3X}.Q.S.m.m.m.U.,XUXUXUXUXUXUXUXUXUXUXUXUXUXUXUXUXUX",
"UXUXUXUXUXUXUXUXJXJXUXUXUXUXUXUXUXUX(.5X4X3X$X[.{..X>XY P n.P.+X3X3X3X3X2X#X^.S.M.m.m.m.m.M.!.&XUXUXUXUXUXUXUXUXUXUXUXUXUXUXUXUX",
"UXUXUXUXUXUXUXUXUXJXUXUXUXUXUXUXUXUX=XFXHX:X7X6X;XyXzX$.j D b.J._.oX@XOX).H.m.m.m.m.m.m.m.m.B.~.UXUXUXUXUXUXUXUXUXUXUXUXUXUXUXUX",
"UXUXUXUXUXUXUXUXUXIXnXUXUXUXUXUXUXUXxXCXLXVXjXtXfXkX0X&.M g t UXm.m.m.m.m.m.m.m.m.m.m.m.m.m.m.m.F.UXUXUXUXUXUXUXUXUXUXUXUXUXUXUX",
"UXUXUXUXUXUXUXUXx.v.z.UXUXUXUXUXUXc #.KXPXmXdXfXgXbX1.4.K u t UXUXUXm.m.m.m.m.m.m.m.m.m.m.m.UXm.V.UXUXUXUXUXUXUXUXUXUXUXUXUXUXUX",
"UXUXUXUXUXUXUXUXUXJ m V UXUXj u r r n MXPXUXeXlXvXl.6.9./ b k UXUXUXUXUXm.m.m.m.m.m.m.m.m.UXUXUXm.UXUXUXUXUXUXUXUXUXUXUXUXUXUXUX",
"UXUXUXUXUXUXUXUXUXz N l y a h f a r B k.UXUXUXc.-.g.g.>.7.A p g UXUXUXUXUXUXUXUXm.m.UXUXUXUXUXUXUXL.UXUXUXUXUXUXUXUXUXUXUXUXUXUX",
"UXUXUXUXUXUXUXUXUXx v s i j a a l t u L UXUXUX%.u.g.d.4.5.Z a j UXUXUXUXUXUXUXUXUXUXUXUXUXUXUXUXUXUXUXUXUXUXUXUXUXUXUXUXUXUXUXUX",
"UXUXUXUXUXUXUXUXUXUXd UXUXUXUXUXUXUXUXUXUXUXT ~ 8.g.r.e.o.S j UXUXUXUXUXUXUXUXUXUXUXUXUXUXUXUXUXUXUXUXUXUXUXUXUXUXUXUXUXUXUXUXUX",
"UXUXUXUXUXUXUXUXUXUXUXUXUXUXUXUXUXUXUXUXUXT T E o.g.s.e.~ UXUXUXUXUXUXUXUXUXUXUXUXUXUXUXUXUXUXUXUXUXUXUXUXUXUXUXUXUXUXUXUXUXUXUX",
"UXUXUXUXUXUXUXUXUXUXUXUXUXUXUXUXUXUXUXUXT T T R X.g.g.d.[ UXUXUXUXUXUXUXUXUXUXUXUXUXUXUXUXUXUXUXUXUXUXUXUXUXUXUXUXUXUXUXUXUXUXUX",
"UXUXUXUXUXUXUXUXUXUXUXUXUXUXUXUXUXUXUXUXT T T T ..g.g.g.>.UXUXUXUXUXUXUXUXUXUXUXUXUXUXUXUXUXUXUXUXUXUXUXUXUXUXUXUXUXUXUXUXUXUXUX",
"UXUXUXUXUXUXUXUXUXUXUXUXUXUXUXUXUXUXUXT T T T ! =.g.g.g.:.UXUXUXUXUXUXUXUXUXUXUXUXUXUXUXUXUXUXUXUXUXUXUXUXUXUXUXUXUXUXUXUXUXUXUX",
"UXUXUXUXUXUXUXUXUXUXUXUXUXUXUXUXUXUXUXT T T Q <.e.g.g.g.} UXUXUXUXUXUXUXUXUXUXUXUXUXUXUXUXUXUXUXUXUXUXUXUXUXUXUXUXUXUXUXUXUXUXUX",
"UXUXUXUXUXUXUXUXUXUXUXUXUXUXUXUXUXUXUXT T T W { ,.g.g.y._ UXUXUXUXUXUXUXUXUXUXUXUXUXUXUXUXUXUXUXUXUXUXUXUXUXUXUXUXUXUXUXUXUXUXUX",
"UXUXUXUXUXUXUXUXUXUXUXUXUXUXUXUXUXUXUXT T T T T | g.g.e.U 1 UXUXUXUXUXUXUXUXUXUXUXUXUXUXUXUXUXUXUXUXUXUXUXUXUXUXUXUXUXUXUXUXUXUX",
"UXUXUXUXUXUXUXUXUXUXUXUXUXUXUXUXUXUXUXUXT T T T ` g.g.d. .F O UXUXUXUXUXUXUXUXUXUXUXUXUXUXUXUXUXUXUXUXUXUXUXUXUXUXUXUXUXUXUXUXUX",
"UXUXUXUXUXUXUXUXUXUXUXUXUXUXUXUXUXUXUXUXUXUXT W ] g.g.g.d.;.C @ .   UXUXUXUXUXUXUXUXUXUXUXUXUXUXUXUXUXUXUXUXUXUXUXUXUXUXUXUXUXUX",
"UXUXUXUXUXUXUXUXUXUXUXUXUXUXUXUXUXUXUXUXUXUXUXUXUXw.g.g.g.s.' I 9 % UXUXUXUXUXUXUXUXUXUXUXUXUXUXUXUXUXUXUXUXUXUXUXUXUXUXUXUXUXUX",
"UXUXUXUXUXUXUXUXUXUXUXUXUXUXUXUXUXUXUXUXUXUXUXUXUXUX*.y.d.g.t.^ H 6 UXUXUXUXUXUXUXUXUXUXUXUXUXUXUXUXUXUXUXUXUXUXUXUXUXUXUXUXUXUX",
"UXUXUXUXUXUXUXUXUXUXUXUXUXUXUXUXUXUXUXUXUXUXUXUXUXUXUXE [ g.g.) * & UXUXUXUXUXUXUXUXUXUXUXUXUXUXUXUXUXUXUXUXUXUXUXUXUXUXUXUXUXUX",
"UXUXUXUXUXUXUXUXUXUXUXUXUXUXUXUXUXUXUXUXUXUXUXUXUXUXUXUX] q.( 8 X + UXUXUXUXUXUXUXUXUXUXUXUXUXUXUXUXUXUXUXUXUXUXUXUXUXUXUXUXUXUX",
"UXUXUXUXUXUXUXUXUXUXUXUXUXUXUXUXUXUXUXUXUXUXUXUXUXUXUXUXUXG 7 5 = X # UXUXUXUXUXUXUXUXUXUXUXUXUXUXUXUXUXUXUXUXUXUXUXUXUXUXUXUXUX",
"UXUXUXUXUXUXUXUXUXUXUXUXUXUXUXUXUXUXUXUXUXUXUXUXUXUXUXUXUXUX> ; e 3 X X UXUXUXUXUXUXUXUXUXUXUXUXUXUXUXUXUXUXUXUXUXUXUXUXUXUXUXUX",
"UXUXUXUXUXUXUXUXUXUXUXUXUXUXUXUXUXUXUXUXUXUXUXUXUXUXUXUXUXUXUXUX0 e < o o UXUXUXUXUXUXUXUXUXUXUXUXUXUXUXUXUXUXUXUXUXUXUXUXUXUXUX",
"UXUXUXUXUXUXUXUXUXUXUXUXUXUXUXUXUXUXUXUXUXUXUXUXUXUXUXUXUXUXUXUXUXw q 4 ; UXUXUXUXUXUXUXUXUXUXUXUXUXUXUXUXUXUXUXUXUXUXUXUXUXUXUX",
"UXUXUXUXUXUXUXUXUXUXUXUXUXUXUXUXUXUXUXUXUXUXUXUXUXUXUXUXUXUXUXUXUXw e 6 $ UXUXUXUXUXUXUXUXUXUXUXUXUXUXUXUXUXUXUXUXUXUXUXUXUXUXUX",
"UXUXUXUXUXUXUXUXUXUXUXUXUXUXUXUXUXUXUXUXUXUXUXUXUXUXUXUXUXUXUXUXUXe w : UXUXUXUXUXUXUXUXUXUXUXUXUXUXUXUXUXUXUXUXUXUXUXUXUXUXUXUX",
"UXUXUXUXUXUXUXUXUXUXUXUXUXUXUXUXUXUXUXUXUXUXUXUXUXUXUXUXUXUXUXUXe e 4 UXUXUXUXUXUXUXUXUXUXUXUXUXUXUXUXUXUXUXUXUXUXUXUXUXUXUXUXUX",
"UXUXUXUXUXUXUXUXUXUXUXUXUXUXUXUXUXUXUXUXUXUXUXUXUXUXUXUXUXUXUX2 , - o UXUXUXUXUXUXUXUXUXUXUXUXUXUXUXUXUXUXUXUXUXUXUXUXUXUXUXUXUX",
"UXUXUXUXUXUXUXUXUXUXUXUXUXUXUXUXUXUXUXUXUXUXUXUXUXUXUXUXUXUXUXUXUXUXUXUXUXUXUXUXUXUXUXUXUXUXUXUXUXUXUXUXUXUXUXUXUXUXUXUXUXUXUXUX",
"UXUXUXUXUXUXUXUXUXUXUXUXUXUXUXUXUXUXUXUXUXUXUXUXUXUXUXUXUXUXUXUXUXUXUXUXUXUXUXUXUXUXUXUXUXUXUXUXUXUXUXUXUXUXUXUXUXUXUXUXUXUXUXUX",
"UXUXUXUXUXUXUXUXUXUXUXUXUXUXUXUXUXUXUXUXUXUXUXUXUXUXUXUXUXUXUXUXUXUXUXUXUXUXUXUXUXUXUXUXUXUXUXUXUXUXUXUXUXUXUXUXUXUXUXUXUXUXUXUX",
"UXUXUXUXUXUXUXUXUXUXUXUXUXUXUXUXUXUXUXUXUXUXUXUXUXUXUXUXUXUXUXUXUXUXUXUXUXUXUXUXUXUXUXUXUXUXUXUXUXUXUXUXUXUXUXUXUXUXUXUXUXUXUXUX",
"UXUXUXUXUXUXUXUXUXUXUXUXUXUXUXUXUXUXUXUXUXUXUXUXUXUXUXUXUXUXUXUXUXUXUXUXUXUXUXUXUXUXUXUXUXUXUXUXUXUXUXUXUXUXUXUXUXUXUXUXUXUXUXUX",
"UXUXUXUXUXUXUXUXUXUXUXUXUXUXUXUXUXUXUXUXUXUXUXUXUXUXUXUXUXUXUXUXUXUXUXUXUXUXUXUXUXUXUXUXUXUXUXUXUXUXUXUXUXUXUXUXUXUXUXUXUXUXUXUX",
"UXUXUXUXUXUXUXUXUXUXUXUXUXUXUXUXUXUXUXUXUXUXUXUXUXUXUXUXUXUXUXUXUXUXUXUXUXUXUXUXUXUXUXUXUXUXUXUXUXUXUXUXUXUXUXUXUXUXUXUXUXUXUXUX",
"UXUXUXUXUXUXUXUXUXUXUXUXUXUXUXUXUXUXUXUXUXUXUXUXUXUXUXUXUXUXUXUXUXUXUXUXUXUXUXUXUXUXUXUXUXUXUXUXUXUXUXUXUXUXUXUXUXUXUXUXUXUXUXUX"
};
