/* XPM */
static char *result[] = {
/* columns rows colors chars-per-pixel */
"64 64 161 2 ",
"   c #191414",
".  c #1E1919",
"X  c #241E1E",
"o  c #252020",
"O  c #2A2424",
"+  c #2E2929",
"@  c #332D2C",
"#  c #363131",
"$  c #3A3333",
"%  c #471916",
"&  c #4C1E1B",
"*  c #461E1F",
"=  c #4F201D",
"-  c #51211E",
";  c #4C2529",
":  c #542422",
">  c #572825",
",  c #592926",
"<  c #5D2B28",
"1  c #582724",
"2  c #4C2D34",
"3  c #462A36",
"4  c #542E34",
"5  c #403735",
"6  c #602E2B",
"7  c #463346",
"8  c #573640",
"9  c #344878",
"0  c #634E42",
"q  c #764E45",
"w  c #675144",
"e  c #695346",
"r  c #6C5649",
"t  c #64564F",
"y  c #715B4E",
"u  c #755A47",
"i  c #615256",
"p  c #745C50",
"a  c #7E5A51",
"s  c #776256",
"d  c #756459",
"f  c #7B6558",
"g  c #7D685A",
"h  c #655968",
"j  c #7F6E63",
"k  c #7B6C6B",
"l  c #815F55",
"z  c #886758",
"x  c #916C5E",
"c  c #AA7559",
"v  c #826D60",
"b  c #846F6A",
"n  c #877265",
"m  c #897366",
"M  c #8B7569",
"N  c #8E796C",
"B  c #907B6E",
"V  c #8C7B73",
"C  c #917E78",
"Z  c #917E77",
"A  c #B67D63",
"S  c #C27F60",
"D  c #9F8070",
"F  c #9B897E",
"G  c #A58572",
"H  c #B2947F",
"J  c #B09B74",
"K  c #E5B25E",
"L  c #CCA264",
"P  c #324F88",
"I  c #36528A",
"U  c #345694",
"Y  c #305A9E",
"T  c #3A639A",
"R  c #2A5FAB",
"E  c #2D5AA0",
"W  c #2B61AD",
"Q  c #3664A7",
"!  c #2D65B1",
"~  c #2F68B4",
"^  c #326EBB",
"/  c #3870B8",
"(  c #3671BC",
")  c #465D8C",
"_  c #4D6F9E",
"`  c #406CAB",
"'  c #4176BB",
"]  c #4779B8",
"[  c #3775C2",
"{  c #3A7AC7",
"}  c #5480B8",
"|  c #738BAE",
" . c #7B8CAB",
".. c #3D81CF",
"X. c #3F84D2",
"o. c #4283CC",
"O. c #5287C4",
"+. c #4086D4",
"@. c #438CDB",
"#. c #4590DE",
"$. c #4D94DE",
"%. c #5396DC",
"&. c #5A94D2",
"*. c #769DC7",
"=. c #609DDC",
"-. c #71A3D7",
";. c #4794E3",
":. c #4894E3",
">. c #958880",
",. c #8A8C9A",
"<. c #8E929D",
"1. c #A98C8A",
"2. c #A2948B",
"3. c #B29683",
"4. c #BC9D8C",
"5. c #A89E98",
"6. c #AB9B97",
"7. c #B7A08D",
"8. c #BAA18D",
"9. c #B4A699",
"0. c #8797AE",
"q. c #8C95AE",
"w. c #9F9EA0",
"e. c #9DA5AE",
"r. c #88A1BB",
"t. c #AFA8A2",
"y. c #B5ACA7",
"u. c #BCB5B2",
"i. c #B4B4B4",
"p. c #D4A38A",
"a. c #C0A697",
"s. c #C6AC93",
"d. c #C8AA96",
"f. c #D1A994",
"g. c #CCB49D",
"h. c #D1B59E",
"j. c #CFBAA7",
"k. c #C8B3A1",
"l. c #D0B9A3",
"z. c #D6BFA8",
"x. c #C5BBB4",
"c. c #EACB98",
"v. c #DBC6B2",
"b. c #DDCAB8",
"n. c #ECC6AA",
"m. c #F0C8AA",
"M. c #EAD1A8",
"N. c #E1CCB7",
"B. c #EFCCB0",
"V. c #E2CCB8",
"C. c #FAD5B6",
"Z. c #F5D2B2",
"A. c #8FAED0",
"S. c #C9C5C2",
"D. c #CFCDCB",
"F. c #D2CFCE",
"G. c #D6D5D4",
"H. c #DCDBDB",
"J. c #E7D4C1",
"K. c #EAD7C3",
"L. c None",
/* pixels */
"L.L.L.L.L.L.L.L.L.L.L.L.L.L.L.L.L.L.L.L.L.L.L.L.L.L.L.L.L.L.L.L.L.L.L.L.L.L.L.L.L.L.L.L.L.L.L.L.L.L.L.L.L.L.L.L.L.L.L.L.L.L.L.L.",
"L.L.L.L.L.L.L.L.L.L.L.L.L.L.L.L.L.L.L.L.L.L.L.L.L.L.L.L.L.L.L.L.L.L.L.L.L.L.L.L.L.L.L.L.L.L.L.L.L.L.L.L.L.L.L.L.L.L.L.L.L.L.L.L.",
"L.L.L.L.L.L.L.L.L.L.L.L.L.L.L.L.L.L.L.L.L.L.L.L.L.L.L.L.L.L.L.L.L.L.L.L.L.L.L.L.L.L.L.L.L.L.L.L.L.L.L.L.L.L.L.L.L.L.L.L.L.L.L.L.",
"L.L.L.L.L.L.L.L.L.L.L.L.L.L.L.L.L.L.L.L.L.L.L.L.L.L.L.L.L.L.L.L.L.L.L.L.L.L.L.L.L.L.L.L.L.L.L.L.L.L.L.L.L.L.L.L.L.L.L.L.L.L.L.L.",
"L.L.L.L.L.L.L.L.L.L.L.L.L.L.L.L.L.L.L.L.L.L.L.L.L.L.L.L.L.L.L.L.L.L.L.L.L.L.L.L.L.L.L.L.L.L.L.L.L.L.L.L.L.L.L.L.L.L.L.L.L.L.L.L.",
"L.L.L.L.L.L.L.L.L.L.L.L.L.L.L.L.L.L.L.L.L.L.L.L.L.L.L.L.L.L.L.L.L.L.L.L.L.L.L.L.L.L.L.L.L.L.L.L.L.L.L.L.L.L.L.L.L.L.L.L.L.L.L.L.",
"L.L.L.L.L.L.L.L.L.L.L.L.L.L.L.L.L.L.L.L.L.L.L.L.L.L.L.L.L.L.L.L.L.L.L.L.L.L.L.L.L.L.L.L.L.L.L.L.L.L.L.L.L.L.L.L.L.L.L.L.L.L.L.L.",
"L.L.L.L.L.L.L.L.L.L.L.L.L.L.L.L.L.L.L.L.L.L.L.L.L.L.L.L.L.L.L.L.L.L.L.L.L.L.L.L.L.L.L.L.L.L.L.L.L.L.L.L.L.L.L.L.L.L.L.L.L.L.L.L.",
"L.L.L.L.L.L.L.L.L.L.L.L.L.L.L.L.L.L.L.L.L.L.L.L.L.L.L.L.L.L.L.L.L.L.L.L.L.L.L.L.L.L.L.L.L.L.L.L.L.L.L.L.L.L.L.L.L.L.L.L.L.L.L.L.",
"L.L.L.L.L.L.L.L.L.L.L.L.L.L.L.L.L.L.L.L.L.L.L.L.L.L.L.L.L.L.L.L.L.L.L.L.L.L.L.L.L.L.L.L.L.L.L.L.L.L.L.L.L.L.L.L.L.L.L.L.L.L.L.L.",
"L.L.L.L.L.L.L.L.L.L.L.L.L.L.L.L.L.L.L.L.L.L.L.L.L.L.L.L.L.L.L.L.L.L.L.L.L.L.L.L.L.L.L.L.L.L.L.L.L.L.L.L.L.L.L.L.L.L.L.L.L.L.L.L.",
"L.L.L.L.L.L.L.L.L.L.L.L.L.k k k L.L.L.L.L.L.L.L.L.L.L.L.L.L.L.L.L.L.L.L.L.L.L.L.L.L.L.L.L.L.L.L.L.L.L.L.L.L.L.L.L.L.L.L.L.L.L.L.",
"L.L.L.L.L.L.L.L.L.L.L.k k k k k k k L.L.L.L.L.L.L.L.L.L.L.L.L.L.L.L.L.L.L.L.L.L.L.L.L.L.L.L.L.L.L.L.L.L.L.L.L.L.L.L.L.L.L.L.L.L.",
"L.L.L.L.L.L.L.L.L.L.L.k k k k k k b L.L.k k k k k L.L.L.L.L.L.L.L.L.L.L.L.L.L.L.L.L.L.L.L.L.L.L.L.L.L.L.L.L.L.L.L.L.L.L.L.L.L.L.",
"L.L.L.L.L.L.L.L.L.L.L.k C k k k k k A k k k L.L.k L.L.L.L.L.L.L.L.L.L.L.L.L.L.L.L.L.L.L.L.L.L.L.L.L.L.L.L.L.L.L.L.L.L.L.L.L.L.L.",
"L.L.L.L.L.L.L.L.L.L.L.C 3.8.V V k k L.L.L.L.L.L.;.+.+.L.L.L.L.L.L.L.L.L.L.L.L.L.L.L.L.L.L.L.L.L.L.L.L.L.L.L.L.L.L.L.L.L.L.L.L.L.",
"L.L.L.L.L.L.L.L.L.L.L.L.h.Z.n.4.k k L.L.L.L.:.$.O.` ( @.L.L.L.L.L.L.L.L.L.L.L.L.L.L.L.L.L.L.L.L.L.L.L.L.L.L.L.L.L.L.L.L.L.L.L.L.",
"L.L.L.L.L.L.L.L.L.L.L.L.C.C.C.f.C L.+.[ +.#.%.i.v.q 3 / @.L.L.L.L.L.L.L.L.L.L.L.L.L.L.L.L.L.L.L.L.L.L.L.L.L.L.L.L.L.L.L.L.L.L.L.",
"L.L.L.L.L.L.L.L.L.L.L.L.B.C.m.p.x.=.:.@.:.:.-.V.a., - I { :.L.L.L.L.L.L.L.L.L.L.L.L.L.L.L.L.L.L.L.L.L.L.L.L.L.L.L.L.L.L.L.L.L.L.",
"L.L.L.L.L.L.L.L.L.L.L.L.L.m.p.f.A.:.;.;.:.:.-.z.l : & 4 T @.L.L.L.L.L.L.L.L.L.L.L.L.L.L.L.L.:.L.L.L.L.L.L.L.L.L.L.L.L.L.L.L.L.L.",
"L.L.L.L.L.: < 6 L.L.L.L.L.L.| 6. .;.;.;.:.;.&.,.h * & - 7 o.;.L.L.L.L.L.L.L.L.L.L.L.L.L.:.X.L.L.L.L.L.L.L.L.L.L.L.L.L.L.L.L.L.L.",
"L.L.L.L.L.: & : : L.L.L.L.L.' 1.0.;.:.;.:.:.o.! Q 9 ; - : ) :.L.L.L.L.L.L.L.L.L.L.L.L.L.{ ! L.L.L.L.L.L.L.L.L.L.L.L.L.L.L.L.L.L.",
"L.L.L.L.L.: & : - : - < x 9.[ ] e.*.;.;.:.:.0.L.R R I ; - 2 ' :.L.L.L.L.L.L.L.L.L.L.L.X.W L.L.L.L.L.L.L.L.L.L.L.L.L.L.L.L.L.L.L.",
"L.L.L.L.L.: : : & - : < G s. .[ <.s.t.e.r.t.s.L.L.L.R E 7 = 3 T L.L.L.L.L.L.L.L.L.L.X.! R L.L.L.L.L.L.L.L.L.L.L.L.L.L.L.L.L.L.L.",
"L.L.L.L.L.L.L.L.L.& : : 3.s.9.}  .g.z.g.g.s.s.l.L.L.L.W I ; : 2 ' #.L.L.L.L.L.L.L.@.^ R R L.L.L.L.L.L.L.L.L.L.L.L.L.L.L.L.L.L.L.",
"L.L.L.L.L.L.L.L.L.L.% % 3.s.s.L.L.8.b.K.N.g.s.s.8.L.L.L.E 8 < , U ^ +.@.;.;.;.;.;.[ R R L.L.L.L.L.L.L.L.L.L.L.L.L.L.L.L.L.L.L.L.",
"L.L.L.L.L.L.L.L.L.L.L.L.L.L.L.L.L.L.k.J.N.h.s.D p L.L.L.J i < 8 W R R R R W W ~ ~ R R R L.L.L.L.L.L.L.L.L.L.L.L.L.L.L.L.L.L.L.L.",
"L.L.L.L.L.L.L.L.L.L.L.L.L.L.L.L.L.L.L.j.N.g.H l f L.L.L.c.L u U R R R R R R R W R R R L.L.L.L.L.L.L.L.L.L.L.L.L.L.L.L.L.L.L.L.L.",
"L.L.L.L.L.L.L.L.L.L.L.L.L.L.L.L.L.L.L.s.v.3.l M N r L.L.H.M.K _ R R R R R R R R R R R L.L.L.L.L.L.L.L.L.L.L.L.L.L.L.L.L.L.L.L.L.",
"L.L.L.L.L.L.L.L.L.L.L.L.L.L.L.L.L.L.L.L.S z x M B f v H.H.L.L.` R R R R R R R R R R L.L.L.L.L.L.L.L.L.L.L.L.L.L.L.L.L.L.L.L.L.L.",
"L.L.L.L.L.L.L.L.L.L.L.L.L.L.L.L.L.L.L.L.c N m B B n y.H.L.L.L.L.R R R R R R R R R R L.L.L.L.L.L.L.L.L.L.L.L.L.L.L.L.L.L.L.L.L.L.",
"L.L.L.L.L.L.L.L.L.L.L.L.L.L.L.L.L.L.L.L.n m N B B 2.H.S.L.L.L.L.L.L.R R R R R R R L.L.L.L.L.L.L.L.L.L.L.L.L.L.L.L.L.L.L.L.L.L.L.",
"L.L.L.L.L.L.L.L.L.L.L.L.L.L.L.L.L.L.L.M M N B B F G.u.w L.L.L.L.L.L.L.L.R R R R L.L.L.L.L.L.L.L.L.L.L.L.L.L.L.L.L.L.L.L.L.L.L.L.",
"L.L.L.L.L.L.L.L.L.L.L.L.L.L.L.L.L.L.B B N B B F x.G.j w p L.L.L.L.L.L.L.L.L.L.L.L.L.L.L.L.L.L.L.L.L.L.L.L.L.L.L.L.L.L.L.L.L.L.L.",
"L.L.L.L.L.L.L.L.L.L.L.L.L.L.L.L.L.L.B B B B B y.H.5.w w e n L.L.L.L.L.L.L.L.L.$ $ + L.L.L.L.L.L.L.L.L.L.L.L.L.L.L.L.L.L.L.L.L.L.",
"L.L.L.L.L.L.L.L.L.L.L.L.L.L.L.L.L.B B B B N 2.H.G.e w w w y p e w 0 5 O @ $ $ $ $ @ . L.L.L.L.L.L.L.L.L.L.L.L.L.L.L.L.L.L.L.L.L.",
"L.L.L.L.L.L.L.L.L.L.L.L.L.L.L.L.B B N B N V S.H.L.r w w w w w w w w 5 O . + @ O + $ L.L.L.L.L.L.L.L.L.L.L.L.L.L.L.L.L.L.L.L.L.L.",
"L.L.L.L.L.L.L.L.L.L.L.L.L.L.L.B B B B B v t.H.L.L.L.w w w w w w w w + .         o $ O L.L.L.L.L.L.L.L.L.L.L.L.L.L.L.L.L.L.L.L.L.",
"L.L.L.L.L.L.L.L.L.L.L.L.L.L.L.B B B N g u.H.H.L.L.L.L.w w w y g s w O     L.L.L.. @ O L.L.L.L.L.L.L.L.L.L.L.L.L.L.L.L.L.L.L.L.L.",
"L.L.L.L.L.L.L.L.L.L.L.L.L.L.L.B B N f >.H.H.L.L.L.L.L.L.w y n B n w L.L.L.L.L.L.L.@ O L.L.L.L.L.L.L.L.L.L.L.L.L.L.L.L.L.L.L.L.L.",
"L.L.L.L.L.L.L.L.L.L.L.L.L.L.B B B V f D.H.L.L.L.L.L.L.L.L.L.L.L.L.L.L.L.L.L.L.L.L.X X L.L.L.L.L.L.L.L.L.L.L.L.L.L.L.L.L.L.L.L.L.",
"L.L.L.L.L.L.L.L.L.L.L.L.L.L.B B B s D.H.L.L.L.L.L.L.L.L.L.L.L.L.L.L.L.L.L.L.L.L.L.L.L.L.L.L.L.L.L.L.L.L.L.L.L.L.L.L.L.L.L.L.L.L.",
"L.L.L.L.L.L.L.L.L.L.L.L.L.N B B z d L.L.L.L.L.L.L.L.L.L.L.L.L.L.L.L.L.L.L.L.L.L.L.L.L.L.L.L.L.L.L.L.L.L.L.L.L.L.L.L.L.L.L.L.L.L.",
"L.L.L.L.L.L.L.L.L.L.L.L.L.d B N s L.L.L.L.L.L.L.L.L.L.L.L.L.L.L.L.L.L.L.L.L.L.L.L.L.L.L.L.L.L.L.L.L.L.L.L.L.L.L.L.L.L.L.L.L.L.L.",
"L.L.L.L.L.L.L.L.L.L.L.L.@ $ t M s L.L.L.L.L.L.L.L.L.L.L.L.L.L.L.L.L.L.L.L.L.L.L.L.L.L.L.L.L.L.L.L.L.L.L.L.L.L.L.L.L.L.L.L.L.L.L.",
"L.L.L.L.L.L.L.L.L.L.L.L.@ @ o $ f L.L.L.L.L.L.L.L.L.L.L.L.L.L.L.L.L.L.L.L.L.L.L.L.L.L.L.L.L.L.L.L.L.L.L.L.L.L.L.L.L.L.L.L.L.L.L.",
"L.L.L.L.L.L.L.L.L.L.L.L.$ X     L.L.L.L.L.L.L.L.L.L.L.L.L.L.L.L.L.L.L.L.L.L.L.L.L.L.L.L.L.L.L.L.L.L.L.L.L.L.L.L.L.L.L.L.L.L.L.L.",
"L.L.L.L.L.L.+ $ # L.L.$ $ . O L.L.L.L.L.L.L.L.L.L.L.L.L.L.L.L.L.L.L.L.L.L.L.L.L.L.L.L.L.L.L.L.L.L.L.L.L.L.L.L.L.L.L.L.L.L.L.L.L.",
"L.L.L.L.L.L.. @ # # $ $ @ . L.L.L.L.L.L.L.L.L.L.L.L.L.L.L.L.L.L.L.L.L.L.L.L.L.L.L.L.L.L.L.L.L.L.L.L.L.L.L.L.L.L.L.L.L.L.L.L.L.L.",
"L.L.L.L.L.L.L.. @ $ # # O L.L.L.L.L.L.L.L.L.L.L.L.L.L.L.L.L.L.L.L.L.L.L.L.L.L.L.L.L.L.L.L.L.L.L.L.L.L.L.L.L.L.L.L.L.L.L.L.L.L.L.",
"L.L.L.L.L.L.L.L.. # # O . L.L.L.L.L.L.L.L.L.L.L.L.L.L.L.L.L.L.L.L.L.L.L.L.L.L.L.L.L.L.L.L.L.L.L.L.L.L.L.L.L.L.L.L.L.L.L.L.L.L.L.",
"L.L.L.L.L.L.L.L.L.L.X . L.L.L.L.L.L.L.L.L.L.L.L.L.L.L.L.L.L.L.L.L.L.L.L.L.L.L.L.L.L.L.L.L.L.L.L.L.L.L.L.L.L.L.L.L.L.L.L.L.L.L.L.",
"L.L.L.L.L.L.L.L.L.L.L.L.L.L.L.L.L.L.L.L.L.L.L.L.L.L.L.L.L.L.L.L.L.L.L.L.L.L.L.L.L.L.L.L.L.L.L.L.L.L.L.L.L.L.L.L.L.L.L.L.L.L.L.L.",
"L.L.L.L.L.L.L.L.L.L.L.L.L.L.L.L.L.L.L.L.L.L.L.L.L.L.L.L.L.L.L.L.L.L.L.L.L.L.L.L.L.L.L.L.L.L.L.L.L.L.L.L.L.L.L.L.L.L.L.L.L.L.L.L.",
"L.L.L.L.L.L.L.L.L.L.L.L.L.L.L.L.L.L.L.L.L.L.L.L.L.L.L.L.L.L.L.L.L.L.L.L.L.L.L.L.L.L.L.L.L.L.L.L.L.L.L.L.L.L.L.L.L.L.L.L.L.L.L.L.",
"L.L.L.L.L.L.L.L.L.L.L.L.L.L.L.L.L.L.L.L.L.L.L.L.L.L.L.L.L.L.L.L.L.L.L.L.L.L.L.L.L.L.L.L.L.L.L.L.L.L.L.L.L.L.L.L.L.L.L.L.L.L.L.L.",
"L.L.L.L.L.L.L.L.L.L.L.L.L.L.L.L.L.L.L.L.L.L.L.L.L.L.L.L.L.L.L.L.L.L.L.L.L.L.L.L.L.L.L.L.L.L.L.L.L.L.L.L.L.L.L.L.L.L.L.L.L.L.L.L.",
"L.L.L.L.L.L.L.L.L.L.L.L.L.L.L.L.L.L.L.L.L.L.L.L.L.L.L.L.L.L.L.L.L.L.L.L.L.L.L.L.L.L.L.L.L.L.L.L.L.L.L.L.L.L.L.L.L.L.L.L.L.L.L.L.",
"L.L.L.L.L.L.L.L.L.L.L.L.L.L.L.L.L.L.L.L.L.L.L.L.L.L.L.L.L.L.L.L.L.L.L.L.L.L.L.L.L.L.L.L.L.L.L.L.L.L.L.L.L.L.L.L.L.L.L.L.L.L.L.L.",
"L.L.L.L.L.L.L.L.L.L.L.L.L.L.L.L.L.L.L.L.L.L.L.L.L.L.L.L.L.L.L.L.L.L.L.L.L.L.L.L.L.L.L.L.L.L.L.L.L.L.L.L.L.L.L.L.L.L.L.L.L.L.L.L.",
"L.L.L.L.L.L.L.L.L.L.L.L.L.L.L.L.L.L.L.L.L.L.L.L.L.L.L.L.L.L.L.L.L.L.L.L.L.L.L.L.L.L.L.L.L.L.L.L.L.L.L.L.L.L.L.L.L.L.L.L.L.L.L.L.",
"L.L.L.L.L.L.L.L.L.L.L.L.L.L.L.L.L.L.L.L.L.L.L.L.L.L.L.L.L.L.L.L.L.L.L.L.L.L.L.L.L.L.L.L.L.L.L.L.L.L.L.L.L.L.L.L.L.L.L.L.L.L.L.L.",
"L.L.L.L.L.L.L.L.L.L.L.L.L.L.L.L.L.L.L.L.L.L.L.L.L.L.L.L.L.L.L.L.L.L.L.L.L.L.L.L.L.L.L.L.L.L.L.L.L.L.L.L.L.L.L.L.L.L.L.L.L.L.L.L.",
"L.L.L.L.L.L.L.L.L.L.L.L.L.L.L.L.L.L.L.L.L.L.L.L.L.L.L.L.L.L.L.L.L.L.L.L.L.L.L.L.L.L.L.L.L.L.L.L.L.L.L.L.L.L.L.L.L.L.L.L.L.L.L.L."
};
