/* XPM */
static char *result[] = {
/* columns rows colors chars-per-pixel */
"64 64 161 2 ",
"   c #1A1515",
".  c #1E1919",
"X  c #221C1C",
"o  c #262121",
"O  c #2B2423",
"+  c #2F2827",
"@  c #322D2D",
"#  c #3F342F",
"$  c #352F30",
"%  c #363030",
"&  c #393333",
"*  c #4B1D1A",
"=  c #471916",
"-  c #4F201D",
";  c #51211E",
":  c #4C272D",
">  c #532422",
",  c #592926",
"<  c #5D2C29",
"1  c #582724",
"2  c #5F312C",
"3  c #4B2D34",
"4  c #422631",
"5  c #512D32",
"6  c #493839",
"7  c #55343E",
"8  c #60332E",
"9  c #453344",
"0  c #553D48",
"q  c #3A436C",
"w  c #584941",
"e  c #634D41",
"r  c #754E46",
"t  c #675144",
"y  c #695346",
"u  c #6C5649",
"i  c #725C4F",
"p  c #7E594D",
"a  c #745F52",
"s  c #7A5D51",
"d  c #7F6A5D",
"f  c #796457",
"g  c #454764",
"h  c #495376",
"j  c #7B6C6B",
"k  c #816B5E",
"l  c #896659",
"z  c #956D59",
"x  c #826F63",
"c  c #866F69",
"v  c #877164",
"b  c #897366",
"n  c #83736E",
"m  c #8C7469",
"M  c #8E796C",
"N  c #997667",
"B  c #907B6E",
"V  c #857371",
"C  c #8C7A75",
"Z  c #937E72",
"A  c #B68B4D",
"S  c #8E8077",
"D  c #968174",
"F  c #95857D",
"G  c #99857B",
"H  c #99887E",
"J  c #BCA47C",
"K  c #C28F6F",
"L  c #324E85",
"P  c #2D599E",
"I  c #315A9B",
"U  c #395F9B",
"Y  c #2A5FAB",
"T  c #2F5BA0",
"R  c #2B61AD",
"E  c #3664A6",
"W  c #2F67B4",
"Q  c #326DBA",
"!  c #3B74BB",
"~  c #456599",
"^  c #56739B",
"/  c #616E8B",
"(  c #6E7B8B",
")  c #717F8E",
"_  c #4F79B4",
"`  c #507FB9",
"'  c #3674C1",
"]  c #3A7CCA",
"[  c #3878C4",
"{  c #407FC7",
"}  c #7180A5",
"|  c #698AB7",
" . c #7C92B5",
".. c #3D81CF",
"X. c #3F86D4",
"o. c #4485CB",
"O. c #518BCC",
"+. c #448EDC",
"@. c #4289D6",
"#. c #4892DF",
"$. c #4590DE",
"%. c #5296DC",
"&. c #5E98D5",
"*. c #6394CA",
"=. c #669CD3",
"-. c #76A4D4",
";. c #4794E3",
":. c #4C95E1",
">. c #5499E1",
",. c #868683",
"<. c #978A81",
"1. c #9B8C82",
"2. c #9F9086",
"3. c #858B9B",
"4. c #B08E87",
"5. c #A3938A",
"6. c #B59B89",
"7. c #B69983",
"8. c #AB9E96",
"9. c #BBA38D",
"0. c #ADA29A",
"q. c #B7A597",
"w. c #9E9DA2",
"e. c #95A4BA",
"r. c #A8A5A4",
"t. c #B2AAA5",
"y. c #B7B7BE",
"u. c #D99F82",
"i. c #C1A68E",
"p. c #D6A58B",
"a. c #C2A792",
"s. c #C6AC93",
"d. c #C9A492",
"f. c #D6AD93",
"g. c #E6A782",
"h. c #CFBFA5",
"j. c #CFBCAA",
"k. c #D1B9A2",
"l. c #EABFA2",
"z. c #D8C1AC",
"x. c #C5C1BF",
"c. c #D7C1B0",
"v. c #DFC9B5",
"b. c #E1C2A9",
"n. c #E1CEBC",
"m. c #E0CBB7",
"M. c #E5D1BD",
"N. c #F5D1B3",
"B. c #FBD7B7",
"V. c #809BC2",
"C. c #B6C2CF",
"Z. c #CBC6C4",
"A. c #CDC9C7",
"S. c #C8C9CC",
"D. c #D1CFCD",
"F. c #D3D1CF",
"G. c #D5D3D2",
"H. c #D8D7D6",
"J. c #DBDADA",
"K. c #EAD6C3",
"L. c None",
/* pixels */
"L.L.L.L.L.L.L.L.L.L.L.L.L.L.L.L.L.L.L.L.L.L.L.L.L.L.L.L.L.L.L.L.L.L.L.L.L.L.L.L.L.L.L.L.L.L.L.L.L.L.L.L.L.L.L.L.L.L.L.L.L.L.L.L.",
"L.L.L.L.L.L.L.L.L.L.L.L.L.L.L.L.L.L.L.L.L.L.L.L.L.L.L.L.L.L.L.L.L.L.L.L.L.L.L.L.L.L.L.L.L.L.L.L.L.L.L.L.L.L.L.L.L.L.L.L.L.L.L.L.",
"L.L.L.L.L.L.L.L.L.L.L.L.L.L.L.L.L.L.L.L.L.L.L.L.L.L.L.L.L.L.L.L.L.L.L.L.L.L.L.L.L.L.L.L.L.L.L.L.L.L.L.L.L.L.L.L.L.L.L.L.L.L.L.L.",
"L.L.L.L.L.L.L.L.L.L.L.L.L.L.L.L.L.L.L.L.L.L.L.L.L.L.L.L.L.L.L.L.L.L.L.L.L.L.L.L.L.L.L.L.L.L.L.L.L.L.L.L.L.L.L.L.L.L.L.L.L.L.L.L.",
"L.L.L.L.L.L.L.L.L.L.L.L.L.L.L.L.L.L.L.L.L.L.L.L.L.L.L.L.L.L.L.L.L.L.L.L.L.L.L.L.L.L.L.L.L.L.L.L.L.L.L.L.L.L.L.L.L.L.L.L.L.L.L.L.",
"L.L.L.L.L.L.L.L.L.L.L.L.L.L.L.L.L.L.L.L.L.L.L.L.L.L.L.L.L.L.L.L.L.L.L.L.L.L.L.L.L.L.L.L.L.L.L.L.L.L.L.L.L.L.L.L.L.L.L.L.L.L.L.L.",
"L.L.L.L.L.L.L.L.L.L.L.L.L.L.L.L.L.L.L.L.L.L.L.L.L.L.L.L.L.L.L.L.L.L.L.L.L.L.L.L.L.L.L.L.L.L.L.L.L.L.L.L.L.L.L.L.L.L.L.L.L.L.L.L.",
"L.L.L.L.L.L.L.L.L.L.L.L.L.L.L.L.L.L.L.L.L.L.L.L.L.L.L.L.L.L.L.L.L.L.L.L.L.L.L.L.L.L.L.L.L.L.L.L.L.L.L.L.L.L.L.L.L.L.L.L.L.L.L.L.",
"L.L.L.L.L.L.L.L.L.L.L.L.L.L.L.L.L.L.L.L.L.L.L.L.L.L.L.L.L.L.L.L.L.L.L.L.L.L.L.L.L.L.L.L.L.L.L.L.L.L.L.L.L.L.L.L.L.L.L.L.L.L.L.L.",
"L.L.L.L.L.L.L.L.L.L.L.L.L.L.L.L.L.L.L.L.L.L.L.L.L.L.L.L.L.L.L.L.L.L.L.L.L.L.L.L.L.L.L.L.L.L.L.L.L.L.L.L.L.L.L.L.L.L.L.L.L.L.L.L.",
"L.L.L.L.L.L.L.L.L.L.L.L.L.L.L.L.L.L.L.L.L.L.L.L.L.L.L.L.L.L.L.L.L.L.L.L.L.L.L.L.L.L.L.L.L.L.L.L.L.L.L.L.L.L.L.L.L.L.L.L.L.L.L.L.",
"L.L.L.L.L.L.L.L.L.L.L.L.L.L.L.L.L.L.L.L.L.L.L.L.L.L.L.L.L.L.L.L.L.L.L.L.L.L.L.L.L.L.L.L.L.L.L.L.L.L.L.L.L.L.L.L.L.L.L.L.L.L.L.L.",
"L.L.L.L.L.L.L.L.L.L.L.L.L.L.L.L.L.L.L.L.L.L.L.L.L.L.L.L.L.L.L.L.L.L.L.L.L.L.L.L.L.L.L.L.L.L.L.L.L.L.L.L.L.L.L.L.L.L.L.L.L.L.L.L.",
"L.L.L.L.L.L.L.L.L.L.L.L.L.L.L.L.L.L.L.L.L.L.L.L.L.L.L.L.L.L.L.L.L.L.L.j j j j L.L.L.L.L.L.L.L.L.L.L.L.L.L.L.L.L.L.L.L.L.L.L.L.L.",
"L.L.L.L.L.L.L.L.L.L.L.L.L.L.L.L.L.L.L.L.L.L.L.L.L.L.L.L.L.L.L.L.L.L.j j j j j j j L.L.L.L.L.L.L.L.L.L.L.L.L.L.L.L.L.L.L.L.L.L.L.",
"L.L.L.L.L.L.L.L.L.L.L.L.L.L.L.L.L.L.L.L.L.L.L.L.L.L.L.L.L.L.L.L.L.N m j j j j j j L.L.L.L.L.L.L.L.L.L.L.L.L.L.L.L.L.L.L.L.L.L.L.",
"L.L.L.L.L.L.L.L.L.L.L.L.L.L.L.L.L.L.L.L.L.L.L.L.L.L.L.L.L.L.L.L.j m c j j j V G n L.L.L.L.L.L.L.L.L.L.L.L.L.L.L.L.L.L.L.L.L.L.L.",
"L.L.L.L.L.L.L.L.L.L.L.L.L.L.L.L.L.L.L.L.L.L.L.L.L.L.L.L.L.L.L.j j L.j j Z C a.G Z L.L.L.L.L.L.L.L.L.L.L.L.L.L.L.L.L.L.L.L.L.L.L.",
"L.L.L.L.L.L.L.L.L.L.L.L.L.L.L.L.L.L.L.L.L.L.L.L.; 6.S.:.;.@.! / L.L.j V f.N.B.b.L.L.L.L.L.L.L.L.L.L.L.L.L.L.L.L.L.L.L.L.L.L.L.L.",
"L.L.L.L.L.L.L.L.L.L.L.L.L.L.L.L.L.L.L.L.L.L.L.L.- 8 c.C.:.;.X.' ! [ ` <.g.B.B.N.L.L.L.L.L.L.L.L.L.L.L.L.L.L.L.L.L.L.L.L.L.L.L.L.",
"L.L.L.L.L.L.L.L.L.L.L.L.L.L.L.L.L.L.L.L.L.L.L.L.* < r j.=.;.;.+.[ [ @.e.u.l.B.L.L.L.L.L.L.L.L.L.L.L.L.L.L.L.L.L.L.L.L.L.L.L.L.L.",
"L.L.L.L.L.L.L.L.L.L.L.L.L.L.L.L.L.L.L.L.L.L.L., * * 9 3.*.;.;.;.+.@.+.=.d.p.L.L.L.L.L.L.L.L.L.L.L.L.L.L.L.L.L.L.L.L.L.L.L.L.L.L.",
"L.L.L.L.L.L.L.L.L.L.L.L.L.L.L.L.L.L.L.L.L.L.h > > 4 P Y ] ;.;.;.;.;.;.>.t.L.L.L.L.L.L.2 1 L.L.L.L.L.L.L.L.L.L.L.L.L.L.L.L.L.L.L.",
"L.L.L.L.L.L.L.L.L.L.L.L.L.L.L.L.L.L.L.L.:.o.9 > > L Y R ! >.;.;.;.;.+.| | L.L.L.L.L.< > ; L.L.L.L.L.L.L.L.L.L.L.L.L.L.L.L.L.L.L.",
"L.L.L.L.L.L.L.L.L.L.L.L.L.L.L.L.L.L.L.;.;.~ > : q Y Y Y | C.-.&.>.;.O.4.} L.L.L.L.L.> ; ; ; L.L.L.L.L.L.L.L.L.L.L.L.L.L.L.L.L.L.",
"L.L.L.L.L.L.L.L.L.L.L.L.L.L.L.L.L.L.;.;...9 * q R Y R R y.K.m.s.t.r.0.3._ L.L.L.L.> ; < > L.L.L.L.L.L.L.L.L.L.L.L.L.L.L.L.L.L.L.",
"L.L.L.L.L.L.L.L.;.L.L.L.L.L.L.L.:.;.;.o.3 > 3 P Y Y Y  .M.n.M.s.s.s.i.w.0.s.L.< - ; * * L.L.L.L.L.L.L.L.L.L.L.L.L.L.L.L.L.L.L.L.",
"L.L.L.L.L.L.L.L.;.L.L.L.L.L.L.;.;.:.#.E 1 < 7 U E Y I q.m.z.M.s.s.a.6.s.s.s.N < > ; L.L.L.L.L.L.L.L.L.L.L.L.L.L.L.L.L.L.L.L.L.L.",
"L.L.L.L.L.L.L.+.;.L.L.L.L.;.;.;.;.;...T 5 , 0 ,.^ L.L.f 9.k.z.s.a.9.L.s.s.s.i.8 > L.L.L.L.L.L.L.L.L.L.L.L.L.L.L.L.L.L.L.L.L.L.L.",
"L.L.L.L.L.L.L.L.] ;.;.;.;.;.;.;.+.' Y Y I g A h.V.L.u d f l 7.i.6.L.L.L.s.s.i.l = L.L.L.L.L.L.L.L.L.L.L.L.L.L.L.L.L.L.L.L.L.L.L.",
"L.L.L.L.L.L.L.L.W X.+.;.;.;.+.] Q Y Y Y Y ( J G.J.C f v k p z K L.L.L.L.L.s.L.L.L.L.L.L.L.L.L.L.L.L.L.L.L.L.L.L.L.L.L.L.L.L.L.L.",
"L.L.L.L.L.L.L.L.L.R Q ' ] [ Q Y Y Y Y Y Y ) ^ L.J.Z.x v v k b z L.L.L.L.L.L.L.L.L.L.L.L.L.L.L.L.L.L.L.L.L.L.L.L.L.L.L.L.L.L.L.L.",
"L.L.L.L.L.L.L.L.L.L.Y Y Y Y Y Y Y Y Y Y Y Y L.L.L.H.D.H b v b M Z D D L.L.L.L.L.L.L.L.L.L.L.L.L.L.L.L.L.L.L.L.L.L.L.L.L.L.L.L.L.",
"L.L.L.L.L.L.L.L.L.L.Y Y Y Y Y Y Y Y Y Y Y L.L.L.L.H F.A.2.v M M B B D D L.L.L.L.L.L.L.L.L.L.L.L.L.L.L.L.L.L.L.L.L.L.L.L.L.L.L.L.",
"L.L.L.L.L.L.L.L.L.L.Y Y Y Y Y Y Y Y Y R L.L.L.L.L.t H J.A.H M M Z D B D D Z L.L.L.L.L.L.L.L.L.L.L.L.L.L.L.L.L.L.L.L.L.L.L.L.L.L.",
"L.L.L.L.L.L.L.L.L.L.L.Y Y Y Y Y Y Y R L.L.L.L.L.t t t j A.F.5.v M Z D B Z Z L.L.L.L.L.L.L.L.L.L.L.L.L.L.L.L.L.L.L.L.L.L.L.L.L.L.",
"L.L.L.L.L.L.L.L.L.L.L.L.R R Y Y Y Y L.L.L.L.L.L.t t t u H J.F.F a a v B Z Z L.L.L.L.L.L.L.L.L.L.L.L.L.L.L.L.L.L.L.L.L.L.L.L.L.L.",
"L.L.L.L.L.L.L.L.L.L.L.L.L.R Y Y L.L.L.L.L.L.L.t t t t t x L.J.H.n i k B Z D L.L.L.L.L.L.L.L.L.L.L.L.L.L.L.L.L.L.L.L.L.L.L.L.L.L.",
"L.L.L.L.L.L.L.L.L.L.L.L.L.L.L.L.L.L.L.L.L.L.L.y t t t i L.L.L.H.H.1.m B Z L.L.L.L.L.L.L.L.L.L.L.L.L.L.L.L.L.L.L.L.L.L.L.L.L.L.L.",
"L.L.L.L.L.L.L.L.L.L.L.L.L.L.L.L.L.L.L.L.L.L.d t t t u L.L.L.L.H F.H.8.B L.L.L.L.L.L.L.L.L.L.L.L.L.L.L.L.L.L.L.L.L.L.L.L.L.L.L.L.",
"L.L.L.L.L.L.L.L.L.L.L.L.L.L.L.L.L.L.L.L.L.L.u t t t u L.L.L.# d 8.H.F.0.L.L.L.L.L.L.L.L.L.L.L.L.L.L.L.L.L.L.L.L.L.L.L.L.L.L.L.L.",
"L.L.L.L.L.L.L.L.L.L.L.L.L.L.L.L.L.L.L.L.L.u t t t t L.L.L.X X 6 x 5.Z.J.L.L.L.L.L.L.L.L.L.L.L.L.L.L.L.L.L.L.L.L.L.L.L.L.L.L.L.L.",
"L.L.L.L.L.L.L.L.L.L.L.L.L.L.L.L.L.L.L.L.y t t t t t L.L.L.. . & w f L.L.L.L.L.L.L.L.L.L.L.L.L.L.L.L.L.L.L.L.L.L.L.L.L.L.L.L.L.L.",
"L.L.L.L.L.L.L.L.L.L.L.L.L.L.L.L.L.L.L.t t t t t t L.L.L.L.X o + & L.L.L.L.L.L.L.L.L.L.L.L.L.L.L.L.L.L.L.L.L.L.L.L.L.L.L.L.L.L.L.",
"L.L.L.L.L.L.L.L.L.L.L.L.L.L.L.L.L.L.L.e t t t t L.L.L.L.  @ & . L.L.L.L.L.L.L.L.L.L.L.L.L.L.L.L.L.L.L.L.L.L.L.L.L.L.L.L.L.L.L.L.",
"L.L.L.L.L.L.L.L.L.L.L.L.L.L.L.L.L.L.  + t y t L.L.L.L.  o & % L.L.L.L.L.L.L.L.L.L.L.L.L.L.L.L.L.L.L.L.L.L.L.L.L.L.L.L.L.L.L.L.L.",
"L.L.L.L.L.L.L.L.L.L.L.L.L.L.L.L.L.L.  o 6 6 w L.L.L.  X % @ L.L.L.L.L.L.L.L.L.L.L.L.L.L.L.L.L.L.L.L.L.L.L.L.L.L.L.L.L.L.L.L.L.L.",
"L.L.L.L.L.L.L.L.L.L.L.L.L.L.L.L.L.O . o @ @ L.L.L.L.  @ & @ . L.L.L.L.L.L.L.L.L.L.L.L.L.L.L.L.L.L.L.L.L.L.L.L.L.L.L.L.L.L.L.L.L.",
"L.L.L.L.L.L.L.L.L.L.L.L.L.L.L.L.L.  @ & $ L.L.L.L.L.L.. % & @ o L.L.L.L.L.L.L.L.L.L.L.L.L.L.L.L.L.L.L.L.L.L.L.L.L.L.L.L.L.L.L.L.",
"L.L.L.L.L.L.L.L.L.L.L.L.L.L.L.  . @ & & L.L.L.L.L.L.L.L.L.o % O L.L.L.L.L.L.L.L.L.L.L.L.L.L.L.L.L.L.L.L.L.L.L.L.L.L.L.L.L.L.L.L.",
"L.L.L.L.L.L.L.L.L.L.L.L.L.L.  o + & & L.L.L.L.L.L.L.L.L.L.L.    L.L.L.L.L.L.L.L.L.L.L.L.L.L.L.L.L.L.L.L.L.L.L.L.L.L.L.L.L.L.L.L.",
"L.L.L.L.L.L.L.L.L.L.L.L.L.L.L.o & & & L.L.L.L.L.L.L.L.L.L.L.L.L.L.L.L.L.L.L.L.L.L.L.L.L.L.L.L.L.L.L.L.L.L.L.L.L.L.L.L.L.L.L.L.L.",
"L.L.L.L.L.L.L.L.L.L.L.L.L.L.L.X % & & L.L.L.L.L.L.L.L.L.L.L.L.L.L.L.L.L.L.L.L.L.L.L.L.L.L.L.L.L.L.L.L.L.L.L.L.L.L.L.L.L.L.L.L.L.",
"L.L.L.L.L.L.L.L.L.L.L.L.L.L.L.L.& & & & L.L.L.L.L.L.L.L.L.L.L.L.L.L.L.L.L.L.L.L.L.L.L.L.L.L.L.L.L.L.L.L.L.L.L.L.L.L.L.L.L.L.L.L.",
"L.L.L.L.L.L.L.L.L.L.L.L.L.L.L.L.o % & & & L.L.L.L.L.L.L.L.L.L.L.L.L.L.L.L.L.L.L.L.L.L.L.L.L.L.L.L.L.L.L.L.L.L.L.L.L.L.L.L.L.L.L.",
"L.L.L.L.L.L.L.L.L.L.L.L.L.L.L.L.L.. . . . L.L.L.L.L.L.L.L.L.L.L.L.L.L.L.L.L.L.L.L.L.L.L.L.L.L.L.L.L.L.L.L.L.L.L.L.L.L.L.L.L.L.L.",
"L.L.L.L.L.L.L.L.L.L.L.L.L.L.L.L.L.L.L.L.L.L.L.L.L.L.L.L.L.L.L.L.L.L.L.L.L.L.L.L.L.L.L.L.L.L.L.L.L.L.L.L.L.L.L.L.L.L.L.L.L.L.L.L.",
"L.L.L.L.L.L.L.L.L.L.L.L.L.L.L.L.L.L.L.L.L.L.L.L.L.L.L.L.L.L.L.L.L.L.L.L.L.L.L.L.L.L.L.L.L.L.L.L.L.L.L.L.L.L.L.L.L.L.L.L.L.L.L.L.",
"L.L.L.L.L.L.L.L.L.L.L.L.L.L.L.L.L.L.L.L.L.L.L.L.L.L.L.L.L.L.L.L.L.L.L.L.L.L.L.L.L.L.L.L.L.L.L.L.L.L.L.L.L.L.L.L.L.L.L.L.L.L.L.L.",
"L.L.L.L.L.L.L.L.L.L.L.L.L.L.L.L.L.L.L.L.L.L.L.L.L.L.L.L.L.L.L.L.L.L.L.L.L.L.L.L.L.L.L.L.L.L.L.L.L.L.L.L.L.L.L.L.L.L.L.L.L.L.L.L.",
"L.L.L.L.L.L.L.L.L.L.L.L.L.L.L.L.L.L.L.L.L.L.L.L.L.L.L.L.L.L.L.L.L.L.L.L.L.L.L.L.L.L.L.L.L.L.L.L.L.L.L.L.L.L.L.L.L.L.L.L.L.L.L.L.",
"L.L.L.L.L.L.L.L.L.L.L.L.L.L.L.L.L.L.L.L.L.L.L.L.L.L.L.L.L.L.L.L.L.L.L.L.L.L.L.L.L.L.L.L.L.L.L.L.L.L.L.L.L.L.L.L.L.L.L.L.L.L.L.L.",
"L.L.L.L.L.L.L.L.L.L.L.L.L.L.L.L.L.L.L.L.L.L.L.L.L.L.L.L.L.L.L.L.L.L.L.L.L.L.L.L.L.L.L.L.L.L.L.L.L.L.L.L.L.L.L.L.L.L.L.L.L.L.L.L.",
"L.L.L.L.L.L.L.L.L.L.L.L.L.L.L.L.L.L.L.L.L.L.L.L.L.L.L.L.L.L.L.L.L.L.L.L.L.L.L.L.L.L.L.L.L.L.L.L.L.L.L.L.L.L.L.L.L.L.L.L.L.L.L.L."
};
