/* XPM */
static char *result[] = {
/* columns rows colors chars-per-pixel */
"64 64 159 2 ",
"   c #191515",
".  c #1E1919",
"X  c #221D1D",
"o  c #262121",
"O  c #2C2525",
"+  c #2E2929",
"@  c #322D2D",
"#  c #382E2B",
"$  c #352F30",
"%  c #373131",
"&  c #393333",
"*  c #4C1D1A",
"=  c #4F201D",
"-  c #51221F",
";  c #472328",
":  c #542421",
">  c #582724",
",  c #5B2A27",
"<  c #522B2D",
"1  c #5D2D2A",
"2  c #562A27",
"3  c #4D2C34",
"4  c #492E39",
"5  c #502D35",
"6  c #602E2B",
"7  c #3C3A59",
"8  c #513C4E",
"9  c #3C4B78",
"0  c #5F524C",
"q  c #784D44",
"w  c #675144",
"e  c #695346",
"r  c #6D574A",
"t  c #6F5A4D",
"y  c #76594E",
"u  c #665750",
"i  c #725E52",
"p  c #7A5E53",
"a  c #7D624C",
"s  c #756054",
"d  c #7C6659",
"f  c #7A6457",
"g  c #484C6F",
"h  c #685D6B",
"j  c #6C6466",
"k  c #7B6C6B",
"l  c #84584A",
"z  c #816B5E",
"x  c #88665A",
"c  c #916D5E",
"v  c #AC7355",
"b  c #836E62",
"n  c #866F6A",
"m  c #867164",
"M  c #897366",
"N  c #80716E",
"B  c #8B7569",
"V  c #8E796C",
"C  c #907B6E",
"Z  c #987766",
"A  c #8E7C77",
"S  c #877672",
"D  c #927E77",
"F  c #B67E63",
"G  c #968276",
"H  c #93847A",
"J  c #9B887D",
"K  c #AB8D7A",
"L  c #CC8A6A",
"P  c #C0A26E",
"I  c #DCB064",
"U  c #D7AF71",
"Y  c #324E86",
"T  c #3B5687",
"R  c #2F5798",
"E  c #2F5595",
"W  c #2D5CA3",
"Q  c #2A5FAB",
"!  c #2B61AD",
"~  c #3C6CAD",
"^  c #3866AA",
"/  c #2E66B3",
"(  c #346EB8",
")  c #3D77BF",
"_  c #3B73BB",
"`  c #41679D",
"'  c #667A94",
"]  c #4269A3",
"[  c #4478BD",
"{  c #537FB9",
"}  c #3675C2",
"|  c #3B7DCB",
" . c #7588A6",
".. c #7C90AC",
"X. c #6082B0",
"o. c #3C80CD",
"O. c #3F85D3",
"+. c #598BC5",
"@. c #4087D5",
"#. c #4289D6",
"$. c #448DDC",
"%. c #4D94DE",
"&. c #5495D9",
"*. c #7C9EC3",
"=. c #619DDB",
"-. c #73A4D6",
";. c #4793E2",
":. c #4B95E1",
">. c #9F959F",
",. c #97989E",
"<. c #AD8D87",
"1. c #A1968F",
"2. c #B19887",
"3. c #B89C87",
"4. c #B29A88",
"5. c #B49D93",
"6. c #BCA48F",
"7. c #ACA099",
"8. c #B8A798",
"9. c #BCA591",
"0. c #898EA7",
"q. c #8691A4",
"w. c #849BB6",
"e. c #9DA4AD",
"r. c #8BA1B9",
"t. c #97A4B1",
"y. c #AFA8A2",
"u. c #A1ACB9",
"i. c #BCB6B3",
"p. c #BEB8B5",
"a. c #C09F8C",
"s. c #D29F86",
"d. c #D4A48C",
"f. c #C6AC93",
"g. c #C2AA95",
"h. c #C6B29F",
"j. c #CDB49C",
"k. c #D9B098",
"l. c #CDB7A8",
"z. c #D0B8A1",
"x. c #D4BDAA",
"c. c #C0B7B3",
"v. c #CEC1B5",
"b. c #DDC8B5",
"n. c #EBC9AD",
"m. c #F0C7AA",
"M. c #E2CEBA",
"N. c #F5CFB0",
"B. c #E5D4BD",
"V. c #F9D5B6",
"C. c #F2D0B1",
"Z. c #A6B5C6",
"A. c #CAC7C5",
"S. c #D5CDC6",
"D. c #D5D3D2",
"F. c #D8D8D7",
"G. c #DBDBDB",
"H. c #E9D5C1",
"J. c None",
/* pixels */
"J.J.J.J.J.J.J.J.J.J.J.J.J.J.J.J.J.J.J.J.J.J.J.J.J.J.J.J.J.J.J.J.J.J.J.J.J.J.J.J.J.J.J.J.J.J.J.J.J.J.J.J.J.J.J.J.J.J.J.J.J.J.J.J.",
"J.J.J.J.J.J.J.J.J.J.J.J.J.J.J.J.J.J.J.J.J.J.J.J.J.J.J.J.J.J.J.J.J.J.J.J.J.J.J.J.J.J.J.J.J.J.J.J.J.J.J.J.J.J.J.J.J.J.J.J.J.J.J.J.",
"J.J.J.J.J.J.J.J.J.J.J.J.J.J.J.J.J.J.J.J.J.J.J.J.J.J.J.J.J.J.J.J.J.J.J.J.J.J.J.J.J.J.J.J.J.J.J.J.J.J.J.J.J.J.J.J.J.J.J.J.J.J.J.J.",
"J.J.J.J.J.J.J.J.J.J.J.J.J.J.J.J.J.J.J.J.J.J.J.J.J.J.J.J.J.J.J.J.J.J.J.J.J.J.J.J.J.J.J.J.J.J.J.J.J.J.J.J.J.J.J.J.J.J.J.J.J.J.J.J.",
"J.J.J.J.J.J.J.J.J.J.J.J.J.J.J.J.J.J.J.J.J.J.J.J.J.J.J.J.J.J.J.J.J.J.J.J.J.J.J.J.J.J.J.J.J.J.J.J.J.J.J.J.J.J.J.J.J.J.J.J.J.J.J.J.",
"J.J.J.J.J.J.J.J.J.J.J.J.J.J.J.J.J.J.J.J.J.J.J.J.J.J.J.J.J.J.J.J.J.J.J.J.J.J.J.J.J.J.J.J.J.J.J.J.J.J.J.J.J.J.J.J.J.J.J.J.J.J.J.J.",
"J.J.J.J.J.J.J.J.J.J.J.J.J.J.J.J.J.J.J.J.J.J.J.J.J.J.J.J.J.J.J.J.J.J.J.J.J.J.J.J.J.J.J.J.J.J.J.J.J.J.J.J.J.J.J.J.J.J.J.J.J.J.J.J.",
"J.J.J.J.J.J.J.J.J.J.J.J.J.J.J.J.J.J.J.J.J.J.J.J.J.J.J.J.J.J.J.J.J.J.J.J.J.J.J.J.J.J.J.J.J.J.J.J.J.J.J.J.J.J.J.J.J.J.J.J.J.J.J.J.",
"J.J.J.J.J.J.J.J.J.J.J.J.J.J.J.J.J.J.J.J.J.J.J.J.J.J.J.J.J.J.J.J.J.J.J.J.J.J.J.J.J.J.J.J.J.J.J.J.J.J.J.J.J.J.J.J.J.J.J.J.J.J.J.J.",
"J.J.J.J.J.J.J.J.J.J.J.J.J.J.J.J.J.J.J.J.J.J.J.J.J.J.J.J.J.J.J.J.J.J.J.J.J.J.J.J.J.J.J.J.J.J.J.J.J.J.J.J.J.J.J.J.J.J.J.J.J.J.J.J.",
"J.J.J.J.J.J.J.J.J.J.J.J.J.J.J.J.J.J.J.J.J.J.J.J.J.J.J.J.J.J.J.J.J.J.J.J.J.J.J.J.J.J.J.J.J.J.J.J.J.J.J.J.J.J.J.J.J.J.J.J.J.J.J.J.",
"J.J.J.J.J.J.J.J.J.J.J.J.J.J.J.J.J.J.J.J.J.J.J.J.J.J.J.J.J.J.J.J.J.J.J.k k k k J.J.J.J.J.J.J.J.J.J.J.J.J.J.J.J.J.J.J.J.J.J.J.J.J.",
"J.J.J.J.J.J.J.J.J.J.J.J.J.J.J.J.J.J.J.J.J.J.J.J.J.J.J.J.J.J.J.J.J.J.k k k k k k k J.J.J.J.J.J.J.J.J.J.J.J.J.J.J.J.J.J.J.J.J.J.J.",
"J.J.J.J.J.J.J.J.J.J.J.J.J.J.J.J.J.J.J.J.J.J.J.J.J.J.J.k k k k J.J.J.n k k k k k k J.J.J.J.J.J.J.J.J.J.J.J.J.J.J.J.J.J.J.J.J.J.J.",
"J.J.J.J.J.J.J.J.J.J.J.J.J.J.J.J.J.J.J.J.J.J.J.J.J.J.J.J.J.k k k k F M k k k N A N J.J.J.J.J.J.J.J.J.J.J.J.J.J.J.J.J.J.J.J.J.J.J.",
"J.J.J.J.J.J.J.J.J.J.J.J.J.J.J.J.J.J.J.J.J.J.J.J.J.@.@.J.J.J.J.J.J.J.k N D A g.2.J J.J.J.J.J.J.J.J.J.J.J.J.J.J.J.J.J.J.J.J.J.J.J.",
"J.J.J.J.J.J.J.J.J.J.J.J.J.J.J.J.J.J.J.J.J.J.J.J.@.( ] +.%.J.J.J.J.J.k S 3.n.N.f.J.J.J.J.J.J.J.J.J.J.J.J.J.J.J.J.J.J.J.J.J.J.J.J.",
"J.J.J.J.J.J.J.J.J.J.J.J.J.J.J.J.J.J.J.J.J.J.J.@.~ ; m M.u.:.;.O.} #.J.D k.V.V.V.J.J.J.J.J.J.J.J.J.J.J.J.J.J.J.J.J.J.J.J.J.J.J.J.",
"J.J.J.J.J.J.J.J.J.J.J.J.J.J.J.J.J.J.J.J.J.J.;._ 9 : 1 z.S.=.;.;.;.;.-.l.d.m.V.J.J.J.J.J.J.J.J.J.J.J.J.J.J.J.J.J.J.J.J.J.J.J.J.J.",
"J.J.J.J.J.;.J.J.J.J.J.J.J.J.J.J.J.J.J.J.J.J.$.T < * : y x.=.;.;.;.;.:.Z.d.d.N.J.J.J.J.J.J.J.J.J.J.J.J.J.J.J.J.J.J.J.J.J.J.J.J.J.",
"J.J.J.J.J.J.O.J.J.J.J.J.J.J.J.J.J.J.J.J.J.;._ 5 : * ; h q.&.;.;.;.;.:.0.5.J.J.J.J.J.J.J.1 > > J.J.J.J.J.J.J.J.J.J.J.J.J.J.J.J.J.",
"J.J.J.J.J.J./ O.J.J.J.J.J.J.J.J.J.J.J.J.;.$.g : : ; Y ^ ~ $.;.:.;.;.:.>.<.) J.J.J.J.J.> > * - J.J.J.J.J.J.J.J.J.J.J.J.J.J.J.J.J.",
"J.J.J.J.J.J.Q ! | J.J.J.J.J.J.J.J.J.J.J.;.] < - 4 E ! ! J.w.:.:.;.;.*.,.[ [ f.q , - - * , * , J.J.J.J.J.J.J.J.J.J.J.J.J.J.J.J.J.",
"J.J.J.J.J.J.J.! / #.J.J.J.J.J.J.J.J.J.J.T 4 * 7 W ! J.J.J.g.e.r.u.y.f. .} ..f.c 1 - - * : : : J.J.J.J.J.J.J.J.J.J.J.J.J.J.J.J.J.",
"J.J.J.J.J.J.J.Q Q } $.J.J.J.J.J.J.J.$.` < : 3 R Q J.J.J.j.f.f.j.j.x.f.X.+.8.f.Z 1 - * J.J.J.J.J.J.J.J.J.J.J.J.J.J.J.J.J.J.J.J.J.",
"J.J.J.J.J.J.J.J.Q ! | ;.;.;.;.;.$.@.( 9 , 1 8 ! J.J.J.4.f.f.f.B.B.M.9.J.J.f.f.Z - J.J.J.J.J.J.J.J.J.J.J.J.J.J.J.J.J.J.J.J.J.J.J.",
"J.J.J.J.J.J.J.J.Q Q ! / / ! ! Q Q Q ! W 3 2 j P J.J.J.p K f.j.B.M.h.J.J.J.J.J.J.J.J.J.J.J.J.J.J.J.J.J.J.J.J.J.J.J.J.J.J.J.J.J.J.",
"J.J.J.J.J.J.J.J.J.Q Q Q Q Q Q Q Q Q ! ! T a U J.J.J.e d x 6.j.B.j.J.J.J.J.J.J.J.J.J.J.J.J.J.J.J.J.J.J.J.J.J.J.J.J.J.J.J.J.J.J.J.",
"J.J.J.J.J.J.J.J.J.Q Q Q Q Q Q Q Q Q Q Q ' I B.G.J.J.t C M x 3.M.6.J.J.J.J.J.J.J.J.J.J.J.J.J.J.J.J.J.J.J.J.J.J.J.J.J.J.J.J.J.J.J.",
"J.J.J.J.J.J.J.J.J.J.Q Q Q Q Q Q Q Q Q ! ' J.J.G.G.t z C M b l L J.J.J.J.J.J.J.J.J.J.J.J.J.J.J.J.J.J.J.J.J.J.J.J.J.J.J.J.J.J.J.J.",
"J.J.J.J.J.J.J.J.J.J.Q Q Q Q Q Q Q Q Q Q J.J.J.G.G.>.B C V M Z v J.J.J.J.J.J.J.J.J.J.J.J.J.J.J.J.J.J.J.J.J.J.J.J.J.J.J.J.J.J.J.J.",
"J.J.J.J.J.J.J.J.J.J.J.Q Q Q Q Q Q Q J.J.J.J.J.J.S.D.J C C B M z J.J.J.J.J.J.J.J.J.J.J.J.J.J.J.J.J.J.J.J.J.J.J.J.J.J.J.J.J.J.J.J.",
"J.J.J.J.J.J.J.J.J.J.J.J.Q Q Q Q J.J.J.J.J.J.J.r t A.S.G C C V B M J.J.J.J.J.J.J.J.J.J.J.J.J.J.J.J.J.J.J.J.J.J.J.J.J.J.J.J.J.J.J.",
"J.J.J.J.J.J.J.J.J.J.J.J.J.J.J.J.J.J.J.J.J.J.J.t w H G.c.G C C C C C J.J.J.J.J.J.J.J.J.J.J.J.J.J.J.J.J.J.J.J.J.J.J.J.J.J.J.J.J.J.",
"J.J.J.J.J.J.J.J.J.. @ & J.J.J.J.J.J.J.J.J.J.d e w e p.F.7.C C C C C J.J.J.J.J.J.J.J.J.J.J.J.J.J.J.J.J.J.J.J.J.J.J.J.J.J.J.J.J.J.",
"J.J.J.J.J.J.J.J.J.X & & & & & O + & w w r i r w w w s G.D.H V C C C C J.J.J.J.J.J.J.J.J.J.J.J.J.J.J.J.J.J.J.J.J.J.J.J.J.J.J.J.J.",
"J.J.J.J.J.J.J.J.J.+ & + O @ O . + & w w w w w w w w J.J.G.p.B V C C C C J.J.J.J.J.J.J.J.J.J.J.J.J.J.J.J.J.J.J.J.J.J.J.J.J.J.J.J.",
"J.J.J.J.J.J.J.J.J.+ % o         . # w w w w w w w w J.J.G.F.7.b C A C C C J.J.J.J.J.J.J.J.J.J.J.J.J.J.J.J.J.J.J.J.J.J.J.J.J.J.J.",
"J.J.J.J.J.J.J.J.J.+ @ . J.J.J.    O e d d r w w w J.J.J.J.G.G.1.z V C C C J.J.J.J.J.J.J.J.J.J.J.J.J.J.J.J.J.J.J.J.J.J.J.J.J.J.J.",
"J.J.J.J.J.J.J.J.J.O + J.J.J.J.J.J.J.t B A m t w J.J.J.J.J.J.G.F.m d V C C J.J.J.J.J.J.J.J.J.J.J.J.J.J.J.J.J.J.J.J.J.J.J.J.J.J.J.",
"J.J.J.J.J.J.J.J.J.X X J.J.J.J.J.J.J.J.J.J.J.J.J.J.J.J.J.J.J.J.G.i.s B V C C J.J.J.J.J.J.J.J.J.J.J.J.J.J.J.J.J.J.J.J.J.J.J.J.J.J.",
"J.J.J.J.J.J.J.J.J.J.J.J.J.J.J.J.J.J.J.J.J.J.J.J.J.J.J.J.J.J.J.J.G.A.z C C C J.J.J.J.J.J.J.J.J.J.J.J.J.J.J.J.J.J.J.J.J.J.J.J.J.J.",
"J.J.J.J.J.J.J.J.J.J.J.J.J.J.J.J.J.J.J.J.J.J.J.J.J.J.J.J.J.J.J.J.J.J.f m C C V J.J.J.J.J.J.J.J.J.J.J.J.J.J.J.J.J.J.J.J.J.J.J.J.J.",
"J.J.J.J.J.J.J.J.J.J.J.J.J.J.J.J.J.J.J.J.J.J.J.J.J.J.J.J.J.J.J.J.J.J.J.f C V u J.J.J.J.J.J.J.J.J.J.J.J.J.J.J.J.J.J.J.J.J.J.J.J.J.",
"J.J.J.J.J.J.J.J.J.J.J.J.J.J.J.J.J.J.J.J.J.J.J.J.J.J.J.J.J.J.J.J.J.J.J.z B 0 % @ J.J.J.J.J.J.J.J.J.J.J.J.J.J.J.J.J.J.J.J.J.J.J.J.",
"J.J.J.J.J.J.J.J.J.J.J.J.J.J.J.J.J.J.J.J.J.J.J.J.J.J.J.J.J.J.J.J.J.J.J.s # o @ @ J.J.J.J.J.J.J.J.J.J.J.J.J.J.J.J.J.J.J.J.J.J.J.J.",
"J.J.J.J.J.J.J.J.J.J.J.J.J.J.J.J.J.J.J.J.J.J.J.J.J.J.J.J.J.J.J.J.J.J.J.J.    O & J.J.J.J.J.J.J.J.J.J.J.J.J.J.J.J.J.J.J.J.J.J.J.J.",
"J.J.J.J.J.J.J.J.J.J.J.J.J.J.J.J.J.J.J.J.J.J.J.J.J.J.J.J.J.J.J.J.J.J.J.J.J.o X & & J.J.% & J.J.J.J.J.J.J.J.J.J.J.J.J.J.J.J.J.J.J.",
"J.J.J.J.J.J.J.J.J.J.J.J.J.J.J.J.J.J.J.J.J.J.J.J.J.J.J.J.J.J.J.J.J.J.J.J.J.J.. % & % % & +   J.J.J.J.J.J.J.J.J.J.J.J.J.J.J.J.J.J.",
"J.J.J.J.J.J.J.J.J.J.J.J.J.J.J.J.J.J.J.J.J.J.J.J.J.J.J.J.J.J.J.J.J.J.J.J.J.J.J.O % & & @ . J.J.J.J.J.J.J.J.J.J.J.J.J.J.J.J.J.J.J.",
"J.J.J.J.J.J.J.J.J.J.J.J.J.J.J.J.J.J.J.J.J.J.J.J.J.J.J.J.J.J.J.J.J.J.J.J.J.J.J.. o % @   J.J.J.J.J.J.J.J.J.J.J.J.J.J.J.J.J.J.J.J.",
"J.J.J.J.J.J.J.J.J.J.J.J.J.J.J.J.J.J.J.J.J.J.J.J.J.J.J.J.J.J.J.J.J.J.J.J.J.J.J.J.. X J.J.J.J.J.J.J.J.J.J.J.J.J.J.J.J.J.J.J.J.J.J.",
"J.J.J.J.J.J.J.J.J.J.J.J.J.J.J.J.J.J.J.J.J.J.J.J.J.J.J.J.J.J.J.J.J.J.J.J.J.J.J.J.J.J.J.J.J.J.J.J.J.J.J.J.J.J.J.J.J.J.J.J.J.J.J.J.",
"J.J.J.J.J.J.J.J.J.J.J.J.J.J.J.J.J.J.J.J.J.J.J.J.J.J.J.J.J.J.J.J.J.J.J.J.J.J.J.J.J.J.J.J.J.J.J.J.J.J.J.J.J.J.J.J.J.J.J.J.J.J.J.J.",
"J.J.J.J.J.J.J.J.J.J.J.J.J.J.J.J.J.J.J.J.J.J.J.J.J.J.J.J.J.J.J.J.J.J.J.J.J.J.J.J.J.J.J.J.J.J.J.J.J.J.J.J.J.J.J.J.J.J.J.J.J.J.J.J.",
"J.J.J.J.J.J.J.J.J.J.J.J.J.J.J.J.J.J.J.J.J.J.J.J.J.J.J.J.J.J.J.J.J.J.J.J.J.J.J.J.J.J.J.J.J.J.J.J.J.J.J.J.J.J.J.J.J.J.J.J.J.J.J.J.",
"J.J.J.J.J.J.J.J.J.J.J.J.J.J.J.J.J.J.J.J.J.J.J.J.J.J.J.J.J.J.J.J.J.J.J.J.J.J.J.J.J.J.J.J.J.J.J.J.J.J.J.J.J.J.J.J.J.J.J.J.J.J.J.J.",
"J.J.J.J.J.J.J.J.J.J.J.J.J.J.J.J.J.J.J.J.J.J.J.J.J.J.J.J.J.J.J.J.J.J.J.J.J.J.J.J.J.J.J.J.J.J.J.J.J.J.J.J.J.J.J.J.J.J.J.J.J.J.J.J.",
"J.J.J.J.J.J.J.J.J.J.J.J.J.J.J.J.J.J.J.J.J.J.J.J.J.J.J.J.J.J.J.J.J.J.J.J.J.J.J.J.J.J.J.J.J.J.J.J.J.J.J.J.J.J.J.J.J.J.J.J.J.J.J.J.",
"J.J.J.J.J.J.J.J.J.J.J.J.J.J.J.J.J.J.J.J.J.J.J.J.J.J.J.J.J.J.J.J.J.J.J.J.J.J.J.J.J.J.J.J.J.J.J.J.J.J.J.J.J.J.J.J.J.J.J.J.J.J.J.J.",
"J.J.J.J.J.J.J.J.J.J.J.J.J.J.J.J.J.J.J.J.J.J.J.J.J.J.J.J.J.J.J.J.J.J.J.J.J.J.J.J.J.J.J.J.J.J.J.J.J.J.J.J.J.J.J.J.J.J.J.J.J.J.J.J.",
"J.J.J.J.J.J.J.J.J.J.J.J.J.J.J.J.J.J.J.J.J.J.J.J.J.J.J.J.J.J.J.J.J.J.J.J.J.J.J.J.J.J.J.J.J.J.J.J.J.J.J.J.J.J.J.J.J.J.J.J.J.J.J.J.",
"J.J.J.J.J.J.J.J.J.J.J.J.J.J.J.J.J.J.J.J.J.J.J.J.J.J.J.J.J.J.J.J.J.J.J.J.J.J.J.J.J.J.J.J.J.J.J.J.J.J.J.J.J.J.J.J.J.J.J.J.J.J.J.J.",
"J.J.J.J.J.J.J.J.J.J.J.J.J.J.J.J.J.J.J.J.J.J.J.J.J.J.J.J.J.J.J.J.J.J.J.J.J.J.J.J.J.J.J.J.J.J.J.J.J.J.J.J.J.J.J.J.J.J.J.J.J.J.J.J."
};
