/* XPM */
static char *result[] = {
/* columns rows colors chars-per-pixel */
"64 64 143 2 ",
"   c #191515",
".  c #1E1919",
"X  c #221D1D",
"o  c #262121",
"O  c #2C2525",
"+  c #2F2825",
"@  c #2E2929",
"#  c #3E2827",
"$  c #322D2D",
"%  c #38302E",
"&  c #352F30",
"*  c #373131",
"=  c #393333",
"-  c #471916",
";  c #481A17",
":  c #4C1E1B",
">  c #51211E",
",  c #4F2524",
"<  c #552523",
"1  c #582724",
"2  c #592926",
"3  c #5D2C29",
"4  c #562B26",
"5  c #54353D",
"6  c #6A3C2F",
"7  c #54453D",
"8  c #6E443D",
"9  c #70483E",
"0  c #4E4155",
"q  c #564A5F",
"w  c #624D41",
"e  c #675144",
"r  c #695346",
"t  c #6D574A",
"y  c #79514A",
"u  c #715B4E",
"i  c #7F594F",
"p  c #735D50",
"a  c #7C5850",
"s  c #766053",
"d  c #796356",
"f  c #7E695B",
"g  c #4C5576",
"h  c #505A7D",
"j  c #7B6C6B",
"k  c #7E6A64",
"l  c #656C7D",
"z  c #A4773E",
"x  c #845849",
"c  c #836355",
"v  c #826B5F",
"b  c #86655A",
"n  c #A46A4C",
"m  c #866F6A",
"M  c #846F62",
"N  c #867163",
"B  c #897366",
"V  c #80716E",
"C  c #8B7569",
"Z  c #8E796C",
"A  c #907B6E",
"S  c #877672",
"D  c #8E7C77",
"F  c #937E71",
"G  c #B67E63",
"H  c #968174",
"J  c #988376",
"K  c #9B877E",
"L  c #AA8371",
"P  c #D7A24C",
"I  c #FFBE54",
"U  c #CB8A69",
"Y  c #3471BE",
"T  c #3974BC",
"R  c #4E5D83",
"E  c #4A6490",
"W  c #3573C0",
"Q  c #3977C3",
"!  c #3979C6",
"~  c #3A7DCA",
"^  c #7891AF",
"/  c #3D81CE",
"(  c #3E84D2",
")  c #4A87CB",
"_  c #4087D5",
"`  c #498CD5",
"'  c #438CDB",
"]  c #4288D4",
"[  c #4590DE",
"{  c #4E95DF",
"}  c #5E99D5",
"|  c #6498CF",
" . c #6C9BCC",
".. c #639AD4",
"X. c #7DA0C8",
"o. c #4794E3",
"O. c #4894E3",
"+. c #8E8589",
"@. c #B89C87",
"#. c #B19888",
"$. c #B69E94",
"%. c #BCA38F",
"&. c #B3A096",
"*. c #BDAA98",
"=. c #8186A2",
"-. c #9AA4AF",
";. c #AFA8A3",
":. c #A0A5AC",
">. c #B8B6B5",
",. c #C09F8C",
"<. c #D29F86",
"1. c #CFA38D",
"2. c #D7A48A",
"3. c #C6AC95",
"4. c #C8AF96",
"5. c #C0A592",
"6. c #C7B19F",
"7. c #CAB29C",
"8. c #E5AF8E",
"9. c #CBBCAD",
"0. c #D4BBA4",
"q. c #D6BEA8",
"w. c #EECD98",
"e. c #DBC5AF",
"r. c #DDC7B2",
"t. c #DECAB7",
"y. c #D9C9BA",
"u. c #EFC2A5",
"i. c #ECCAAE",
"p. c #F0C8AA",
"a. c #E1CCB7",
"s. c #E2CEBB",
"d. c #F6CFB0",
"f. c #E5D1BD",
"g. c #FAD6B6",
"h. c #F3D0B2",
"j. c #8BAACC",
"k. c #A1B1C6",
"l. c #DCDCDC",
"z. c #E9D6C3",
"x. c #EBD8C5",
"c. c #E0DAD1",
"v. c None",
/* pixels */
"v.v.v.v.v.v.v.v.v.v.v.v.v.v.v.v.v.v.v.v.v.v.v.v.v.v.v.v.v.v.v.v.v.v.v.v.v.v.v.v.v.v.v.v.v.v.v.v.v.v.v.v.v.v.v.v.v.v.v.v.v.v.v.v.",
"v.v.v.v.v.v.v.v.v.v.v.v.v.v.v.v.v.v.v.v.v.v.v.v.v.v.v.v.v.v.v.v.v.v.v.v.v.v.v.v.v.v.v.v.v.v.v.v.v.v.v.v.v.v.v.v.v.v.v.v.v.v.v.v.",
"v.v.v.v.v.v.v.v.v.v.v.v.v.v.v.v.v.v.v.v.v.v.v.v.v.v.v.v.v.v.v.v.v.v.v.v.v.v.v.v.v.l.v.v.v.v.v.v.v.v.v.v.v.v.v.v.v.v.v.v.v.v.v.v.",
"v.v.v.v.v.v.v.v.v.v.v.v.v.v.v.v.v.v.v.v.v.v.v.v.v.v.v.v.v.v.v.v.v.v.v.v.v.v.v.v.v.l.l.v.v.v.v.v.v.v.v.v.v.v.v.v.v.v.v.v.v.v.v.v.",
"v.v.v.v.v.v.v.v.v.v.v.v.v.v.v.v.v.v.v.v.v.v.v.v.v.v.v.v.v.v.v.v.v.v.v.v.v.v.v.v.v.v.l.v.v.v.v.v.v.v.v.v.v.v.v.v.v.v.v.v.v.v.v.v.",
"v.v.v.v.v.v.v.v.v.v.v.v.v.v.v.v.v.v.v.v.v.v.v.v.v.v.v.v.v.v.v.v.v.v.v.v.v.v.v.v.v.v.l.l.v.v.v.v.v.v.v.v.v.v.v.v.v.v.v.v.v.v.v.v.",
"v.v.v.v.v.v.v.v.v.v.v.v.v.v.v.v.v.v.v.v.v.v.v.v.v.v.v.v.v.v.v.v.v.v.v.v.v.v.v.v.v.v.l.l.v.v.v.v.v.v.v.v.v.v.v.v.v.v.v.v.v.v.v.v.",
"v.v.v.v.v.v.v.v.v.v.v.v.v.v.v.v.v.v.v.v.v.v.v.v.v.v.v.v.v.v.v.v.v.v.v.v.v.v.v.v.v.v.l.l.v.v.v.v.v.v.v.v.v.v.v.v.v.v.v.v.v.v.v.v.",
"v.v.v.v.v.v.v.v.v.v.v.v.v.v.v.v.v.v.v.v.v.v.v.v.v.v.v.v.v.v.v.v.v.v.v.v.v.v.v.v.v.v.l.l.v.v.v.v.v.v.v.v.v.v.v.v.v.v.v.v.v.v.v.v.",
"v.v.v.v.v.v.v.v.v.v.v.v.v.v.v.v.v.v.v.v.v.v.v.v.v.v.v.v.v.v.v.v.v.v.v.v.v.v.v.v.v.v.v.l.v.v.v.v.v.v.v.v.v.v.v.v.v.v.v.v.v.v.v.v.",
"v.v.v.v.v.v.v.v.v.v.v.v.v.v.v.v.v.v.v.v.v.v.v.v.v.v.v.v.v.v.v.v.v.v.v.v.v.v.v.v.v.v.v.l.l.v.v.v.v.v.v.v.v.v.v.v.v.v.v.v.v.v.v.v.",
"v.v.v.v.v.v.v.v.v.v.v.v.v.v.v.v.v.v.v.v.v.v.v.v.v.v.v.v.v.v.v.v.v.v.v.j j j j v.v.v.v.l.l.v.v.v.v.v.v.v.v.v.v.v.v.v.v.v.v.v.v.v.",
"v.v.v.v.v.v.v.v.v.v.v.v.v.v.v.v.v.v.v.v.v.v.v.v.v.v.v.v.v.v.v.v.v.v.j j j j j j j v.v.v.l.v.v.v.v.v.v.v.v.v.v.v.v.v.v.v.v.v.v.v.",
"v.v.v.v.v.v.v.v.v.v.v.v.v.v.v.v.v.v.v.v.v.v.v.v.v.v.v.j j j j v.v.v.m j j j j j j v.v.v.l.v.v.v.v.v.v.v.v.v.v.v.v.v.v.v.v.v.v.v.",
"v.v.v.v.v.v.v.v.v.v.v.v.v.v.v.v.v.v.v.v.v.v.v.v.v.v.v.v.v.j j j j L B j j j V D S v.v.v.l.v.v.v.v.v.v.v.v.v.v.v.v.v.v.v.v.v.v.v.",
"v.v.v.v.v.v.v.v.v.v.v.v.v.v.v.v.v.v.v.v.v.v.v.v.v.v.v.v.v.v.v.v.v.v.M m D D 5.#.K v.v.v.l.l.v.v.v.v.v.v.v.v.v.v.v.v.v.v.v.v.v.v.",
"v.v.v.v.v.v.v.v.v.v.v.v.v.v.v.v.v.v.v.v.v.v.v.v.v.v.v.v.v.v.v.v.v.v.j S @.i.d.3.v.v.v.v.l.l.v.v.v.v.v.v.v.v.v.v.v.v.v.v.v.v.v.v.",
"v.v.v.v.v.v.v.v.v.v.v.v.v.v.v.v.v.v.v.v.v.v.v.v.v.v.v.v.v.o.( ~ ! W v.L 8.g.g.g.v.v.v.v.v.l.v.v.v.v.v.v.v.v.v.v.v.v.v.v.v.v.v.v.",
"v.v.v.v.v.v.v.v.v.v.v.v.v.v.v.v.v.v.v.v.v.v.v.v.v.v.3.-.{ / Y Y W ! k.q.2.p.g.v.v.v.v.v.v.l.v.v.v.v.v.v.v.v.v.v.v.v.v.v.v.v.v.v.",
"v.v.v.v.v.o.v.v.v.v.v.v.v.v.v.v.v.v.v.v.v.v.v.v.- 9 -.{ [ ! Y Q W ! j.y.1.2.d.v.v.v.v.v.v.c.w.I v.v.v.v.v.v.v.v.v.v.v.v.v.v.v.v.",
"v.v.v.v.v.v.' v.v.v.v.v.v.v.v.v.v.v.v.v.v.v.v.v.> q { o.~ W W / ! Q ' } &.v.v.v.v.v.v.v.v.P z v.v.v.v.v.v.v.v.v.v.v.v.v.v.v.v.v.",
"v.v.v.v.v.v.O.! v.v.v.v.v.v.v.v.v.v.v.v.v.v.v., 0 ) o.[ ! / ( o.' ` ..X.$.v.v.v.v.v.v.v.v.6 4 v.v.v.v.v.v.v.v.v.v.v.v.v.v.v.v.v.",
"v.v.v.v.v.o.O.( W v.v.v.v.v.v.v.v.v.v.v.v.v.: g [ O.o.o.( o.O.O. .;.r.x.u.=.v.v.v.v.v.v.< 3 2 1 v.v.v.v.v.v.v.v.v.v.v.v.v.v.v.v.",
"v.v.v.v.v.' / ~ Y Y v.v.v.v.v.v.v.v.v.v.< < h [ o.o.o.o.o.o.O...9.0.t.x.x.x.v.v.v.v.> : : > 3 2 v.v.v.v.v.v.v.v.v.v.v.v.v.v.v.v.",
"v.v.v.v.v./ W W Y Y W v.v.v.v.v.v.v.v.v.5 R ` o.o.O.O.o.' ] | >.s.s.r.x.x.x.i - ; > > < : : # v.v.v.v.v.v.v.v.v.v.v.v.v.v.v.v.v.",
"v.v.v.v.v.( W W W Y Y Y Y v.v.v.v.v.v.v.) o.o.o.O.O.o.( T ^ *.f.x.t.6.x.x.x.8 : : < > < v.v.v.v.v.v.v.v.v.v.v.v.v.v.v.v.v.v.v.v.",
"v.v.v.v.v.' Q W W W W Y Y W W v.v.v.v.o.o.o.O.o.[ ~ Y E +.3.7.z.s.0.v.v.0.r.y < : < v.v.v.v.v.v.v.v.v.v.v.v.v.v.v.v.v.v.v.v.v.v.",
"v.v.v.v.v.v.( Q Y W W W W W W W ! ( [ o.o.o.o.( ! Y l k b @.0.f.6.v.v.v.v.7.x > : v.v.v.v.v.v.v.v.v.v.v.v.v.v.v.v.v.v.v.v.v.v.v.",
"v.v.v.v.v.v.v.( ~ Q W W W Q ! / ' o.O.O.O.' / v.v.v.A A B c @.a.%.v.v.v.v.v.v.v.v.v.v.v.v.v.v.v.v.v.v.v.v.v.v.v.v.v.v.v.v.v.v.v.",
"v.v.v.v.v.v.v.v.v.v.] ' ' o.O.O.o.o.' ( v.v.v.v.v.v A A C v x U v.v.v.v.v.v.v.v.v.v.v.v.v.v.v.v.v.v.v.v.v.v.v.v.v.v.v.v.v.v.v.v.",
"v.v.v.v.v.v.v.v.v.v.v.v.v.v.v.v.v.v.v.v.v.v.v.v.v.v A C N C c n v.v.v.v.v.v.v.v.v.v.v.v.v.v.v.v.v.v.v.v.v.v.v.v.v.v.v.v.v.v.v.v.",
"v.v.v.v.v.v.v.v.v.v.v.v.v.v.v.v.v.v.v.v.v.v.v.v.v.N A C C B u e v.v.v.v.v.v.v.v.v.v.v.v.v.v.v.v.v.v.v.v.v.v.v.v.v.v.v.v.v.v.v.v.",
"v.v.v.v.v.v.v.v.v.v.v.v.v.v.v.v.v.v.v.v.v.v.v.t f A A A Z d r e e v.v.v.v.v.v.v.v.v.v.v.v.v.v.v.v.v.v.v.v.v.v.v.v.v.v.v.v.v.v.v.",
"v.v.v.v.v.v.v.v.v.v.v.v.v.v.v.v.v.v.v.v.v.v.v.f Z A A A N r e e e e v.v.v.v.v.v.v.v.v.v.v.v.v.v.v.v.v.v.v.v.v.v.v.v.v.v.v.v.v.v.",
"v.v.v.v.v.v.v.v.v.. $ = v.v.v.v.v.v.v.v.v.v.u Z A A A Z s e e e e e v.v.v.v.v.v.v.v.v.v.v.v.v.v.v.v.v.v.v.v.v.v.v.v.v.v.v.v.v.v.",
"v.v.v.v.v.v.v.v.v.. = = = = = O $ $ C H Z f d A A A A v.v.e e e e e e v.v.v.v.v.v.v.v.v.v.v.v.v.v.v.v.v.v.v.v.v.v.v.v.v.v.v.v.v.",
"v.v.v.v.v.v.v.v.v.$ * @ O @ @ . @ = H H F A C A F H v.v.v.v.e e e e e e v.v.v.v.v.v.v.v.v.v.v.v.v.v.v.v.v.v.v.v.v.v.v.v.v.v.v.v.",
"v.v.v.v.v.v.v.v.v.@ & o         . % J H H A A F H H v.v.v.v.v.e e e e e e v.v.v.v.v.v.v.v.v.v.v.v.v.v.v.v.v.v.v.v.v.v.v.v.v.v.v.",
"v.v.v.v.v.v.v.v.v.@ $ . v.v.v.    + H A A F H J J v.v.v.v.v.v.v.e e e e e v.v.v.v.v.v.v.v.v.v.v.v.v.v.v.v.v.v.v.v.v.v.v.v.v.v.v.",
"v.v.v.v.v.v.v.v.v.O @ v.v.v.v.v.v.v.C t p Z J J v.v.v.v.v.v.v.v.e e e e e v.v.v.v.v.v.v.v.v.v.v.v.v.v.v.v.v.v.v.v.v.v.v.v.v.v.v.",
"v.v.v.v.v.v.v.v.v.X X v.v.v.v.v.v.v.v.v.v.v.v.v.v.v.v.v.v.v.v.v.v.e e e e e v.v.v.v.v.v.v.v.v.v.v.v.v.v.v.v.v.v.v.v.v.v.v.v.v.v.",
"v.v.v.v.v.v.v.v.v.v.v.v.v.v.v.v.v.v.v.v.v.v.v.v.v.v.v.v.v.v.v.v.v.v.e e e e v.v.v.v.v.v.v.v.v.v.v.v.v.v.v.v.v.v.v.v.v.v.v.v.v.v.",
"v.v.v.v.v.v.v.v.v.v.v.v.v.v.v.v.v.v.v.v.v.v.v.v.v.v.v.v.v.v.v.v.v.v.e e e e e v.v.v.v.v.v.v.v.v.v.v.v.v.v.v.v.v.v.v.v.v.v.v.v.v.",
"v.v.v.v.v.v.v.v.v.v.v.v.v.v.v.v.v.v.v.v.v.v.v.v.v.v.v.v.v.v.v.v.v.v.v.e e r 7 v.v.v.v.v.v.v.v.v.v.v.v.v.v.v.v.v.v.v.v.v.v.v.v.v.",
"v.v.v.v.v.v.v.v.v.v.v.v.v.v.v.v.v.v.v.v.v.v.v.v.v.v.v.v.v.v.v.v.v.v.v.r w 7 * $ v.v.v.v.v.v.v.v.v.v.v.v.v.v.v.v.v.v.v.v.v.v.v.v.",
"v.v.v.v.v.v.v.v.v.v.v.v.v.v.v.v.v.v.v.v.v.v.v.v.v.v.v.v.v.v.v.v.v.v.v.7 O o $ & v.v.v.v.v.v.v.v.v.v.v.v.v.v.v.v.v.v.v.v.v.v.v.v.",
"v.v.v.v.v.v.v.v.v.v.v.v.v.v.v.v.v.v.v.v.v.v.v.v.v.v.v.v.v.v.v.v.v.v.v.v.    O = v.v.v.v.v.v.v.v.v.v.v.v.v.v.v.v.v.v.v.v.v.v.v.v.",
"v.v.v.v.v.v.v.v.v.v.v.v.v.v.v.v.v.v.v.v.v.v.v.v.v.v.v.v.v.v.v.v.v.v.v.v.v.X X = = v.v.& = v.v.v.v.v.v.v.v.v.v.v.v.v.v.v.v.v.v.v.",
"v.v.v.v.v.v.v.v.v.v.v.v.v.v.v.v.v.v.v.v.v.v.v.v.v.v.v.v.v.v.v.v.v.v.v.v.v.v.. * = = $ = @   v.v.v.v.v.v.v.v.v.v.v.v.v.v.v.v.v.v.",
"v.v.v.v.v.v.v.v.v.v.v.v.v.v.v.v.v.v.v.v.v.v.v.v.v.v.v.v.v.v.v.v.v.v.v.v.v.v.v.O $ = = $   v.v.v.v.v.v.v.v.v.v.v.v.v.v.v.v.v.v.v.",
"v.v.v.v.v.v.v.v.v.v.v.v.v.v.v.v.v.v.v.v.v.v.v.v.v.v.v.v.v.v.v.v.v.v.v.v.v.v.v.  o = $ . v.v.v.v.v.v.v.v.v.v.v.v.v.v.v.v.v.v.v.v.",
"v.v.v.v.v.v.v.v.v.v.v.v.v.v.v.v.v.v.v.v.v.v.v.v.v.v.v.v.v.v.v.v.v.v.v.v.v.v.v.v.X X v.v.v.v.v.v.v.v.v.v.v.v.v.v.v.v.v.v.v.v.v.v.",
"v.v.v.v.v.v.v.v.v.v.v.v.v.v.v.v.v.v.v.v.v.v.v.v.v.v.v.v.v.v.v.v.v.v.v.v.v.v.v.v.v.v.v.v.v.v.v.v.v.v.v.v.v.v.v.v.v.v.v.v.v.v.v.v.",
"v.v.v.v.v.v.v.v.v.v.v.v.v.v.v.v.v.v.v.v.v.v.v.v.v.v.v.v.v.v.v.v.v.v.v.v.v.v.v.v.v.v.v.v.v.v.v.v.v.v.v.v.v.v.v.v.v.v.v.v.v.v.v.v.",
"v.v.v.v.v.v.v.v.v.v.v.v.v.v.v.v.v.v.v.v.v.v.v.v.v.v.v.v.v.v.v.v.v.v.v.v.v.v.v.v.v.v.v.v.v.v.v.v.v.v.v.v.v.v.v.v.v.v.v.v.v.v.v.v.",
"v.v.v.v.v.v.v.v.v.v.v.v.v.v.v.v.v.v.v.v.v.v.v.v.v.v.v.v.v.v.v.v.v.v.v.v.v.v.v.v.v.v.v.v.v.v.v.v.v.v.v.v.v.v.v.v.v.v.v.v.v.v.v.v.",
"v.v.v.v.v.v.v.v.v.v.v.v.v.v.v.v.v.v.v.v.v.v.v.v.v.v.v.v.v.v.v.v.v.v.v.v.v.v.v.v.v.v.v.v.v.v.v.v.v.v.v.v.v.v.v.v.v.v.v.v.v.v.v.v.",
"v.v.v.v.v.v.v.v.v.v.v.v.v.v.v.v.v.v.v.v.v.v.v.v.v.v.v.v.v.v.v.v.v.v.v.v.v.v.v.v.v.v.v.v.v.v.v.v.v.v.v.v.v.v.v.v.v.v.v.v.v.v.v.v.",
"v.v.v.v.v.v.v.v.v.v.v.v.v.v.v.v.v.v.v.v.v.v.v.v.v.v.v.v.v.v.v.v.v.v.v.v.v.v.v.v.v.v.v.v.v.v.v.v.v.v.v.v.v.v.v.v.v.v.v.v.v.v.v.v.",
"v.v.v.v.v.v.v.v.v.v.v.v.v.v.v.v.v.v.v.v.v.v.v.v.v.v.v.v.v.v.v.v.v.v.v.v.v.v.v.v.v.v.v.v.v.v.v.v.v.v.v.v.v.v.v.v.v.v.v.v.v.v.v.v.",
"v.v.v.v.v.v.v.v.v.v.v.v.v.v.v.v.v.v.v.v.v.v.v.v.v.v.v.v.v.v.v.v.v.v.v.v.v.v.v.v.v.v.v.v.v.v.v.v.v.v.v.v.v.v.v.v.v.v.v.v.v.v.v.v.",
"v.v.v.v.v.v.v.v.v.v.v.v.v.v.v.v.v.v.v.v.v.v.v.v.v.v.v.v.v.v.v.v.v.v.v.v.v.v.v.v.v.v.v.v.v.v.v.v.v.v.v.v.v.v.v.v.v.v.v.v.v.v.v.v.",
"v.v.v.v.v.v.v.v.v.v.v.v.v.v.v.v.v.v.v.v.v.v.v.v.v.v.v.v.v.v.v.v.v.v.v.v.v.v.v.v.v.v.v.v.v.v.v.v.v.v.v.v.v.v.v.v.v.v.v.v.v.v.v.v.",
"v.v.v.v.v.v.v.v.v.v.v.v.v.v.v.v.v.v.v.v.v.v.v.v.v.v.v.v.v.v.v.v.v.v.v.v.v.v.v.v.v.v.v.v.v.v.v.v.v.v.v.v.v.v.v.v.v.v.v.v.v.v.v.v."
};
