/* XPM */
static char *result[] = {
/* columns rows colors chars-per-pixel */
"64 64 143 2 ",
"   c #1A1515",
".  c #1E1919",
"X  c #221C1C",
"o  c #262121",
"O  c #292323",
"+  c #2F2827",
"@  c #3F2827",
"#  c #322C2D",
"$  c #392D28",
"%  c #3B322E",
"&  c #352F30",
"*  c #363030",
"=  c #393333",
"-  c #471916",
";  c #4C1D1A",
":  c #51211E",
">  c #48242A",
",  c #552522",
"<  c #582724",
"1  c #542827",
"2  c #592A26",
"3  c #5D2C29",
"4  c #40342E",
"5  c #5B3027",
"6  c #4C3F3A",
"7  c #602E2B",
"8  c #683E38",
"9  c #724A33",
"0  c #44364B",
"q  c #5E4B40",
"w  c #5B4F4A",
"e  c #634E42",
"r  c #744B43",
"t  c #675144",
"y  c #695346",
"u  c #6B5649",
"i  c #6E584B",
"p  c #765348",
"a  c #725A4E",
"s  c #745E51",
"d  c #7B5F52",
"f  c #756053",
"g  c #796356",
"h  c #7C6659",
"j  c #7E695C",
"k  c #7B6C6B",
"l  c #67697C",
"z  c #6E6A75",
"x  c #835D51",
"c  c #856258",
"v  c #8A6759",
"b  c #806B5E",
"n  c #856F62",
"m  c #856F6A",
"M  c #867266",
"N  c #887366",
"B  c #84716D",
"V  c #8B7569",
"C  c #8F7A6D",
"Z  c #927368",
"A  c #917B6E",
"S  c #9D7E6C",
"D  c #847370",
"F  c #8C7B75",
"G  c #937E71",
"H  c #9D867A",
"J  c #96827B",
"K  c #D5A356",
"L  c #E4BE7F",
"P  c #35548F",
"I  c #2A5FAB",
"U  c #2B61AD",
"Y  c #3968A9",
"T  c #3763A5",
"R  c #2E65B2",
"E  c #2F68B5",
"W  c #316AB7",
"Q  c #326EBA",
"!  c #3572BF",
"~  c #5A6786",
"^  c #50658D",
"/  c #456395",
"(  c #4C6795",
")  c #727380",
"_  c #4771AC",
"`  c #4872AF",
"'  c #5776A5",
"]  c #4978B4",
"[  c #3674C1",
"{  c #3877C4",
"}  c #3879C7",
"|  c #3A7BC9",
" . c #7584A0",
".. c #3D81CE",
"X. c #3E84D2",
"o. c #5D8CC2",
"O. c #4287D3",
"+. c #4088D6",
"@. c #438CDB",
"#. c #4D8BD1",
"$. c #4691DF",
"%. c #5E9DDD",
"&. c #6B9ACE",
"*. c #4794E3",
"=. c #4B95E1",
"-. c #559AE0",
";. c #B59882",
":. c #BA9C94",
">. c #BFA38C",
",. c #B9A594",
"<. c #8EA2B7",
"1. c #86A1BD",
"2. c #97A3B1",
"3. c #9DACBD",
"4. c #B1A8A1",
"5. c #B6B1B4",
"6. c #D99F82",
"7. c #C0A58D",
"8. c #D7A58B",
"9. c #C1A692",
"0. c #C6AC93",
"q. c #C3AC9E",
"w. c #D6AD93",
"e. c #C9B097",
"r. c #CBB29A",
"t. c #E7A782",
"y. c #C4B7AA",
"u. c #D5BEA7",
"i. c #D5BEA8",
"p. c #EABFA2",
"a. c #DCC5B0",
"s. c #E1C3A9",
"d. c #E0CAB6",
"f. c #E3CFBB",
"g. c #E5D1BD",
"h. c #F6D2B3",
"j. c #FBD7B7",
"k. c #89AED4",
"l. c #C7C6C7",
"z. c #DCDCDC",
"x. c #E9D7C5",
"c. c #EBD8C5",
"v. c None",
/* pixels */
"v.v.v.v.v.v.v.v.v.v.v.v.v.v.v.v.v.v.v.v.v.v.v.v.v.v.v.v.v.v.v.v.v.v.v.v.v.v.v.v.v.v.v.v.v.v.v.v.v.v.v.v.v.v.v.v.v.v.v.v.v.v.v.v.",
"v.v.v.v.v.v.v.v.v.v.v.v.v.v.v.v.v.v.v.v.v.v.v.v.v.v.v.v.v.v.v.v.v.v.v.v.v.v.v.v.v.v.v.v.v.v.v.v.v.v.v.v.v.v.v.v.v.v.v.v.v.v.v.v.",
"v.v.v.v.v.v.v.v.v.v.v.v.v.v.v.v.v.v.v.v.v.v.v.v.v.v.v.v.v.v.v.v.v.v.v.v.v.v.v.v.v.v.v.v.v.v.v.v.v.v.v.v.v.v.v.v.v.v.v.v.v.v.v.v.",
"v.v.v.v.v.v.v.v.v.v.v.v.v.v.v.v.v.v.v.v.v.v.v.v.v.v.v.v.v.v.v.v.v.v.v.v.v.v.v.v.v.v.v.v.v.v.v.v.v.v.v.v.v.v.v.v.v.v.v.v.v.v.v.v.",
"v.v.v.v.v.v.v.v.v.v.v.v.v.v.v.v.v.v.v.v.v.v.v.v.v.v.v.v.v.v.v.v.v.v.v.v.v.v.v.v.v.z.v.v.v.v.v.v.v.v.v.v.v.v.v.v.v.v.v.v.v.v.v.v.",
"v.v.v.v.v.v.v.v.v.v.v.v.v.v.v.v.v.v.v.v.v.v.v.v.v.v.v.v.v.v.v.v.v.v.v.v.v.v.v.v.v.z.z.v.v.v.v.v.v.v.v.v.v.v.v.v.v.v.v.v.v.v.v.v.",
"v.v.v.v.v.v.v.v.v.v.v.v.v.v.v.v.v.v.v.v.v.v.v.v.v.v.v.v.v.v.v.v.v.v.v.v.v.v.v.v.v.z.z.v.v.v.v.v.v.v.v.v.v.v.v.v.v.v.v.v.v.v.v.v.",
"v.v.v.v.v.v.v.v.v.v.v.v.v.v.v.v.v.v.v.v.v.v.v.v.v.v.v.v.v.v.v.v.v.v.v.v.v.v.v.v.v.z.z.v.v.v.v.v.v.v.v.v.v.v.v.v.v.v.v.v.v.v.v.v.",
"v.v.v.v.v.v.v.v.v.v.v.v.v.v.v.v.v.v.v.v.v.v.v.v.v.v.v.v.v.v.v.v.v.v.v.v.v.v.v.v.v.v.z.v.v.v.v.v.v.v.v.v.v.v.v.v.v.v.v.v.v.v.v.v.",
"v.v.v.v.v.v.v.v.v.v.v.v.v.v.v.v.v.v.v.v.v.v.v.v.v.v.v.v.v.v.v.v.v.v.v.v.v.v.v.v.v.v.z.z.v.v.v.v.v.v.v.v.v.v.v.v.v.v.v.v.v.v.v.v.",
"v.v.v.v.v.v.v.v.v.v.v.v.v.v.v.v.v.v.v.v.v.v.v.v.v.v.v.v.v.v.v.v.v.v.v.v.v.v.v.v.v.v.z.z.v.v.v.v.v.v.v.v.v.v.v.v.v.v.v.v.v.v.v.v.",
"v.v.v.v.v.v.v.v.v.v.v.v.v.v.v.v.v.v.v.v.v.v.v.v.v.v.v.v.v.v.v.v.v.v.v.v.v.v.v.v.v.v.z.z.v.v.v.v.v.v.v.v.v.v.v.v.v.v.v.v.v.v.v.v.",
"v.v.v.v.v.v.v.v.v.v.v.v.v.v.v.v.v.v.v.v.v.v.v.v.v.v.v.v.v.v.v.v.v.v.v.v.v.v.v.v.v.v.v.z.v.v.v.v.v.v.v.v.v.v.v.v.v.v.v.v.v.v.v.v.",
"v.v.v.v.v.v.v.v.v.v.v.v.v.v.v.v.v.v.v.v.v.v.v.v.v.v.v.v.v.v.v.v.v.v.v.k k k k v.v.v.v.z.z.v.v.v.v.v.v.v.v.v.v.v.v.v.v.v.v.v.v.v.",
"v.v.v.v.v.v.v.v.v.v.v.v.v.v.v.v.v.v.v.v.v.v.v.v.v.v.v.v.v.v.v.v.v.v.k k k k k k k v.v.z.z.v.v.v.v.v.v.v.v.v.v.v.v.v.v.v.v.v.v.v.",
"v.v.v.v.v.v.v.v.v.v.v.v.v.v.v.v.v.v.v.v.v.v.v.v.v.v.v.v.v.v.v.v.v.Z N k k k k k k v.v.v.z.v.v.v.v.v.v.v.v.v.v.v.v.v.v.v.v.v.v.v.",
"v.v.v.v.v.v.v.v.v.v.v.v.v.v.v.v.v.v.v.v.v.v.v.v.v.v.v.v.v.v.v.v.k B m k k k B J F v.v.v.z.v.v.v.v.v.v.v.v.v.v.v.v.v.v.v.v.v.v.v.",
"v.v.v.v.v.v.v.v.v.v.v.v.v.v.v.v.v.v.v.v.v.v.v.v.v.v.v.v.v.v.v.k k v.k k G F 9.H J v.v.v.z.z.v.v.v.v.v.v.v.v.v.v.v.v.v.v.v.v.v.v.",
"v.v.v.v.v.v.v.v.v.v.v.v.v.v.v.v.v.v.v.v.v.v.v.v.v.v.v.0.v.v.v.k z v.z D w.h.j.s.v.v.v.v.z.z.v.v.v.v.v.v.v.v.v.v.v.v.v.v.v.v.v.v.",
"v.v.v.v.v.v.v.v.v.v.v.v.v.v.v.v.v.v.v.v.v.v.v.v.v.v.0.0. .I U k ^ W #.;.t.j.j.h.v.v.v.v.v.z.v.v.v.v.v.v.v.v.v.v.v.v.v.v.v.v.v.v.",
"v.v.v.v.v.v.v.v.v.v.v.v.v.v.v.v.v.v.v.v.v.v.v.v.2 7.0.0.' U I l ~ R #.5.6.p.j.v.v.v.v.v.v.z.v.v.v.v.v.v.v.v.v.v.v.v.v.v.v.v.v.v.",
"v.v.v.v.v.v.v.v.v.v.v.v.v.v.*.*.*.*.*.*.*.v.v.0 > c >.,._ Q { T ( I [ &.,.8.v.v.v.v.v.v.v.t.K v.v.v.v.v.v.v.v.v.v.v.v.v.v.v.v.v.",
"v.v.v.v.v.v.v.v.v.v.v.*.*.*.*.*.*.*.*.*.*.*.*.O.Y P ^ _ ..*.@.E I I R +.` v.v.v.v.v.v.v.v.9 5 v.v.v.v.v.v.v.v.v.v.v.v.v.v.v.v.v.",
"v.v.v.v.v.v.v.v.v.*.*.*.| Q R R W [ } ..@.*.*.*.*.| R Q @.+.! U I I [ *.+.$.v.v.v.v.v.v.v.7 < < v.v.v.v.v.v.v.v.v.v.v.v.v.v.v.v.",
"v.v.v.v.v.v.v.v.v.@.| ! U U I I I I U R W [ / ( ] $.X.@.*.@.X.} | | $.*.%.k.v.v.v.v.v.v., < 2 < v.v.v.v.v.v.v.v.v.v.v.v.v.v.v.v.",
"v.v.v.v.v.v.v.v.@.Q U I I I I I I v.v.v.v.v.: : 1 v.v.*.-.*.*.*.*.*.*.<.y.c.q.v.- ; , ; ; ; @ v.v.v.v.v.v.v.v.v.v.v.v.v.v.v.v.v.",
"v.v.v.v.v.v.v.@.! I I I I I I v.v.v.v.v.v., : < < v.v.v.c.l.3.1.k.2.,.r.d.a.8 ; - , : < v.v.v.v.v.v.v.v.v.v.v.v.v.v.v.v.v.v.v.v.",
"v.v.v.v.v.v.v.+.E I I v.v.v.v.v.v.v.v.v.v.< ; < 3 v.v.,.f.c.u.0.7.0.9.v.g.r.r : ; < : v.v.v.v.v.v.v.v.v.v.v.v.v.v.v.v.v.v.v.v.v.",
"v.v.v.v.v.v.v.X.R v.v.v.v.v.v.v.v.v.v.v.v.: : 2 v.v.v.d 9.f.u.0.0.0.v.v.v.e.x 2 ; 2 v.v.v.v.v.v.v.v.v.v.v.v.v.v.v.v.v.v.v.v.v.v.",
"v.v.v.v.v.v.v.@.v.v.v.v.v.v.v.v.v.v.v.v.v.v.v.v.v.v.n V h v ;.0.0.v.v.v.v.v.S ; v.v.v.v.v.v.v.v.v.v.v.v.v.v.v.v.v.v.v.v.v.v.v.v.",
"v.v.v.v.v.v.v.*.v.v.v.v.v.v.v.v.v.v.v.v.v.v.v.v.v.v.C G n a p S v.v.v.v.v.v.v.v.v.v.v.v.v.v.v.v.v.v.v.v.v.v.v.v.v.v.v.v.v.v.v.v.",
"v.v.v.v.v.v.v.v.v.v.v.v.v.v.v.v.v.v.v.v.v.v.v.v.v.i G G N V b y v.v.v.v.v.v.v.v.v.v.v.v.v.v.v.v.v.v.v.v.v.v.v.v.v.v.v.v.v.v.v.v.",
"v.v.v.v.v.v.v.v.v.v.v.v.v.v.v.v.v.v.v.v.v.v.v.v.v.i A A V G A y y t a v.v.v.v.v.v.v.v.v.v.v.v.v.v.v.v.v.v.v.v.v.v.v.v.v.v.v.v.v.",
"v.v.v.v.v.v.v.v.v.v.v.v.v.v.v.v.v.v.v.v.v.v.v.v.v.b G A A A j t t t y a v.v.v.v.v.v.v.v.v.v.v.v.v.v.v.v.v.v.v.v.v.v.v.v.v.v.v.v.",
"v.v.v.v.v.v.v.v.v.v.v.v.v.v.v.v.v.v.v.v.v.v.v.v.v.g G G A M i t t t t t y a v.v.v.v.v.v.v.v.v.v.v.v.v.v.v.v.v.v.v.v.v.v.v.v.v.v.",
"v.v.v.v.v.v.v.v.v.v.v.v.v.v.v.v.v.v.v.v.v.v.v.v.N G G G A b s y y t t t t y v.v.v.v.v.v.v.v.v.v.v.v.v.v.v.v.v.v.v.v.v.v.v.v.v.v.",
"v.v.v.v.v.v.v.v.v.v.v.v.v.v.v.v.v.v.v.v.v.v.v.v.G G G G C v.v.g b i t t t t v.v.v.v.v.v.v.v.v.v.v.v.v.v.v.v.v.v.v.v.v.v.v.v.v.v.",
"v.v.v.v.v.v.v.v.v.v.v.v.v.v.v.v.v.v.v.v.v.v.v.G G G G A b v.v.v.j y t t t u v.v.v.v.v.v.v.v.v.v.v.v.v.v.v.v.v.v.v.v.v.v.v.v.v.v.",
"v.v.v.v.v.v.v.v.v.v.v.v.v.v.v.v.v.v.v.v.v.v.v.h G G G N v.v.v.v.u t t t f v.v.v.v.v.v.v.v.v.v.v.v.v.v.v.v.v.v.v.v.v.v.v.v.v.v.v.",
"v.v.v.v.v.v.v.v.v.v.v.v.v.v.v.v.v.v.v.v.v.v.y b G G A v.v.v.v.h t t i j v.v.v.v.v.v.v.v.v.v.v.v.v.v.v.v.v.v.v.v.v.v.v.v.v.v.v.v.",
"v.v.v.v.v.v.v.v.v.v.v.v.v.v.v.v.v.v.v.v.v.v.i g G G N v.v.v.$ t t t h G v.v.v.v.v.v.v.v.v.v.v.v.v.v.v.v.v.v.v.v.v.v.v.v.v.v.v.v.",
"v.v.v.v.v.v.v.v.v.v.v.v.v.v.v.v.v.v.v.v.v.n G G G G v.v.v.X X 4 t t h v.v.v.v.v.v.v.v.v.v.v.v.v.v.v.v.v.v.v.v.v.v.v.v.v.v.v.v.v.",
"v.v.v.v.v.v.v.v.v.v.v.v.v.v.v.v.v.v.v.v.N G G G G G v.v.v.. X = 6 q v.v.v.v.v.v.v.v.v.v.v.v.v.v.v.v.v.v.v.v.v.v.v.v.v.v.v.v.v.v.",
"v.v.v.v.v.v.v.v.v.v.v.v.v.v.v.v.v.v.v.u A G G G G v.v.v.v.X X + = v.v.v.v.v.v.v.v.v.v.v.v.v.v.v.v.v.v.v.v.v.v.v.v.v.v.v.v.v.v.v.",
"v.v.v.v.v.v.v.v.v.v.v.v.v.v.v.v.v.v.v.V G G V j v.v.v.v.  # = . v.v.v.v.v.v.v.v.v.v.v.v.v.v.v.v.v.v.v.v.v.v.v.v.v.v.v.v.v.v.v.v.",
"v.v.v.v.v.v.v.v.v.v.v.v.v.v.v.v.v.v.  % M G s v.v.v.v.  o = * v.v.v.v.v.v.v.v.v.v.v.v.v.v.v.v.v.v.v.v.v.v.v.v.v.v.v.v.v.v.v.v.v.",
"v.v.v.v.v.v.v.v.v.v.v.v.v.v.v.v.v.v.  o = w j v.v.v.  X * # v.v.v.v.v.v.v.v.v.v.v.v.v.v.v.v.v.v.v.v.v.v.v.v.v.v.v.v.v.v.v.v.v.v.",
"v.v.v.v.v.v.v.v.v.v.v.v.v.v.v.v.v.O . o # # v.v.v.v.  # = # . v.v.v.v.v.v.v.v.v.v.v.v.v.v.v.v.v.v.v.v.v.v.v.v.v.v.v.v.v.v.v.v.v.",
"v.v.v.v.v.v.v.v.v.v.v.v.v.v.v.v.v.  # = & v.v.v.v.v.v.. * = # o v.v.v.v.v.v.v.v.v.v.v.v.v.v.v.v.v.v.v.v.v.v.v.v.v.v.v.v.v.v.v.v.",
"v.v.v.v.v.v.v.v.v.v.v.v.v.v.v.  . # = = v.v.v.v.v.v.v.v.v.o & O v.v.v.v.v.v.v.v.v.v.v.v.v.v.v.v.v.v.v.v.v.v.v.v.v.v.v.v.v.v.v.v.",
"v.v.v.v.v.v.v.v.v.v.v.v.v.v.  O + = = v.v.v.v.v.v.v.v.v.v.v.    v.v.v.v.v.v.v.v.v.v.v.v.v.v.v.v.v.v.v.v.v.v.v.v.v.v.v.v.v.v.v.v.",
"v.v.v.v.v.v.v.v.v.v.v.v.v.v.v.O = = = v.v.v.v.v.v.v.v.v.v.v.v.v.v.v.v.v.v.v.v.v.v.v.v.v.v.v.v.v.v.v.v.v.v.v.v.v.v.v.v.v.v.v.v.v.",
"v.v.v.v.v.v.v.v.v.v.v.v.v.v.v.X * = = v.v.v.v.v.v.v.v.v.v.v.v.v.v.v.v.v.v.v.v.v.v.v.v.v.v.v.v.v.v.v.v.v.v.v.v.v.v.v.v.v.v.v.v.v.",
"v.v.v.v.v.v.v.v.v.v.v.v.v.v.v.v.= = = = v.v.v.v.v.v.v.v.v.v.v.v.v.v.v.v.v.v.v.v.v.v.v.v.v.v.v.v.v.v.v.v.v.v.v.v.v.v.v.v.v.v.v.v.",
"v.v.v.v.v.v.v.v.v.v.v.v.v.v.v.v.o * = = = v.v.v.v.v.v.v.v.v.v.v.v.v.v.v.v.v.v.v.v.v.v.v.v.v.v.v.v.v.v.v.v.v.v.v.v.v.v.v.v.v.v.v.",
"v.v.v.v.v.v.v.v.v.v.v.v.v.v.v.v.v.  . . X v.v.v.v.v.v.v.v.v.v.v.v.v.v.v.v.v.v.v.v.v.v.v.v.v.v.v.v.v.v.v.v.v.v.v.v.v.v.v.v.v.v.v.",
"v.v.v.v.v.v.v.v.v.v.v.v.v.v.v.v.v.v.v.v.v.v.v.v.v.v.v.v.v.v.v.v.v.v.v.v.v.v.v.v.v.v.v.v.v.v.v.v.v.v.v.v.v.v.v.v.v.v.v.v.v.v.v.v.",
"v.v.v.v.v.v.v.v.v.v.v.v.v.v.v.v.v.v.v.v.v.v.v.v.v.v.v.v.v.v.v.v.v.v.v.v.v.v.v.v.v.v.v.v.v.v.v.v.v.v.v.v.v.v.v.v.v.v.v.v.v.v.v.v.",
"v.v.v.v.v.v.v.v.v.v.v.v.v.v.v.v.v.v.v.v.v.v.v.v.v.v.v.v.v.v.v.v.v.v.v.v.v.v.v.v.v.v.v.v.v.v.v.v.v.v.v.v.v.v.v.v.v.v.v.v.v.v.v.v.",
"v.v.v.v.v.v.v.v.v.v.v.v.v.v.v.v.v.v.v.v.v.v.v.v.v.v.v.v.v.v.v.v.v.v.v.v.v.v.v.v.v.v.v.v.v.v.v.v.v.v.v.v.v.v.v.v.v.v.v.v.v.v.v.v.",
"v.v.v.v.v.v.v.v.v.v.v.v.v.v.v.v.v.v.v.v.v.v.v.v.v.v.v.v.v.v.v.v.v.v.v.v.v.v.v.v.v.v.v.v.v.v.v.v.v.v.v.v.v.v.v.v.v.v.v.v.v.v.v.v.",
"v.v.v.v.v.v.v.v.v.v.v.v.v.v.v.v.v.v.v.v.v.v.v.v.v.v.v.v.v.v.v.v.v.v.v.v.v.v.v.v.v.v.v.v.v.v.v.v.v.v.v.v.v.v.v.v.v.v.v.v.v.v.v.v.",
"v.v.v.v.v.v.v.v.v.v.v.v.v.v.v.v.v.v.v.v.v.v.v.v.v.v.v.v.v.v.v.v.v.v.v.v.v.v.v.v.v.v.v.v.v.v.v.v.v.v.v.v.v.v.v.v.v.v.v.v.v.v.v.v.",
"v.v.v.v.v.v.v.v.v.v.v.v.v.v.v.v.v.v.v.v.v.v.v.v.v.v.v.v.v.v.v.v.v.v.v.v.v.v.v.v.v.v.v.v.v.v.v.v.v.v.v.v.v.v.v.v.v.v.v.v.v.v.v.v."
};
