/* XPM */
static char *YmFzZTE_[] = {
/* columns rows colors chars-per-pixel */
"64 64 174 2 ",
"   c #1A1515",
".  c #1E1919",
"X  c #211C1C",
"o  c #1E293E",
"O  c #262020",
"+  c #2B2525",
"@  c #2C2829",
"#  c #322D2D",
"$  c #2F2C30",
"%  c #363031",
"&  c #393333",
"*  c #393539",
"=  c #4C1D1A",
"-  c #4D2729",
";  c #522422",
":  c #5A2926",
">  c #552C2E",
",  c #572A28",
"<  c #5C312D",
"1  c #422A36",
"2  c #4C2C34",
"3  c #432D3C",
"4  c #4E2F39",
"5  c #4A313F",
"6  c #653732",
"7  c #6A433C",
"8  c #7D4A3A",
"9  c #222F47",
"0  c #3E344D",
"q  c #3D3652",
"w  c #3D3856",
"e  c #40354E",
"r  c #453952",
"t  c #284066",
"y  c #3B446D",
"u  c #27497C",
"i  c #364777",
"p  c #5D4B41",
"a  c #434B5F",
"s  c #6E4B44",
"d  c #6D574A",
"f  c #695448",
"g  c #74534B",
"h  c #74584E",
"j  c #685B58",
"k  c #7F5F5A",
"l  c #756155",
"z  c #796457",
"x  c #7E695D",
"c  c #7A655A",
"v  c #545665",
"b  c #53596E",
"n  c #535769",
"m  c #42587E",
"M  c #665F61",
"N  c #56617C",
"B  c #68646D",
"V  c #7B6C6B",
"C  c #7B6A63",
"Z  c #7F726F",
"A  c #646A7C",
"S  c #7F7677",
"D  c #806B5E",
"F  c #8B6D5A",
"G  c #A66C4A",
"H  c #856E62",
"J  c #8A6F6A",
"K  c #867164",
"L  c #8B7469",
"P  c #8F7A6D",
"I  c #85726A",
"U  c #92756A",
"Y  c #927B6E",
"T  c #847675",
"R  c #937E71",
"E  c #987F71",
"W  c #968174",
"Q  c #988376",
"!  c #99857D",
"~  c #A28679",
"^  c #A38C7C",
"/  c #A38873",
"(  c #AF917B",
")  c #A0937B",
"_  c #D59D7E",
"`  c #D2A865",
"'  c #344E85",
"]  c #29528D",
"[  c #33528C",
"{  c #2D5693",
"}  c #2E5A9D",
"|  c #2D5897",
" . c #315695",
".. c #335F9F",
"X. c #2C5EA7",
"o. c #2A5FAB",
"O. c #2A60AC",
"+. c #3262A9",
"@. c #3C6CB1",
"#. c #5B6884",
"$. c #586E94",
"%. c #7C7B85",
"&. c #637294",
"*. c #4B73AF",
"=. c #5071A4",
"-. c #5E84B9",
";. c #6984AE",
":. c #698CBD",
">. c #7693BE",
",. c #4D95DF",
"<. c #5590D5",
"1. c #5898DA",
"2. c #6496CB",
"3. c #779DC5",
"4. c #649AD2",
"5. c #4794E3",
"6. c #4A95E1",
"7. c #88838A",
"8. c #988C85",
"9. c #8D929E",
"0. c #96969E",
"q. c #A18C87",
"w. c #AB9487",
"e. c #AA998C",
"r. c #B79884",
"t. c #A99A91",
"y. c #AEA097",
"u. c #B8A798",
"i. c #8690AF",
"p. c #8796B4",
"a. c #9FADBB",
"s. c #AAA3A4",
"d. c #B8ACA3",
"f. c #BEB3A9",
"g. c #A7ADB3",
"h. c #AAB3BF",
"j. c #C89986",
"k. c #CEA88B",
"l. c #C3A795",
"z. c #CAB39D",
"x. c #E1BA9E",
"c. c #E3B79C",
"v. c #C4B6A9",
"b. c #D2BDA8",
"n. c #C2BDBB",
"m. c #DFC399",
"M. c #D6C1AC",
"N. c #D8C3AF",
"B. c #D7C2B0",
"V. c #DAC5B1",
"C. c #DEC9B5",
"Z. c #D8C9BA",
"A. c #ECC3A5",
"S. c #EAC9AD",
"D. c #F4CCAD",
"F. c #E2CAB4",
"G. c #EECFB4",
"H. c #E6D2BE",
"J. c #F9D4B4",
"K. c #FDD8B8",
"L. c #F2D4B9",
"P. c #8BA6C5",
"I. c #A8B6C9",
"U. c #BABDC4",
"Y. c #BCC6D3",
"T. c #CAC6C3",
"R. c #CFCCCA",
"E. c #C0C3C9",
"W. c #D8D7D6",
"Q. c #DBDBDC",
"!. c #D5D5D7",
"~. c #E9D5C2",
"^. c #EBD8C5",
"/. c None",
/* pixels */
"/./././././././././././././././././././././././././././././././././././././././././././././././././././././././././././././././.",
"/./././././././././././././././././././././././././././././././././././././././././././././././././././././././././././././././.",
"/./././././././././././././././././././././././././././././././././././././././././././././././././././././././././././././././.",
"/./././././././././././././././././././././././././././././././././././././././././././././././././././././././././././././././.",
"/./././././././././././././././././././././././././././././././././././././././././././././././././././././././././././././././.",
"/./././././././././././././././././././././././././././././././././././././././././././././././././././././././././././././././.",
"/./././././././././././././././././././././././././././././././././././././././././././././././././././././././././././././././.",
"/./././././././././././././././././././././././././././././././././././././././././././././././././././././././././././././././.",
"/./././././././././././././././././././././././././././././././././././././././././././././././././././././././././././././././.",
"/./././././././././././././././././././././././././././././././././././././././././././././././././././././././././././././././.",
"/./././././././././././././././././././././././././././././././././././././././././././././././././././././././././././././././.",
"/./././././././././././././././././././././././././././././././././././././././././././././././././././././././././././././././.",
"/./././././././././././././././././././././././././././././././././././././././././././././././././././././././././././././././.",
"/./././././././././././././././././././././././././././././././././././././././././././././././././././././././././././././././.",
"/./././././././././././././././././././././././././././././././././././././././././././././././././././././././././././././././.",
"/./././././././././././././././././././././././././././././././././././././././././././././././././././././././././././././././.",
"/./././././././././././././././././././././././././././././././././././././././././././././././././././././././././././././././.",
"/./././././././././././././././././././././././././././././././././././././././././././././././././././././././././././././././.",
"/./././././././././././././././././././././././././././././././././././././././././././././././././././././././././././././././.",
"/./././././././././././././././././././././././././././././././././././././././././././././././././././././././././././././././.",
"/./././././././././././././././././././././././././././././././././././././././././././././././././././././././././././././././.",
"/./././././././././././././././././././././././.V V V V /./././././././././././././././././././././././././././././././././././.",
"/./././././././././././././././././././././.L V V V V V V /././././././././././././././././././././././././././././././././././.",
"/././././././././././././././././././././.V U V ! w.V V V V /./././././././././././././././././././././././././././././././././.",
"/././././././././././././././././././././.V V I ^ ^ A.w.I /././././././././././././././././././././././././././././././././././.",
"/././././././././././././././././././././.V /.r.l.G.K.L.w./././././././././././././././././././././././././././././././././././.",
"/././././././././././././././././././././.V /./.x.K.A.J././././././././././././././././././././././././././././././././././././.",
"/././././././././././././././././././././.V V /.A.D.J.K././././././././././././././././././././././././././././././././././././.",
"/././././././././././././././././././././.V /./.G.c.x./././././././././././././././././././././././././././././././././././././.",
"/././././././././././././././././././././././.,.h.V.F.h././././././././././././././././././././././././././././././././././././.",
"/./././././././././././././././././././././.5.5.<.j._ i.5.5././././././././././././././././././././././././././././././././././.",
"/././././././././././././././././././././.5.5.5.<.s.k.p.5.5.5./././././././././././././././././././././././././././././././././.",
"/./././././././././././././././././././.5.5.5.5.1.Z.M.I.5.5.5./././././././././././././././././././././././././././././././././.",
"/./././././././././././././././././././.5.5.5.4.v.~.M.Z.h.4.5./././././././././././././././././././././././././././././././././.",
"/./././././././././././././././././././.5.6.4.l.H.L.b.N.C.f.>.,././././././././././././././././././././././././././././././././.",
"/././././././././././././././././././.5.4.h.&.b.~.C.z.z.H.V.u.P././././././././././././././././././././././././././././././././.",
"/././././././././././././././././././.,.d.b.*.s.H.H.N.N.~.V.w.q././././././././././././././././././././././././././././././././.",
"/././././././././././././././././././.&.F D } 0.C.^.V.C.^.B.7 > /./././././././././././././././././././././././././././././././.",
"/././././././././././././././././././.> : = ' L ~ ~ ( / R U < 2 /./././././././././././././././././././././././././././././././.",
"/././././././././././././././././././.e = 3 ' , g 8 G G 6 g ; 3 /./././././././././././././././././././././././././././././././.",
"/././././././././././././././././././.0 = q $.R Y Y W Y W W s 5 X./././././././././././././././././././././././././././././././.",
"/././././././././././././././././././.w = y $.K W Q Q Y Q Y g 4 X./././././././././././././././././././././././././././././././.",
"/./././././././././././././././././.X.q = y #.R Q Q W P Q Q F 2  ./././././././././././././././././././././././././././././././.",
"/./././././././././././././././././.{ ; : - ;./ Y x D x z L K , [ /././././././././././././././././././././././././././././././.",
"/./././././././././././././././././.O.1 = + ` e.Q W d f l R K -  .X././././././././././././././././././././././././././././././.",
"/././././././././././././././././.O.O.' r F m.Q.T.e.d f K W T y X.O././././././././././././././././././././././././././././././.",
"/././././././././././././././././.o.O.O.O.) A y.R.Q.n.8.x Q %.O.O.o././././././././././././././././././././././././././././././.",
"/././././././././././././././././.o.O.O.O.+.N Q W e.Y.Q.!.d.7.O.o.o././././././././././././././././././././././././././././././.",
"/././././././././././././././././.o.o.o.o.O.b R Q I =.9.T.W.Y.-.+.O././././././././././././././././././././././././././././././.",
"/./././././././././././././././.o.o.o.o.o.o.v I W d O.n C u.T.!.I.:././././././././././././././././././././././././././././././.",
"/./././././././././././././././.o.o.o.o.o.o.B W W d +.v D Q 7.>.Y.Q.Q./././././././././././././././././././././././././././././.",
"/./././././././././././././././.o.o.o.o.o.o.C Q Q j X.v x Q T O.@.3.Y.Q.Q./././././././././././././././././././././././././././.",
"/././././././././././././././.o.o.o.o.o.o.o.c W W n O.n D Q S +.o.o.@./././././././././././././././././././././././././././././.",
"/././././././././././././././.o.o.o.o.o.o.O.z P P b O.n l P Z ..o.o.O./././././././././././././././././././././././././././././.",
"/././././././././././././././.o.o.o.o.o.o.X.l I C ' +.a p l M } O.o.o./././././././././././././././././././././././././././././.",
"/././././././././././././././.o.o.o.O.O.O.| & & # t O.o . & * { O.o.o.o././././././././././././././././././././././././././././.",
"/./././././././././././././././.o.o.O.O.O.} @ @ X u o.9 . + $ { O.o.o./././././././././././././././././././././././././././././.",
"/./././././././././././././././././././././.% % . /././.. # & /././././././././././././././././././././././././././././././././.",
"/./././././././././././././././././././././.& & . /././.X % & /././././././././././././././././././././././././././././././././.",
"/./././././././././././././././././././././.+ X . /././.. % & /././././././././././././././././././././././././././././././././.",
"/./././././././././././././././././././././.@ & # /././.. # & # % /././././././././././././././././././././././././././././././.",
"/./././././././././././././././././././././.# @ # /././.. @ % # @ O /./././././././././././././././././././././././././././././.",
"/./././././././././././././././././././././.    /./././././././././././././././././././././././././././././././././././././././.",
"/./././././././././././././././././././././././././././././././././././././././././././././././././././././././././././././././."
};
