/* XPM */
static char *coll121672316075[] = {
/* columns rows colors chars-per-pixel */
"64 64 208 2 ",
"   c None",
".  c #000000",
"X  c #0C0B00",
"o  c #05030A",
"O  c #0C040A",
"+  c #0C090B",
"@  c #15050A",
"#  c #131300",
"$  c #1C1C00",
"%  c #0F0E10",
"&  c #110F11",
"*  c #120D1A",
"=  c #190815",
"-  c #1B1A1E",
";  c #19171F",
":  c #230C1B",
">  c #240B15",
",  c #330512",
"<  c #291212",
"1  c #232300",
"2  c #2C2C00",
"3  c #2D2603",
"4  c #333200",
"5  c #3A3900",
"6  c #1E1D22",
"7  c #391529",
"8  c #3D1435",
"9  c #270D22",
"0  c #242426",
"q  c #34323B",
"w  c #38363E",
"e  c #2E2C32",
"r  c #421717",
"t  c #440319",
"y  c #4B340C",
"u  c #4A193A",
"i  c #451A35",
"p  c #511C3F",
"a  c #530A24",
"s  c #69052A",
"d  c #7E0633",
"f  c #432633",
"g  c #58233D",
"h  c #742733",
"j  c #454400",
"k  c #4B4A00",
"l  c #534906",
"z  c #595803",
"x  c #605D01",
"c  c #6D6C00",
"v  c #646203",
"b  c #7D7B00",
"n  c #737100",
"m  c #4D4A32",
"M  c #3E3C44",
"N  c #382863",
"B  c #551D43",
"V  c #593149",
"C  c #6B294B",
"Z  c #7B3254",
"A  c #773559",
"S  c #68334F",
"D  c #514E59",
"F  c #4C4953",
"G  c #7F4B5D",
"H  c #784559",
"J  c #5D5A66",
"K  c #585460",
"L  c #595170",
"P  c #696473",
"I  c #706C7B",
"U  c #820635",
"Y  c #8A0737",
"T  c #8E0738",
"R  c #8A0B39",
"E  c #95073A",
"W  c #9C083C",
"Q  c #940B3B",
"!  c #A4083E",
"~  c #A9093F",
"^  c #852637",
"/  c #802833",
"(  c #9F1741",
")  c #AD0940",
"_  c #B00941",
"`  c #BC0B46",
"'  c #BF0F48",
"]  c #B71145",
"[  c #B91246",
"{  c #BF1A4A",
"}  c #A91D46",
"|  c #BC294E",
" . c #AA2F46",
".. c #863E63",
"X. c #AD2E7D",
"o. c #BC3568",
"O. c #D91053",
"+. c #D81555",
"@. c #C21D4D",
"#. c #C8224E",
"$. c #C7214E",
"%. c #C92852",
"&. c #DE225E",
"*. c #D32D55",
"=. c #CA3456",
"-. c #DC3559",
";. c #D93B5A",
":. c #D63758",
">. c #E23D5D",
",. c #D53066",
"<. c #E23669",
"1. c #874664",
"2. c #924A6A",
"3. c #964E72",
"4. c #985173",
"5. c #BD4474",
"6. c #A4577B",
"7. c #A6475C",
"8. c #E6415F",
"9. c #D5506E",
"0. c #E84360",
"q. c #E94968",
"w. c #E74967",
"e. c #EA577B",
"r. c #E45277",
"t. c #E84F74",
"y. c #8A8800",
"u. c #939100",
"i. c #9B9900",
"p. c #A09E00",
"a. c #ACAA00",
"s. c #A9A600",
"d. c #B5B300",
"f. c #BAB800",
"g. c #B1AE00",
"h. c #C2BF00",
"j. c #C6C300",
"k. c #CAC800",
"l. c #D3D100",
"z. c #DCD900",
"x. c #E2DF00",
"c. c #EDEA00",
"v. c #E6E300",
"b. c #F8F500",
"n. c #F2EF00",
"m. c #452D85",
"M. c #573D9A",
"N. c #644E9F",
"B. c #695F84",
"V. c #7B7688",
"C. c #6D628D",
"Z. c #7257B6",
"A. c #795FBB",
"S. c #624AA3",
"D. c #7F6AB4",
"F. c #B33582",
"G. c #AA5C80",
"H. c #A05A84",
"J. c #B45B84",
"K. c #817C8D",
"L. c #837E91",
"P. c #8F7189",
"I. c #B66687",
"U. c #A87391",
"Y. c #8573B6",
"T. c #B57BA0",
"R. c #C1468C",
"E. c #CA5C99",
"W. c #DB5087",
"Q. c #DD6D8A",
"!. c #D66C9A",
"~. c #C67590",
"^. c #C67E98",
"/. c #C3608C",
"(. c #E56C8A",
"). c #D871A3",
"_. c #8C75C6",
"`. c #8C879A",
"'. c #9D97AC",
"]. c #9F95B9",
"[. c #A696AC",
"{. c #B6B6B6",
"}. c #E3819E",
"|. c #D78CB6",
" X c #E48CAE",
".X c #E19AB8",
"XX c #A18ED8",
"oX c #A694DA",
"OX c #AB99DB",
"+X c #A896DB",
"@X c #AA9DCD",
"#X c #BDB5CF",
"$X c #B8A9DD",
"%X c #B2ABC3",
"&X c #B8AAE2",
"*X c #BFB1E5",
"=X c #CEBCDB",
"-X c #DCB0CF",
";X c #C3B5E6",
":X c #C5B9E5",
">X c #CBBFEA",
",X c #E1A5C6",
"<X c #CFC3EC",
"1X c #D6CCEC",
"2X c #D5C6E7",
"3X c #DCD3F1",
"4X c #D8CFF0",
"5X c #CAC2DD",
/* pixels */
"                                                                                                                                ",
"                                                                                                                                ",
"                                                                                                                                ",
"                                                                                                                                ",
"                                                                                                                                ",
"                                                                                                                                ",
"                                                                                                                                ",
"                                                                                                                                ",
"                                                                                                                                ",
"                                              4 4                                                                               ",
"                                            . b c .                                                                             ",
"                                        . . k j.d.k . .                                                                         ",
"                                      1 z y.j.c.c.j.u.z 1                                                                       ",
"                                      1 j c d.c.v.d.c j # X . . . . . .                                                         ",
"                                            4 d.s.2 . V H H 1.1.G G G G S .                                                     ",
"                                            . n v . . 3.6.6.~.~.~.~.~.I.2..                                                     ",
"                                              1 1   . A ....2...2.6.I.I.2..                                                     ",
"                                              . . 6 {.1.Z Z Z Z Z 6.6.G.I.{.0 .                                                 ",
"                                            . K.@XY.S.A Z Z Z Z Z 6.6.G.H.N.Y.@XK..                                             ",
"                                            . C.oX+X:X=X=X=X=X=X=X=X=X2X5X<X+X+XC..                                             ",
"                                            . N M.S.OXOXOXOXOXOXOXOXOXOXOXOXS.M.N .                                             ",
"                                              . O * m.m.m.m.m.m.m.m.m.m.m.m.* o .                                               ",
"                                        . . . . f 1.o O o o . o o o o o o o 1.f .                                               ",
"                                O O . > V 4.Z 9 : u B 3.6.H.3.B H.C ..6.4.u B : .                                               ",
"                          = = & 3.A g 7 O O O 9 : . 6 u u u u u u u u u i 6 .                                                   ",
"                        . f 1.C i @ o : B u 8 * . 6 3Xq - - * * * 6 6 - q 3X6             # #                                   ",
"                            . . @ @ i C i . .     6 3X+X>XOXZ.Z.Z.;X3X>XOX3X0           . j n .                                 ",
"                              9 C C u : .         6 3X+X:X$XZ.Z.Z.;X3X>XOX3X6           1 y.j.1                                 ",
"                        : > 7 C B 8 = .         e K 3X+X>XOXZ.Z.Z.;X3X>X+X<XD e     2 j u.l.c.a.z 4 1                           ",
"                      > f g B u i =           M V.3X:X&X1XOXZ.Z.Z.;X3X<XOXXX;XV.0 # c a.l.c.n.x.d.b 4 .                         ",
"                    . 7 @ O = 9 .       - J J {.1X;X&X4X&X_.Z.Z.Z.:X3X3X4XXXXX&X].J K % 5 i.k.k X .                             ",
"                    . . . + = .     F J I 2X3X3X<X*X3X&X_.Z.Z.Z.Z.:X3X4X4X&XoXXXOX:X$XI - z u..                                 ",
"                          .       D ].3X3X3X3X3X3X3X&XY.Z.Z.Z.Z.Z.:X3X3X3X3X;XOXXXXXXX*XB.m 5 .                                 ",
"                              & P =X3X3X3X3X3X3X>X;X_._.Y.Z.Z.Z._.&X>X3X3X3X3X>X;X&XXXXXXXD.L P %                               ",
"                            q L.1X3X3X3X3X3X3X|.E.R.R.R.F.X.o.X.J.R.). X X X X X,X3X;X:XOXXX+X&XL.w                             ",
"                          . f  X X X X X X X!.,.O.O.O.O.O.O.O.O.O.O.O.<.e.e.(.W.(. X X X!.E.E.E.).P.F                           ",
"                        . 1 l C r.e.e.e.t.<.O.O.O.O.O.O.O.O.O.O.O.O.O.+.<.e.e.e.e.e.e.e.t.<.&.&.&.W.U.J                         ",
"                      . . x p.@ >.q.q.q.0.O.O.O.O.O.O.O.O.O.O.O.O.O.O.O.O.&.t.e.e.e.e.e.e.r.,.! O.+.|.'..                       ",
"                    . . k s.l.x r 7  .0.>.` ` ` ` ` O.` ` ` ` ` ` ` ` ` ` ` +.-.q.q.q.q.q.q.=.R ` ` o.J.`.&                     ",
"                  # c a.l.c.b.z.f.b y h <._ _ _ _ _ _ _ ~ ~ ` ~ _ _ _ _ _ _ _ ' %.0.0.0.0.0.=.U ) _ ~ ,.#X&                     ",
"                    $ 1 b k.v.i.4 $ h ;.>.~ ~ [ ~ ~ ` ~ ~ ` ~ ` _ _ _ _ _ _ _ ) $.0.0.0.0.%.R U ) _ ) 5.#X&                     ",
"                    % '.m b f.$  .=.8.8.;.~ ~ ~ ~ @.~ ` ~ ~ ~ ` _ _ _ _ _ _ _ _ _ @.0.0.0.| U U ) _ a V #X&                     ",
"                    & #XM j n O ;.8.8.8.>.[ ' ~ ~ ~ ~ ` ` ~ ~ ~ _ _ _ _ _ _ _ _ ) ] 0.0.} R U Y ) t l v 6 .                     ",
"                    & #XQ.h , ) ] -.8.q.0.0.' ~ ~ ` ~ ~ ~ ` ` ~ _ _ _ _ _ _ _ _ _ ` 0.0.W U U Y ) , y.g.. .                     ",
"                    & #X(.0.>.~ ~ ` *.>.0.0.0.0.*._ ~ ~ ~ ~ ~ ~ _ ) _ _ _ _ _ _ _ ] ;.R U d a X # n l.v.y.$ X                   ",
"                    & #X(.>.-.~ ~ ~ ~ #.0.0.0.0.8.;.` ~ ` ` ~ ~ _ _ _ ) _ ) -.$.) ) R U U a 3 u.v.n.b.b.b.c.u.4 .               ",
"                      . [. X>.' ` ~ ~ ~ T U *.;.8.8.8.8.0.*.] ] ` _ ) ) [ ;.;.{ W U U U Y W U @ @ z k.z.c X .                   ",
"                      . '..Xq.>.` ~ ~ ~ ! Y U U } ;.;.-.-.>.-.:.:.] ) ) ) ) Y U U U U Y ! ) ~ ~ _ , y.a..                       ",
"                      . `.5X,X8.{ ~ ~ ~ ~ E Y U U U U U U U U U U U d U U U U U U d U ) _ ) ) R _ i z z .                       ",
"                        . J ,X0.8.#.[ ~ ~ ~ E T U U U U U U U U U U U U U U U U T E ) ) ) T Y ) _ |.J o                         ",
"                        . D [.(.q.-.#.{ @.~ ` ~ Y U U U U U U U U U U U U U U E ) ) ) U d U ( ) o.[.D .                         ",
"                            V 2Xq.8.8.-.~ ~ ~ ~ ! T T U s s U U U U U U U U U U d d U d Y ( ] | 2XM                             ",
"                            w [.Q.r.8.;.@.~ [ ~ ~ ~ ~ d r r s U d U U U U U U U d d d Y ) ] =.Q.[.q                             ",
"                              % I }.}.Q.8.>.*.~ ~ ~ ~ @ y.c > Q E E E E E Q E E T ( ( ) 5.!.[.4.&                               ",
"                                . P %X-X}.}.q.:.+.#.#.@ f.u.> #.#.@.#.#.$.$.$.$.@.%.J.E.-X%XP .                                 ",
"                                    J K.`.2X X7.^ ^ ^ y k.a.y ^ ^ ^  .| | | | 9. X X1XL.V.K                                     ",
"                                        - J J m c u.u.j.n.c.j.u.u.x r g [.T.T.4.J J J -                                         ",
"                                              4 k c c d.c.v.a.c c j $ 6 J J J w                                                 ",
"                                                      5 k.a.5                                                                   ",
"                                                      . d.u..                                                                   ",
"                                                      . b v .                                                                   ",
"                                                        2 1                                                                     ",
"                                                                                                                                ",
"                                                                                                                                "
};
