/* XPM */
static char *coll101672316075[] = {
/* columns rows colors chars-per-pixel */
"64 64 211 2 ",
"   c None",
".  c #010001",
"X  c #0A0805",
"o  c #11060B",
"O  c #150709",
"+  c #141300",
"@  c #1C1B00",
"#  c #0B0714",
"$  c #0F0F11",
"%  c #110E11",
"&  c #1B0916",
"*  c #1B1A1E",
"=  c #121114",
"-  c #260B18",
";  c #2F0B11",
":  c #242300",
">  c #2E2D00",
",  c #282700",
"<  c #3C3B00",
"1  c #353400",
"2  c #372A08",
"3  c #1E1D22",
"4  c #150F28",
"5  c #2A0C24",
"6  c #281622",
"7  c #3B1436",
"8  c #222222",
"9  c #3E222F",
"0  c #37353D",
"q  c #2D2C32",
"w  c #471315",
"e  c #463213",
"r  c #4A193B",
"t  c #471A37",
"y  c #501B3F",
"u  c #680529",
"i  c #671C2A",
"p  c #72052E",
"a  c #52273B",
"s  c #472635",
"d  c #6F262B",
"f  c #4A4900",
"g  c #464500",
"h  c #534B04",
"j  c #585601",
"k  c #56541E",
"l  c #605D01",
"z  c #6D6C00",
"x  c #636203",
"c  c #797700",
"v  c #706F00",
"b  c #4C492F",
"n  c #3E3B44",
"m  c #3A3742",
"M  c #551E43",
"N  c #5B2346",
"B  c #593043",
"V  c #6B2A4B",
"C  c #683F51",
"Z  c #7B3154",
"A  c #773958",
"S  c #6D314E",
"D  c #403069",
"F  c #7B3961",
"G  c #4E4B56",
"H  c #714352",
"J  c #625F4F",
"K  c #5D5964",
"L  c #585561",
"P  c #7E4561",
"I  c #676372",
"U  c #716D7C",
"Y  c #830635",
"T  c #880737",
"R  c #8E0738",
"E  c #890A38",
"W  c #860937",
"Q  c #93073A",
"!  c #9B083B",
"~  c #930B3B",
"^  c #95123D",
"/  c #A5083E",
"(  c #A9093F",
")  c #892839",
"_  c #9E1741",
"`  c #AD0940",
"'  c #B00941",
"]  c #BD0C47",
"[  c #B81246",
"{  c #BB1648",
"}  c #B01A48",
"|  c #8A3551",
" . c #A63045",
".. c #B42A4D",
"X. c #B83265",
"o. c #C20C49",
"O. c #C21B4B",
"+. c #C4104A",
"@. c #D91053",
"#. c #D81556",
"$. c #CC2753",
"%. c #D42E58",
"&. c #CB3254",
"*. c #C83358",
"=. c #DA3459",
"-. c #D93959",
";. c #C4274E",
":. c #E23E5D",
">. c #DF2560",
",. c #D23B6D",
"<. c #E3386A",
"1. c #E02E64",
"2. c #81415F",
"3. c #894666",
"4. c #924E6D",
"5. c #9B4E6E",
"6. c #985173",
"7. c #BD4373",
"8. c #A05377",
"9. c #836A7E",
"0. c #E6415F",
"q. c #D45070",
"w. c #E84360",
"e. c #E94C6C",
"r. c #E74767",
"t. c #EA577B",
"y. c #E65673",
"u. c #E84B75",
"i. c #E6607E",
"p. c #888700",
"a. c #939100",
"s. c #9B9900",
"d. c #A09E00",
"f. c #AAA800",
"g. c #B6B400",
"h. c #BEBC00",
"j. c #C4C100",
"k. c #CDCB00",
"l. c #C9C700",
"z. c #DCD900",
"x. c #D3D100",
"c. c #E2DF00",
"v. c #EDEA00",
"b. c #E6E300",
"n. c #F2EF00",
"m. c #F9F600",
"M. c #573D9A",
"N. c #5F5480",
"B. c #695F84",
"V. c #7E798A",
"C. c #797585",
"Z. c #746797",
"A. c #7257B6",
"S. c #785EBA",
"D. c #6951A8",
"F. c #7C6BAB",
"G. c #7F66BD",
"H. c #9E398C",
"J. c #AA5D83",
"K. c #A45E87",
"L. c #B9589F",
"P. c #A64291",
"I. c #91728B",
"U. c #B66786",
"Y. c #AC6789",
"T. c #BE69AA",
"R. c #DF6F8C",
"E. c #C67590",
"W. c #CF728D",
"Q. c #E56C8A",
"!. c #E47796",
"~. c #C771AB",
"^. c #DC5B8F",
"/. c #8871C5",
"(. c #9C96AD",
"). c #9993A7",
"_. c #9089A4",
"`. c #A294AA",
"'. c #A59EB5",
"]. c #BB8CAD",
"[. c #A4A4A4",
"{. c #878194",
"}. c #D886B3",
"|. c #D093B6",
" X c #E29EBE",
".X c #E19AB7",
"XX c #E28FAD",
"oX c #A18ED8",
"OX c #AC9BDB",
"+X c #A694DA",
"@X c #BCB5CE",
"#X c #B2A2DF",
"$X c #B5A8D8",
"%X c #BEA5C7",
"&X c #B9ABE3",
"*X c #B7A7E1",
"=X c #BEB0E4",
"-X c #9D8ACE",
";X c #DB9DC6",
":X c #C0A5C4",
">X c #CBAFCE",
",X c #C6B5D5",
"<X c #D7AECE",
"1X c #E0AAC9",
"2X c #C5B8E5",
"3X c #CABEEA",
"4X c #C2B5E3",
"5X c #CDC3E6",
"6X c #D5CBEE",
"7X c #D6CAE9",
"8X c #DCD3F1",
/* pixels */
"                                                                                                                                ",
"                                                                                                                                ",
"                                                                                                                                ",
"                                                                                                                                ",
"                                                                                                                                ",
"                                                                                                                                ",
"                                                                                                                                ",
"                                              , :                                                                               ",
"                                            < a.p.<                                                                             ",
"                                        + < f.b.b.f.< +                                                                         ",
"                                        + j h.v.v.h.j X .                                                                       ",
"                                            1 a.p.1 . B B C H A H H H C B .                                                     ",
"                                              1 > . . 4.J.U.W.E.E.E.W.E.4..                                                     ",
"                                                    . A 3.3.5.5.5.U.U.U.4..                                                     ",
"                                                . 8 [.2.Z Z Z Z Z 8.8.8.Y.[.8 .                                                 ",
"                                            . B._.Z.F.F Z Z Z | Z 8.J.J.K.F.F._.U .                                             ",
"                                            . Z.+XoX$X%X%X'.:X:X%X>X>X>X>X$XoXOXZ..                                             ",
"                                            . D D.A.#X#X*X&X#X#X#X#X*X#X#X#XA.D.D .                                             ",
"                                              # # 4 M.M.M.M.M.M.M.M.M.M.M.M.4 # X                                               ",
"                                        . . . . 9 P # # # # # # # # # # # # P 9 .                                               ",
"                                . . . o N 4.S - 6 N r 3.4.4.3.r 4.N A 4.3.t N 6 .                                               ",
"                            o O 6.| N 7 . . . 5 - . % r y y r y M r r M t $ .               X                                   ",
"                        . s 4.V M & . & M r 7 & . 3 5X6 . X . X . # . . 6 5X3           . < x .                                 ",
"                            . . X X t V t # .     3 8XOX3XOXA.A.A.2X8X5XOX8X3           . z g..                                 ",
"                              O V V M 5 .         8 8XOX3XOXA.A.A.2X8X3X+X8X6           + c h.+                                 ",
"                        O O 6 Z M M & .         * 0 8XOX3X$XA.A.A.2X8X3X+X6Xm 3   @ , : c l.b.s.> , @ +                         ",
"                      o y V V M M &           * B.8X6XOX5XOXA.A.A.2X8X5X+XoX5XU e p.z.z.v.m.m.v.z.z.f.j .                       ",
"                    X t & . # 5 .         n n '.6X2X*X6X2X-XA.A.A.2X8X8X6XoXoX*X(.n m X f f.x.x X . . .                         ",
"                    . . . o & .     0 n L 5X8X8X5X&X8X4X/.A.A.A.A.2X8X8X6X#XoXoX*X3X=XG = z g..                                 ",
"                        . . .     m ).8X8X8X8X8X8X8X2X/.A.A.A.A.A.2X8X8X8X8X*XOXoXoX+X2Xm j f..                                 ",
"                                K @X6X8X8X8X8X8X6X&XoX/.S.A.A.A./.*X5X8X8X8X8X3X&X&XoXoXN.b k K                                 ",
"                            q I 7X8X8X8X8X8X8X;X~.L.L.L.P.H.H.H.L.L.}. X X X X;X<X8X&X&X+XF.B.$XI q                             ",
"                          : b I..X X X X X X!.:.@.@.@.@.@.@.@.@.@.@.>.u.t.t.t.t.!. X X X~.~.T.~.}.I.m                           ",
"                        . j a.$ q.t.t.t.t.<.#.@.@.@.@.@.@.@.@.@.@.@.@.#.<.t.t.t.t.t.t.t.t.<.>.>.>.^.I.L                         ",
"                      . . v g.X r.e.e.e.<.#.@.@.@.@.@.@.@.@.@.@.@.@.@.@.#.>.t.t.t.t.t.t.t.u.%.` #.#.!.'..                       ",
"                  . . . < s.l.j i i i ) :.+.o.o.o.o.o.o.o.o.o.o.] ] o.o.o.o.;.<.e.e.e.e.e.e.*.R ] ] ,.Y.C.$                     ",
"                > j a.a.h.c.n.l.a.a.z h d ( ( ] ( ' ' ' ( ] ( ( ' ' ' ' ' ' ' { =.0.0.w.0.0.&.Y ` ` ' 7.$X%                     ",
"                @ > f f a.k.b.f.j g 1 e } ( ( ( ' ' ' ' ( ] ( ] ' ' ` ' ` ' ' ' O.0.0.0.0.&.^ T ` ` ` 7.@X=                     ",
"                    $ {.b p.j.>  . . ...:.] ' ' ' ' ' ' ( ( ] ( ' ' ' ' ' ' ' ' [ O.0.0.w...Y Y ` ` ' 7.@X$                     ",
"                    $ @XB z g.X -.w.w.r.=.] ' ' ' ' ' ( ] ( ( ( ' ' ' ' ' ' ' ' ( +.w.0...^ Y T ` ` u C @X=                     ",
"                    $ @XG g c O ( -.0.0.0.:.[ ( ( ( ( ( ( ] ( ] ' ' ' ' ( ( ] ( o.( w.w.^ T Y T ' w h x * .                     ",
"                    $ @Xi.d ; ! ( [ %.0.0.0.:.:.$.( ( ] ] ( ( ] ' ' ' ' ( ] ( ( ( o.0.( T W R ! - j h.k.z X                     ",
"                    $ @XR.-...' ( ' [ $.0.0.w.w.0.-.( ( ( ( ( ( ' ' ' ' ( ( =.O.( ( ^ W p T u ; z k.m.m.z.p.+                   ",
"                      $ ).XX=.' ' ' ( ( Q R :.w.0.0.0.0.:.%.] ( ' ' ' ' [ <.r.O./ Y Y W Y Q / ! O z x.c.p.+                     ",
"                      . (..Xr.0.] ( ( ( ( W Y Y } :.:.0.:.0.:.0.:.[ ' ` ` ` T Y W Y Y W / ( ( ( ' ; h l .                       ",
"                      . (.8X X0.( ] ( ] ( W Y Y W E W W W W W W E Y Y T Y Y Y Y Y Y W ( ( ( / R ( |.K X .                       ",
"                        . K 1X0.w.O.' ( ' ' R Y Y Y E p Y Y Y Y Y p T Y Y Y Y Y W R ( ( ( ! Q ( ' |.K .                         ",
"                        . L |.y.0.:.O.] ' ( ( Q W Y W Y Y Y Y Y Y Y W Y Y Y Y Q / ( ( T T T Q ' X.].K .                         ",
"                            n 7Xe.0.0.=.( ( ( ( ( R R Y W Y Y Y Y Y Y Y Y Y Y Y Y Y Y Y Y _ ' ..7XB                             ",
"                            0 `.R.y.0.:.O.+.( ( ( o.( Q p p E Y Y Y Y W Y Y Y Y Y Y Y T ` [ %.R.`.0                             ",
"                              = ).E.Q.i.0.%.O.[ ( ( ( T w w Y R R R R R R R Q R R R Q ( X.q.W.).$                               ",
"                                . V.,X<XQ.Q.0.$.O.O.O.O c l ; O.O.{ { O.O.{ O.O.{ { 7.7.>X&XC..                                 ",
"                                  . I (.'.6X!.Q.q. . .2 j.f.e  . .&.&.&.*.*.&.q.Q.XX7X'.(.I .                                   ",
"                                      . 3 C.V.V.J f z g.v.c.f.z < w | K.J.J.J.I.I.V.C.* .                                       ",
"                                          . . . > l a.l.n.v.j.a.j + G C.V.V.C.G . . .                                           ",
"                                                  . . f k.g.g . . . . . . . .                                                   ",
"                                                      . p.z .                                                                   ",
"                                                        1 >                                                                     ",
"                                                                                                                                ",
"                                                                                                                                ",
"                                                                                                                                ",
"                                                                                                                                ",
"                                                                                                                                ",
"                                                                                                                                "
};
