/* XPM */
static char *coll131672316076[] = {
/* columns rows colors chars-per-pixel */
"64 64 205 2 ",
"   c None",
".  c #010001",
"X  c #0A0306",
"o  c #0B0B00",
"O  c #0C0509",
"+  c #08070C",
"@  c #16050B",
"#  c #181700",
"$  c #0F0E10",
"%  c #110F11",
"&  c #100C1C",
"*  c #180915",
"=  c #1A191D",
"-  c #19171F",
";  c #230C1B",
":  c #240B14",
">  c #380614",
",  c #260F14",
"<  c #232300",
"1  c #2D2C00",
"2  c #282700",
"3  c #323200",
"4  c #3A3900",
"5  c #362407",
"6  c #1E1D22",
"7  c #361428",
"8  c #32102C",
"9  c #34313A",
"0  c #28282B",
"q  c #44161A",
"w  c #43270C",
"e  c #483A08",
"r  c #580422",
"t  c #4A193A",
"y  c #471A36",
"u  c #501C2F",
"i  c #67052A",
"p  c #631D29",
"a  c #7E0633",
"s  c #442634",
"d  c #5C253E",
"f  c #7B2A2F",
"g  c #494800",
"h  c #524D02",
"j  c #574709",
"k  c #595701",
"l  c #56541E",
"z  c #615D01",
"x  c #656301",
"c  c #6D6C00",
"v  c #797700",
"b  c #4E4A35",
"n  c #2D1D58",
"m  c #3E3B44",
"M  c #551D43",
"N  c #5B2644",
"B  c #513D4B",
"V  c #6B2A4D",
"C  c #7B3154",
"Z  c #773559",
"A  c #6B3A50",
"S  c #7F3C61",
"D  c #47454E",
"F  c #514E5A",
"G  c #514E59",
"H  c #5D5A66",
"J  c #585460",
"K  c #686473",
"L  c #706C7B",
"P  c #79425B",
"I  c #820635",
"U  c #890637",
"Y  c #8F0738",
"T  c #890B38",
"R  c #94073A",
"E  c #9C083C",
"W  c #99073B",
"Q  c #93193D",
"!  c #A3083E",
"~  c #A9093F",
"^  c #8C283A",
"/  c #9D1640",
"(  c #AD0940",
")  c #B00941",
"_  c #BC0B46",
"`  c #BF0F48",
"'  c #B91246",
"]  c #BA1647",
"[  c #A61C45",
"{  c #AE2048",
"}  c #A12F43",
"|  c #BB304D",
" . c #883D61",
".. c #AD2F7E",
"X. c #BC3568",
"o. c #D91053",
"O. c #DC1B5A",
"+. c #C71A4E",
"@. c #C8224E",
"#. c #C7204E",
"$. c #C82952",
"%. c #D72A58",
"&. c #CB3555",
"*. c #DA3A5A",
"=. c #D83659",
"-. c #E13D5D",
";. c #D73368",
":. c #E23568",
">. c #8A4967",
",. c #924D6F",
"<. c #904465",
"1. c #8D5467",
"2. c #9E5377",
"3. c #BD4474",
"4. c #A45679",
"5. c #90485A",
"6. c #E5415E",
"7. c #DB4C6B",
"8. c #E84360",
"9. c #E94968",
"0. c #E74967",
"q. c #EA577B",
"w. c #E85275",
"e. c #E85073",
"r. c #878600",
"t. c #939100",
"y. c #9B9900",
"u. c #A09E00",
"i. c #A9A700",
"p. c #B5B300",
"a. c #BCBA00",
"s. c #C2BF00",
"d. c #C5C300",
"f. c #CDCA00",
"g. c #C9C700",
"h. c #D8D500",
"j. c #E1DE00",
"k. c #EDEA00",
"l. c #E6E400",
"z. c #F2EF00",
"x. c #F9F600",
"c. c #503794",
"v. c #513A90",
"b. c #452D85",
"n. c #655295",
"m. c #797485",
"M. c #6E638D",
"N. c #7257B6",
"B. c #7C62BD",
"V. c #B33582",
"C. c #AA5C80",
"Z. c #A05A84",
"A. c #B45B84",
"S. c #837A8C",
"D. c #837E91",
"F. c #8F7189",
"G. c #B56888",
"H. c #AF7A9B",
"J. c #8473B4",
"K. c #B57BA0",
"L. c #C1468C",
"P. c #C85D9B",
"I. c #D05792",
"U. c #C6618A",
"Y. c #D66C9A",
"T. c #C67590",
"R. c #C67E98",
"E. c #DA728F",
"W. c #E56C8A",
"Q. c #D771A3",
"!. c #8D77C8",
"~. c #8B849C",
"^. c #9D97AC",
"/. c #9A92AE",
"(. c #A897AD",
"). c #ADA6BD",
"_. c #DC809D",
"`. c #E3819E",
"'. c #D78CB6",
"]. c #E48CAE",
"[. c #E09AB8",
"{. c #9B87D3",
"}. c #A18ED8",
"|. c #A694DA",
" X c #AC9BDB",
".X c #A896DB",
"XX c #A79CC5",
"oX c #BCB4CE",
"OX c #B7A8DD",
"+X c #B2ABC3",
"@X c #B8AAE2",
"#X c #BFB1E5",
"$X c #CEBCDB",
"%X c #C1B9D3",
"&X c #DCB0CF",
"*X c #C3B5E6",
"=X c #C5B9E5",
"-X c #CBBFEA",
";X c #E1A5C6",
":X c #DBDADB",
">X c #CEC2EB",
",X c #D5CBED",
"<X c #D5C7E7",
"1X c #DCD3F1",
"2X c #D8CFF0",
/* pixels */
"                                                                                                                                ",
"                                                                                                                                ",
"                                                                                                                                ",
"                                                                                                                                ",
"                                                                                                                                ",
"                                                                                                                                ",
"                                                                                                                                ",
"                                                                                                                                ",
"                                                                                                                                ",
"                                                                                                                                ",
"                                              3 1                                                                               ",
"                                            . r.v .                                                                             ",
"                                        . . g d.p.g . .                                                                         ",
"                                      2 k t.g.k.k.d.t.k <                                                                       ",
"                                      # 4 k i.l.l.i.k 4 o . . . . . . . .                                                       ",
"                                            2 i.i.2 . A P >.1.1.1.1.1.>.A .                                                     ",
"                                            . v x . . ,.4.G.T.T.T.T.R.G.,..                                                     ",
"                                              < <   . Z <.<.<.<.<.4.G.G.,..                                                     ",
"                                              . . 6 :X>.C C C C  .2.C.C.G.:X6 . .                                               ",
"                                            . m.XXJ.n.Z C C C C C 2.C.C.Z.n.J.XXD..                                             ",
"                                            . M.|.|.=X>X$X$X$X$X$X$X$X<X-X=X.X.XM..                                             ",
"                                            . n b.v.{.{.{.{.{.{.{.{.}.}.{.{.v.b.n .                                             ",
"                                              + + & c.c.c.c.c.c.c.c.c.c.c.c.& + X                                               ",
"                                        X O O . s >.X O O O O X X X X X + X >.s .                                               ",
"                                * @ O * M >.V 7 ; t t ,.2.2.<.M 4.V  .2.,.y t * .                                               ",
"                          % * * ,.Z N 7 O O + ; ; X 6 y t t t t t y t t y 6 X                                                   ",
"                        . s >.V y * X ; M t 8 * . 6 1Xm = = & $ & 6 6 = m 1X6             # #                                   ",
"                            . X * , t N 8 X +     6 2X}.>X XN.N.N.*X2X-X|.1X6           . g v .                                 ",
"                              ; V V t ; X         6 1X.X>X XN.N.N.*X1X-X.X1X6           2 r.d.1                                 ",
"                        ; , 7 V M y * .         9 J 1X.X>X XN.N.N.*X1X-X|.-XF 9     1 g t.f.l.i.h 3 <                           ",
"                      7 y s y t 8 @           D ~.2X*X@X,X XN.N.N.*X1X,X@X}.@X~.m o k r.a.l.z.f.t.x 1                           ",
"                    . 7 O O * : .       6 J H +X,X*X@X2X@X{.N.N.N.*X1X1X,X}.{.@X^.H J $ 4 y.f.h o .                             ",
"                    . . . + * .     B H m.<X1X1X-X#X2X@XJ.N.N.N.N.*X1X1X,X@X|.}..X*X*XK ; k t..                                 ",
"                          .       J ).1X2X1X1X1X1X2X#X!.N.N.N.N.N.-X1X1X1X1X*X X}.}.}.@XM.D 3 .                                 ",
"                              $ m.%X1X1X1X1X1X1X-X@X!.!.J.N.N.N.!.OX-X2X1X1X1X>X*X*X}.}.|.J.K m.%                               ",
"                            9 ~.,X1X1X1X1X1X1X'.I.L.L.V.V.V...X.L.L.Q.].].].].].;X,X*X*X X}.|.OXD.9                             ",
"                          . s ].].].].].].].Y.:.o.o.o.o.o.o.o.o.o.o.O.:.q.q.q.q.W.].].].Q.P.P.P.Q.H.D                           ",
"                      . . 1 j u w.q.q.q.q.%.o.o.o.o.o.o.o.o.o.o.o.o.o.O.:.q.q.q.q.q.W.e.w.:.O.O.%.;.K.m..                       ",
"                      . . x y.@ 7.9.0.0.:.o.o.o.o.o.o.o.o.o.o.o.o.o.o.o.O.O.w.q.q.q.q.q.q.w.;.E o.o.Q.^..                       ",
"                    . . g i.h.x q q } 8.:._ _ _ _ _ _ o._ _ _ _ _ _ _ _ _ _ +.=.9.9.9.9.9.0.&.U ) _ X.A.~.%                     ",
"                  # r.f.l.x.x.k.h.t.g p *.' ~ ~ ~ _ ~ ~ _ ~ ~ ~ ( ) ) ) ) ) ) ) @.8.8.8.8.8.&.I ~ ) ) 3.oX%                     ",
"                    # < v g.l.y.1 # f &.*.' _ ~ ~ _ _ ~ _ ~ _ ~ ( ) ( ) ) ) ) ) #.8.8.8.8.$.U I ~ ) ) 3.oX%                     ",
"                    $ (.b v a.# | &.6.0.-.+.~ ~ ~ ~ ~ +.~ ~ _ _ ) ) ) ) ) ) ) ) ( +.8.8.6.| I I ) ) r B %X%                     ",
"                    $ oXm 4 c $ *.6.6.6.-.~ _ ~ _ ~ ~ ~ _ ~ ~ ~ ) ) ) ) ( ) ) ) ) ' 8.8.[ I I I ) > h x $ .                     ",
"                    % oXq.^ q _ ~ -.6.6.-.8.+.~ ~ ~ ~ ~ ) ~ ) ) ) ) ) ) ) ) ) ) ) ' -.-./ I a a ! > t.a.o .                     ",
"                    % oXW.-.@.~ ~ ~ %.-.-.8.-.-.%.~ _ ~ ) ) ) ) ) ) ) ) ) ) ) ( ) ' -.Q U I i X X z f.h.c o .                   ",
"                    $ (.E.e.%.~ ~ ~ ~ +.-.=.8.8.6.6.' ' ` _ ~ ~ ) ) ) ) ) _ -.$.) ! I I I r 5 r.h.l.x.x.k.j.r.3                 ",
"                      X ^.[.-.` ~ _ ~ ~ Y U &.-.6.6.6.6.6.%.' ' ' ) ) ) ) -.*.] W I I I I E I @ @ z f.h.c o .                   ",
"                      . ^.[.e.6.~ ~ _ ) ~ U I I [ *.*.*.=.*.*.*.*.' ( ( ( ( I I I I I U ( ( ( ( ) > r.i..                       ",
"                      . m.oX;X6.#._ ~ ~ ~ R I I I I I I a I I I a I a I a I I I a I R ( ( ( E R ) V l g .                       ",
"                        X H &X6.6.@._ ~ ~ ) W U I I I I I I I I a I I a I I I U Y R ) ! / R Y ( ) [.H .                         ",
"                        . D (.W.6.-.@.] ) ) ) E U I I I I I I I I I I I I I a R E ! E U I U E ( ;.~.G .                         ",
"                            B <X9.6.6.=.) ~ ) ~ ! Y R U i i a I I I I I I I I I I I I I T E ' | ,Xm                             ",
"                            9 S.`.e.6.6.@.] _ ~ ~ ~ ~ i w w r I I I I a I I I I I I I R ! ' ;._.m.9                             ",
"                              $ m.R.].W.6.-.$.' ) ) ) @ r.c : Y R R / R R R R R Y / R ( 3.Y._.m.%                               ",
"                                . K +X&X].E.0.%.@.@.@.@ a.t.> +.@.#.#.+.#.#.#.#.+.$.U.U.$X+XH .                                 ",
"                                    D H L <X;X5.p p p j f.p.j p p p Q { { { { U.[.[.,XL H D                                     ",
"                                        = H H l c t.t.d.z.k.d.t.t.z w N K.K.(.1.H H H =                                         ",
"                                              3 h c c p.k.l.i.c c g # 6 H H H m                                                 ",
"                                                      2 a.i.2                                                                   ",
"                                                      . a.t..                                                                   ",
"                                                      . v x .                                                                   ",
"                                                        2 <                                                                     ",
"                                                                                                                                "
};
