/* XPM */
static char *coll11672316071[] = {
/* columns rows colors chars-per-pixel */
"64 64 202 2 ",
"   c None",
".  c #010001",
"X  c #0A0A00",
"o  c #0C0509",
"O  c #08060A",
"+  c #15060B",
"@  c #141300",
"#  c #1C1B00",
"$  c #0F0E10",
"%  c #110F11",
"&  c #100C1C",
"*  c #180915",
"=  c #1A191E",
"-  c #230C1B",
";  c #240B14",
":  c #360A12",
">  c #290F12",
",  c #242400",
"<  c #2D2C00",
"1  c #282700",
"2  c #343300",
"3  c #3D3C00",
"4  c #1E1D22",
"5  c #361428",
"6  c #32102C",
"7  c #34323A",
"8  c #28282B",
"9  c #44181A",
"0  c #53041F",
"q  c #492F0A",
"w  c #4A193A",
"e  c #471A36",
"r  c #4A1B32",
"t  c #6A0529",
"y  c #631D29",
"u  c #452634",
"i  c #72212F",
"p  c #4B4A00",
"a  c #444400",
"s  c #534C04",
"d  c #585702",
"f  c #56541E",
"g  c #625D02",
"h  c #6D6C00",
"j  c #656201",
"k  c #787600",
"l  c #706F00",
"z  c #4F4D34",
"x  c #2D1D58",
"c  c #3D3A44",
"v  c #551D43",
"b  c #532B45",
"n  c #6B2A4D",
"m  c #7B3154",
"M  c #773559",
"N  c #6B3A50",
"B  c #7F3C61",
"V  c #49454C",
"C  c #514E5A",
"Z  c #545151",
"A  c #5D5A66",
"S  c #585460",
"D  c #686473",
"F  c #706C7B",
"G  c #715064",
"H  c #820635",
"J  c #890637",
"K  c #8F0738",
"L  c #890B38",
"P  c #94073A",
"I  c #9B083C",
"U  c #99073B",
"Y  c #97133E",
"T  c #A4083D",
"R  c #A9093F",
"E  c #802833",
"W  c #807F00",
"Q  c #9E1B41",
"!  c #AD0940",
"~  c #B00941",
"^  c #BC0B46",
"/  c #BF0F48",
"(  c #B91246",
")  c #BA1647",
"_  c #A61C45",
"`  c #AE2048",
"'  c #BB304D",
"]  c #883D61",
"[  c #AD2F7E",
"{  c #BC3568",
"}  c #D91053",
"|  c #DC1B5A",
" . c #C71A4E",
".. c #C8224E",
"X. c #C7204E",
"o. c #C82852",
"O. c #D72A58",
"+. c #C93554",
"@. c #DA3A5A",
"#. c #D83659",
"$. c #E23D5D",
"%. c #D03863",
"&. c #DC306B",
"*. c #E23568",
"=. c #894967",
"-. c #924D6F",
";. c #904465",
":. c #8D5467",
">. c #9E5377",
",. c #BD4474",
"<. c #A45679",
"1. c #AB6278",
"2. c #E6415F",
"3. c #D94B69",
"4. c #E84360",
"5. c #E94968",
"6. c #E74967",
"7. c #EA577B",
"8. c #E85275",
"9. c #E85073",
"0. c #898700",
"q. c #939100",
"w. c #9A9800",
"e. c #A09E00",
"r. c #A4A200",
"t. c #ABA900",
"y. c #B6B400",
"u. c #BEBC00",
"i. c #C4C200",
"p. c #CDCB00",
"a. c #C9C700",
"s. c #DCD900",
"d. c #D4D200",
"f. c #E1DE00",
"g. c #EDEA00",
"h. c #E6E300",
"j. c #F2EF00",
"k. c #F9F600",
"l. c #503794",
"z. c #513A90",
"x. c #452D85",
"c. c #644E9F",
"v. c #797485",
"b. c #706592",
"n. c #7257B6",
"m. c #7C62BD",
"M. c #B33582",
"N. c #AA5C80",
"B. c #A05A84",
"V. c #B45B84",
"C. c #837A8C",
"Z. c #837E91",
"A. c #8F7189",
"S. c #B56888",
"D. c #AF7A9B",
"F. c #8573B4",
"G. c #B57BA0",
"H. c #C1468C",
"J. c #C85D9B",
"K. c #D05792",
"L. c #C6618A",
"P. c #D66C9A",
"I. c #C67590",
"U. c #C67E98",
"Y. c #DA6E8A",
"T. c #E66B8A",
"R. c #D771A3",
"E. c #8D77C8",
"W. c #8B849C",
"Q. c #9D97AC",
"!. c #9A92AE",
"~. c #A897AD",
"^. c #ADA6BD",
"/. c #DC809D",
"(. c #E3819E",
"). c #CF99BF",
"_. c #DB87AF",
"`. c #E48CAE",
"'. c #E19AB8",
"]. c #9B87D3",
"[. c #A18ED8",
"{. c #A694DA",
"}. c #AC9BDB",
"|. c #A79CC5",
" X c #BCB5CE",
".X c #B7A8DD",
"XX c #B2ABC3",
"oX c #B8AAE2",
"OX c #BFB1E5",
"+X c #CEBCDB",
"@X c #C1B9D3",
"#X c #DCB0CF",
"$X c #C3B5E6",
"%X c #C5B9E5",
"&X c #CBBFEA",
"*X c #E1A5C6",
"=X c #DBDADB",
"-X c #CEC2EB",
";X c #D5CBED",
":X c #D5C7E7",
">X c #DCD3F1",
",X c #D8CFF0",
/* pixels */
"                                                                                                                                ",
"                                                                                                                                ",
"                                                                                                                                ",
"                                                                                                                                ",
"                                                                                                                                ",
"                                                                                                                                ",
"                                                                                                                                ",
"                                                                                                                                ",
"                                                                                                                                ",
"                                                                                                                                ",
"                                                                                                                                ",
"                                              3 3                                                                               ",
"                                          . p r.w.p .                                                                           ",
"                                        @ s u.g.g.u.d @                                                                         ",
"                                          2 r.h.s.r.2 X . . . . . . . . .                                                       ",
"                                            1 W k , . N M =.:.:.:.:.:.:.N .                                                     ",
"                                              1 ,   . -.<.S.I.I.I.I.I.S.-..                                                     ",
"                                                    . M ] ;.;.;.;.1.S.S.-..                                                     ",
"                                              . . 8 =X=.m m m m m >.N.N.S.=X8 . .                                               ",
"                                            . C.|.F.c.M m m m m m <.N.N.B.c.F.|.C..                                             ",
"                                            . b.{.{.%X+X+X+X+X+X+X+X:X:X+X%X{.{.b..                                             ",
"                                            . x x.z.].].].].].].].].].].].].z.x.x .                                             ",
"                                              O O & l.z.l.l.z.l.l.l.l.l.l.l.& O O                                               ",
"                                        O o O . u =.O o o o o O + . O o o O =.u .                                               ",
"                                * + o * v =.n 5 - w w -.>.>.;.v >.n B >.-.w w * .                                               ",
"                          % * * -.M v 5 o o o - - O 4 e w w w w w w w w e 4 O             @ @                                   ",
"                        . u ] n e $ o - v w 6 * . 4 >Xc = = & $ & = 4 4 7 >X4           . a l .                                 ",
"                            . O * ; r n 6 O O     4 ,X{.-X}.n.n.n.$X>X&X{.>X4           . h y..                                 ",
"                              - n n w - O         4 >X{.-X}.n.n.n.$X>X-X}.>X4           , 0.u.1                                 ",
"                        ; - 5 n v e * .         8 S >X}.-X}.n.n.n.$X>X-X{.-XC 7 # < p p q.d.g.t.s p 2 1                         ",
"                      5 u r e w 6 +           V !.,X$XOX;X}.n.n.n.$X>X-XoX[.OXZ.Z j q.q.u.f.j.p.q.q.h a                         ",
"                    . 5 + O * * .       = A A XX-X$XoX;X.X].n.n.n.$X>X>X-X[.[.oX!.A S $ 3 w.p.s X . .                           ",
"                    . . . o * .     b A v.;X>X>X&X$X>X}.F.n.n.n.n.&X>X>X;XoX{.[.}.$XoXF 4 h y..                                 ",
"                          .       A XX>X;X>X>X>X>X;X$XF.n.n.n.n.n.%X>X>X>X>X$X}.[.[.[.oX7 s q.O                                 ",
"                              $ v.@X>X>X,X>X>X>X&XoX[.E.n.n.n.n.E.oX&X,X>X>X>X-X$X$X[.[.b.V f v.$                               ",
"                            7 C.,X>X>X>X>X>X>X`.K.H.H.H.M.[ [ [ H.H.R.`.`.`.`.`.*X>X$X&X}.F.b.oXZ.7                             ",
"                          2 f D _.`.`.`.`.`.P.&.} } } } } } } } } } | *.7.7.7.7.T.`.`.R.R.J.J.J.R.D.b                           ",
"                      . . d e.+ 3.7.7.7.8.O.} } } } } } } } } } } } } | &.7.7.7.7.7.T.9.8.*.| | | %.D.v..                       ",
"                      . . h y.+ 2.5.6.5.*.} } } } } } } } } } } } } } } | | 8.7.7.7.7.7.7.9.%.T } } _.!..                       ",
"                  . . . p t.d.g 9 5 9 i $.^ ^ ^ ^ ^ ^ } ^ ^ ^  .^ ^ ^ ^ ^ ^  .@.5.5.5.5.5.5.+.H ( ^ { V.W.%                     ",
"                2 0.s.s.h.k.k.g.f.s.r.g : ! ! ! ~ ~ ~ R ^ R R ^ ! ~ ~ ~ ~ ~ ~ ~ ..4.4.4.2.2.+.L R R ~ ,. X%                     ",
"                  # , , k a.h.w.< , , q +.! ~ ! ~ ~ ~ ~ ^ R R R ~ ~ ~ ~ ~ ~ ~ ~  .4.4.4.2.o.L L ~ ~ ~ ,. X%                     ",
"                    $ ^.z k u.# ' +.+.+.@.~ ~ ~ ~ ~ ~ ~ R R R R ~ ~ ~ ! ~ ~ ~ ~ ~ ) 4.4.2.' H H R ~ ! ,. X%                     ",
"                    $  Xc h y.o @.2.3.4.2.^ ! ~ ~ R ~ ~ R ^ R  .~ ~ ~ ~ ~ ~ ~ ~ ~ ( 4.4._ J H H ~ ~ 0 V  X%                     ",
"                    %  XV q g + T O.4.4.4.4.) ~ ~ ~ ~ ~ ~ ~ ~ ~ ~ ~ ~ ~ ~ ~ ~ ~ ~ ( 4.@.Q H H J T : g l X .                     ",
"                    %  X7.E : R R ~ O.4.4.4.2.4.o.! ~ ~ ~ ! ~ ~ ~ ~ ~ ~ ~ ~ ~ ! ~ ( 2.Y H H J T + g a.d.l X                     ",
"                    $ Q.Y.9.#.R ~ ~ ~ ) @.@.2.4.4.$.( ( ^ ~ ~ ~ ~ ~ ~ ~ ~ ( @.X.! T H H H H t ; k p.k.k.f.0.@                   ",
"                      X Q.'.#.( ~ ~ ~ T P H +.@.$.4.4.2.2.#.( ^ ( ~ ~ ~ ^ @.@.X.I H H H J U ~ T ; g u.p.l X                     ",
"                      . Q.'.9.2.R ~ R R R K H H _ @.@.@.%.@.@.@.&.^ ! ^ ! ! Q t t Q t t ! ! ! ! R 0 f d .                       ",
"                      . v. X*X2.X.( ^ R R P H H H H H H J K H H t Q t t t Q t t Q t ! ! ! ! ! J R ).A . .                       ",
"                        . A #X2.2...^ R R ~ U J H H H H H t H H Q t t Q Q t Q Q Q Q ! ! ! t Q ! R _.A .                         ",
"                        . V ~.T.2.@...) ~ ~ R T J H H H H H H H t Q t Q t Q t ! Q Q ! Q t Q Q ~ { ~.C .                         ",
"                            b ,X6.2.2.#.R R ~ ~ T K U J H H H H t Q t Q H H H t t t Q t J ! ! ' :XV                             ",
"                            7 C.(.9.2.2... .~ R R R R T t t K H Q t Q t H t H H t Q t ! ! ) %./.C.7                             ",
"                              $ v.U.`.T.$.$.o.) ~ ~ ~ t q q t P Q Q Q Q Q Q Q Q Q Q ! ! ,.I.U.v.$                               ",
"                                X D XX#X(.R.6.O.......+ 0.h :  ./ o./ /  . ./ ) / o.J.V.#XXXD .                                 ",
"                                    V A F :X'.'.1.y y s p.y.s y w Q ` ` ` ` ` L.'.'.:XF A V                                     ",
"                                        = A A A Z d q.a.j.g.u.q.s 9 =.G.G.G.~.:.A A A =                                         ",
"                                                < a h y.g.h.y.h 3 X 7 A A A A c                                                 ",
"                                                      1 u.r.1                                                                   ",
"                                                      . k j .                                                                   ",
"                                                        1 ,                                                                     ",
"                                                                                                                                ",
"                                                                                                                                "
};
