/* XPM */
static char *coll141672316076[] = {
/* columns rows colors chars-per-pixel */
"64 64 204 2 ",
"   c None",
".  c #010000",
"X  c #0C040A",
"o  c #0B0B05",
"O  c #1A020A",
"+  c #14090E",
"@  c #150A0A",
"#  c #131300",
"$  c #1C1C00",
"%  c #181700",
"&  c #0F0E10",
"*  c #130E11",
"=  c #190C13",
"-  c #150917",
";  c #19191C",
":  c #240B19",
">  c #350314",
",  c #2B111E",
"<  c #240A0D",
"1  c #242400",
"2  c #2B2A00",
"3  c #333200",
"4  c #3D3C00",
"5  c #3B2A0A",
"6  c #1F1E23",
"7  c #351328",
"8  c #211934",
"9  c #381332",
"0  c #270D22",
"q  c #343239",
"w  c #302831",
"e  c #43280C",
"r  c #403504",
"t  c #590423",
"y  c #451B34",
"u  c #4A193A",
"i  c #4B1B39",
"p  c #4C1C31",
"a  c #631D29",
"s  c #6C052C",
"d  c #4F2438",
"f  c #490C1A",
"g  c #4A4900",
"h  c #474700",
"j  c #544B04",
"k  c #5C5803",
"l  c #56541E",
"z  c #605C02",
"x  c #696701",
"c  c #777600",
"v  c #706F00",
"b  c #545226",
"n  c #3E3C44",
"m  c #393642",
"M  c #342360",
"N  c #551D43",
"B  c #5B2644",
"V  c #4A3E46",
"C  c #6D2B4D",
"Z  c #65294F",
"A  c #7B3154",
"S  c #743759",
"D  c #6B3A50",
"F  c #7F3C61",
"G  c #4A4555",
"H  c #504D58",
"J  c #4F4C4B",
"K  c #754358",
"L  c #5D5A66",
"P  c #585460",
"I  c #6B6676",
"U  c #706C7B",
"Y  c #820635",
"T  c #8C0838",
"R  c #94073A",
"E  c #9C083C",
"W  c #98073B",
"Q  c #8E1F3A",
"!  c #A4083E",
"~  c #A8093F",
"^  c #912B3B",
"/  c #807E00",
"(  c #9F1741",
")  c #AD0940",
"_  c #B10941",
"`  c #B90E46",
"'  c #B71045",
"]  c #B91246",
"[  c #BC1849",
"{  c #AB1747",
"}  c #853A5C",
"|  c #AE2047",
" . c #B62E4B",
".. c #AD2E7D",
"X. c #BC3F70",
"o. c #D91053",
"O. c #DB1958",
"+. c #C41E4C",
"@. c #C8214E",
"#. c #C92952",
"$. c #D02B53",
"%. c #DE245E",
"&. c #CB3254",
"*. c #CC3959",
"=. c #DA3459",
"-. c #DB3B5A",
";. c #D63357",
":. c #E13C5C",
">. c #D73166",
",. c #E23267",
"<. c #894A67",
"1. c #924D6F",
"2. c #8D5467",
"3. c #9E5377",
"4. c #BB4877",
"5. c #A25578",
"6. c #90485A",
"7. c #E5415E",
"8. c #E84361",
"9. c #E84968",
"0. c #EA577B",
"q. c #E85275",
"w. c #E84E76",
"e. c #E6607E",
"r. c #DD4563",
"t. c #898700",
"y. c #939100",
"u. c #9C9A00",
"i. c #A09E00",
"p. c #A3A100",
"a. c #ADAB00",
"s. c #B6B400",
"d. c #C2BF00",
"f. c #C5C300",
"g. c #CDCB00",
"h. c #D0CE00",
"j. c #DCD900",
"k. c #D9D600",
"l. c #E4E100",
"z. c #EBE900",
"x. c #F2EF00",
"c. c #F9F600",
"v. c #452D85",
"b. c #503794",
"n. c #5D449E",
"m. c #645294",
"M. c #797485",
"N. c #7A7486",
"B. c #7257B6",
"V. c #7B62BC",
"C. c #B33582",
"Z. c #AB5D80",
"A. c #A05A84",
"S. c #837A8C",
"D. c #83778B",
"F. c #B76C8A",
"G. c #AE7192",
"H. c #8470B9",
"J. c #B57BA0",
"K. c #C1468C",
"L. c #D1508C",
"P. c #D6568D",
"I. c #C67590",
"U. c #C67E98",
"Y. c #D36C92",
"T. c #E66B89",
"R. c #E67A9D",
"E. c #E16292",
"W. c #C97CA6",
"Q. c #917BCA",
"!. c #9D97AC",
"~. c #9A92AE",
"^. c #B28BA5",
"/. c #A49DB7",
"(. c #89829E",
"). c #DC809D",
"_. c #E3819E",
"`. c #DB86B2",
"'. c #E48CAE",
"]. c #E198B6",
"[. c #9B87D3",
"{. c #A89CC6",
"}. c #A18ED8",
"|. c #A593DA",
" X c #AC9BDB",
".X c #A593D8",
"XX c #BCB4CE",
"oX c #B7A8DD",
"OX c #B1A9C2",
"+X c #B8A9E2",
"@X c #BFB1E5",
"#X c #D6B2D0",
"$X c #E1A6C6",
"%X c #C3B5E6",
"&X c #C5B8E5",
"*X c #CBBFEA",
"=X c #C6BAE8",
"-X c #DBD2DC",
";X c #CEC3EB",
":X c #D4CBEC",
">X c #D8CEEF",
",X c #D6C8E8",
"<X c #DCD3F1",
"1X c #D8CFF0",
/* pixels */
"                                                                                                                                ",
"                                                                                                                                ",
"                                                                                                                                ",
"                                                                                                                                ",
"                                                                                                                                ",
"                                                                                                                                ",
"                                                                                                                                ",
"                                                                                                                                ",
"                                                                                                                                ",
"                                                                                                                                ",
"                                              3 3                                                                               ",
"                                            . t.c .                                                                             ",
"                                            . p.y..                                                                             ",
"                                      . . . g d.s.g . . .                                                                       ",
"                                    4 v p.p.h.x.z.h.p.p.v 4 .                                                                   ",
"                                    1 3 g g p.l.j.i.g g 3 % . . . . . . .                                                       ",
"                                            2 s.p.2 . D K <.2.2.2.2.2.2.K .                                                     ",
"                                            . p.y.. . 1.5.F.I.I.I.I.I.I.2..                                                     ",
"                                            . x k . . C } } } } } 5.F.5.1..                                                     ",
"                                              # o 6 -X<.A A A A A 5.Z.5.G.-X6 . .                                               ",
"                                            . S.{.H.m.S A A A A A 3.5.Z.A.n.H.{.S..                                             ",
"                                            . m.[.}.1X1X>X>X>X>X<X>X<X<X1X1X.X[.m..                                             ",
"                                            . M b.n.|.|.|.|.|.|.|..X.X.X|.|.n.b.M .                                             ",
"                                              . X - v.v.v.v.v.v.v.v.v.v.v.v.- o .                                               ",
"                                        X = + . d <.X * = * = X = X * = * X <.y .                                               ",
"                                = + + = B <.C , : u u 1.3.3.<.N 3.Z F 3.1.u u : .                                               ",
"                          + = : 1.A d 9 + X X 0 0 . 6 y u u i i u u u u y 6 o                                                   ",
"                        . y D d 9 X + 7 u 9 9 - . 6 <XG m q 8 8 8 m n m G <X6                                                   ",
"                            . . : : i Z 7 . .     6 <X X;X XB.B.B.=X<X*X|.<X6             $ 1                                   ",
"                              : C C i 0 .         6 <X|.;X XB.B.B.=X<X*X X<X6           1 x t.2                                 ",
"                        , 7 y C N 7 -           n U <X X*X XB.B.B.=X<X;X|.%XM.m       4 u.j.x.s.h $                             ",
"                      7 y y y y 7 +           G ~.:X%X+X:X XB.B.B.%X<X;X+X}.@XS.G . . h a.l.x.f.k 1                             ",
"                    o 7 + X - : .       ; L L OX*X%X+X>XoXQ.B.B.B.%X<X<X:X}.}.+X~.L P - 4 t.a.g o                               ",
"                    . . . X -       H U D.>X<X<X;X%X1X XH.B.B.B.B.%X<X<X1X@X}.}. X@X+XN.U J 4                                   ",
"                                . I OX<X<X<X<X<X<X1X+XH.B.B.B.B.B.=X<X<X<X<X=X X}.}.}.+X@X/.I .                                 ",
"                              & U &X<X<X<X<X<X<X*X+X}.Q.B.B.B.B.Q. X;X<X<X<X<X;X%X%X}.}.}. X{.M.*                               ",
"                            q (.:X<X<X<X<X<X<X`.P.K.K.K.>.......K.K.Y.'.'.'.'.'.$X>X%X%X X}..XoXS.q                             ",
"                        . H ^.R.R.R.R.R.R.R.P.%.o.o.o.o.o.o.o.o.o.o.%.,.0.0.0.0.T.R.R.R.P.L.L.L.E.^.H .                         ",
"                      . N.M.K 0.0.0.0.0.0.%.o.o.o.o.o.o.o.o.o.o.o.o.o.o.,.0.0.0.0.0.0.0.0.,.O.O.O.>.J.N..                       ",
"                      . w b j p 8.9.9.9.,.O.o.o.o.o.o.o.o.o.o.o.o.o.o.o.o.O.w.T.0.0.0.0.0.0.>.! o.o.`.!..                       ",
"                    . . k a.h.c <  .9.8.7.+.~ +.` ` ` ` ` _ ` _ ` ` _ ` ` _ ` $.8.8.8.9.9.9.&.Y _ ` [ 4./.&                     ",
"                    o x g.c.c.l.t.3 ^ 7.:.~ ~ ~ _ ~ ~ _ _ ~ ` ~ _ _ _ _ _ _ _ ` #.8.8.8.8.8.&.Y ) _ _ 4.XX*                     ",
"                    . # c f.j.u.1 ^ -.7.:.~ ~ ` ~ ` ~ ` _ _ _ _ _ ) _ _ _ ~ ~ _ +.:.8.8.8.#.T Y ) _ t V XX&                     ",
"                    & OXJ h v # *.r.7.7.:.` ` ~ ` ~ ` ~ _ _ _ _ _ _ _ _ _ _ _ _ _ +.8.8.8. .Y T ) > j x & .                     ",
"                    & XXe.^ f ` :.7.8.8.:.` ` _ ~ ~ ~ ~ _ _ _ _ _ ) _ ) _ _ _ _ _ ` 8.8.( Y Y Y _ > y.s.. .                     ",
"                    & XXe.:.$._ ~ =.8.8.:.:.` _ ` ~ +.~ _ ) _ _ _ _ _ _ _ _ _ _ _ ` 8.7.( Y Y Y ) > y.s.. .                     ",
"                    o -Xe.9.=._ ` ~ O.:.8.8.:.:.;.` _ ~ _ ~ _ _ _ _ _ ) ) _ ` _ _ ` ;.T s f $ 1 1 c h.l.y.2 1 $ #               ",
"                    o !.).9.=.~ _ _ ~ [ :.:.8.8.7.:.] ' ' ` _ _ _ ) _ _ _ ` :.+.~ ~ Y Y > r u.j.j.z.c.c.z.j.j.u.g .             ",
"                      . !.].=.' ~ ` ~ ~ W Y $.=.:.7.7.7.7.$.] ] ` ) _ ) ` -.-.[ W Y Y Y Y t O X + k f.j.v o . .                 ",
"                      . !.$Xe.:.` ~ ~ ` ~ Y Y Y ! *.&.*.&.#.&.&.#.{ ) ) ) ) T Y Y Y Y Y ) ) ) ) _ > y.s..                       ",
"                      . M.XX$X7.@.` ~ ~ ~ ! Y Y Y Y Y Y Y Y Y Y s ( Y Y s Y Y Y Y Y T ) ) ) R T ) > / i..                       ",
"                        . L $X8.:.+.+.~ ~ ~ W T Y Y Y Y Y Y Y Y Y s Y Y Y Y Y Y T R ) ) ) R ( _ ' B l j .                       ",
"                        . H ^.T.9.:.@.] +.~ ~ ! T Y Y Y Y Y Y Y Y Y Y Y Y Y Y R ) ) ) Y Y Y ) { 4.G.H .                         ",
"                            V ,X9.7.7.:.~ ~ ~ ` ~ R W T t t Y Y Y Y Y Y Y Y Y Y s Y T s T ( ) #.,Xn                             ",
"                            q S._.q.7.:.o.+.~ ~ ~ ~ ` t e e t Y T s Y Y s Y T s T s Y ( ) ' *.).S.q                             ",
"                              & U U._.T.:.;.#.] ~ ~ ~ < y.v O E ) R R ( ( T ) T ) R R ) 4.I.).M.&                               ",
"                                  H /.,X'.].q.=.$.$.$.< s.y.< $.@.#.$.$.$.$.$.$.$.*.W.W.#X/.P                                   ",
"                                    G L U ,X].6.a a a j g.s.j a a a Q | { | { Y.].].:XU L G                                     ",
"                                        ; L L b x y.y.d.x.z.f.y.y.z e B J.J.J.U L L L ;                                         ",
"                                              1 5 g g i.z.j.u.g h 2 # ; n n V w                                                 ",
"                                                      2 f.p.1                                                                   ",
"                                                      . s.y..                                                                   ",
"                                                      . c x .                                                                   ",
"                                                        # #                                                                     "
};
