/* XPM */
static char *coll111672316075[] = {
/* columns rows colors chars-per-pixel */
"64 64 212 2 ",
"   c None",
".  c #010001",
"X  c #0A0A00",
"o  c #0A060B",
"O  c #0B0709",
"+  c #11060B",
"@  c #160508",
"#  c #131300",
"$  c #1B1B00",
"%  c #0B0715",
"&  c #0F0E11",
"*  c #100F11",
"=  c #190815",
"-  c #1B1A1E",
";  c #121114",
":  c #250B18",
">  c #300C13",
",  c #2E2D00",
"<  c #242400",
"1  c #343400",
"2  c #3C3B00",
"3  c #383700",
"4  c #322A05",
"5  c #1F1E23",
"6  c #150F28",
"7  c #290D24",
"8  c #3F1539",
"9  c #331327",
"0  c #3E222F",
"q  c #2C2A31",
"w  c #37353C",
"e  c #232323",
"r  c #471315",
"t  c #4B350D",
"y  c #481A37",
"u  c #501C3F",
"i  c #560C21",
"p  c #670E2A",
"a  c #55253D",
"s  c #472635",
"d  c #6F262B",
"f  c #494800",
"g  c #444300",
"h  c #554D04",
"j  c #5B5A00",
"k  c #525100",
"l  c #56541E",
"z  c #625C02",
"x  c #6D6C00",
"c  c #636203",
"v  c #7D7B00",
"b  c #747200",
"n  c #706F00",
"m  c #4E4B2D",
"M  c #3E3B44",
"N  c #393641",
"B  c #382863",
"V  c #551D43",
"C  c #581E45",
"Z  c #5B2247",
"A  c #4F3947",
"S  c #6C2A4C",
"D  c #7B3254",
"F  c #7F395A",
"G  c #6C334F",
"H  c #7B3961",
"J  c #4E4B56",
"K  c #714352",
"L  c #635F4F",
"P  c #585561",
"I  c #5D5A66",
"U  c #7E4561",
"Y  c #666270",
"T  c #726D7C",
"R  c #820635",
"E  c #8A0737",
"W  c #8E0738",
"Q  c #8A0A39",
"!  c #870837",
"~  c #9B083B",
"^  c #94073A",
"/  c #97123E",
"(  c #A4083E",
")  c #A9093F",
"_  c #862637",
"`  c #9E1741",
"'  c #AD0940",
"]  c #B00941",
"[  c #BD0C47",
"{  c #B91246",
"}  c #BB1648",
"|  c #AB1744",
" . c #8F344D",
".. c #BC294E",
"X. c #B12649",
"o. c #AD2D4A",
"O. c #833E64",
"+. c #B83265",
"@. c #C20C49",
"#. c #C11B4B",
"$. c #C4104A",
"%. c #D91053",
"&. c #D81555",
"*. c #C5204D",
"=. c #CA2853",
"-. c #D9275B",
";. c #CA3358",
":. c #DC3659",
">. c #D63858",
",. c #E23D5D",
"<. c #D2396B",
"1. c #E33769",
"2. c #E02F64",
"3. c #944C6B",
"4. c #904466",
"5. c #964E72",
"6. c #8F496A",
"7. c #BD4373",
"8. c #A3567A",
"9. c #BA5A72",
"0. c #E5415F",
"q. c #D45274",
"w. c #E84360",
"e. c #E94C6C",
"r. c #E74A69",
"t. c #EA567B",
"y. c #E65673",
"u. c #E84C76",
"i. c #E6607E",
"p. c #8B8900",
"a. c #878600",
"s. c #939100",
"d. c #9B9900",
"f. c #AEAB00",
"g. c #A9A700",
"h. c #B6B400",
"j. c #BBB900",
"k. c #C5C300",
"l. c #CBC800",
"z. c #D5D200",
"x. c #DDDA00",
"c. c #E5E200",
"v. c #EBE800",
"b. c #F9F600",
"n. c #F2EF00",
"m. c #563D99",
"M. c #5F5480",
"N. c #695F84",
"B. c #7E798A",
"V. c #797586",
"C. c #746797",
"Z. c #7257B6",
"A. c #785EBA",
"S. c #624AA3",
"D. c #7C6BAB",
"F. c #7E64BD",
"G. c #9E398C",
"H. c #AA5D82",
"J. c #A45E87",
"K. c #B9589F",
"L. c #A64291",
"P. c #89778C",
"I. c #906D88",
"U. c #B66787",
"Y. c #AB6B8C",
"T. c #DF6F8C",
"R. c #C67590",
"E. c #CF728D",
"W. c #E56C8A",
"Q. c #E86D90",
"!. c #C667A4",
"~. c #D474A7",
"^. c #DB5087",
"/. c #8871C5",
"(. c #8A8598",
"). c #9C96AD",
"_. c #9089A4",
"`. c #A896AF",
"'. c #B6B6B6",
"]. c #E3819E",
"[. c #DD82AE",
"{. c #CD99BC",
"}. c #D689B2",
"|. c #E395B5",
" X c #E29EBE",
".X c #E28CAA",
"XX c #A18ED8",
"oX c #AB99DB",
"OX c #A593D9",
"+X c #B09FDE",
"@X c #BCB5CE",
"#X c #B3A3DF",
"$X c #B5A8D8",
"%X c #BEA5C7",
"&X c #B9AAE2",
"*X c #BEB0E4",
"=X c #9D8ACE",
"-X c #DB9DC5",
";X c #C0A5C4",
":X c #CBAECE",
">X c #DBAACA",
",X c #C6B5D5",
"<X c #D4B3D2",
"1X c #C5B8E5",
"2X c #CABEEA",
"3X c #C3B5E5",
"4X c #E0B1D0",
"5X c #CAC2DD",
"6X c #D5CCED",
"7X c #D4C7E9",
"8X c #DCD3F1",
"9X c #D8CFF0",
/* pixels */
"                                                                                                                                ",
"                                                                                                                                ",
"                                                                                                                                ",
"                                                                                                                                ",
"                                                                                                                                ",
"                                                                                                                                ",
"                                                                                                                                ",
"                                                                                                                                ",
"                                              1 ,                                                                               ",
"                                            2 s.a.2                                                                             ",
"                                        # 2 f.c.c.f.2 #                                                                         ",
"                                        # 2 f.v.c.f.2 X . . . . . . . .                                                         ",
"                                            2 s.p.1 . a S G K K K K G K A .                                                     ",
"                                              1 , . . 3.H.E.R.R.R.R.R.R.3..                                                     ",
"                                                    . F O.O.5.O.3.8.U.U.5..                                                     ",
"                                                . e '.U D D  .D D 8.8.H.U.'.e .                                                 ",
"                                            . T _.D.D.F D D D D D 8.H.J.J.D.C._.T .                                             ",
"                                            . C.oXOXoX%X%X%X'.%X;X:X:X:X:X#XXXoXC..                                             ",
"                                            . B m.S.oXoXOXoXoXoXoXoXoXoXoXoXS.m.B .                                             ",
"                                              % % 6 m.m.m.m.m.m.m.m.m.m.m.m.6 % %                                               ",
"                                        . . . . 0 U % % % % % % % % % % % % U 0 .                                               ",
"                                O O O = Z 5.D 7 : V V 5.8.J.6.V 8.S O.J.5.V V : .                                               ",
"                            . O 5.F Z 9 O o X 7 7 . . u C Z Z V C C V C V . .               .                                   ",
"                        . s 3.S y * . = V V 8 = . 5 8Xq * % o % % * * * q 8X5           . g x .                                 ",
"                            . . + + y S y . .     5 8XoX7XoXZ.Z.Z.3X8X2XoX8X5           . x h..                                 ",
"                              = S D V 7 .         e 8XoX5X+XZ.Z.Z.3X8X2XoX8X5           # v j.#                                 ",
"                        @ + 9 S V y = .         - N 8XoX2XoXZ.Z.Z.1X8X2XOX6XN 5   $ < < v l.c.d., < $ #                         ",
"                      : y a u V 8 =           w B.9X2X&X7XoXZ.Z.Z.1X8X7X+XXX1XV.m n h.h.z.v.n.x.j.h.p.k .                       ",
"                    . y = X = 7 .         M M `.6X2X&X6X1X=XZ.Z.Z.1X8X8X6XXXXX&X).M N o f g.z.c X . . .                         ",
"                    . . . + = .     w M P 7X8X8X2X&X8X1X/.Z.Z.Z.Z.3X8X8X6X#XXXXX+X2X*XP ; x h..                                 ",
"                          .       J `.8X8X8X8X8X8X6X*XF.Z.Z.Z.Z.Z.1X8X8X8X8X3XoXXXXXOX&XN j s..                                 ",
"                                I @X8X8X8X8X8X8X7X*XXX/.A.Z.Z.Z./.&X7X8X8X8X8X2X&X&XXXXXM.m l I                                 ",
"                            q Y 7X8X8X8X8X8X9X-X!.K.K.K.L.G.G.+.K.K.~.-X-X X X X4X8X&X*XOXD.N.&XY w                             ",
"                          , l T |.|.|.|.|.|.~.1.%.%.%.%.%.%.%.%.%.%.2.1.^.t.t.t.Q.|.|.|.!.!.!.!.~.I.J                           ",
"                        . j s.+ q.t.t.t.t.2.&.%.%.%.%.%.%.%.%.%.%.%.%.&.1.t.t.t.t.t.t.t.y.1.-.-.-.^.Y.Y                         ",
"                      . . x h.+ 0.e.e.e.r.&.%.%.%.%.%.%.%.%.%.%.%.%.%.%.%.1.t.t.t.t.t.t.t.u.-.' %.&.~.)..                       ",
"                  . . . 2 d.z.h d d i _ :.#.@.@.@.@.@.@.@.@.@.@.@.@.@.@.$.$.-.,.e.e.e.e.e.e.;.E [ @.+.Y.N.;                     ",
"                , n h.h.z.v.n.x.h.f.p.j i ) ] ] ] ] ] ] ) [ ) [ ) ] ] ] ) ) ) [ =.w.w.w.w.w.;.! ' ' ' 7.,X*                     ",
"                $ , f f s.l.v.g.k g 3 t o.) ' ] ] ] ] ] [ ) ) ) ] ] ] ] ] ] ] ] #.w.w.w.w.=./ R ' ] ] 7.@X*                     ",
"                    O (.m a.k., _ o.o.+.2.] ] ] ] ] ] ] ) ) [ [ ] ] ] ] ] ] ) ] { *.w.w.w...R R ) ] ] q.@X&                     ",
"                    * @XA x h.+ ,.w.w.w.,.[ ) ] @.) ) ) ) ) ) ) ] ] ] ] ] ] ] ] ] [ 0.0.| Q R ! ' ' i A @X*                     ",
"                    * @XM g n @ | :.w.w.,.,.[ ] ) ) ) @.) [ [ ) ] ] ) ] ] ] ] ) ] @.0.0.` R R ! ' i h c - .                     ",
"                    * @XE.d > ( ) { >.0.w.0.,.,.=.) ] ] [ [ ) ) ] ] ] ] ] ] ] ) ) { 0./ E R W ~ = z k.l.x X                     ",
"                    * ,XT.:.>.) ] ] ) #.w.0.0.0.0.,.] ] ) ) ) [ ] ] ] ] ) ) ,.*.] ) Q Q R R i @ v z.b.b.c.s.#                   ",
"                      . ).|.:.[ ) ] ] ) ^ R >.:.,.0.0.w.0.>.] ] [ ) ] ] @.,.0.*.( R R R R ~ ] ( @ z l.z.b X                     ",
"                      . ).|.0.,.] ] ] ] ) ! Q Q X.0.0.w.0.0.1.,.,.@.) ) ) { W E E R ! ! ( ) ] ] ( > z n X                       ",
"                      . (.5X>X,.#.] ] ] ) Q R R R R R R E R R R R R R R E R R R R R E ) ] ) ( E ) -XI . .                       ",
"                        . I >Xw.w.#.] ] ] ] Q R R R R R R R R R R R R R R R R R E W ) ) ) ~ W ] ] {.I .                         ",
"                        . P {.y.0.:.*.{ ) ) ] ( E R R R R R R R W p R R R R R ^ ' ' ' E R R W ' ..`.P .                         ",
"                            A 7Xr.0.0.:.] ] ] ) ( W W R R E R R ! R R R R R R R p ` p R Q ~ { =.7XA                             ",
"                            w ).T.y.w.>.#.{ ) ) ) ) ) ~ p p E ! ! R R R R R ! R E R p ` ' { <.T.`.w                             ",
"                              & ).E.W.i.,.-.#.$.@.) ) R t r R W W W W W W W Q Q ! ` ! ' +.q.E._.&                               ",
"                                . V.,X4XW.W.r.=.#.#.*.@ v x > } $.} #.#.#.} #.*.[ *.7.7.>X@XV..                                 ",
"                                    P B.(.6X.X].q._ d t k.f.t _ _ X...........q.~..X9X(.B.P                                     ",
"                                      . - V.B.B.L g x h.v.c.f.x 2 r F J.J.H.H.I.B.B.V.- .                                       ",
"                                          . . . , j s.k.n.v.k.s.k X J P.B.B.V.J . . .                                           ",
"                                                      2 k.f.2                                                                   ",
"                                                      . p.x .                                                                   ",
"                                                        1 ,                                                                     ",
"                                                                                                                                ",
"                                                                                                                                ",
"                                                                                                                                ",
"                                                                                                                                ",
"                                                                                                                                "
};
