/* XPM */
static char *coll21672316072[] = {
/* columns rows colors chars-per-pixel */
"64 64 206 2 ",
"   c None",
".  c #010000",
"X  c #0B0B00",
"o  c #05030A",
"O  c #0C040A",
"+  c #0C080B",
"@  c #140709",
"#  c #141300",
"$  c #1B1B00",
"%  c #0F0E10",
"&  c #110F11",
"*  c #120D1A",
"=  c #190815",
"-  c #1A191E",
";  c #230C1B",
":  c #240B15",
">  c #2B111E",
",  c #330B10",
"<  c #242400",
"1  c #2D2D00",
"2  c #282700",
"3  c #3C3B00",
"4  c #353400",
"5  c #1E1D22",
"6  c #391529",
"7  c #3D1435",
"8  c #270D22",
"9  c #34323B",
"0  c #38363E",
"q  c #28272A",
"w  c #44181A",
"e  c #4B310C",
"r  c #4A193A",
"t  c #451A35",
"y  c #511C3F",
"u  c #521024",
"i  c #6A0529",
"p  c #72052E",
"a  c #442533",
"s  c #57223D",
"d  c #72212F",
"f  c #4B4A00",
"g  c #444300",
"h  c #544E03",
"j  c #5A5900",
"k  c #535204",
"l  c #56541E",
"z  c #605803",
"x  c #6D6C00",
"c  c #656202",
"v  c #787700",
"b  c #706F00",
"n  c #4F4C34",
"m  c #3E3C44",
"M  c #383442",
"N  c #382863",
"B  c #551D43",
"V  c #593148",
"C  c #6B294B",
"Z  c #7B3254",
"A  c #773559",
"S  c #68334F",
"D  c #514E59",
"F  c #4C4953",
"G  c #7F4B5D",
"H  c #784559",
"J  c #5D5A66",
"K  c #585460",
"L  c #696473",
"P  c #706C7B",
"I  c #685E6C",
"U  c #820635",
"Y  c #8A0737",
"T  c #8E0738",
"R  c #8A0B39",
"E  c #95073A",
"W  c #9B083C",
"Q  c #940B3B",
"!  c #A4093E",
"~  c #A9093F",
"^  c #862638",
"/  c #807E00",
"(  c #9F1741",
")  c #AD0940",
"_  c #B00941",
"`  c #BC0B46",
"'  c #BF0F48",
"]  c #B71145",
"[  c #B91246",
"{  c #BF1A4A",
"}  c #A91D46",
"|  c #BC294E",
" . c #B02849",
".. c #BA374C",
"X. c #863E63",
"o. c #AD2E7D",
"O. c #BC3568",
"+. c #D91053",
"@. c #D81555",
"#. c #C21D4D",
"$. c #C8224E",
"%. c #C7214E",
"&. c #C92952",
"*. c #DE225E",
"=. c #D32D55",
"-. c #C93555",
";. c #DC3559",
":. c #D93A5A",
">. c #D63959",
",. c #E23D5D",
"<. c #D53066",
"1. c #E23669",
"2. c #864665",
"3. c #924A6A",
"4. c #964E72",
"5. c #985173",
"6. c #BD4474",
"7. c #A4577B",
"8. c #BA5A72",
"9. c #E5415E",
"0. c #D6506F",
"q. c #E84360",
"w. c #E94968",
"e. c #E74967",
"r. c #EA577B",
"t. c #E85077",
"y. c #E84F74",
"u. c #8B8900",
"i. c #868400",
"p. c #939100",
"a. c #9A9800",
"s. c #ADAB00",
"d. c #A7A500",
"f. c #B6B400",
"g. c #BCBA00",
"h. c #C8C600",
"j. c #D4D100",
"k. c #DDDA00",
"l. c #E2DF00",
"z. c #EDEA00",
"x. c #E6E300",
"c. c #F9F600",
"v. c #F2EF00",
"b. c #452D85",
"n. c #573D9A",
"m. c #644E9F",
"M. c #685B8B",
"N. c #7B7688",
"B. c #706591",
"V. c #7257B6",
"C. c #795FBB",
"Z. c #624AA3",
"A. c #7E64BD",
"S. c #B33582",
"D. c #AA5C80",
"F. c #A05A84",
"G. c #B45B84",
"H. c #817C8D",
"J. c #837E91",
"K. c #8F7189",
"L. c #B66687",
"P. c #A87391",
"I. c #8473B4",
"U. c #B57BA0",
"Y. c #C1468C",
"T. c #CA5C99",
"R. c #DB5087",
"E. c #DF6F8C",
"W. c #D66C9A",
"Q. c #C67590",
"!. c #C67E98",
"~. c #C3608C",
"^. c #E56C8A",
"/. c #D871A3",
"(. c #8C75C6",
"). c #8C879A",
"_. c #9D97AC",
"`. c #9F95B9",
"'. c #A696AC",
"]. c #B6B6B6",
"[. c #E3819E",
"{. c #CF99BF",
"}. c #DB87AF",
"|. c #E48CAD",
" X c #E19AB8",
".X c #A18ED8",
"XX c #A694DA",
"oX c #AB99DB",
"OX c #AA9DCD",
"+X c #BDB5CF",
"@X c #B8A9DD",
"#X c #B2ABC3",
"$X c #B8AAE2",
"%X c #BFB1E5",
"&X c #CEBCDB",
"*X c #DCB0CF",
"=X c #E1A5C6",
"-X c #C3B5E6",
";X c #C5B9E5",
":X c #CBBFEA",
">X c #CAC2DD",
",X c #CFC3EC",
"<X c #D6CCEC",
"1X c #D5C6E7",
"2X c #DCD3F1",
"3X c #D8CFF0",
/* pixels */
"                                                                                                                                ",
"                                                                                                                                ",
"                                                                                                                                ",
"                                                                                                                                ",
"                                                                                                                                ",
"                                                                                                                                ",
"                                                                                                                                ",
"                                                                                                                                ",
"                                                                                                                                ",
"                                                                                                                                ",
"                                              4 4                                                                               ",
"                                          . f d.a.f .                                                                           ",
"                                        # k g.z.z.g.k #                                                                         ",
"                                        # 3 s.x.x.s.3 X . . . . . . . .                                                         ",
"                                            4 u./ 1 . V H H 2.2.G G G G S .                                                     ",
"                                              < <   . 5.7.8.Q.Q.Q.Q.Q.L.3..                                                     ",
"                                                    . A X.X.3.X.3.7.L.L.5..                                                     ",
"                                                . 5 ].2.Z Z Z Z Z 7.7.G.L.].5 .                                                 ",
"                                            . H.OXI.Z.A Z Z Z Z Z 7.7.7.F.m.I.OXH..                                             ",
"                                            . B.XXXX:X&X&X&X&X&X&X&X1X>X>X,XXXXXB..                                             ",
"                                            . N n.Z.oXoXoXoXoXoXoXoXoXoXoXoXZ.n.N .                                             ",
"                                              . o * b.b.b.b.b.b.b.b.b.b.b.b.* o .                                               ",
"                                        . . . . a 2.o o o o o o o o o o o o 2.a .                                               ",
"                                O + + = B 5.Z > = B B 5.7.7.3.B 7.C X.7.5.r B ; .                                               ",
"                          & = @ 3.A s 6 O O O 8 = o 5 t r r r r r r r r t 5 .             # #                                   ",
"                        . a 2.C t = o ; B r 7 * . 5 2XM 5 > * * * 5 5 5 9 2X5           . g b .                                 ",
"                            . . @ @ t C t . .     5 2XXX:XoXV.V.V.-X2X:XoX2X5           . x f..                                 ",
"                              ; C C r ; .         5 2XXX:XoXV.V.V.-X2X:XoX2X5           < i.h.<                                 ",
"                        ; : 6 C B t = .         9 K 3XXX:XoXV.V.V.;X2X,XXX,XD 9 $ 1 f f p.j.z.d.k f 4 <                         ",
"                      : a s B B 7 =           M H.3X:X$X,X@XV.V.V.-X2X,XoXXX-XN.n b f.f.j.z.c.k.g.f.u.k .                       ",
"                    . 6 @ O = ; .       - J J ].,X-X$X<X@X(.C.V.V.;X2X2X,X.X.X$X`.J K + 3 a.h.k X . .                           ",
"                    . . . @ = .     F J P 1X2X2X,X-X2X@XI.V.V.V.V.;X2X2X3X$X.X.XoX;X@XP - x f..                                 ",
"                          .       D `.2X2X2X2X2X2X3X-XI.V.V.V.V.V.-X2X2X2X2X-XoX.X.X.X%XM k p..                                 ",
"                              % L &X2X2X2X2X2X3X:X-X(.(.C.V.V.V.(.$X:X3X2X2X2X:X-X%X.X.XM.n n L &                               ",
"                            9 J.<X2X2X2X2X2X2X|.T.Y.Y.Y.S.o.o.o.G.Y.W.|.|.|.|.|.=X3X-X-XoXI.B.$XJ.9                             ",
"                          1 l I }.|.|.|.|.|.W.<.+.+.+.+.+.+.+.+.+.+.*.1.r.r.R.R.^.|.|.|./.T.T.T./.K.F                           ",
"                        . j p.@ 0.r.r.r.r.1.+.+.+.+.+.+.+.+.+.+.+.+.+.+.1.r.r.r.r.r.r.r.t.1.*.*.*.R.P.L                         ",
"                      . o b f.@ 9.e.e.e.1.+.+.+.+.+.+.+.+.+.+.+.+.+.+.+.+.*.r.r.r.r.r.r.r.t.>.W +.@.}._..                       ",
"                  . . . f d.j.c w w w d ;.' ` ` ` ` +.` ` ` ` ` #.#.#.~ ` ` @.;.w.w.w.w.w.w.-.Y ` ` O.D.).%                     ",
"                1 b f.f.j.z.v.k.f.f.u.k u ) _ _ _ _ ) ) _ _ _ _ ~ ~ ` ~ ~ ` ~ [ &.q.q.q.q.q.-.Y _ _ ~ <.+X&                     ",
"                  $ < < v h.l.a.1 2 $ w -.~ ~ [ _ _ _ _ _ _ _ ~ ~ ~ ` ~ ~ ` ~ ~ $.q.q.q.9.-.R U ) _ _ 6.+X&                     ",
"                    % _.n v g.$ ..-.-.>.,.~ ~ ~ _ _ _ _ _ _ _ _ ` ~ ` ~ ~ ` ~ ` ` ' q.q.9.| U Y ) _ _ 6.+X&                     ",
"                    + +Xm x f.O :.9.q.q.,.` ` ~ _ _ _ _ _ _ _ _ ~ ~ ~ ` ` ~ ~ ~ ~ ~ q.q.} R U Y ) _ u V +X&                     ",
"                    % +Xm g x O ( ;.q.q.9.,.#.~ _ _ _ _ _ _ _ _ ` ` ~ ~ ~ ~ ` ` ` ` q.q.W U U U _ , k c % .                     ",
"                    & +X^.^ w #.~ #.=.,.q.q.q.q.=._ _ _ _ _ _ _ ~ ~ ~ ` ~ ` ~ ~ ~ ' :.Q U U Y W @ b j.l.i.#                     ",
"                    & &X^.,.$.~ ~ ~ ~ $.q.q.q.q.,.,._ _ _ _ _ _ ~ ` ~ ` ~ ~ ;.%.~ ~ Y U U U i $ / j.c.c.x.u.#                   ",
"                      . '.|.,.~ ~ ` ~ ~ T U =.:.:.q.q.q.9.=.] [ ` ` ~ ~ ` ,.;.{ ~ U U U U W ~ ~ : z g.j.x X                     ",
"                      . _. Xw.,.` ~ ~ ~ ! Y U U } :.:.:.:.:.:.>.,.~ ~ ~ ~ ~ E U Y U U Y ! ~ ~ ~ ~ t k j .                       ",
"                      . ).>X=X9.{ _ _ _ ) T U U U U U U U U U U U U U U U U U U p U U ) ) ) ( Y ~ {.J o .                       ",
"                        . J =Xq.9.$._ _ _ _ E Y U U U U U U U U U U U U p U U Y ( E ) ) ) E T ) ~  XJ .                         ",
"                        . D '.^.w.;.$.{ _ ~ _ W T U U U U U U U U U U U Y U U T ) ) ) U p T Q ] 6.).D .                         ",
"                            V 1Xw.9.9.;._ _ _ _ ! T T U U U U U U U U U U U U U p p Y p U ) ) | 1XV                             ",
"                            0 _.E.e.9.;.{ [ _ _ ~ ~ ~ W i p Y U U U U U U U U U U p Y T ) ] -.E.'.0                             ",
"                              & N.!.[.E.,.;.&.[ _ _ ~ p e e p E E E E E Q Q Q E ( E ( ) 6.W.}.P &                               ",
"                                . L #X*X[.[.e.=.$.&.&.@ u.x , %.$.$.$.$.%.%.%.&.%.&.G.T.*X#XL .                                 ",
"                                    J H.).<X|.[.0.d ^ e h.s.e ^ ^  .| | | | | r./.|.<XJ.N.K                                     ",
"                                        5 J J J n j p.h.c.x.h.p.k , 2.U.U.U.U.K.J J J -                                         ",
"                                                1 g x f.z.l.s.x 3 # 0 J J J J 0                                                 ",
"                                                      3 h.d.4                                                                   ",
"                                                      . / c .                                                                   ",
"                                                        < <                                                                     ",
"                                                                                                                                ",
"                                                                                                                                ",
"                                                                                                                                "
};
