/* XPM */
static char *coll31672316072[] = {
/* columns rows colors chars-per-pixel */
"64 64 208 2 ",
"   c None",
".  c #010001",
"X  c #0B0B00",
"o  c #0A060B",
"O  c #0B0609",
"+  c #11060B",
"@  c #19030A",
"#  c #141300",
"$  c #1D1D00",
"%  c #0B0715",
"&  c #0F0E11",
"*  c #100F11",
"=  c #190815",
"-  c #1B1A1E",
";  c #121114",
":  c #250B18",
">  c #340F13",
",  c #232300",
"<  c #2C2A01",
"1  c #3B3A00",
"2  c #353400",
"3  c #322A05",
"4  c #1F1E23",
"5  c #150F28",
"6  c #290D24",
"7  c #3F1539",
"8  c #331327",
"9  c #242426",
"0  c #3E222F",
"q  c #2C2A31",
"w  c #37353C",
"e  c #431313",
"r  c #4D390C",
"t  c #481A37",
"y  c #501C3F",
"u  c #4C0E26",
"i  c #670529",
"p  c #641D33",
"a  c #55253D",
"s  c #442935",
"d  c #74282C",
"f  c #682530",
"g  c #454400",
"h  c #494800",
"j  c #544A06",
"k  c #575604",
"l  c #615D01",
"z  c #6D6B00",
"x  c #636203",
"c  c #7D7B00",
"v  c #747200",
"b  c #4E4B32",
"n  c #3E3B44",
"m  c #393740",
"M  c #382863",
"N  c #551D43",
"B  c #581E45",
"V  c #5B2247",
"C  c #4E3846",
"Z  c #6C2A4C",
"A  c #683F51",
"S  c #7B3254",
"D  c #7F395A",
"F  c #6B314E",
"G  c #7B3961",
"H  c #504D58",
"J  c #714352",
"K  c #5A5763",
"L  c #4C4560",
"P  c #7E4561",
"I  c #666270",
"U  c #716D7C",
"Y  c #820635",
"T  c #8A0737",
"R  c #8F0738",
"E  c #8A0A39",
"W  c #870837",
"Q  c #9A083B",
"!  c #94073A",
"~  c #97123E",
"^  c #A4083E",
"/  c #A9093F",
"(  c #852637",
")  c #9E1741",
"_  c #AC0940",
"`  c #B00941",
"'  c #BD0C47",
"]  c #B71145",
"[  c #B91246",
"{  c #BF1B4B",
"}  c #AA1E46",
"|  c #9D3040",
" . c #BC294E",
".. c #B22349",
"X. c #AE2E4B",
"o. c #833E64",
"O. c #B83265",
"+. c #C20C49",
"@. c #C11B4B",
"#. c #C4104A",
"$. c #D91053",
"%. c #D81555",
"&. c #C3244D",
"*. c #CA2753",
"=. c #D9275B",
"-. c #CB3457",
";. c #DC3659",
":. c #D73858",
">. c #E23D5D",
",. c #D2396B",
"<. c #E33769",
"1. c #E02F64",
"2. c #944C6B",
"3. c #904466",
"4. c #964E72",
"5. c #8F496A",
"6. c #BD4373",
"7. c #A3567A",
"8. c #A6475C",
"9. c #E6415F",
"0. c #D35274",
"q. c #E84360",
"w. c #E94C6C",
"e. c #E74A69",
"r. c #EA567B",
"t. c #E35575",
"y. c #E84C76",
"u. c #E6607E",
"i. c #898800",
"p. c #939100",
"a. c #9B9900",
"s. c #A09E00",
"d. c #ACAA00",
"f. c #A9A700",
"g. c #B5B300",
"h. c #BAB800",
"j. c #C5C300",
"k. c #CAC800",
"l. c #D8D500",
"z. c #E4E100",
"x. c #EDEA00",
"c. c #E9E600",
"v. c #F8F500",
"b. c #F2EF00",
"n. c #563D99",
"m. c #695F84",
"M. c #7E798A",
"N. c #797586",
"B. c #746797",
"V. c #7257B6",
"C. c #785EBA",
"Z. c #624AA3",
"A. c #7C6BAB",
"S. c #7E64BD",
"D. c #9E398C",
"F. c #AA5D82",
"G. c #A45E87",
"H. c #B9589F",
"J. c #A64291",
"K. c #89778C",
"L. c #906D88",
"P. c #B66787",
"I. c #AB6B8C",
"U. c #DF6F8C",
"Y. c #C67590",
"T. c #CF728D",
"R. c #E56C89",
"E. c #E86D90",
"W. c #C667A4",
"Q. c #D474A7",
"!. c #DB5087",
"~. c #8871C5",
"^. c #8A8598",
"/. c #9C96AD",
"(. c #9089A4",
"). c #A896AF",
"_. c #B6B6B6",
"`. c #E3819E",
"'. c #DD82AE",
"]. c #CD91B7",
"[. c #E395B6",
"{. c #E29EBE",
"}. c #E28CAA",
"|. c #A18ED8",
" X c #AB99DB",
".X c #A593D9",
"XX c #B09FDE",
"oX c #BCB5CE",
"OX c #B4A5DC",
"+X c #BEA5C7",
"@X c #B9AAE2",
"#X c #BEB0E4",
"$X c #9D8ACE",
"%X c #DB9DC5",
"&X c #C0A5C4",
"*X c #CBAECE",
"=X c #DBAACA",
"-X c #C6B5D5",
";X c #D4B3D2",
":X c #C5B8E5",
">X c #CABEEA",
",X c #C3B5E5",
"<X c #E0B1D0",
"1X c #CAC2DD",
"2X c #D5CCED",
"3X c #D4C7E9",
"4X c #DCD3F1",
"5X c #D8CFF0",
/* pixels */
"                                                                                                                                ",
"                                                                                                                                ",
"                                                                                                                                ",
"                                                                                                                                ",
"                                                                                                                                ",
"                                                                                                                                ",
"                                                                                                                                ",
"                                              , ,                                                                               ",
"                                            . c z .                                                                             ",
"                                            1 h.d.1                                                                             ",
"                                      $ g z g.c.z.g.z g $                                                                       ",
"                                      $ g z g.c.z.g.z g # . . . . . . .                                                         ",
"                                            1 h.d.2 . a F A J J J J A A Z .                                                     ",
"                                            . c z . . 4.7.P.Y.Y.Y.Y.Y.Y.4..                                                     ",
"                                              < <   . D 3.3.2.3.2.7.P.P.2..                                                     ",
"                                              . . 9 _.J S S S S S 7.7.F.I._.9 .                                                 ",
"                                            . U (.B.S.D S S S S S 7.F.F.G.A.A.(.U .                                             ",
"                                            . B. X|.OX+X+X+X+X+X&X*X*X-X*XOX$X XB..                                             ",
"                                            . M n.Z. X X.X X X X.X X X X.X XZ.n.M .                                             ",
"                                              % % 5 n.n.n.n.n.n.n.n.n.n.n.n.5 % %                                               ",
"                                        . . . . 0 P % % % % % % % % % % % % P 0 .                                               ",
"                                O O O = V 4.S 6 : N N 4.G.7.4.N 7.Z o.F.4.N N : .                                               ",
"                            . O 4.D V 8 o o X 6 6 . . N V V V N B B N V y . .                                                   ",
"                        . s 2.Z t * . = N N 7 = . 4 4Xq & o o o % & * & q 4X9               X                                   ",
"                            . . + + t Z t . .     4 4X X>X XV.V.V.:X4X>X.X4X4           . g v .                                 ",
"                              = Z S N 6 .         4 4X X3X XV.V.V.:X4X>X X4X4           # c h.#                                 ",
"                        + + 8 Z N t = .         4 m 4X X>X XV.V.V.:X4X>X.X2Xm 4     # $ c k.z.a.< $ #                           ",
"                      : t a y N 7 =           w M.5X1X@X2X XV.V.V.:X4X3XXX|.:XN.q # z d.l.c.b.l.h.c 2 .                         ",
"                    . t = X = 6 .         n n ).5X:X@X2X,X$XV.V.V.:X4X4X2X|.|.@X/.n m & h f.l.x X .                             ",
"                    . . . + = .     w n K 3X4X4X>X@X4X,X~.V.V.V.V.:X4X4X2X@X|.|. X3X#XH ; x a..                                 ",
"                          .       H ).4X5X4X4X4X4X5X,XS.V.V.V.V.V.:X4X4X4X4X@X X|.|.|.@Xm.b 1 .                                 ",
"                                K oX4X4X4X4X4X4X2X@X|.~.C.V.V.V.~.@X2X4X4X4X4X>X#XOX|.|.|.A.L K                                 ",
"                            q I 3X4X4X4X4X4X4X%XW.H.H.H.D.6.D.D.H.H.Q.%X%X{.{.{.<X4X#X@X X|..X@XI q                             ",
"                          . s {.[.[.[.[.[.[.Q.<.$.$.$.$.$.$.$.$.$.$.=.<.R.r.r.r.E.[.[.[.Q.W.W.W.'.L.H                           ",
"                        . , j f y.r.r.r.r.1.$.$.$.$.$.$.$.$.$.$.$.$.$.%.<.r.r.r.r.r.r.r.y.<.%.1.=.!.I.K                         ",
"                      . . k p.+ e.w.w.y.e.$.$.$.$.$.$.$.$.$.$.$.$.$.$.$.$.1.y.r.r.r.r.r.r.y.-.` $.%.'./..                       ",
"                    . . 1 a.k.k p p X.9.>.+.+.+.+.+.+.+.+.+.+.+.+.+.+.+.#.#.*.<.w.w.w.w.w.w.-.Y ' +.,.I.m.&                     ",
"                  # z d.l.c.v.l.g.c r d >.` ` ` ` ` ` ` ' / / / ` ` ` ` ` ` ` ' =.q.9.9.q.q.-.T _ ` _ 6.oX&                     ",
"                    3 g i.l.c.d.k 1 d X.>.` ` ` ` ` ` ` ' / / / ` ` ` ` ` ` _ ` @.q.q.q.q.-.~ Y _ ` ` 6.oX;                     ",
"                    o ^.b i.j.3 ( | :.9.;.' ` ` ` ` ` ` / / ' ' / ` / ` ` ` ` ` [ @.q.9.>. .Y Y _ ` i A oX;                     ",
"                    * oXC g v @ 9.9.q.q.>.' / / ' / / / / ' / / ` ` ` ` ` ` / ` ` ' 9.9.} R Y T ^ u j x - .                     ",
"                    * oXT.d > ^ [ :.q.q.9.>.+./ / / / +./ / ' / ` ` ` ` ` ` ` ` ` +.9.9.~ Y Y Y / > i.g.. .                     ",
"                    * oXR.:. ./ ` ] -.q.q.q.>.>.*./ ` / ' ' / / ` ` ` / ` ` ` / / [ 9.~ Y Y i @ @ l k.l.z X .                   ",
"                    * oXR.9.:./ ` ` / &.q.q.9.9.9.>./ ] / / / ' ` ` ` ` / / >.&.` / E T Y u < i.z.b.v.v.b.x.p.2 .               ",
"                      . ).[.>./ +./ ' / ! Y :.>.9.9.9.q.9.=.` ' ` ` ` ` ' >.9.&.^ Y Y Y Y Q Y O O l k.l.v X .                   ",
"                      . /.[.>.>./ / / / ^ T W W ..9.9.9.9.9.>.>.>.#.` / ` ` R W Y Y Y Y ^ ` / ^ ^ > a.h.X                       ",
"                      . ^.1X<X9.#./ / / / R Y Y Y Y Y Y Y Y Y Y Y Y Y Y W Y Y Y Y Y R / _ _ ^ R / t j l .                       ",
"                        X K {.q.q.*.' / / / R Y Y Y Y Y Y Y Y Y Y Y Y Y Y Y Y W T R / / / Q R _ / %XK .                         ",
"                        . K ].t.9.;.&.[ / / +.Q T Y Y Y R Y Y Y Y Y Y Y Y Y Y ! _ _ _ Y W i ) `  .).K .                         ",
"                            b 2Xe.9.9.;.' / / / ^ R R Y i i Y Y Y Y Y Y Y Y Y Y i Y Y Y ) _ ` -.3XC                             ",
"                            m /.U.t.q.:.@.[ / / ' / / i 3 e i Y Y Y Y Y Y Y Y Y T Y i ) _ _ -.U.).w                             ",
"                              % /.T.R.u.>.=.@.[ / / / @ c x @ R R R R R R R R R R R Y _ O.!.T.(.*                               ",
"                                . N.-X<XR.R.e.*.#.@.#.@ g.p.: @.{ { { @.@.@.{  .#.{ 6.6.=XoXN..                                 ",
"                                    K N.^.2X}.8.( ( ( r k.d.r ( ( ( }  . .&. .0.`.}.2X(.M.K                                     ",
"                                      . 4 U M.b k z z g.x.z.g.z z h e p G.G.F.L.M.M.N.- .                                       ",
"                                          X . g v p.p.k.b.c.j.i.p.x , 9 M.N.N.H . . .                                           ",
"                                                      1 k.d.1                                                                   ",
"                                                      . g.p..                                                                   ",
"                                                      . i.z .                                                                   ",
"                                                        , ,                                                                     ",
"                                                                                                                                ",
"                                                                                                                                ",
"                                                                                                                                ",
"                                                                                                                                "
};
