/* XPM */
static char *coll41672316072[] = {
/* columns rows colors chars-per-pixel */
"64 64 213 2 ",
"   c None",
".  c #010001",
"X  c #0A0805",
"o  c #12050B",
"O  c #18040A",
"+  c #131300",
"@  c #1D1D00",
"#  c #181700",
"$  c #0B0714",
"%  c #0F0F11",
"&  c #110E11",
"*  c #1B0916",
"=  c #18171B",
"-  c #260B18",
";  c #320313",
":  c #3D1510",
">  c #381E0B",
",  c #232200",
"<  c #2E2D00",
"1  c #352807",
"2  c #333300",
"3  c #3B3A00",
"4  c #1E1D22",
"5  c #150F28",
"6  c #2A0C24",
"7  c #281622",
"8  c #3B1436",
"9  c #232224",
"0  c #3E222F",
"q  c #37353C",
"w  c #2D2C32",
"e  c #503410",
"r  c #4A193B",
"t  c #471A37",
"y  c #501B3F",
"u  c #540521",
"i  c #660529",
"p  c #6F1030",
"a  c #52273B",
"s  c #442A36",
"d  c #6F2829",
"f  c #451C11",
"g  c #484700",
"h  c #524F02",
"j  c #585700",
"k  c #594D13",
"l  c #605D01",
"z  c #6D6C00",
"x  c #646300",
"c  c #7C7B00",
"v  c #727100",
"b  c #4D4A2C",
"n  c #3E3B44",
"m  c #393740",
"M  c #551E43",
"N  c #5B2346",
"B  c #593043",
"V  c #6B2A4B",
"C  c #772E48",
"Z  c #683F51",
"A  c #7B3154",
"S  c #773958",
"D  c #6C334E",
"F  c #403069",
"G  c #7B3961",
"H  c #504C58",
"J  c #714352",
"K  c #5C5965",
"L  c #595566",
"P  c #4C4560",
"I  c #7E4561",
"U  c #676372",
"Y  c #716D7C",
"T  c #830635",
"R  c #880737",
"E  c #8F0738",
"W  c #890A38",
"Q  c #860937",
"!  c #9B083B",
"~  c #93093A",
"^  c #95123D",
"/  c #A5083E",
"(  c #A9093F",
")  c #892839",
"_  c #9E1741",
"`  c #AD0940",
"'  c #B00941",
"]  c #BD0C47",
"[  c #B71145",
"{  c #B81246",
"}  c #BF1A4B",
"|  c #B31F4C",
" . c #8F344E",
".. c #A63045",
"X. c #AF3348",
"o. c #B82B4F",
"O. c #B83265",
"+. c #C20C49",
"@. c #C21B4B",
"#. c #C4104A",
"$. c #D91053",
"%. c #D81556",
"&. c #CC2753",
"*. c #D42E58",
"=. c #CB3254",
"-. c #CB3759",
";. c #DA3459",
":. c #D93858",
">. c #C4274E",
",. c #E23E5D",
"<. c #DF2560",
"1. c #D23B6D",
"2. c #E3386A",
"3. c #E02E64",
"4. c #81415F",
"5. c #BC455D",
"6. c #894666",
"7. c #924E6D",
"8. c #9B4E6E",
"9. c #985173",
"0. c #BD4373",
"q. c #A05377",
"w. c #836A7E",
"e. c #E6415F",
"r. c #D54F71",
"t. c #E84360",
"y. c #E94C6C",
"u. c #E74767",
"i. c #EA577B",
"p. c #E45575",
"a. c #E84B75",
"s. c #E6607E",
"d. c #8B8A00",
"f. c #868400",
"g. c #939100",
"h. c #9B9900",
"j. c #A09E00",
"k. c #AAA800",
"l. c #B5B300",
"z. c #BCBA00",
"x. c #B1AE00",
"c. c #C5C300",
"v. c #CCCA00",
"b. c #D7D400",
"n. c #E2DF00",
"m. c #E9E700",
"M. c #EDEA00",
"N. c #E4E100",
"B. c #F2EF00",
"V. c #F9F600",
"C. c #573D9A",
"Z. c #7E798A",
"A. c #797585",
"S. c #746797",
"D. c #7257B6",
"F. c #785EBA",
"G. c #6951A8",
"H. c #7C6BAB",
"J. c #7F66BD",
"K. c #9E398C",
"L. c #AA5D82",
"P. c #A45E87",
"I. c #B9589F",
"U. c #A64291",
"Y. c #976D89",
"T. c #B66786",
"R. c #AC6789",
"E. c #BE69AA",
"W. c #DF6F8C",
"Q. c #C67590",
"!. c #CF728D",
"~. c #E56C89",
"^. c #E47796",
"/. c #C771AB",
"(. c #DC5B8F",
"). c #8871C5",
"_. c #9C96AD",
"`. c #9993A7",
"'. c #9089A4",
"]. c #A294AA",
"[. c #A59EB5",
"{. c #BB8CAD",
"}. c #A4A4A4",
"|. c #878194",
" X c #D886B3",
".X c #D191B6",
"XX c #E29EBE",
"oX c #E19AB7",
"OX c #E28FAD",
"+X c #A18ED8",
"@X c #AC9BDB",
"#X c #A694DA",
"$X c #BCB5CE",
"%X c #B2A2DF",
"&X c #B5A8D8",
"*X c #BEA5C7",
"=X c #B9ABE3",
"-X c #B7A7E1",
";X c #BEB0E4",
":X c #9D8ACE",
">X c #DB9DC6",
",X c #C0A5C4",
"<X c #CBAFCE",
"1X c #C6B5D5",
"2X c #D7AECE",
"3X c #E0AAC9",
"4X c #C5B8E5",
"5X c #CABEEA",
"6X c #C2B5E3",
"7X c #CDC3E6",
"8X c #D5CBEE",
"9X c #D6CAE9",
"0X c #DCD3F1",
/* pixels */
"                                                                                                                                ",
"                                                                                                                                ",
"                                                                                                                                ",
"                                                                                                                                ",
"                                                                                                                                ",
"                                                                                                                                ",
"                                              , ,                                                                               ",
"                                            . v x .                                                                             ",
"                                            3 z.k.3                                                                             ",
"                                      @ g z l.M.N.l.z g ,                                                                       ",
"                                      , j d.c.M.M.c.g.j # .                                                                     ",
"                                            3 z.x.2 . a D Z J J J J J Z B .                                                     ",
"                                            . c z . . 7.q.T.!.Q.Q.Q.Q.Q.7..                                                     ",
"                                              2 < . . S 6.8.8.8.8.T.T.T.7..                                                     ",
"                                              . . 9 }.4.A A A A A q.q.L.R.}.9 .                                                 ",
"                                            . Y '.S.H.G A A A A A q.L.L.P.H.S.'.Y .                                             ",
"                                            . S.#X+X&X*X[.<X,X,X*X<X<X<X<X&X+X@XS..                                             ",
"                                            . F G.D.%X%X%X%X%X%X%X%X-X%X%X-XG.G.F .                                             ",
"                                              $ $ 5 C.C.C.C.C.C.C.C.C.C.C.C.5 $ $                                               ",
"                                        . . . . 0 I $ $ $ $ $ $ $ $ $ $ $ $ I 0 .                                               ",
"                                . . . o N 7.D - 7 N r 6.7.7.6.r 7.N D 7.6.t N 7 .                                               ",
"                            X O 9.S N 8 . . . 6 6 . % t r M M M M M M M t % .                                                   ",
"                        . s 7.V M - . * M M M $ . 4 7X7 . . . . $ . . . 7 7X4               .                                   ",
"                            . . . X t V t . .     4 0X@X5X%XD.D.D.4X0X5X@X0X4           . g z .                                 ",
"                              O V A M 6 .         7 0X@X7X@XD.D.D.4X0X5X@X0X4           + c z.+                                 ",
"                        o o 7 A M r * .         = m 0X@X7X@XD.D.D.4X0X5X#X8Xm 4     # , c c.N.h.< # +                           ",
"                      o y V V M r *           = A.0X8X@X7X%XD.D.D.4X0X7X#X+X5XY & + f.v.m.V.V.M.b.h.3 .                         ",
"                    X t * . $ 6 .         q H [.7X7X%X8X4X:XD.D.D.4X0X0X8X+X+X-X_.n m % g k.b.x X .                             ",
"                    . . . o * .     w n L 7X0X0X5X-X0X;X).D.D.D.D.4X0X0X8X-X+X+X-X5X1XP % j h..                                 ",
"                        . . .     m `.0X0X0X0X0X0X8X7XJ.D.D.D.D.D.4X0X0X0X0X-X#X+X+X+X4XL b h .                                 ",
"                                K $X0X0X0X0X0X0X8X;X+X).F.D.D.D.).-X7X0X0X0X0X4X;X=X+X+X+XH.P K                                 ",
"                            w U 9X0X0X0X0X0X0X>X/.I.I.I.U.K.K.K.I.I. XXXXXXXXX>X2X8X=X=X@X+X@X=XU w                             ",
"                          . q XXXXXXXXXXXXXX^.,.$.$.$.$.$.$.$.$.$.$.<.a.i.i.i.i.^.XXXXXX/./.E./. XY.m                           ",
"                        . @ k C p.i.i.i.i.2.$.$.$.$.$.$.$.$.$.$.$.$.$.%.2.i.i.i.i.i.i.i.a.2.<.<.<.(.Y.L                         ",
"                      . . j g.% u.y.y.y.2.%.$.$.$.$.$.$.$.$.$.$.$.$.$.$.%.<.i.i.i.i.i.i.i.a.*.` $.$. X_..                       ",
"                    . . 3 h.v.h d d o.t.,.#.+.+.+.+.+.+.+.+.+.+.+.+.+.+.+.] &.,.y.y.y.y.y.y.-.E [ ] 1.T.Y %                     ",
"                  + j f.z.N.B.v.d.x e ) ,.] ( ' ( ( ] ( ( ] ( ( ` ` ` ' ' ' ' } *.e.e.t.e.e.=.T ` ` ` 0.$X%                     ",
"                    < g g.b.m.k.g 2 d o.,.( ( ' ] ( ' ' ( ] ( ] ' ' ' ' ' ' ' ' @.e.t.t.e.=.^ T ` ` ( 0.$X%                     ",
"                    X |.b c c.1 ..X.-.u.,.] ' ' ' ' ' ( ( ( ] ( ' ' ' ' ' ' ' ' { &.e.e.e.>.T T ` ` i J 1X%                     ",
"                    % $XB g c O :.t.t.e.;.] ' ' ' ' ' ' ] ( ( ( ' ` ' ' ' ' ' ' ( { e.e.o.^ T T ` u e k q .                     ",
"                    % $X!.d : ! ( ,.t.t.t.,.#.( ( ( ( ( ( ] ( ] ' ' ' ' ' ' ' ' ' [ e.e.^ R T T ` ; d.k.. .                     ",
"                    % $X~.,.&.( ( ( ;.t.t.t.,.,.&.( +.( ( ( ( ] ' ' ' ' ' ' ' ' ' [ ,._ T T i O O j c.b.z X .                   ",
"                    % $X~.e.;.( ( @.( &.e.e.e.e.e.,.( ( ] ( ( ( ' ' ' ` ' ' ;.@.' ` ^ T T u 1 c b.m.V.V.M.b.d.<                 ",
"                      % ].OX;.( ( ( ( ( ! E :.t.e.e.,.e.,.%.( ] ' ' ' ' [ ,.e.&./ T T T T ! p X + v b.n.d.@ +                   ",
"                      . ].oXe.e.+.( ( ( ( Q T T | :.e.,.e.,.,.2.3.{ ` ` ` ` R T T T T T / ' ' ` ' ; d.x..                       ",
"                      . `.0X3Xe.( ( ] ] ( Q T T T R W W Q W W R W Q T T T T T T p T R / ' ' / R ` ; j z .                       ",
"                        X K 3Xe.t.&.( ( ( ( W Q T T T T T T T T T T T T T T T T E E ' / / ! E ' ` .XK .                         ",
"                        . K .Xy.t.;.@.] ] ( ( ~ R T T T R p T T T T T T T T T ~ / ( / E T R ~ ' o.{.L .                         ",
"                            n 9Xy.e.e.:.( ( ( ] / ~ E T p p R T T T T T T T T T T T T T T _ [ | 9Xn                             ",
"                            m ].~.e.e.e.@.#.( ( ( ( ( i 1 : i R T T T T p T T T T T T E ` ] -.W.].m                             ",
"                              & `.{.~.s.e.:.@.[ ( ( ( O c x O E E E E E ~ ~ ~ E E E E ( O.(.!.`.&                               ",
"                                . Z.1X2Xs.~.t.=.#.@.@.; l.g.; { } } } @.@.#.@.@.} } 0.0.,X&XA..                                 ",
"                                  . U _.[.8X^.r.......1 c.k.e ......o.=.=.=.=.r.~.^.0X[._.U .                                   ",
"                                      . = A.Z.b h v z l.M.N.k.z z g f d P.L.P.Y.Z.Z.A.= .                                       ",
"                                          . . 3 v g.g.c.B.M.c.g.g.j , 9 Z.Z.A.H . . .                                           ",
"                                                . . . g v.l.g . . . . . . . .                                                   ",
"                                                      . l.g..                                                                   ",
"                                                      . d.z .                                                                   ",
"                                                        2 2                                                                     ",
"                                                                                                                                ",
"                                                                                                                                ",
"                                                                                                                                ",
"                                                                                                                                ",
"                                                                                                                                "
};
