/* XPM */
static char *coll51672316073[] = {
/* columns rows colors chars-per-pixel */
"64 64 206 2 ",
"   c None",
".  c #000000",
"X  c #0A0A00",
"o  c #0B050A",
"O  c #0A070A",
"+  c #12050B",
"@  c #19030B",
"#  c #1B1B00",
"$  c #141300",
"%  c #0B0715",
"&  c #0F0E11",
"*  c #120D12",
"=  c #1A0816",
"-  c #18181A",
";  c #340513",
":  c #2A0C12",
">  c #242400",
",  c #2F2E00",
"<  c #282700",
"1  c #343300",
"2  c #3C3B00",
"3  c #372A08",
"4  c #140D26",
"5  c #1E1D22",
"6  c #2C0D26",
"7  c #2B1121",
"8  c #2D1538",
"9  c #3E222F",
"0  c #2C2A31",
"q  c #37353C",
"w  c #232224",
"e  c #461514",
"r  c #4D320E",
"t  c #4A193B",
"y  c #451639",
"u  c #531D3F",
"i  c #4E0C25",
"p  c #770630",
"a  c #730B32",
"s  c #492836",
"d  c #54263B",
"f  c #55323E",
"g  c #6B2927",
"h  c #4B4A00",
"j  c #474700",
"k  c #575600",
"l  c #574D0E",
"z  c #605C02",
"x  c #656400",
"c  c #6D6B00",
"v  c #797700",
"b  c #706F00",
"n  c #4F4D32",
"m  c #3D3B43",
"M  c #393740",
"N  c #561D43",
"B  c #5A2347",
"V  c #67284B",
"C  c #7B3154",
"Z  c #783B58",
"A  c #772E4D",
"S  c #40306A",
"D  c #7D3B62",
"F  c #514E5A",
"G  c #524F52",
"H  c #585561",
"J  c #7E4561",
"K  c #666270",
"L  c #6A6675",
"P  c #726D7D",
"I  c #820635",
"U  c #880637",
"Y  c #8F0738",
"T  c #880A37",
"R  c #96093B",
"E  c #93103C",
"W  c #A3083D",
"Q  c #AA093F",
"!  c #807E00",
"~  c #9E1741",
"^  c #AD0940",
"/  c #B00941",
"(  c #BD0C47",
")  c #B91245",
"_  c #BF1A4B",
"`  c #BB1447",
"'  c #AE1C4A",
"]  c #9D3040",
"[  c #B6254B",
"{  c #A63045",
"}  c #AF3348",
"|  c #B62C4E",
" . c #B83265",
".. c #C20C49",
"X. c #C21B4B",
"o. c #C4104A",
"O. c #D91053",
"+. c #D91656",
"@. c #CA2652",
"#. c #D42D58",
"$. c #CC3254",
"%. c #C83955",
"&. c #DA3559",
"*. c #D83658",
"=. c #C8224E",
"-. c #E23D5D",
";. c #DF2662",
":. c #D23B6D",
">. c #E3396B",
",. c #BC455D",
"<. c #894767",
"1. c #924E6D",
"2. c #9C486D",
"3. c #BD4373",
"4. c #A75777",
"5. c #836A7F",
"6. c #E6415F",
"7. c #D45478",
"8. c #E84360",
"9. c #E94C6D",
"0. c #E6486A",
"q. c #EA577B",
"w. c #E45B78",
"e. c #E74974",
"r. c #E6607E",
"t. c #8C8A00",
"y. c #878500",
"u. c #939100",
"i. c #9C9A00",
"p. c #A09E00",
"a. c #A3A200",
"s. c #ADAB00",
"d. c #B5B300",
"f. c #B9B700",
"g. c #B1AE00",
"h. c #C2BF00",
"j. c #C6C400",
"k. c #CDCB00",
"l. c #DCD900",
"z. c #D9D600",
"x. c #E5E200",
"c. c #ECE900",
"v. c #E9E600",
"b. c #F2EF00",
"n. c #F9F600",
"m. c #7C7788",
"M. c #6D6091",
"N. c #786F92",
"B. c #634BA4",
"V. c #6C53AB",
"C. c #7257B6",
"Z. c #765CB9",
"A. c #7F66BD",
"S. c #9E398C",
"D. c #AA5C80",
"F. c #B9589F",
"G. c #A64291",
"H. c #956E87",
"J. c #A96488",
"K. c #B66786",
"L. c #8B7AB7",
"P. c #BE69AA",
"I. c #C67590",
"U. c #D47295",
"Y. c #E56C89",
"T. c #E47796",
"R. c #C771AB",
"E. c #846CC2",
"W. c #8E8C92",
"Q. c #958FA3",
"!. c #9D97AC",
"~. c #9993A7",
"^. c #8F87A3",
"/. c #A59DB8",
"(. c #B18FAA",
"). c #D886B3",
"_. c #D28DB1",
"`. c #E29EBE",
"'. c #E195B3",
"]. c #E28AA7",
"[. c #A08FCE",
"{. c #A18ED8",
"}. c #AB9ADB",
"|. c #A694D9",
" X c #B09FDE",
".X c #A293C8",
"XX c #BDB5CF",
"oX c #B2A2DF",
"OX c #B6A9D7",
"+X c #BAACCE",
"@X c #B8AAE2",
"#X c #BEB0E4",
"$X c #DB9DC5",
"%X c #C0A5C4",
"&X c #C4AECA",
"*X c #DBAACA",
"=X c #C6B5D5",
"-X c #D4B3D2",
";X c #C5B8E6",
":X c #CBBFEA",
">X c #C3B6E5",
",X c #E0B1D0",
"<X c #CDC2E9",
"1X c #D5CBEE",
"2X c #D6CAE9",
"3X c #DCD3F1",
/* pixels */
"                                                                                                                                ",
"                                                                                                                                ",
"                                                                                                                                ",
"                                                                                                                                ",
"                                              # #                                                                               ",
"                                            . b x .                                                                             ",
"                                            . a.u..                                                                             ",
"                                            < d.a.<                                                                             ",
"                                    1 h c c d.v.x.d.c c h ,                                                                     ",
"                                    2 x u.u.j.c.c.j.u.u.x 1 .                                                                   ",
"                                      . . . h j.d.j . 9 s f f f f g B f s                                                       ",
"                                            . a.u.. . 1.4.K.I.I.I.I.(.K.1..                                                     ",
"                                            . v c . . Z <.2.2.2.1.4.K.J.1..                                                     ",
"                                              1 > - W.Z C C C C Z 4.D.D.J.W.5 .                                                 ",
"                                            . L H.M.L.<.A A C C ] 2.D.D.J.L.M.H.L .                                             ",
"                                            . M.}.[.}.+X%X%X+X+X+X=X=X-X=XOX{.}.M..                                             ",
"                                            . S B.V.oXoXoXoXoXoXoXoXoX XoXoXV.B.S .                                             ",
"                                              4 4 8 B.B.B.B.B.B.B.B.B.B.B.B.8 4 4                                               ",
"                                        . . . . 9 J % % % % % % % % % % % % J 9 .                                               ",
"                                . . . = B 1.V : 7 B y <.1.1.J N 1.B Z 1.<.t B 7 .                                               ",
"                            . O <.C d 6 O * * 6 6 o o N V V B N B B B V B O o O                                                 ",
"                        . s 1.A t + o : N t 8 = . 5 3X0 % % o o % & & % 0 3X5                                                   ",
"                            O O O . y V t + o     5 3X[.XX[.V.V.V.OX<XXX[.3Xw               X                                   ",
"                              + V C N 6 .         5 3X}.:X XC.C.Z.#X3X<X|.3Xw           X j b X                                 ",
"                        + + 7 A B y = .         - M 3X}.:X XC.C.C.;X3X<X|.1XM 5       $ v j.x.u.>                               ",
"                      + t V V u t =           5 P 3X1X}.:X XC.C.C.;X3X<X}.{.<XL 5   X c k.n.n.v.y.<                             ",
"                    O d = O = 6 X         w 5 ~.1X<X}.1X:X|.C.C.C.;X3X3X1X{.{.#XQ.5 5 o k s.k.b X                               ",
"                    . . . + = .     q B F 2X3X3X:X@X3X>XE.C.C.C.C.;X3X3X1XoX{.{.}.:X#XF B n k X                                 ",
"                        . . .     M ~.3X3X3X3X3X3X3X:XL.C.C.C.C.C.>X3X3X3X3X@X|.{.{.{.;X:X^.q                                   ",
"                                M +X3X3X3X3X3X3X1X;X{.E.C.C.C.C.E.>X3X3X3X3X3X#X@XoX{.{.{.@X/.m                                 ",
"                            0 K 2X3X3X3X3X3X3X$XR.F.F.F.G.S.S.S.F.F.R.`.`.`.*X`.,X1X@X#X|.{.}.@XK 0                             ",
"                          m H.`.`.`.`.`.`.`._.:.O.O.O.O.O.O.O.O.O.O.#.e.q.q.q.q.Y.`.*X`.R.P.P.P._.H.m                           ",
"                        G L J.q.q.q.q.q.9.-.O.O.O.O.O.O.O.O.O.O.O.O.O.+.>.q.q.q.q.q.q.q.e.>.;.;.;.U.H.F                         ",
"                      . G G l A 9.9.9.9.9.O.O.O.O.O.O.O.O.O.O.O.O.O.O.O.+.>.e.q.q.q.q.q.q.e.;./ O.O.R.~..                       ",
"                    . . 2 y.s.k g %.8.8.-.O.................................@.>.9.9.9.9.9.9.%.U ( ( :.K.P &                     ",
"                    X j s.x.b.j.z r | -.-.Q Q Q / Q Q ( Q Q ( Q / / / / / / / _ #.8.8.8.8.8.$.T / / / 3.XX*                     ",
"                    . 1 p.l.c.d.h g %.6.-.( Q ( / / / / Q ( Q Q / ^ / / / / / / X.8.8.8.8.*.~ U ^ / p Z XX&                     ",
"                    O W.n b t.3 ] *.6.6.-.Q Q Q Q / / / Q ( Q ( / / / / / / / / ) X.8.8.8.[ I U / i l l q O                     ",
"                    & XX4.g e T 6.6.6.6.-.( Q / / / / / Q Q ( Q / / / / ^ / / ^ / ) 8.8.[ E p U / ; v i.. .                     ",
"                    * XXr.%.{ / X.-.6.6.-.&.../ / / / / ( Q Q Q / / ^ / ^ / / / / ( 8.8.~ p I U / ; u.d.. .                     ",
"                    & XXY.0.&.Q Q ) #.6.6.8.-.-.@.Q Q Q Q Q Q ( / / / / / / / / / ( *.~ U i + @ @ k j.z.c X . .                 ",
"                    & XXY.6.&.Q Q Q ..=.6.6.8.6.6.*.Q ( Q ..Q ( / ^ / / / / &.X./ / E T ; 3 u.l.l.v.n.n.v.l.l.i.h .             ",
"                      w (.].*.Q ( ( Q Q E E -.6.6.6.*.-.-.#.Q Q / / / / ) -.8.X.W T p I p e $ # > ! z.x.t., > # $               ",
"                      . !.'.6.-.Q Q Q Q W T T Y [ 6.6.6.8.-.-.-.-.( ^ / / / E U U I I I ^ ^ R ^ W ; i.f.X                       ",
"                      . W.2X*X6.( ..Q Q Q Y T I I I I I I I I I I I I p U I I I I I U ^ ^ / ^ p Q ; t.g..                       ",
"                        # K `.6.6.o.Q Q Q Q U I I I I I I I I I I I I I I I I I p U ^ ^ ^ ^ ~ / / ; k b .                       ",
"                        . H %Xw.6.&.=...Q Q Q R I I I I I I I I I I I I I I I Y ^ ^ ^ U p I Y / | (.H .                         ",
"                            B 2X0.6.-.-.Q ( Q Q W I T I p p I I I I I I I I I I I I p I U ~ / _ 1XB                             ",
"                            m +Xr.0.6.*.) / Q Q Q Q Q U : ; p T I I I I I I I I I I p T ^ ) @.w.XXM                             ",
"                              * ~.I.Y.r.6.&.=.Q ( Q Q @ v x @ R Y Y Y Y Y Y Y U Y Y E ^  .7.I.Q.&                               ",
"                                . m.=X,XY.Y.0.#.` o.X.: d.u.: X._ _ X.X._ X._ _ X._ 3.3.&X=Xm..                                 ",
"                                  . K !./.2XT.,.{ { ] r h.i.r { { { | $.$.$.@.Y.Y.T.1X/.!.K .                                   ",
"                                      . 5 Q./.n 1 h h a.v.l.i.j j , e a 2.2.2.H.!.!.Q.5 .                                       ",
"                                          . . 2 b u.u.j.b.v.h.u.u.z > 0 m.m.H.m . . .                                           ",
"                                                . . . h k.d.j . . . . . . . .                                                   ",
"                                                      . f.u..                                                                   ",
"                                                      . t.c .                                                                   ",
"                                                        1 ,                                                                     ",
"                                                                                                                                ",
"                                                                                                                                ",
"                                                                                                                                ",
"                                                                                                                                ",
"                                                                                                                                ",
"                                                                                                                                "
};
