/* XPM */
static char *coll61672316073[] = {
/* columns rows colors chars-per-pixel */
"64 64 206 2 ",
"   c None",
".  c #010000",
"X  c #090306",
"o  c #0A0A00",
"O  c #0C040A",
"+  c #09090A",
"@  c #17040B",
"#  c #141300",
"$  c #1A1A00",
"%  c #120E11",
"&  c #1A0916",
"*  c #1A191C",
"=  c #0F0E10",
"-  c #270A16",
";  c #350615",
":  c #2E0D12",
">  c #242300",
",  c #2E2E00",
"<  c #282700",
"1  c #333300",
"2  c #3B3A00",
"3  c #3B2A0A",
"4  c #150E29",
"5  c #120C23",
"6  c #1E1D22",
"7  c #290C24",
"8  c #281724",
"9  c #35172A",
"0  c #29153B",
"q  c #2D2B31",
"w  c #342C33",
"e  c #461514",
"r  c #4C330E",
"t  c #4A193B",
"y  c #461936",
"u  c #581232",
"i  c #770630",
"p  c #700A2F",
"a  c #482736",
"s  c #54263B",
"d  c #55323E",
"f  c #702A29",
"g  c #4A4900",
"h  c #484601",
"j  c #5B5A00",
"k  c #545307",
"l  c #524C12",
"z  c #605F00",
"x  c #676600",
"c  c #757300",
"v  c #7C7B00",
"b  c #706F00",
"n  c #524F33",
"m  c #3D3A43",
"M  c #393740",
"N  c #561D44",
"B  c #5E234A",
"V  c #572244",
"C  c #6B2B4A",
"Z  c #62264C",
"A  c #7B3154",
"S  c #783B58",
"D  c #703452",
"F  c #403069",
"G  c #7F3D63",
"H  c #504D58",
"J  c #4A4751",
"K  c #635F4F",
"L  c #5E5A66",
"P  c #6A6574",
"I  c #6B6775",
"U  c #830635",
"Y  c #890737",
"T  c #8A0A38",
"R  c #8A0836",
"E  c #940C3A",
"W  c #9C093C",
"Q  c #93073A",
"!  c #93103C",
"~  c #A4083E",
"^  c #A9093F",
"/  c #802833",
"(  c #807E00",
")  c #9F1741",
"_  c #AD0940",
"`  c #B00941",
"'  c #B91246",
"]  c #BC1649",
"[  c #AF1D4B",
"{  c #B7264C",
"}  c #A63045",
"|  c #AF3348",
" . c #B62F4A",
".. c #8D3449",
"X. c #C50D4A",
"o. c #C11B4B",
"O. c #C7104C",
"+. c #D91053",
"@. c #D91656",
"#. c #CB2753",
"$. c #D42B58",
"%. c #CC3254",
"&. c #CB3A56",
"*. c #D83257",
"=. c #DA3559",
"-. c #DA3759",
";. c #C8224E",
":. c #E13C5D",
">. c #DF2662",
",. c #D33A6D",
"<. c #E43A6B",
"1. c #BC455D",
"2. c #884666",
"3. c #924E6E",
"4. c #9C486D",
"5. c #BD4373",
"6. c #A75777",
"7. c #836A7E",
"8. c #E6415F",
"9. c #D44870",
"0. c #E84360",
"q. c #E94D6E",
"w. c #E6486A",
"e. c #EA577B",
"r. c #E45C79",
"t. c #E74B72",
"y. c #8B8900",
"u. c #939100",
"i. c #9B9900",
"p. c #A09E00",
"a. c #A3A100",
"s. c #ADAB00",
"d. c #B6B400",
"f. c #BDBB00",
"g. c #C2BF00",
"h. c #C6C300",
"j. c #CECC00",
"k. c #DCD900",
"l. c #D7D400",
"z. c #E2DF00",
"x. c #E5E200",
"c. c #EBE900",
"v. c #F2EF00",
"b. c #F8F500",
"n. c #655985",
"m. c #756D89",
"M. c #634BA4",
"N. c #7257B6",
"B. c #765CB9",
"V. c #6E57AC",
"C. c #7F66BD",
"Z. c #7F67C0",
"A. c #90439A",
"S. c #AA5C80",
"D. c #956F87",
"F. c #B66786",
"G. c #A96689",
"H. c #B16AB2",
"J. c #BE69AA",
"K. c #994EA1",
"L. c #DA728F",
"P. c #C67590",
"I. c #DC6698",
"U. c #E56C89",
"Y. c #E47796",
"T. c #C472AE",
"R. c #8871C4",
"E. c #929292",
"W. c #948EA4",
"Q. c #9D97AC",
"!. c #9993A7",
"~. c #9588B6",
"^. c #A59DB8",
"/. c #B999B9",
"(. c #B799BC",
"). c #A791A7",
"_. c #D388B4",
"`. c #E29EBE",
"'. c #E195B3",
"]. c #E28AA7",
"[. c #A18ED8",
"{. c #AC9BDB",
"}. c #A694D9",
"|. c #A899CE",
" X c #BDB5CF",
".X c #B2A2DF",
"XX c #B0A9C1",
"oX c #B6A7E1",
"OX c #BEB0E4",
"+X c #C5AAC8",
"@X c #DBAACA",
"#X c #C3B9D9",
"$X c #DEB6D6",
"%X c #E0B0CF",
"&X c #E0A3C0",
"*X c #C5B8E5",
"=X c #CBBFEA",
"-X c #C5B9E8",
";X c #CC92C3",
":X c #CEC2EB",
">X c #CFC6E2",
",X c #D5CAEE",
"<X c #D9CFED",
"1X c #D6C7E7",
"2X c #DCD3F1",
"3X c #D8CFF0",
/* pixels */
"                                                                                                                                ",
"                                                                                                                                ",
"                                                                                                                                ",
"                                              # #                                                                               ",
"                                            . x z .                                                                             ",
"                                            . a.u..                                                                             ",
"                                            < d.a.<                                                                             ",
"                                    > 1 g g p.x.k.a.g g 1 >                                                                     ",
"                                    2 x u.u.h.v.c.h.u.u.x , .                                                                   ",
"                                      . . . g g.d.h . a a d d d V d d d a                                                       ",
"                                            . a.u.. . 3.S.F.P.P.P.P.P.F.3..                                                     ",
"                                            . v b . . S 2.3.4.3.3.F.F.F.3..                                                     ",
"                                              1 > % E.S A A A A A 6.S.S.G.E.8 .                                                 ",
"                                              L m.n.~.G A A A A A 6.S.6.G.~.n.m.L                                               ",
"                                            . m.{.[.{.(.(.(.(.(.(.+X+X+X+X|.[.{.m..                                             ",
"                                            . F M.V..X.X.X.X.X.X.X.X.X.XoX.XV.M.F .                                             ",
"                                              5 4 0 M.M.M.M.M.M.M.M.M.M.M.M.0 4 5                                               ",
"                                        . . . . 9 D 4 4 4 4 4 4 4 4 4 4 4 4 H 9 .                                               ",
"                                . . . & s 3.C 7 7 B t 2.3.3.G a 3.V S 3.2.u B 7 .                                               ",
"                            . O 2.S s 9 O % % 7 7 + + V B Z Z V Z N B Z V O O O                                                 ",
"                        . a 2.C B - O & y t 9 5 X *  X8 O X O O + O O O 8  X6                                                   ",
"                            . . O X t C y X X     6 2X{.:X{.N.N.N.-X2X=X{.2X6               +                                   ",
"                              X C D V 9 X         6 2X}.:X{.N.N.N.-X2X=X{.2X6           . 2 x .                                 ",
"                        X X - A N t - .           q 2X{.:X{.N.N.N.-X2X=X}.3Xq         o b h.z.y.#                               ",
"                      O a C Z N t &           6 I 2X,X.X:X.XN.N.N.-X2X:X}.[.:XI 6   o x j.b.b.c.y.<                             ",
"                    O s - . @ 7 X         8 8 !.2X:X{.,X:X[.N.N.N.-X2X2X,X[.[.*XW.8 6 . j s.j.c X                               ",
"                    . . . % 7 o     * 8 M =X2X2X-X.X3X:XR.N.N.N.N.*X<X2X,X{.[.[.oX:X*XM 6 l k .                                 ",
"                        . . .     w !.2X2X2X2X2X2X3X:XZ.N.N.N.N.N.*X2X2X2X2XoX}.[.[.}.-X:XW.w                                   ",
"                                m XX2X2X2X2X2X2X,X-X[.Z.B.N.N.N.R.oX,X2X2X2X2X-XoX.X[.[.[..X|.M                                 ",
"                              J ,X2X2X2X2X2X2X$X_.H.H.H.K.A.A.A.H.H.;X%X%X%X%X%X$X3X.X.X}.[.}.#XJ                               ",
"                          V m.&X&X&X`.`.`.`.].,.+.+.+.+.@.+.+.+.+.+.>.t.e.e.e.e.U.`.`.`.T.T.T.T._.7.m                           ",
"                        H I D.r.r.e.e.e.e.<.@.+.+.+.+.+.+.+.+.+.+.+.@.@.<.e.e.e.e.e.e.e.t.<.>.>.>.I.D.H                         ",
"                      . L K r ..q.q.q.q.0.+.+.+.+.+.+.+.+.+.+.+.+.+.+.+.+.<.t.e.e.e.e.e.e.w.$.` @.+.Y.^..                       ",
"                    . . 1 v s.g f &.8.8.:.X.X.+.X.X.X.X.X.X.X.X.X.X.X.X.X.X.#.<.q.q.q.q.q.q.&.T ' X.S.G.P =                     ",
"                    o h s.x.v.h.j f | 8.:.' ^ ^ ` ` ` ^ ` ` ` ^ ` ` ` ` ` _ _ ] *.8.0.0.0.8.%.U _ _ ` ,. X%                     ",
"                    . 1 i.k.c.d.h f %.:.:.` ^ X.` ` ` ` ` ` ` ` ` ` ` ` ` ` ` ` o.0.0.0.0.*.^ R _ _ i G  X%                     ",
"                    + I l v p.h f &.8.0.:.^ X.^ ` ` ^ ` ` ` ` ` ` ` ` ` ` ` _ ` ] $.8.0.8.{ U U _ p r l H @                     ",
"                    %  X6.f e R 8.8.0.0.:.^ ^ ^ ` ` ` ` ` ` ` ` ` ` ` ` ` ` ` ` ^ ] 8.0.{ E U U ^ - ( p.. .                     ",
"                    %  XU.&.{ ' o.-.0.0.:.:.^ ^ ` ` ` ` ` ^ ` ` ` ` ` ` ` ` ` ` ^ O.8.8.~ U U U ^ ; u.d.. .                     ",
"                    =  XU.8.$.^ ^ ] -.0.0.0.:.*.@.` ` ` ` ` ` ` ` ` ` _ ` ` ` ` ^ ^ 8.[ R u - - ; g g.j.j X . .                 ",
"                    %  XU.0.=.^ ` ^ ' o.0.8.8.0.8.-.^ ^ ` ` ` ` ` ` ` ` ` ` *.o.` _ E U ; 3 u.k.k.c.b.b.c.k.k.i.g .             ",
"                      6 ).].=.^ ` ` ` ^ ~ ! 8.0.8.8.:.:.:.#._ ` ` ` ` ` ' :.0.;.~ Y U U i e $ < > v l.x.u., < $ #               ",
"                      . Q.'.8.=.' ` ` ` ~ U T ! { 8.8.8.8.8.:.:.<.' ` ` ` ' W T Y Y i T W W Q Q Q ; i.f.#                       ",
"                      . Q.2X&X8.` ` ` ^ ^ U U U T R R R Q R R R Y U U U U U U U U i U _ ` ` _ Y ^ ; u.d..                       ",
"                        . L &X8.8.o.` ` ` ` R U U U U U U i U U U U U U U U U U U Y _ _ _ W Y _ ^ e k x .                       ",
"                        . L %X8.8.$.o.` ` ` ^ Q U U U U U U U U U U U U U U U Q _ _ _ Q Y U ) ` ^ _.L o                         ",
"                            J 1Xq.8.0.=.` ` ` ` ^ Q R R i i U U U U U U U U U U i U U i U W ` [ 1Xm                             ",
"                            m +Xr.w.8.=.' ` ` ` ^ ^ ^ i : ; i U U i U U U i U U Y U U Y _ _ #.r.+Xm                             ",
"                              % XXL.r.q.8.$.o.^ ^ ^ X.@ c j @ Y Y Y Y Y Y T T T Y Y R ^ [ 9.L.XX%                               ",
"                                . m.#X$XU.U.8.%.o.o.o.@ d.u.- o.o.o.] ;.] o.] ] o.{ 5.5.@X#Xm..                                 ",
"                                  . P Q.^.2XY.1.} } } r g.a.r } } }  .%.%.%.%.t.U.Y.<X^.!.P .                                   ",
"                                      . 6 E.Q.J 1 h h p.c.k.u.g h , e p 4.4.4.D.Q.Q.W.6 .                                       ",
"                                          . . g y.d.d.k.b.v.l.d.d.v , q Q.Q.Q.H . . .                                           ",
"                                                . . . g j.d.h . . . . . . . .                                                   ",
"                                                      . d.u..                                                                   ",
"                                                      . u.c .                                                                   ",
"                                                        1 ,                                                                     ",
"                                                                                                                                ",
"                                                                                                                                ",
"                                                                                                                                ",
"                                                                                                                                ",
"                                                                                                                                ",
"                                                                                                                                ",
"                                                                                                                                "
};
