/* XPM */
static char *coll81672316074[] = {
/* columns rows colors chars-per-pixel */
"64 64 208 2 ",
"   c None",
".  c #000000",
"X  c #090306",
"o  c #0C0C00",
"O  c #0C040A",
"+  c #09090A",
"@  c #11060A",
"#  c #131300",
"$  c #1A1A00",
"%  c #120E11",
"&  c #1A0916",
"*  c #1A191C",
"=  c #0F0E10",
"-  c #260B18",
";  c #340515",
":  c #2D0C14",
">  c #242300",
",  c #2B2B00",
"<  c #282700",
"1  c #3B3A00",
"2  c #333200",
"3  c #3B2A0A",
"4  c #150E29",
"5  c #120C23",
"6  c #1F1E22",
"7  c #290C24",
"8  c #281724",
"9  c #35172A",
"0  c #29153B",
"q  c #302930",
"w  c #421F0D",
"e  c #4C1317",
"r  c #47360C",
"t  c #5A0624",
"y  c #4A193B",
"u  c #461936",
"i  c #551F3F",
"p  c #710B2C",
"a  c #482736",
"s  c #54263B",
"d  c #55323E",
"f  c #742230",
"g  c #71292A",
"h  c #4B4A00",
"j  c #474501",
"k  c #5B5A00",
"l  c #535202",
"z  c #594F11",
"x  c #605F00",
"c  c #6D6C00",
"v  c #666500",
"b  c #787600",
"n  c #504E27",
"m  c #474323",
"M  c #3D3B43",
"N  c #3A3742",
"B  c #561D44",
"V  c #5E234A",
"C  c #572244",
"Z  c #6B2B4A",
"A  c #62264C",
"S  c #7B3154",
"D  c #783B58",
"F  c #703452",
"G  c #403069",
"H  c #7F3D63",
"J  c #504D58",
"K  c #4A4751",
"L  c #5E5A68",
"P  c #4F466A",
"I  c #696574",
"U  c #6B6775",
"Y  c #830635",
"T  c #890737",
"R  c #8A0A38",
"E  c #8B0836",
"W  c #940C3A",
"Q  c #9C093C",
"!  c #93073A",
"~  c #93103C",
"^  c #A4083E",
"/  c #A9093F",
"(  c #852636",
")  c #952B3E",
"_  c #807E00",
"`  c #9F1741",
"'  c #AD0940",
"]  c #B00941",
"[  c #B91246",
"{  c #BB1648",
"}  c #AF1D4B",
"|  c #B7264C",
" . c #A42F44",
".. c #8E345C",
"X. c #C50D4A",
"o. c #C11B4B",
"O. c #C7104C",
"+. c #D91053",
"@. c #D91656",
"#. c #C5254E",
"$. c #CB2753",
"%. c #D42B58",
"&. c #CB3254",
"*. c #C93558",
"=. c #DA3559",
"-. c #D93758",
";. c #E23C5D",
":. c #DF2662",
">. c #D33A6D",
",. c #E43A6B",
"<. c #884666",
"1. c #924E6E",
"2. c #9C466C",
"3. c #825873",
"4. c #BD4373",
"5. c #A75777",
"6. c #836A7E",
"7. c #E6415F",
"8. c #DA5273",
"9. c #D3456D",
"0. c #E84360",
"q. c #E94D6E",
"w. c #E7486A",
"e. c #EA577B",
"r. c #E45C79",
"t. c #E74B72",
"y. c #8C8A00",
"u. c #939100",
"i. c #9C9A00",
"p. c #918F00",
"a. c #A09E00",
"s. c #A4A200",
"d. c #ABA800",
"f. c #B5B300",
"g. c #BDBB00",
"h. c #C2BF00",
"j. c #C6C400",
"k. c #CBC900",
"l. c #DCD900",
"z. c #D7D400",
"x. c #E2DF00",
"c. c #EDEA00",
"v. c #E6E400",
"b. c #F2EF00",
"n. c #F8F500",
"m. c #655985",
"M. c #7A7686",
"N. c #736893",
"B. c #6F6884",
"V. c #634BA4",
"C. c #7257B6",
"Z. c #765CB9",
"A. c #6E57AC",
"S. c #7F66BD",
"D. c #7F67C0",
"F. c #90439A",
"G. c #AA5C80",
"H. c #92738C",
"J. c #B66786",
"K. c #A96689",
"L. c #B16AB2",
"P. c #BE69AA",
"I. c #994EA1",
"U. c #DA728F",
"Y. c #C67590",
"T. c #DC6698",
"R. c #E56C89",
"E. c #E47796",
"W. c #C472AE",
"Q. c #8871C4",
"!. c #929292",
"~. c #948EA4",
"^. c #9D97AC",
"/. c #9993A7",
"(. c #9889BF",
"). c #B999B9",
"_. c #B799BC",
"`. c #A69AB1",
"'. c #D58BB5",
"]. c #E29EBE",
"[. c #E195B3",
"{. c #E28AA7",
"}. c #A18ED8",
"|. c #AC9BDB",
" X c #A694D9",
".X c #A899CE",
"XX c #BDB5CF",
"oX c #B2A2DF",
"OX c #B0A9C1",
"+X c #B7A8E1",
"@X c #BEB0E4",
"#X c #C5AAC8",
"$X c #DBAACA",
"%X c #C3B9D9",
"&X c #DEB6D6",
"*X c #E0B0CF",
"=X c #E0A3C0",
"-X c #C5B8E5",
";X c #CBBFEA",
":X c #C5B9E8",
">X c #CC92C3",
",X c #CEC2EB",
"<X c #CFC6E2",
"1X c #D5CAEE",
"2X c #D9CFED",
"3X c #D6C7E7",
"4X c #DCD3F1",
"5X c #D8CFF0",
/* pixels */
"                                                                                                                                ",
"                                                                                                                                ",
"                                                                                                                                ",
"                                              # #                                                                               ",
"                                            . c x .                                                                             ",
"                                            . s.u..                                                                             ",
"                                            < f.s.<                                                                             ",
"                                    > 2 j h s.v.l.s.h j 2 >                                                                     ",
"                                    1 v u.u.j.c.c.j.u.u.v 2 .                                                                   ",
"                                      . . . h j.f.j X q a d d d d d d d a                                                       ",
"                                            . s.p.. . 1.G.J.Y.Y.Y.Y.Y.J.1..                                                     ",
"                                            . b c . . S <.1.2.1.1.J.J.J.1..                                                     ",
"                                              2 > * !.D S S S S S 5.G.G.K.!.6 .                                                 ",
"                                              L B.m.(.<.S S S S S 5.G.5.G.(.m.B.L                                               ",
"                                            . N.|. X.X_.).).).)._.#X#X#X#X X}.|.N..                                             ",
"                                            . G V.A.|.|.oXoXoXoX|.oXoXoX+XoXA.V.G .                                             ",
"                                              5 4 0 V.V.V.V.V.V.V.V.V.V.V.V.0 4 5                                               ",
"                                        . . . . 9 F 4 4 4 4 4 4 4 4 4 4 4 4 F 9 .                                               ",
"                                . . . & i 1.Z - 7 V y <.3.1.<.u 1.C D 1.<.a V 7 .                                               ",
"                            . O <.D i 9 O % & 8 7 + + C A A V B A C V V B + O +             .                                   ",
"                        . a <.Z V - O & u y 0 - X * XX8 O O O O O O O O 8 XX6           . 1 k .                                 ",
"                            . . O O u Z u X .     6 4X|.;XoXC.C.C.:X4X;X|.4X6           . c f..                                 ",
"                              O Z Z V 9 X         6 4X X;X|.C.C.C.:X4X;X X4X6           . c f..                                 ",
"                        X X - S B y & .           q 4X|.,X|.C.C.C.:X4X;X|.5Xq     o # # c j.v.p.$ # # o                         ",
"                      @ y Z A y y &           6 U 4X1XoX,X|.C.C.C.:X4X,X X}.,XU m y.z.l.c.b.n.c.l.l.s.k .                       ",
"                    O s - . @ 9 X         6 6 /.4X,X X1X,X XC.C.C.:X4X4X1X}.}.@X~.8 * . k f.l.b o . . .                         ",
"                    . . . % 7 .     * 8 N 3X4X4X:XoX4X,XQ.C.C.C.C.-X5X4X1X|.}.}.oX1X-XN + v d..                                 ",
"                        . . .     q /.4X4X4X4X4X4X5X:XQ.C.C.C.C.C.-X4X4X4X4X+X|.}.}. X:XN 1 v .                                 ",
"                                K OX4X4X4X4X4X4X1X:X}.D.Z.C.C.C.Q.+X5X4X4X4X4X:X+XoX}.}.P a z N                                 ",
"                              K <X4X4X5X4X4X4X*X'.L.L.L.I.F.F.F.L.L.>X&X*X*X*X*X&X2XoXoX XN.L %XK                               ",
"                          < n H.=X].].].].].'.>.+.+.+.+.+.+.+.+.+.+.:.,.e.e.R.t.R.=X=X=XW.P.W.W.'.6.M                           ",
"                        . l y.@ 8.r.e.e.e.,.+.+.+.+.+.+.+.+.+.+.+.+.+.@.,.e.e.e.e.e.e.e.t.,.:.:.:.T.H.J                         ",
"                      . . c f.+ w.q.q.q.w.+.+.+.+.+.+.+.+.+.+.+.+.+.+.+.+.,.t.e.e.e.e.e.e.t.%.] +.+.W.`..                       ",
"                  . . . 2 i.k.j f f f ) ;.O.X.X.X.X.X.X.X.X.X.X.X.X.X.X.X.X.*.,.q.q.q.q.q.q.*.T [ X.J.J.I =                     ",
"                , k u.u.g.v.b.k.u.p.c z p ' / ] ] ] ] ] ] ] ] ] ] ] ] ] ] ] ] { =.7.0.0.7.7.&.T ] ] ] >.XX=                     ",
"                > j c c s.l.c.g.c c k r ( ] ] ] ] ] ' ] ] ] ] ] ] ] ] ] ] ] ] ] o.0.0.0.7.-.` T ] ] p D XX%                     ",
"                  . + U n u.k.j ( ( (  .;.[ ] ] ] ] ] ] ] ] ] ] ] ] ] ] ] ] ] ] [ $.7.0.0.| Y Y ] p r z J O                     ",
"                    % XXC c f.+ -.7.0.7.;.] ] ] ] ] ] ] ] ] ] ] ' ] ] ] ] ] ] ] ] [ 7.7.| W Y T ' ; _ i.. X                     ",
"                    = XXK h _ o } -.0.0.0.=.[ ] ] ] ] ] ] ] ] ] ] ] ] ] ] ] ] ] ] [ 0.0.` Y p T ' ; p.f.. .                     ",
"                    = XX5.g w Y / { -.0.0.;.=.=.o.] / ] ] ] ] ] ] ] ] ] ] ] ] ] ] [ ;.} T t : - - h h.z.k X . .                 ",
"                    % XXR.;.#./ / / X.o.;.7.7.7.7.-.] ' ] ] ] ] ] ] ] ] ] ] %.o.] ' R Y ; r p.l.l.c.n.n.c.l.l.i.h .             ",
"                      8 ^.{.=./ ] ] / / ^ ~ 7.7.0.0.=.;.;.$.] ] ] ] ] ] ] ,.0.#.' Y Y Y p ; $ > < b z.v.y., < $ #               ",
"                      . ^.[.7.=.[ [ / / ^ Y ~ ~ | 0.0.0.7.7.;.-.;.[ ' ] ' ] ` ` Y Y Y Y ! ' ! ' W ; i.g.#                       ",
"                      . ^.2X=X7.] / / X.^ Y Y Y Y T T T T T T R T Y Y Y ` p p Y Y Y Y ' ' ' ' Y / ; u.f..                       ",
"                        . L $X0.0.O./ / / [ ! Y Y Y Y Y T T Y Y Y Y Y Y Y Y Y Y T T ] ' ' ` T ] / e l v .                       ",
"                        . L *Xw.0.=.O./ / / / ! Y Y Y Y Y p Y Y Y Y Y Y Y Y p ' ' ' ' ! T p ! ] / '.L o                         ",
"                            M 5Xw.0.0.;./ / / / Q T T Y Y Y Y Y Y Y p Y Y Y p Y p Y Y Y T ' ' { 3XM                             ",
"                            m #Xr.0.;.;.X./ X./ ] ] ] T T T Y Y Y Y T Y Y Y T Y Y Y Y T ' ] | R.#XM                             ",
"                              = OXU.r.q.7.%.{ [ / / / ] ^ ^ / E T T T T T T T T T Y R ' } >.U.OX=                               ",
"                                . M.%X*XR.R.0.$.o.o.o.E w e E o.o.o.o.o.o.o.o.o.o.| 4.4.$X%XM..                                 ",
"                                  . I ^.`.2X{.R.8.&. .w y.b r  .&.&.$.$.&.&.&.8.R.E.2X`.^.I .                                   ",
"                                      . 6 ~././.U t , s.v.l.p., t ..2.2.2.2.2.H.^.^.~.6 .                                       ",
"                                          . . . . # c k.n.b.j.v . M.^.^.^.^.^.J . . .                                           ",
"                                                  . . h d.i.j . . . . . . . .                                                   ",
"                                                        j 1                                                                     ",
"                                                                                                                                ",
"                                                                                                                                ",
"                                                                                                                                ",
"                                                                                                                                ",
"                                                                                                                                ",
"                                                                                                                                ",
"                                                                                                                                ",
"                                                                                                                                ",
"                                                                                                                                "
};
