/* XPM */
static char *coll91672316074[] = {
/* columns rows colors chars-per-pixel */
"64 64 205 2 ",
"   c None",
".  c #000000",
"X  c #0A0A00",
"o  c #0B050A",
"O  c #0B0609",
"+  c #11060B",
"@  c #15060A",
"#  c #131300",
"$  c #1D1A01",
"%  c #0B0715",
"&  c #0F0E11",
"*  c #120E11",
"=  c #1A0816",
"-  c #17161A",
";  c #2B0A10",
":  c #242300",
">  c #2D2C00",
",  c #282700",
"<  c #393800",
"1  c #372A08",
"2  c #140D26",
"3  c #1F1E22",
"4  c #2C0D26",
"5  c #2B1121",
"6  c #2D1538",
"7  c gray13",
"8  c #3E222F",
"9  c #2C2A31",
"0  c #36343B",
"q  c #4B1715",
"w  c #4A370F",
"e  c #4A193B",
"r  c #451639",
"t  c #531D3F",
"y  c #4C1027",
"u  c #671C2A",
"i  c #6F062C",
"p  c #492836",
"a  c #54263B",
"s  c #55323E",
"d  c #6F262B",
"f  c #4C4B00",
"g  c #464500",
"h  c #5C5A00",
"j  c #535200",
"k  c #59510E",
"l  c #605C02",
"z  c #6D6C00",
"x  c #656400",
"c  c #757300",
"v  c #7D7B00",
"b  c #706F00",
"n  c #4B4829",
"m  c #3D3B43",
"M  c #3A3742",
"N  c #561D43",
"B  c #5A2347",
"V  c #67284B",
"C  c #7B3154",
"Z  c #783A58",
"A  c #703251",
"S  c #40306A",
"D  c #7D3B62",
"F  c #4E4B56",
"G  c #5B5864",
"H  c #4F466A",
"J  c #7E4561",
"K  c #666270",
"L  c #6A6575",
"P  c #706B74",
"I  c #820635",
"U  c #880637",
"Y  c #8F0738",
"T  c #8A0937",
"R  c #930739",
"E  c #9C093B",
"W  c #930C3B",
"Q  c #93103C",
"!  c #A3083E",
"~  c #AA093F",
"^  c #8A2539",
"/  c #807F00",
"(  c #9E1741",
")  c #AD0940",
"_  c #B00941",
"`  c #BD0C47",
"'  c #B91245",
"]  c #BB1849",
"[  c #AE1C4A",
"{  c #8F2C47",
"}  c #B6254B",
"|  c #A63045",
" . c #B82D52",
".. c #B83265",
"X. c #C20C49",
"o. c #C21B4B",
"O. c #C4104A",
"+. c #D91053",
"@. c #D91656",
"#. c #CA2652",
"$. c #D42D58",
"%. c #CC3254",
"&. c #C73557",
"*. c #DA3559",
"=. c #D93959",
"-. c #C4274E",
";. c #E23D5D",
":. c #DF2662",
">. c #D23B6D",
",. c #E3396B",
"<. c #894767",
"1. c #924E6D",
"2. c #9C476C",
"3. c #BD4373",
"4. c #A05377",
"5. c #836A7F",
"6. c #E6415F",
"7. c #D45071",
"8. c #E84360",
"9. c #E94C6D",
"0. c #E74769",
"q. c #EA577B",
"w. c #E45B78",
"e. c #E74974",
"r. c #E6607E",
"t. c #888700",
"y. c #939100",
"u. c #9A9800",
"i. c #A09E00",
"p. c #A7A500",
"a. c #B5B300",
"s. c #BDBB00",
"d. c #B9B700",
"f. c #B1AE00",
"g. c #C4C100",
"h. c #CDCB00",
"j. c #C9C700",
"k. c #DCD900",
"l. c #D9D600",
"z. c #EDEA00",
"x. c #E6E300",
"c. c #F2EF00",
"v. c #F9F600",
"b. c #7D7889",
"n. c #6D6091",
"m. c #786F92",
"M. c #634BA4",
"N. c #6C53AB",
"B. c #7257B6",
"V. c #765CB9",
"C. c #7D69B0",
"Z. c #695F84",
"A. c #9E398C",
"S. c #AA5C80",
"D. c #B9589F",
"F. c #A64291",
"G. c #92728C",
"H. c #A96488",
"J. c #B66786",
"K. c #8B7AB7",
"L. c #BE69AA",
"P. c #C67590",
"I. c #D26F90",
"U. c #E56C89",
"Y. c #E47796",
"T. c #C771AB",
"R. c #846CC2",
"E. c #929292",
"W. c #878194",
"Q. c #958FA3",
"!. c #9D97AC",
"~. c #9993A7",
"^. c #AC97B0",
"/. c #D886B3",
"(. c #CD99BC",
"). c #DB8EB4",
"_. c #E29EBE",
"`. c #E195B3",
"'. c #E28AA7",
"]. c #A08FCE",
"[. c #A18ED8",
"{. c #AB9ADB",
"}. c #A694D9",
"|. c #B09FDE",
" X c #A293C8",
".X c #BDB5CF",
"XX c #B2A2DF",
"oX c #B6A9D7",
"OX c #BAACCE",
"+X c #B9ABE2",
"@X c #BEB0E4",
"#X c #DB9DC5",
"$X c #C0A5C4",
"%X c #C4AECA",
"&X c #DBAACA",
"*X c #C6B5D5",
"=X c #D4B3D2",
"-X c #C5B8E6",
";X c #CBBFEA",
":X c #C3B6E5",
">X c #E0B1D0",
",X c #CDC2E9",
"<X c #D5CBEE",
"1X c #D6CAE9",
"2X c #DCD3F1",
/* pixels */
"                                                                                                                                ",
"                                                                                                                                ",
"                                                                                                                                ",
"                                                                                                                                ",
"                                                                                                                                ",
"                                                                                                                                ",
"                                              : :                                                                               ",
"                                            , / c ,                                                                             ",
"                                        # < f.x.x.f.g #                                                                         ",
"                                        # j g.z.x.s.j X .                                                                       ",
"                                          . f u.u.g . 8 p s s s s s s s p                                                       ",
"                                              < > . . 1.4.J.P.P.P.P.P.J.1..                                                     ",
"                                                    . Z <.2.2.2.4.4.J.J.1..                                                     ",
"                                                . 7 E.J C C C C { 4.S.S.H.E.7 .                                                 ",
"                                            . L G.n.K.D C C C C Z 4.S.4.H.K.n.m.L .                                             ",
"                                            . n.{.].|.OX$X$XOXOXOX=X=X*X*XoX[.{.m..                                             ",
"                                            . S M.N.XXXXXXXX|.XXXXXXXXXXXX|.B.M.S .                                             ",
"                                              2 2 6 M.M.M.M.M.M.M.M.M.M.M.M.6 2 2                                               ",
"                                        . . . . 8 J % % % % % % % % % % % % J 8 .                                               ",
"                                . . . = B 1.V 5 5 B r <.1.1.J N 1.B Z 1.<.r B 5 .                                               ",
"                            . @ <.C t 8 O * @ 4 5 o o N B V B N B B B V N o o O             .                                   ",
"                        . p 1.V e @ . = e N 6 = . 3 2X9 & & o O % & & & 9 2X3           . g z .                                 ",
"                            O O O . r V e + o     3 2X].@X XN.N.N.oX,X.X].2X3           . z f..                                 ",
"                              @ A C N 4 .         3 2X{.,X{.B.B.B.@X2X,X{.2X3           X c d.X                                 ",
"                        @ + 5 A N r = .         - m 2X{.;X{.B.B.B.-X2X,X}.<XM 3   $ : : v j.x.u.> : $ #                         ",
"                      + a V V t e @           7 P 2X<XXX,XXXB.B.B.-X2X,X{.[.,XL w t.k.k.z.c.v.c.k.l.p.h .                       ",
"                    O a = . * 4 .         5 3 ~.2X,X{.<X,X}.B.B.B.-X2X2X<X[.[.+XQ.3 3 O h a.l.c X . . .                         ",
"                    . . . = = .     0 S F 1X2X2X;X+X2X@XR.B.B.B.B.-X2X2X2XXX[.[.|.,X@XF & z a..                                 ",
"                        . . .     0 ~.2X2X2X2X2X2X2X,XR.B.B.B.B.B.-X2X2X2X2X+X[.[.[.}.-XM h p..                                 ",
"                                0 OX2X2X2X2X2X2X<X@X[.R.B.B.B.B.K.@X2X2X2X2X2X@XXXXX[.[.H n k m                                 ",
"                            9 L 1X2X2X2X2X2X2X&XT.D.D.D.F.A.A.A.D.D.T._._._.&X_.>X<X+X+X{.C.Z.oXK 9                             ",
"                          , n G._._._._._._./.>.+.+.+.+.+.+.+.+.+.+.:.e.q.q.q.q.Y._._._.T.L.L.T.).5.m                           ",
"                        . j t.o w.q.q.q.9.;.+.+.+.+.+.+.+.+.+.+.+.+.+.@.,.U.e.q.q.q.q.q.e.,.:.:.:.I.G.F                         ",
"                      . . z a.& 6.9.9.9.8.+.+.+.+.+.+.+.+.+.+.+.+.+.+.+.@.,.e.q.q.q.q.q.q.e.:._ @.+.T.!..                       ",
"                  . . . < u.h.j u u u ^ ;.+.X.X.X.X.X.X.X.X.X.X.` X.X.X.X.X.#.,.9.9.9.9.9.9.=.I ` X.>.J.b.&                     ",
"                , h y.y.g.x.c.h.y.y.c w u ~ ` ~ ~ ` ~ ~ ` ~ ~ ~ ) ) _ _ _ _ ) O.*.8.8.8.6.6.%.I ) _ _ 3..X&                     ",
"                : g z z p.k.z.d.b b j w ^ ~ ~ ~ ~ ~ ` ~ ~ ~ ` ` _ ) _ _ _ _ _ _ o.6.6.8.6.$.( I ) _ ) 3..X&                     ",
"                    & W.n / g.> { | |  .;.` ~ ` ` ~ ` ~ ` ~ ~ ~ _ ) ) _ _ _ _ _ _ #.6.8.8. .I T ) _ ) 3..X*                     ",
"                    & .Xm z a.@ =.6.6.6.;.~ ~ ` ` ~ ~ ~ ` ~ ~ ~ _ _ _ _ _ _ _ _ _ ' 8.8.} Q I I ) _ i A .X&                     ",
"                    & .XB f / X } 6.8.8.;.*.` ~ ~ ~ ` ~ ~ ~ ` ` _ ) _ _ _ _ _ _ _ ' 8.6.( I I I ) y w l M .                     ",
"                    & .XI.d q R ~ ~ *.;.8.8.;.;.#.~ ~ ~ ~ ` ~ ~ _ _ _ _ _ ~ _ _ _ ' ;.( U I T E ; h s.h.x X                     ",
"                    & .XU.=.-.~ ~ ~ ~ #.8.8.8.;.6.*.` ~ ~ ~ ~ ` _ _ _ _ _ _ *.o._ ~ W U I I i @ b h.v.v.k.t.#                   ",
"                      3 ^.'.*.~ ~ ~ ~ ~ E Q ;.8.6.6.;.=.;.$.~ ~ _ _ ) _ ' ;.,.#.! U I I I R ) T $ c l.x.y.$                     ",
"                      . ~.`.6.;.o.~ ` ~ ! U Y R } 6.6.6.;.8.;.;.;.` _ _ _ _ W Y I I I I E ) ) ) ~ ; h c X                       ",
"                      . E.1X&X6.X.~ ~ ~ ~ Y I I I I I I I I I I I I I I I I I i I I U ~ _ _ ) I _ #XG . .                       ",
"                        & K &X6.6.o.X.~ ~ ~ U I I I I I I I I I I I U U I I I I I U ) _ _ E W ) _ (.G .                         ",
"                        . G (.w.6.*.@.~ ~ ~ ~ E U I I I I I I I I I I i I I I R ! ~ ! U I I R _ ] ^.G .                         ",
"                            s 1X9.6.;.;.~ ' ~ ~ E T I I I I I I I I I I I I I I I I I I U E _ ] 1Xm                             ",
"                            m OXr.0.6.=.' ~ ~ ~ ~ ~ ~ E i i Y I I I I I I I I I I I I I ) ' -.r.%XB                             ",
"                              & ~.P.U.r.6.*.o.' ` ~ ~ U q q I Y Y Y Y R Y R T W Y T W ! ..7.P.Q.*                               ",
"                                . b.*X>XU.U.0.%.o.X.o.@ v x ; o.o.] o.] o.] ] ] o.} 3.3.=X.Xb..                                 ",
"                                  . K !.^.2XY.U.7.| | w g.u.w | | &.%.%.%.%.%.w.U.Y.2X X!.K .                                   ",
"                                      . 3 Q.!.!.G < g p.x.k.u.g , y { 2.2.2.2.G.!.!.Q.5 X                                       ",
"                                          . . . > h y.j.c.z.g.y.j # S b.b.b.G.m . . .                                           ",
"                                                  . . f h.a.f . . . . . . . .                                                   ",
"                                                      . y.c .                                                                   ",
"                                                        < >                                                                     ",
"                                                                                                                                ",
"                                                                                                                                ",
"                                                                                                                                ",
"                                                                                                                                ",
"                                                                                                                                ",
"                                                                                                                                ",
"                                                                                                                                "
};
