/* XPM */
static char *result[] = {
/* columns rows colors chars-per-pixel */
"64 64 177 2 ",
"   c #1B1616",
".  c #1E1919",
"X  c #231D1D",
"o  c #262121",
"O  c #2A2525",
"+  c #2E2828",
"@  c #342E2E",
"#  c #262B39",
"$  c #322F31",
"%  c #363132",
"&  c #393333",
"*  c #4B211F",
"=  c #482927",
"-  c #522522",
";  c #562926",
":  c #592C29",
">  c #5E2E22",
",  c #5F322F",
"<  c #433A38",
"1  c #5B3537",
"2  c #60352F",
"3  c #623533",
"4  c #653936",
"5  c #6B3E3C",
"6  c #673A38",
"7  c #57463C",
"8  c #6B443F",
"9  c #714239",
"0  c #242D41",
"q  c #243654",
"w  c #313F58",
"e  c #423952",
"r  c #2C4368",
"t  c #3D446A",
"y  c #3C4C7A",
"u  c #4B4646",
"i  c #585354",
"p  c #6A4942",
"a  c #734944",
"s  c #675145",
"d  c #64554E",
"f  c #6C5649",
"g  c #7E574D",
"h  c #715B4E",
"j  c #675850",
"k  c #675B58",
"l  c #725D50",
"z  c #766154",
"x  c #78665B",
"c  c #79635A",
"v  c #50586E",
"b  c #585A6D",
"n  c #4A5C7E",
"m  c #46597D",
"M  c #5C5F71",
"N  c #64636E",
"B  c #7B6C6B",
"V  c #766865",
"C  c #7F716E",
"Z  c #6E6A74",
"A  c #636877",
"S  c #7D6E77",
"D  c #6B707F",
"F  c #767077",
"G  c #816C5F",
"H  c #9D725B",
"J  c #AB7440",
"K  c #B47C41",
"L  c #AC7458",
"P  c #826D60",
"I  c #926E64",
"U  c #897467",
"Y  c #83736D",
"T  c #8A7669",
"R  c #8E796D",
"E  c #867063",
"W  c #907B6E",
"Q  c #9B7164",
"!  c #867571",
"~  c #8B7C73",
"^  c #937E72",
"/  c #9D7B71",
"(  c #968275",
")  c #988376",
"_  c #98867D",
"`  c #A99776",
"'  c #E7A94D",
"]  c #F9B953",
"[  c #CA8765",
"{  c #C8937D",
"}  c #D09779",
"|  c #CBA668",
" . c #DEB167",
".. c #3E5B8A",
"X. c #32518C",
"o. c #2C5A9F",
"O. c #2B5799",
"+. c #325E9F",
"@. c #395E97",
"#. c #3D6098",
"$. c #2E5EA5",
"%. c #2A5FAB",
"&. c #305EA2",
"*. c #2F61AA",
"=. c #3665AA",
"-. c #3966A8",
";. c #425A84",
":. c #405C8A",
">. c #476C9F",
",. c #52719F",
"<. c #6D778B",
"1. c #446CA5",
"2. c #406AA8",
"3. c #527EB6",
"4. c #79808B",
"5. c #7F8A9F",
"6. c #6A82A4",
"7. c #7386A2",
"8. c #7A8AA2",
"9. c #6C90BA",
"0. c #568DCD",
"q. c #4D92DD",
"w. c #5C98D6",
"e. c #5497DB",
"r. c #5792D6",
"t. c #679BD1",
"y. c #4794E3",
"u. c #4994E2",
"i. c #559AE0",
"p. c #808086",
"a. c #8E8E8E",
"s. c #8E8689",
"d. c #968A83",
"f. c #988C87",
"g. c #8C909C",
"h. c #999695",
"j. c #969A9E",
"k. c #9C9C9C",
"l. c #9A9697",
"z. c #B98F88",
"x. c #B99D8B",
"c. c #B79887",
"v. c #AD9F96",
"b. c #BCA48F",
"n. c #BBA59A",
"m. c #818BA0",
"M. c #8194AE",
"N. c #9DA5AE",
"B. c #A8A7A9",
"V. c #A7A9AC",
"C. c #B1ADB0",
"Z. c #CA9786",
"A. c #C6A38B",
"S. c #C5AC94",
"D. c #C4AD98",
"F. c #C8A892",
"G. c #CCB39C",
"H. c #C6B09C",
"J. c #E6BA9E",
"K. c #C4B6AB",
"L. c #CEB5A5",
"P. c #D2BAA3",
"I. c #D3BFAD",
"U. c #D7C2AE",
"Y. c #DBC9B9",
"T. c #F4CEAF",
"R. c #E7CEB6",
"E. c #E7D3BF",
"W. c #F5D1B2",
"Q. c #FBD8B8",
"!. c #8AA6C4",
"~. c #84ABD4",
"^. c #C4C3C3",
"/. c #DDCFC1",
"(. c #EAD6C3",
"). c #E7D4C3",
"_. c None",
/* pixels */
"_._._._._._._._._._._._._._._._._._._._._._._._._._._._._._._._._._._._._._._._._._._._._._._._._._._._._._._._._._._._._._._._.",
"_._._._._._._._._._._._._._._._._._._._._._._._._._._._._._._._._._._._._._._._._._._._._._._._._._._._._._._._._._._._._._._._.",
"_._._._._._._._._._._._._._._._._._._._._._._._._._._._._._._._._._._._._._._._._._._._._._._._._._._._._._._._._._._._._._._._.",
"_._._._._._._._._._._._._._._._._._._._._._._._._._._._._._._._._._._._._._._._._._._._._._._._._._._._._._._._._._._._._._._._.",
"_._._._._._._._._._._._._._._._._._._._._._._._._._._._._._._._._._._._._._._._._._._._._._._._._._._._._._._._._._._._._._._._.",
"_._._._._._._._._._._._._._._._._._._._._._._._._._._._._._._._._._._._._._._._._._._._._._._._._._._._._._._._._._._._._._._._.",
"_._._._._._._._._._._._._._._._._._._._._._._._._._._._._._._._._._._._._._._._._._._._._._._._._._._._._._._._._._._._._._._._.",
"_._._._._._._._._._._._._._._._._._._._._._._._._._._._._._._._._._._._._._._._._._._._._._._._._._._._._._._._._._._._._._._._.",
"_._._._._._._._._._._._._._._._._._._._._._._._._._._._._._._._._._._._._._._._._._._._._._._._._._._._._._._._._._._._._._._._.",
"_._._._._._._._._._._._._._._._._._._._._._._._._._._._._._._._._._._._._._._._._._._._._._._._._._._._._._._._._._._._._._._._.",
"_._._._._._._._._._._._._._._._._._._._._._._._._._._._._._._._._._._._._._._._._._._._._._._._._._._._._._._._._._._._._._._._.",
"_._._._._._._._._._._._._._._._._._._._._._._._._._._._._._._._._._._._._._._._._._._._._._._._._._._._._._._._._._._._._._._._.",
"_._._._._._._._._._._._._._._._._._._._._._._._._._._._._._._._._._._._._._._._._._._._._._._._._._._._._._._._._._._._._._._._.",
"_._._._._._._._._._._._._._._._._._._._._._._._._._._._._._._._._._._._._._._._._._._._._._._._._._._._._._._._._._._._._._._._.",
"_._._._._._._._._._._._._._._._._._._._._._._._._._._._._._._._._._._._._._._._._._._._._._._._._._._._._._._._._._._._._._._._.",
"_._._._._._._._._._._._._._._._._._._._._._._._._._._._._._._._._._._._._._._._._._._._._._._._._._._._._._._._._._._._._._._._.",
"_._._._._._._._._._._._._._._._._._._._._._._._._._._._.B B B B _._._._._._._._._._._._._._._._._._._._._._._._._._._._._._._._.",
"_._._._._._._._._._._._._._._._._._._._._._._._._._._.B B B B Y B B _._._._._._._._._._._._._._._._._._._._._._._._._._._._._._.",
"_._._._._._._._._._._._._._._._._._._._._._._._._._.Q B B B ! ) Y B _._._._._._._._._._._._._._._._._._._._._._._._._._._._._._.",
"_._._._._._._._._._._._._._._._._._._._._._._._._.B B B C ^ f.G.R ! _._._._._._._._._._._._._._._._._._._._._._._._._._._._._._.",
"_._._._._._._._._._._._._._._._._._._._._._._._._.B B B ! z.G.Q.R._._._._._._._._._._._._._._._._._._._._._._._._._._._._._._._.",
"_._._._._._._._._._._._._._._._._._._._._._._._._.B B _.B { T.Q.T._._._._._._._._._._._._._._._._._._._._._._._._._._._._._._._.",
"_._._._._._._._._._._._._._._._._._._._._._._._._._.C Z l.Z.J.T._._._._._._._._._._._._._._._._._._._._._._._._._._._._._._._._.",
"_._._._._._._._._._._._._._._._._._._._._._._._._._.<.F 9.C.F.n._._._._._._._._._._._._._._._._._._._._._._._._._._._._._._._._.",
"_._._._._._._._._._._._._._._._._._._._._._._._.y.y.u.q.y.r.Z.Z.0._._._._._._._._._._._._._._._._._._._._._._._._._._._._._._._.",
"_._._._._._._._._._._._._._._._._._._._._._._.y.y.y.y.y.y.e.z.{ e.y._._._._._._._._._._._._._._._._._._._._._._._._._._._._._._.",
"_._._._._._._._._._._._._._._._._._._._._._.w.u.y.y.y.y.y.e.^.K.u.y.y.y._._._._._._._._._._._._._._._._._._._._._._._._._._._._.",
"_._._._._._._._._._._._._._._._._._._._._._.C.t.y.y.y.y.y.~./.U.w.u.y.y._._._._._._._._._._._._._._._._._._._._._._._._._._._._.",
"_._._._._._._._._._._._._._._._._._._._._.(.R.K.e.y.y.y.!./.E.H.V.w.y.q.^._._._._._._._._._._._._._._._._._._._._._._._._._._._.",
"_._._._._._._._._._._._._._._._._._._._.L.P.L.D.3.0.t.!./.(.U.b.5.M.N.V.Y./ _._._._._._._._._._._._._._._._._._._._._._._._._._.",
"_._._._._._._._._._._._._._._._._._._.; a I b.7.%.5.S.G.(.(.S.b.-._.A.x.g 6 _._._._._._._._._._._._._._._._._._._._._._._._._._.",
"_._._._._._._._._._._._._._._._._._._.: 8 a S -.%.g.S.S.).(.D.v.*._._.2 ; ; - _._._._._._._._._._._._._._._._._._._._._._._._._.",
"_._._._._._._._._._._._._._._._._._._.- * 1 y %.1.v.S.F.G.G.H.K.%._._._.; - ; _._._._._._._._._._._._._._._._._._._._._._._._._.",
"_._._._._._._._._._._._._._._._._._.- - - t %.%.-.s.c.b.S.b.} [ #._._._._.; , ; _._._._._._._._._._._._._._._._._._._._._._._._.",
"_._._._._._._._._._._._._._._._._._.; : w O.%.%.*.v 8 8 c g L H C _._._._._.: ; 4 _._._._._._._._._._._._._._._._._._._._._._._.",
"_._._._._._._._._._._._._._._._.& _.- 2 X.$.%.%.#.Z ( W R U R T ) ) _._._._.; 3 5 6 _._._._._._._._._._._._._._._._._._._._._._.",
"_._._._._._._._._._._._._._._._.= - - > 4.*.*.%...C ( ( ( ( T ( ) ) ) _._._.6 3 3 2 _._._._._._._._._._._._._._._._._._._._._._.",
"_._._._._._._._._._._._._._._._.= ; 9 K | >.*.%.m T R ( ( ( R U R ) ) ) _._._._.4 : _._._._._._._._._._._._._._._._._._._._._._.",
"_._._._._._._._._._._._._._._._._.; J ] a.=.*.*.M T ( ( ) ( A d h E ) ) ) _._._._._._._._._._._._._._._._._._._._._._._._._._._.",
"_._._._._._._._._._._._._._._._._._.'  .j.6.*.*.M R ( ( R N &.y s f G ) ) ) _._._._._._._._._._._._._._._._._._._._._._._._._._.",
"_._._._._._._._._._._._._._._._._._.` 1.7.j.7.-.M T ) ) z :.%.%.;.s h R ) ) _._._._._._._._._._._._._._._._._._._._._._._._._._.",
"_._._._._._._._._._._._._._._._._._.*.%.=.6.j.8.N T ) ) C #.%.%.O.7 f z W ) _._._._._._._._._._._._._._._._._._._._._._._._._._.",
"_._._._._._._._._._._._._._._._._._.%.%.%.*.6.j.a._ ) ( A o.*.*.w & x W ^ ) _._._._._._._._._._._._._._._._._._._._._._._._._._.",
"_._._._._._._._._._._._._._._._._._.%.%.%.%.=.6.k.k._ ( n *.*.%.# & d U G _._._._._._._._._._._._._._._._._._._._._._._._._._._.",
"_._._._._._._._._._._._._._._._._.%.%.%.%.%.%.%.4.k.k.R ..%.$.q   X @ @ _._._._._._._._._._._._._._._._._._._._._._._._._._._._.",
"_._._._._._._._._._._._._._._._._.%.%.%.%.%.%.%.x d.k.h.,.%.r % o   X _._._._._._._._._._._._._._._._._._._._._._._._._._._._._.",
"_._._._._._._._._._._._._._._._._.%.%.%.%.%.%.+.x ) _ h.j.<.% % @ _._._._._._._._._._._._._._._._._._._._._._._._._._._._._._._.",
"_._._._._._._._._._._._._._._._.%.%.%.%.%.*.%.;.R ) T D <.s.i @ _._._._._._._._._._._._._._._._._._._._._._._._._._._._._._._._.",
"_._._._._._._._._._._._._._._._.%.%.%.%.%.%.$.v h W V :.# $ u i _._._._._._._._._._._._._._._._._._._._._._._._._._._._._._._._.",
"_._._._._._._._._._._._._._._._.%.%.%.%.%.%.@.k z T h _._.+ % _._._._._._._._._._._._._._._._._._._._._._._._._._._._._._._._._.",
"_._._._._._._._._._._._._._._._.%.%.%.%.%.%.r < j x s _._.o & & _._._._._._._._._._._._._._._._._._._._._._._._._._._._._._._._.",
"_._._._._._._._._._._._._._._._.%.%._._._._.0 O % @ X _._._.@ & _._._._._._._._._._._._._._._._._._._._._._._._._._._._._._._._.",
"_._._._._._._._._._._._._._._._.%._._._._._._.@ o   _._._._._._._._._._._._._._._._._._._._._._._._._._._._._._._._._._._._._._.",
"_._._._._._._._._._._._._._._._._._._._._._._.& + _._._._._._._._._._._._._._._._._._._._._._._._._._._._._._._._._._._._._._._.",
"_._._._._._._._._._._._._._._._._._._._._._.O & o _._._._._._._._._._._._._._._._._._._._._._._._._._._._._._._._._._._._._._._.",
"_._._._._._._._._._._._._._._._._._._._._._.o % _._._._._._._._._._._._._._._._._._._._._._._._._._._._._._._._._._._._._._._._.",
"_._._._._._._._._._._._._._._._._._._._._._.& % X _._._._._._._._._._._._._._._._._._._._._._._._._._._._._._._._._._._._._._._.",
"_._._._._._._._._._._._._._._._._._._._._.X % & o _._._._._._._._._._._._._._._._._._._._._._._._._._._._._._._._._._._._._._._.",
"_._._._._._._._._._._._._._._._._._._._._._.O @ X . _._._._._._._._._._._._._._._._._._._._._._._._._._._._._._._._._._._._._._.",
"_._._._._._._._._._._._._._._._._._._._._._._.+ @ @ % _._._._._._._._._._._._._._._._._._._._._._._._._._._._._._._._._._._._._.",
"_._._._._._._._._._._._._._._._._._._._._._._._.O + o _._._._._._._._._._._._._._._._._._._._._._._._._._._._._._._._._._._._._.",
"_._._._._._._._._._._._._._._._._._._._._._._._._._._._._._._._._._._._._._._._._._._._._._._._._._._._._._._._._._._._._._._._.",
"_._._._._._._._._._._._._._._._._._._._._._._._._._._._._._._._._._._._._._._._._._._._._._._._._._._._._._._._._._._._._._._._.",
"_._._._._._._._._._._._._._._._._._._._._._._._._._._._._._._._._._._._._._._._._._._._._._._._._._._._._._._._._._._._._._._._."
};
