/* XPM */
static char *result[] = {
/* columns rows colors chars-per-pixel */
"64 64 129 2 ",
"   c #1F2121",
".  c #1D2324",
"X  c #1D2425",
"o  c #202020",
"O  c gray13",
"+  c #212122",
"@  c #222222",
"#  c #222223",
"$  c #202224",
"%  c #212324",
"&  c #222324",
"*  c #232324",
"=  c #232325",
"-  c #232425",
";  c #242425",
":  c #242426",
">  c #252527",
",  c #252528",
"<  c #262628",
"1  c #262629",
"2  c #27272A",
"3  c #27282B",
"4  c #21282D",
"5  c #21292F",
"6  c #22282E",
"7  c #28282C",
"8  c #28292C",
"9  c #29292D",
"0  c #2A2A2E",
"q  c #292C2C",
"w  c #222A31",
"e  c #2B2B30",
"r  c #2B2C31",
"t  c #2C2C31",
"y  c #2C2C32",
"u  c #2C2D32",
"i  c #2D2D33",
"p  c #2D2E33",
"a  c #2F2F35",
"s  c #2F2F36",
"d  c #2F3036",
"f  c #2F3037",
"g  c #2E3535",
"h  c #303037",
"j  c #353535",
"k  c #303138",
"l  c #313139",
"z  c #313239",
"x  c #33333B",
"c  c #33343C",
"v  c #34343D",
"b  c #35353E",
"n  c #35363E",
"m  c #35363F",
"M  c #313838",
"N  c #353B3B",
"B  c #383F3F",
"V  c #363740",
"C  c #363741",
"Z  c #373741",
"A  c #383843",
"S  c #383944",
"D  c #393944",
"F  c #393A45",
"G  c #3A3A46",
"H  c #3A3B46",
"J  c #3A3B47",
"K  c #3B3B47",
"L  c #3C3C48",
"P  c #3C3C49",
"I  c #3C3D49",
"U  c #3C3D4A",
"Y  c #3D3D4A",
"T  c #3D3E4A",
"R  c #3D3E4B",
"E  c #3E3E4B",
"W  c #3E3E4C",
"Q  c #3F404E",
"!  c #434445",
"~  c #40414F",
"^  c #4A4B4B",
"/  c #414150",
"(  c #414250",
")  c #414251",
"_  c #424251",
"`  c #424352",
"'  c #434353",
"]  c #434453",
"[  c #444555",
"{  c #454656",
"}  c #464757",
"|  c #474859",
" . c #48485A",
".. c #48495A",
"X. c #48495B",
"o. c #4A4A5D",
"O. c #4A4B5D",
"+. c #4A4B5E",
"@. c #4B4B5E",
"#. c #4B4C5F",
"$. c #515151",
"%. c #585858",
"&. c #4C4D60",
"*. c #4D4E62",
"=. c #4E4E63",
"-. c #4E4F63",
";. c #4E4F64",
":. c #4F5064",
">. c #4F5065",
",. c #505166",
"<. c #505167",
"1. c #515267",
"2. c #515268",
"3. c #525368",
"4. c #525369",
"5. c #53546A",
"6. c #54556B",
"7. c #54556C",
"8. c #696A6A",
"9. c #747474",
"0. c #9A9EA1",
"q. c #ACB0B3",
"w. c #B2B5B7",
"e. c #CBCBCB",
"r. c #C8CACC",
"t. c #E3E4E4",
"y. c #E4E4E4",
"u. c white",
"i. c None",
/* pixels */
"i.i.i.i.i.i.i.i.i.i.i.i.i.i.i.i.i.i.i.i.i.i.i.i.i.i.i.i.i.i.i.i.i.i.i.i.i.i.i.i.i.i.i.i.i.i.i.i.i.i.i.i.i.i.i.i.i.i.i.i.i.i.i.i.",
"i.i.i.i.i.i.i.i.i.i.i.i.i.i.i.i.i.i.i.i.i.i.i.i.i.i.i.i.i.i.i.i.i.i.i.i.i.i.i.i.i.i.i.i.i.i.i.i.i.i.i.i.i.i.i.i.i.i.i.i.i.i.i.i.",
"i.i.i.i.i.i.i.i.i.i.i.i.i.i.i.i.i.i.i.i.i.i.i.i.i.i.i.i.i.i.i.i.i.i.i.i.i.i.i.i.i.i.i.i.i.i.i.i.i.i.i.i.i.i.i.i.i.i.i.i.i.i.i.i.",
"i.i.i.i.i.i.i.i.i.i.i.i.i.i.i.i.i.i.i.i.i.i.i.i.i.i.i.i.i.i.i.i.i.i.i.i.i.i.i.i.i.i.i.i.i.i.i.i.i.i.i.i.i.i.i.i.i.i.i.i.i.i.i.i.",
"i.i.i.i.i.i.i.i.i.i.i.i.i.i.i.i.i.i.i.i.i.i.i.i.i.i.i.i.i.i.i.i.i.i.i.i.i.i.i.i.i.i.i.i.i.i.i.i.i.i.i.i.i.i.i.i.i.i.i.i.i.i.i.i.",
"i.i.i.i.i.i.i.i.i.i.i.i.i.i.i.i.i.i.i.i.i.i.i.i.i.i.i.i.i.i.i.i.i.i.i.i.i.i.i.i.i.i.i.i.i.i.i.i.i.i.i.i.i.i.i.i.i.i.i.i.i.i.i.i.",
"i.i.i.i.i.i.i.i.i.i.i.i.i.i.i.i.i.i.i.i.i.i.i.i.i.i.i.i.i.i.i.i.i.i.i.i.i.i.i.i.i.i.i.i.i.i.i.i.i.i.i.i.i.i.i.i.i.i.i.i.i.i.i.i.",
"i.i.i.i.i.i.i.i.i.i.i.i.i.i.i.i.i.i.i.i.i.i.i.i.i.i.i.i.i.i.i.i.i.i.i.i.i.i.i.i.i.i.i.i.i.i.i.i.i.i.i.i.i.i.i.i.i.i.i.i.i.i.i.i.",
"i.i.i.i.i.i.i.i.i.i.i.i.i.i.i.i.i.i.i.i.i.i.i.i.i.i.i.i.i.i.i.i.i.i.i.i.i.i.i.i.i.i.i.i.i.i.i.i.i.i.i.i.i.i.i.i.i.i.i.i.i.i.i.i.",
"i.i.i.i.i.i.i.i.i.i.i.i.i.i.i.i.i.i.i.i.i.i.i.i.i.i.i.i.i.i.i.i.i.i.i.i.i.i.i.i.i.i.i.i.i.i.i.i.i.i.i.i.i.i.i.i.i.i.i.i.i.i.i.i.",
"i.i.i.i.i.i.i.i.i.i.i.i.i.i.i.i.i.i.i.i.i.i.i.i.i.i.i.i.i.i.i.i.i.i.i.i.i.i.i.i.i.i.i.i.i.i.i.i.i.i.i.i.i.i.i.i.i.i.i.i.i.i.i.i.",
"i.i.i.i.i.i.i.i.i.i.i.i.i.i.i.i.i.i.i.i.i.i.i.i.i.i.i.i.i.i.i.i.i.i.i.i.i.i.i.i.i.i.i.i.i.i.i.i.i.i.i.i.i.i.i.i.i.i.i.i.i.i.i.i.",
"i.i.i.i.i.i.i.i.i.i.i.i.i.i.i.i.i.i.i.i.i.i.i.i.i.i.i.i.i.i.i.i.i.i.i.i.i.i.i.i.i.i.i.i.i.i.i.i.i.i.i.i.i.i.i.i.i.i.i.i.i.i.i.i.",
"i.i.i.i.i.i.i.i.i.i.i.i.i.i.i.i.i.i.i.i.i.i.i.i.i.i.i.i.i.i.i.i.i.i.i.i.i.i.i.i.i.i.i.i.i.i.i.i.i.i.i.i.i.i.i.i.i.i.i.i.i.i.i.i.",
"i.i.i.i.i.i.i.i.i.i.i.i.i.i.i.i.i.i.i.i.i.i.i.i.i.i.i.i.i.i.i.i.i.i.i.i.i.i.i.i.i.i.i.i.i.i.i.i.i.i.i.i.i.i.i.i.i.i.i.i.i.i.i.i.",
"i.i.i.i.i.i.i.i.i.i.i.i.i.i.i.i.i.i.i.i.i.i.i.i.i.i.i.i.i.i.i.i.i.i.i.i.i.i.i.i.i.i.i.i.i.i.i.i.i.i.i.i.i.i.i.i.i.i.i.i.i.i.i.i.",
"i.i.i.i.i.i.i.i.i.i.i.i.i.i.i.i.i.i.i.i.i.i.i.i.i.i.i.i.i.i.i.i.i.i.i.i.i.i.i.i.i.i.i.i.i.i.i.i.i.i.i.i.i.i.i.i.i.i.i.i.i.i.i.i.",
"i.i.i.i.i.i.i.i.i.i.i.i.i.i.i.i.i.i.i.i.i.i.i.i.i.i.i.i.i.i.i.i.i.i.i.i.i.i.i.i.i.i.i.i.i.o i.i.i.i.i.i.i.i.i.i.i.i.i.i.i.i.i.i.",
"i.i.i.i.i.i.i.i.i.i.i.i.i.i.i.i.i.i.i.i.i.i.i.i.i.i.i.i.i.i.i.i.i.i.i.i.i.i.i.i.i.i.i.i.i.i.i.i.i.i.i.i.i.i.i.i.i.i.i.i.i.i.i.i.",
"i.i.i.i.i.i.i.i.i.i.i.i.i.i.i.i.i.i.i.i.i.i.i.i.i.i.i.i.i.i.i.i.i.i.i.i.i.i.i.i.i.i.i.i.i.i.i.i.i.i.i.i.i.i.i.i.i.i.i.i.i.i.i.i.",
"i.i.i.i.i.i.i.i.i.i.i.i.i.i.i.i.i.i.i.i.i.i.i.i.i.i.i.i.i.i.i.i.i.i.i.i.i.i.i.i.i.i.i.i.i.i.i.i.i.i.i.i.i.i.i.i.i.i.i.i.i.i.i.i.",
"i.i.i.i.i.i.i.i.i.i.i.i.i.i.i.i.i.i.i.i.i.i.i.i.i.i.i.i.i.i.i.i.i.i.i.i.i.i.i.i.i.i.i.i.i.i.i.i.i.i.i.i.i.i.i.i.i.i.i.i.i.i.i.i.",
"i.i.i.i.i.i.i.i.i.i.i.i.i.i.i.i.i.i.i.i.i.i.i.i.i.i.i.i.#.+.7.i.i.i.i.i.i.i.i.i.i.i.i.i.i.i.o i.i.i.i.i.i.i.i.i.i.i.i.i.i.i.i.i.",
"i.i.i.i.i.i.i.i.i.i.i.i.i.o i.i.i.i.i.i.i.7.5.-.-.i.i.7./ r -.i.i.i.i.i.i.i.i.i.i.i.i.i.i.i.i.i.i.i.i.i.i.i.i.i.i.i.i.i.i.i.i.i.",
"i.i.i.i.i.i.i.i.i.i.i.i.i.i.i.i.i.i.i.i.i.i.| o o 7.7.7./ o 0 <.i.i.i.i.i.i.i.i.i.i.i.i.i.i.i.i.i.i.i.i.i.i.i.i.i.i.i.i.i.i.i.i.",
"i.i.i.i.i.i.i.i.i.i.7.7.7.7.i.i.i.i.i.i.7.( o o o o o o o o o 2 -.7.i.i.i.i.i.i.i.i.i.i.i.i.i.i.i.i.i.i.i.i.i.i.i.i.i.i.i.i.i.i.",
"i.i.i.i.i.i.i.i.i.i.2 2 2 2 i.i.i.i.i.i.7.( o o o o o o o o o O 9 &.7.i.i.i.i.i.i.i.i.i.i.i.i.i.i.i.i.i.i.i.i.i.i.i.i.i.i.i.i.i.",
"i.i.i.i.i.i.i.i.i.i.3 o o y i.i.i.i.i.i.] k o o o o o o o o o o @ m H } i.i.i.i.i.i.i.i.i.i.i.i.i.i.i.i.i.i.i.i.i.i.i.i.i.i.i.i.",
"i.i.i.i.i.i.i.i.i.7.i o o u ' i.i.i.i.7.H o o o o o o o o o o o o o o / 7.i.i.i.i.i.i.i.i.i.i.i.i.i.i.i.i.i.i.i.i.i.i.i.i.i.i.i.",
"i.i.i.i.i.i.i.i.i.7.i o o o i 7.i.i.i.7.H j ^ % o o $.%.! $ o o o o o S >.7.i.i.i.i.i.i.o.` i.i.i.i.i.i.i.i.i.i.i.i.i.i.i.i.i.i.",
"i.i.i.i.i.i.i.i.i.7.x ; o ; x 7.i.i.i.&.m 9.r.w o o y.u.q.6 o o o o o o J #.i.i.i.i.i.7.H o = i.i.i.i.i.i.i.i.i.i.i.i.i.i.i.i.i.",
"i.i.i.i.i.i.i.i.i.i.<.n 2 n <.i.i.i.7.Y > 8.w.5 o o e.t.0.4 + , O o o o # s 7.i.i.i.i.7.P : e 7.i.i.i.i.i.i.i.i.i.i.i.i.i.i.i.i.",
"i.i.i.i.i.i.i.i.i.i.i.=.*.=.i.i.i.i.i.;.Z q M X o o N B g . 9 { < o o o o u 2.7.i.i.i.i.-.I = i.i.i.i.i.i.i.i.i.i.i.i.i.i.i.i.i.",
"i.i.i.i.i.i.i.i.i.i.i.i.i.i.i.i.i.i.i.7.H o     o o         0 +.2 o o o o * d 7.7.i.i.i.i.i.i.7.7.i.i.i.i.i.i.i.i.i.i.i.i.i.i.i.",
"i.i.i.i.i.i.i.i.i.i.i.i.i.i.i.i.i.i.i.i.o.S o o o o o o o o & f ) 3 o o o o @ i 7.i.i.i.i.i...i i ..i.i.i.i.i.i.i.i.i.i.i.i.i.i.",
"i.i.i.i.i.i.i.i.i.i.i.i.i.i.i.i.i.i.i.i.~ u 7 U o o o o o o o 2 +.0 o o o o o o v -.7.i.i.[ s o o a i.i.i.i.i.i.i.i.i.i.i.i.i.i.",
"i.i.i.i.i.i.i.i.o o i.i.i.7.i.i.i.i.i.7.H o > m / / / / / / / ] ;.0 o o o o o o o z &.i.v u o o o o K i.i.i.i.i.i.i.i.i.i.i.i.i.",
"i.i.i.i.i.i.i.i.O e i.i.| | ..i.i.i.i.O.v o o > | 7.7.7.7.7.7.7.1.0 o o o o o o p p X.i.i.1 0 o o o T i.i.i.i.i.i.i.i.i.i.i.i.i.",
"i.i.i.i.i.i.i.i.; +.i.i.o & l 7.i.i.7.H o o o O 2 7.i.i.7.7.i.7.1.0 o o o o o o -.-.i.i.i.i.| o o > i.i.i.i.i.i.i.i.i.i.i.i.i.i.",
"i.i.i.i.i.i.i.i.i.i.i.i.o v 7.i.i.i.7.H o o o 2 7.i.i.i.i.i.i.7.1.0 o o o o o o o o | 7.7.i.| o o | i.i.i.i.i.i.i.i.i.i.i.i.i.i.",
"i.i.i.i.i.i.i.i.i.i.i.i.i.i.i.i.i.i.7.H o o o 2 7.i.i.i.i.i.i.*.2 o o o o o o o o o o o H 7.i.7.7.i.i.i.i.i.i.i.i.i.i.i.i.i.i.i.",
"i.i.i.i.i.i.i.i.i.i.i.7.i.i.i.i.i.7.C - o o o 2 7.7.i.i.i.i.@.8 O o o o o o o o o o ` -.;.i.i.i.i.i.i.i.i.i.i.i.i.i.i.i.i.i.i.i.",
"i.i.i.i.i.i.i.i.i.i.7.F W i.i.i.i.7.v o o o o # p p -.7.i.i.4...{ 3 o o o o o o o o | 7.i.i.i.i.i.i.i.i.i.i.i.i.i.i.i.i.i.i.i.i.",
"i.i.i.i.i.i.i.i.i.i.c 3 0 U i.i.i.7.v o o o o o o o -.7.i.i.i.i.5.[ 7 o o o o o o o | 7.i.i.i.7.7.i.i.i.i.i.i.i.i.i.i.i.i.i.i.i.",
"i.i.i.i.i.i.i.i.i.i.3 o o 0 G i.i.E 0 o o o o o o H ;.i.i.i.i.i.i.7.i o o o o o o o v +.7.i.O.H H o.i.i.i.i.i.i.i.i.i.i.i.i.i.i.",
"i.i.i.i.i.i.i.i.i.7.i o o o o i.7.I 3 o o o o o o 7.i.i.i.i.i.i.i.7.i o o o o o o o o ( 7...D o o ` i.i.i.i.i.i.i.i.i.i.i.i.i.i.",
"i.i.i.i.i.i.i.i.i.7.b > o > p i.7.7.F 2 o o o o o 7.i.i.i.i.i.i.i.7.b > o o o o o o 0 ' 7.( o # e i.i.i.i.i.i.i.i.i.i.i.i.i.i.i.",
"i.i.i.i.i.i.i.i.i.i.7.V 2 V 7.i.i.i.7.H o o o o o 7.i.i.i.i.i.i.i.i.7.v o o o o o <  .i.7._ 2 t @.i.i.i.i.i.i.i.i.i.i.i.i.i.i.i.",
"i.i.i.i.i.i.i.i.i.i.i.#.+.#.i.i.i.i.7.H o o o o o 7.i.i.i.i.i.i.i.i.7.v o o o o o { i.7.7.i.+.@.i.i.i.i.i.i.i.i.i.i.i.i.i.i.i.i.",
"i.i.i.i.i.i.i.i.i.i.i.i.i.i.i.7.7.i.7.=.v o o o o 7.i.i.i.i.i.i.i.i.7.v o o o o o -.7.F E 7.i.i.i.i.i.i.i.i.i.i.i.i.i.i.i.i.i.i.",
"i.i.i.i.i.i.i.i.i.i.i.i.i.i.i.v v i.7.7.H o o o o 7.i.i.i.i.i.i.i.i.i.[ u o o o / 3.P 3 0 v i.i.i.i.i.i.i.i.i.i.i.i.i.i.i.i.i.i.",
"i.i.i.i.i.i.i.i.i.i.i.i.i.i.O.m - Q 7.7.] k o o o 7.i.i.i.i.i.i.i.i.i.7.v o o o 7.R 2 o i H i.i.i.i.i.i.i.i.i.i.i.i.i.i.i.i.i.i.",
"i.i.i.i.i.i.i.i.i.i.i.i.i.i.7.&.L o.v o H } H Z o 7.i.i.i.i.i.i.i.i.i.7.v o o o H - o o H 7.i.i.i.i.i.i.i.i.i.i.i.i.i.i.i.i.i.i.",
"i.i.i.i.i.i.i.i.i.i.i.i.i.i.i.i.7.i.v y i.i.7.-.o 7.i.i.i.i.i.i.i.i.i.7.v o & v o o s v ~ i.i.i.i.i.i.i.i.i.i.i.i.i.i.i.i.i.i.i.",
"i.i.i.i.i.i.i.i.i.i.i.i.i.i.i.i.i.i.i.i.i.i.i.-.i | i.i.i.i.i.i.i.i.i.7.v o > 7.i i ..7.i.i.i.i.i.i.i.i.i.i.i.i.i.i.i.i.i.i.i.i.",
"i.i.i.i.i.i.i.i.i.i.i.i.i.i.i.i.i.i.i.i.i.i.i.i.7.0 :.7.i.i.i.i.i.i.i.7.v * 0 i.7.7.i.i.i.i.i.i.i.i.i.i.i.i.i.i.i.i.i.i.i.i.i.i.",
"i.i.i.i.i.i.i.i.i.i.i.i.i.i.i.i.i.i.i.i.i.i.i.i.i.<.6.i.i.i.i.i.i.i.i.7.A h <.i.i.i.i.i.i.i.i.i.i.i.i.i.i.i.i.i.i.i.i.i.i.i.i.i.",
"i.i.i.i.i.i.i.i.i.i.i.i.i.i.i.i.i.i.i.i.i.i.i.i.i.i.i.i.i.i.i.i.i.i.i.7.,.-.i.i.i.i.i.i.i.i.i.i.i.i.i.i.i.i.i.i.i.i.i.i.i.i.i.i.",
"i.i.i.i.i.i.i.i.i.i.i.i.i.i.i.i.i.i.i.i.i.i.i.i.i.i.i.i.i.i.i.i.i.i.i.i.i.i.i.i.i.i.i.i.i.i.i.i.i.i.i.i.i.i.i.i.i.i.i.i.i.i.i.i.",
"i.i.i.i.i.i.i.i.i.i.i.i.i.i.i.i.i.i.i.i.i.i.i.i.i.i.i.i.i.i.i.i.i.i.i.i.i.i.i.i.i.i.i.i.i.i.i.i.i.i.i.i.i.i.i.i.i.i.i.i.i.i.i.i.",
"i.i.i.i.i.i.i.i.i.i.i.i.i.i.i.i.i.i.i.i.i.i.i.i.i.i.i.i.i.i.i.i.i.i.i.i.i.i.i.i.i.i.i.i.i.i.i.i.i.i.i.i.i.i.i.i.i.i.i.i.i.i.i.i.",
"i.i.i.i.i.i.i.i.i.i.i.i.i.i.i.i.i.i.i.i.i.i.i.i.i.i.i.i.i.i.i.i.i.i.i.i.i.i.i.i.i.i.i.i.i.i.i.i.i.i.i.i.i.i.i.i.i.i.i.i.i.i.i.i.",
"i.i.i.i.i.i.i.i.i.i.i.i.i.i.i.i.i.i.i.i.i.i.i.i.i.i.i.i.i.i.i.i.i.i.i.i.i.i.i.i.i.i.i.i.i.i.i.i.i.i.i.i.i.i.i.i.i.i.i.i.i.i.i.i.",
"i.i.i.i.i.i.i.i.i.i.i.i.i.i.i.i.i.i.i.i.i.i.i.i.i.i.i.i.i.i.i.i.i.i.i.i.i.i.i.i.i.i.i.i.i.i.i.i.i.i.i.i.i.i.i.i.i.i.i.i.i.i.i.i."
};
