/* XPM */
static char *result[] = {
/* columns rows colors chars-per-pixel */
"64 64 117 2 ",
"   c #1B2323",
".  c #1C2222",
"X  c #1C2323",
"o  c #1F2222",
"O  c #202020",
"+  c #202021",
"@  c gray13",
"#  c #222222",
"$  c #222223",
"%  c #232324",
"&  c #232325",
"*  c #232425",
"=  c #242425",
"-  c #242426",
";  c #252527",
":  c #212529",
">  c #21272B",
",  c #252628",
"<  c #262628",
"1  c #262629",
"2  c #27272A",
"3  c #27282B",
"4  c #21282D",
"5  c #21292F",
"6  c #22282E",
"7  c #28282C",
"8  c #28292C",
"9  c #29292D",
"0  c #2A2A2E",
"q  c #2A2B2F",
"w  c #222A31",
"e  c #2B2B30",
"r  c #2C2C31",
"t  c #2C2D32",
"y  c #2D2D33",
"u  c #2D2E33",
"i  c #2F2F35",
"p  c #303138",
"a  c #313139",
"s  c #313239",
"d  c #32333A",
"f  c #32333B",
"g  c #34343D",
"h  c #34353E",
"j  c #35353E",
"k  c #35363F",
"l  c #363741",
"z  c #373841",
"x  c #383944",
"c  c #393944",
"v  c #3A3B46",
"b  c #3A3B47",
"n  c #3B3B47",
"m  c #3B3C47",
"M  c #3C3C48",
"N  c #3C3C49",
"B  c #3C3D49",
"V  c #3C3D4A",
"C  c #3D3D4A",
"Z  c #3D3E4B",
"A  c #3E3E4C",
"S  c #40414E",
"D  c #40414F",
"F  c #414150",
"G  c #414250",
"H  c #414251",
"J  c #424251",
"K  c #424352",
"L  c #434453",
"P  c #444554",
"I  c #444555",
"U  c #454555",
"Y  c #454656",
"T  c #464657",
"R  c #464757",
"E  c #464758",
"W  c #474859",
"Q  c #48495A",
"!  c #48495B",
"~  c #494A5B",
"^  c #4A4A5D",
"/  c #4A4B5D",
"(  c #4A4B5E",
")  c #4B4B5E",
"_  c #4B4C5E",
"`  c #4B4C5F",
"'  c #555555",
"]  c #4C4D60",
"[  c #4D4E61",
"{  c #4D4E62",
"}  c #4E4F63",
"|  c #4E4F64",
" . c #4F5065",
".. c #505166",
"X. c #505167",
"o. c #515267",
"O. c #525268",
"+. c #525368",
"@. c #52536A",
"#. c #53546A",
"$. c #53546B",
"%. c #54556C",
"&. c #696A6A",
"*. c #747474",
"=. c #787A7C",
"-. c #898B8C",
";. c #9A9A9A",
":. c #9A9EA1",
">. c #ACACAC",
",. c #ACB0B3",
"<. c #B2B5B7",
"1. c #CBCBCB",
"2. c #C8CACC",
"3. c #E3E4E4",
"4. c #E4E4E4",
"5. c white",
"6. c None",
/* pixels */
"6.6.6.6.6.6.6.6.6.6.6.6.6.6.6.6.6.6.6.6.6.6.6.6.6.6.6.6.6.6.6.6.6.6.6.6.6.6.6.6.6.6.6.6.6.6.6.6.6.6.6.6.6.6.6.6.6.6.6.6.6.6.6.6.",
"6.6.6.6.6.6.6.6.6.6.6.6.6.6.6.6.6.6.6.6.6.6.6.6.6.6.6.6.6.6.6.6.6.6.6.6.6.6.6.6.6.6.6.6.6.6.6.6.6.6.6.6.6.6.6.6.6.6.6.6.6.6.6.6.",
"6.6.6.6.6.6.6.6.6.6.6.6.6.6.6.6.6.6.6.6.6.6.6.6.6.6.6.6.6.6.6.6.6.6.6.6.6.6.6.6.6.6.6.6.6.6.6.6.6.6.6.6.6.6.6.6.6.6.6.6.6.6.6.6.",
"6.6.6.6.6.6.6.6.6.6.6.6.6.6.6.6.6.6.6.6.6.6.6.6.6.6.6.6.6.6.6.6.6.6.6.6.6.6.6.6.6.6.6.6.6.6.6.6.6.6.6.6.6.6.6.6.6.6.6.6.6.6.6.6.",
"6.6.6.6.6.6.6.6.6.6.6.6.6.6.6.6.6.6.6.6.6.6.6.6.6.6.6.6.6.6.6.6.6.6.6.6.6.6.6.6.6.6.6.6.6.6.6.6.6.6.6.6.6.6.6.6.6.6.6.6.6.6.6.6.",
"6.6.6.6.6.6.6.6.6.6.6.6.6.6.6.6.6.6.6.6.6.6.6.6.6.6.6.6.6.6.6.6.6.6.6.6.6.6.6.6.6.6.6.6.6.6.6.6.6.6.6.6.6.6.6.6.6.6.6.6.6.6.6.6.",
"6.6.6.6.6.6.6.6.6.6.6.6.6.6.6.6.6.6.6.6.6.6.6.6.6.6.6.6.6.6.6.6.6.6.6.6.6.6.6.6.6.6.6.6.6.6.6.6.6.6.6.6.6.6.6.6.6.6.6.6.6.6.6.6.",
"6.6.6.6.6.6.6.6.6.6.6.6.6.6.6.6.6.6.6.6.6.6.6.6.6.6.6.6.6.6.6.6.6.6.6.6.6.6.6.6.6.6.6.6.6.6.6.6.6.6.6.6.6.6.6.6.6.6.6.6.6.6.6.6.",
"6.6.6.6.6.6.6.6.6.6.6.6.6.6.6.6.6.6.6.6.6.6.6.6.6.6.6.6.6.6.6.6.6.6.6.6.6.6.6.6.6.6.6.6.6.6.6.6.6.6.6.6.6.6.6.6.6.6.6.6.6.6.6.6.",
"6.6.6.6.6.6.6.6.6.6.6.6.6.6.6.6.6.6.6.6.6.6.6.6.6.6.6.6.6.6.6.6.6.6.6.6.6.6.6.6.6.6.6.6.6.6.6.6.6.6.6.6.6.6.6.6.6.6.6.6.6.6.6.6.",
"6.6.6.6.6.6.6.6.6.6.6.6.6.6.6.6.6.6.6.6.6.6.6.6.6.6.6.6.6.6.6.6.6.6.6.6.6.6.6.6.6.6.6.6.6.6.6.6.6.6.6.6.6.6.6.6.6.6.6.6.6.6.6.6.",
"6.6.6.6.6.6.6.6.6.6.6.6.6.6.6.6.6.6.6.6.6.6.6.6.6.6.6.6.6.6.6.6.6.6.6.6.6.6.6.6.6.6.6.6.6.6.6.6.6.6.6.6.6.6.6.6.6.6.6.6.6.6.6.6.",
"6.6.6.6.6.6.6.6.6.6.6.6.6.6.6.6.6.6.6.L L 6.6.6.6.6.6.6.6.6.6.6.6.6.6.6.D A 6.6.6.6.%.6.6.6.6.6.6.6.6.6.6.6.6.6.6.6.6.6.6.6.6.6.",
"6.6.6.6.6.6.6.6.6.6.6.6.6.6.6.6.6.6.I v D 6.6.6.6.6.6.6.6.6.6.6.6.6.6.6.B z H 6.6.%.T ! 6.6.6.6.6.6.6.6.6.6.6.6.6.6.6.6.6.6.6.6.",
"6.6.6.6.6.6.6.6.6.6.6.6.6.6.6.6.6.Q i v %.6.6.6.6.6.6.6.6.6.6.6.6.6.6.6.%.W ; W 6.%.u x ^ 6.6.6.6.6.6.6.6.6.6.6.6.6.6.6.6.6.6.6.",
"6.6.6.6.6.6.6.6.6.6.6.6.6.6.%.6.) e 1 C 6.6.6.6.6.6.6.6.6.6.6.6.6.6.6.6.%.Q 9 O ( ( d = k ` 6.6.6.6.6.6.6.6.6.6.6.6.6.6.6.6.6.6.",
"6.6.6.6.6.6.6.6.6.6.6.6.6.6.%.) r $ C | 6.6.6.6.6.6.6.6.6.6.6.6.6.6.6.6.6.6.Q O 2 2 P s * l %.6.6.6.6.6.6.6.6.6.6.6.6.6.6.6.6.6.",
"6.6.6.6.6.6.6.6.6.6.6.6.6.L u e $ O G %.6.6.6.6.6.6.6.6.6.6.6.6.6.6.6.6.6.6.} O O O W g O g %.6.6.6.6.6.6.6.6.6.6.6.6.6.6.6.6.6.",
"6.6.6.6.6.6.6.6.6.6.6.6.%.F O O O c Q 6.6.6.6.6.6.6.6.6.6.6.6.6.6.6.6.6.6.6.} O O O W g O g %.%.6.6.6.6.6.6.6.6.6.6.6.6.6.6.6.6.",
"6.6.6.6.6.6.6.6.6.6.6.6.L p O O O W 6.6.6.6.6.6.6.6.6.6.6.6.6.6.6.6.6.6.6.%.} O O O g 0 O 0 F %.6.6.6.6.6.6.6.6.6.6.6.6.6.6.6.6.",
"6.6.6.6.6.6.6.6.6.6.6.%.v O O O O W 6.6.6.6.6.6.6.6.6.6.6.6.6.6.6.6.6.6.%.} v v O O O O O O u %.6.6.6.6.6.O 6.6.6.6.6.6.6.6.6.6.",
"6.6.6.6.6.6.6.6.6.6.6.%.v O O O O W 6.6.6.6.6.6.6.6.6.6.6.6.6.6.6.6.6.6.%.W - G O O O O O O 8 J 6.6.6.6.O O O 6.6.6.6.6.6.6.6.6.",
"6.6.6.6.6.6.6.6.6.6.%.%.v O O O O Z _ / } %.6.6.6.6.6.6.6.6.6.6.6.6.6.6.6.! r O O O O O O O O 2 ( 6.6.6.6.O 6.6.6.6.6.6.6.6.6.6.",
"6.6.6.6.6.6.6.6.6.6.%.%.v O O O O O C v N %.6.6.6.6.6.6.6.6.6.6.6.6.6.6.6.6.} O O O O O O O O 2 ( 6.6.6.6.6.O 6.6.6.6.6.6.6.6.6.",
"6.6.6.6.6.6.6.6.6.6.%.%.v O O O O O O v %.6.6.6.6.6.6.6.6.6.6.6.6.6.%.%.6.6.} O O O O O O O O 2 ( 6.6.6.6.6.6.6.6.6.6.6.6.6.6.6.",
"6.6.6.6.6.6.6.6.6.6.%.g O O O O O O O v %.6.6.6.6.6.6.6.6.6.6.6.6.6.%.g F W O O O O O O O O O 2 ( 6.6.6.6.6.6.6.6.6.6.6.6.6.6.6.",
"6.6.6.6.6.6.6.O O 6.%.g O O O O O O C | 6.6.%.%.6.6.6.6.6.%.%.6.6.6.6.= - ; O O O O O O O O r | #.6.6.6.6.6.6.6.6.6.6.6.6.6.6.6.",
"6.6.6.6.6.6.6.O O 6.%.g O O O O O O G %.6.6.} M %.6.6.6.R F %.6.6.6.6.v v g O O O O O O O O 2 Z  .6.6.6.6.6.6.6.6.6.6.6.6.6.6.6.",
"6.6.6.6.6.6.6.6.O 6.%.S 0 O O O O O G %.6.%.W 2 %.6.6.R h 7 K 6.6.6.6.6.%.] s O O O O O O O O 2 ( 6.6.6.6.6.6.6.6.6.6.6.6.6.6.6.",
"6.6.6.6.6.6.6.6.6.6.%.%.v O O O O 0 L %.^ W Z ; W %.~ g O O 3 E @.6.6.6.%.o.P y O O O O O O & a ` 6.O O 6.6.6.6.6.6.6.6.6.6.6.6.",
"6.6.6.6.6.6.6.6.6.6.6.%.v O O O O W 6.] k O O O O %.2 O O O O , Y ( 6.6.%.W , ( O O O O O = h %.6.6.O O 6.6.6.6.6.6.6.6.6.6.6.6.",
"6.6.6.6.6.6.6.6.6.6.6.%.v O O O O K O.n # O O O O } < O O O O + % * W ..{ K + * O O O O O f +.%.6.6.6.6.6.6.6.6.6.6.6.6.6.6.6.6.",
"6.6.6.6.6.6.6.6.6.6.6.%.m $ O O O ; G x O O O O O 2 @ O O O O O O O U l 2 ; O O O O O O # j %.6.6.6.6.6.6.6.6.6.6.6.6.6.6.6.6.6.",
"6.6.6.6.6.6.6.6.6.6.6.6.] b O O O O 1 ; O O O O O O O O O O O O O O 3 = O O O O O O O O k ` 6.6.6.6.6.6.6.6.6.6.6.6.6.6.6.6.6.6.",
"6.6.6.6.6.6.6.6.6.6.6.6.%.F O O O O O O O O O O O O O O O O O O O O O O O O O O O O O x ^ 6.6.6.6.6.6.6.6.6.6.6.6.6.6.6.6.6.6.6.",
"6.6.6.6.6.6.6.6.6.6.6.6.6.Q F b - O h p O O O O O O O O O O O O O O O O O O O O O V F ! 6.6.6.6.6.6.6.6.6.6.6.6.6.6.6.6.6.6.6.6.",
"6.6.6.6.6.6.6.6.6.6.6.6.6.0 M X.L F [ v O ' -.> O O ;.>.=.: O O O O x F t O - F F +.%.%.6.6.6.6.6.6.6.6.6.6.6.6.6.6.6.6.6.6.6.6.",
"6.6.6.6.6.6.6.6.6.6.6.6.6.O q %.%.%.%.F 2 *.2.w O O 4.5.,.6 O O O O Z W z u p W W #.%.%.6.6.6.6.6.6.6.6.6.6.6.6.6.6.6.6.6.6.6.6.",
"6.6.6.6.6.6.6.6.6.6.6.6.6.6.O 6.6.%.%.%.v &.<.5 O O 1.3.:.4 O O O O O O F %.| 2 2 } 6.6.6.6.6.6.6.6.6.6.6.6.6.6.6.6.6.6.6.6.6.6.",
"6.6.6.6.6.6.6.6.6.6.6.6.6.6.6.6.6.6.6.%.v o   X O O X     . O O O O O O F %.%.%.%.6.6.6.6.6.6.6.6.6.6.6.6.6.6.6.6.6.6.6.6.6.6.6.",
"6.6.6.6.6.6.6.6.6.6.6.6.6.6.6.6.6.6.6.6.%.%.%.} O O O O O O O 2 } %.%.%.6.6.6.6.6.6.6.6.6.6.6.6.6.6.6.6.6.6.6.6.6.6.6.6.6.6.6.6.",
"6.6.6.6.6.6.6.6.6.6.6.6.6.6.6.6.6.6.6.6.6.6.6.6.} } } } } } } | $.6.6.6.6.6.6.6.6.6.6.6.6.6.6.6.6.6.6.6.6.6.6.6.6.6.6.6.6.6.6.6.",
"6.6.6.6.6.6.6.6.6.6.6.6.6.6.6.6.6.6.6.6.6.6.6.6.6.6.6.6.6.6.6.6.6.6.6.6.6.6.6.6.6.6.6.6.6.6.6.6.6.6.6.6.6.6.6.6.6.6.6.6.6.6.6.6.",
"6.6.6.6.6.6.6.6.6.6.6.6.6.6.6.6.6.6.6.6.6.6.6.6.6.6.6.6.6.6.6.6.6.6.6.6.6.6.6.6.6.6.6.6.6.6.6.6.6.6.6.6.6.6.6.6.6.6.6.6.6.6.6.6.",
"6.6.6.6.6.6.6.6.6.6.6.6.6.6.6.6.6.6.6.6.6.6.6.6.6.6.6.6.6.6.6.6.6.6.6.6.6.6.6.6.6.6.6.6.6.6.6.6.6.6.6.6.6.6.6.6.6.6.6.6.6.6.6.6.",
"6.6.6.6.6.6.6.6.6.6.6.6.6.6.6.6.6.6.6.6.6.6.6.6.6.6.6.6.6.6.6.6.6.6.6.6.6.6.6.6.6.6.6.6.6.6.6.6.6.6.6.6.6.6.6.6.6.6.6.6.6.6.6.6.",
"6.6.6.6.6.6.6.6.6.6.6.6.6.6.6.6.6.6.6.6.6.6.6.6.6.6.6.6.6.6.6.6.6.6.6.6.6.6.6.6.6.6.6.6.6.6.6.6.6.6.6.6.6.6.6.6.6.6.6.6.6.6.6.6.",
"6.6.6.6.6.6.6.6.6.6.6.6.6.6.6.6.6.6.6.6.6.6.6.6.6.6.6.6.6.6.6.6.6.6.6.6.6.6.6.6.6.6.6.6.6.6.6.6.6.6.6.6.6.6.6.6.6.6.6.6.6.6.6.6.",
"6.6.6.6.6.6.6.6.6.6.6.6.6.6.6.6.6.6.6.6.6.6.6.6.6.6.6.6.6.6.6.6.6.6.6.6.6.6.6.6.6.6.6.6.6.6.6.6.6.6.6.6.6.6.6.6.6.6.6.6.6.6.6.6.",
"6.6.6.6.6.6.6.6.6.6.6.6.6.6.6.6.6.6.6.6.6.6.6.6.6.6.6.6.6.6.6.6.6.6.6.6.6.6.6.6.6.6.6.6.6.6.6.6.6.6.6.6.6.6.6.6.6.6.6.6.6.6.6.6.",
"6.6.6.6.6.6.6.6.6.6.6.6.6.6.6.6.6.6.6.6.6.6.6.6.6.6.6.6.6.6.6.6.6.6.6.6.6.6.6.6.6.6.6.6.6.6.6.6.6.6.6.6.6.6.6.6.6.6.6.6.6.6.6.6.",
"6.6.6.6.6.6.6.6.6.6.6.6.6.6.6.6.6.6.6.6.6.6.6.6.6.6.6.6.6.6.6.6.6.6.6.6.6.6.6.6.6.6.6.6.6.6.6.6.6.6.6.6.6.6.6.6.6.6.6.6.6.6.6.6.",
"6.6.6.6.6.6.6.6.6.6.6.6.6.6.6.6.6.6.6.6.6.6.6.6.6.6.6.6.6.6.6.6.6.6.6.6.6.6.6.6.6.6.6.6.6.6.6.6.6.6.6.6.6.6.6.6.6.6.6.6.6.6.6.6.",
"6.6.6.6.6.6.6.6.6.6.6.6.6.6.6.6.6.6.6.6.6.6.6.6.6.6.6.6.6.6.6.6.6.6.6.6.6.6.6.6.6.6.6.6.6.6.6.6.6.6.6.6.6.6.6.6.6.6.6.6.6.6.6.6.",
"6.6.6.6.6.6.6.6.6.6.6.6.6.6.6.6.6.6.6.6.6.6.6.6.6.6.6.6.6.6.6.6.6.6.6.6.6.6.6.6.6.6.6.6.6.6.6.6.6.6.6.6.6.6.6.6.6.6.6.6.6.6.6.6.",
"6.6.6.6.6.6.6.6.6.6.6.6.6.6.6.6.6.6.6.6.6.6.6.6.6.6.6.6.6.6.6.6.6.6.6.6.6.6.6.6.6.6.6.6.6.6.6.6.6.6.6.6.6.6.6.6.6.6.6.6.6.6.6.6.",
"6.6.6.6.6.6.6.6.6.6.6.6.6.6.6.6.6.6.6.6.6.6.6.6.6.6.6.6.6.6.6.6.6.6.6.6.6.6.6.6.6.6.6.6.6.6.6.6.6.6.6.6.6.6.6.6.6.6.6.6.6.6.6.6.",
"6.6.6.6.6.6.6.6.6.6.6.6.6.6.6.6.6.6.6.6.6.6.6.6.6.6.6.6.6.6.6.6.6.6.6.6.6.6.6.6.6.6.6.6.6.6.6.6.6.6.6.6.6.6.6.6.6.6.6.6.6.6.6.6.",
"6.6.6.6.6.6.6.6.6.6.6.6.6.6.6.6.6.6.6.6.6.6.6.6.6.6.6.6.6.6.6.6.6.6.6.6.6.6.6.6.6.6.6.6.6.6.6.6.6.6.6.6.6.6.6.6.6.6.6.6.6.6.6.6.",
"6.6.6.6.6.6.6.6.6.6.6.6.6.6.6.6.6.6.6.6.6.6.6.6.6.6.6.6.6.6.6.6.6.6.6.6.6.6.6.6.6.6.6.6.6.6.6.6.6.6.6.6.6.6.6.6.6.6.6.6.6.6.6.6.",
"6.6.6.6.6.6.6.6.6.6.6.6.6.6.6.6.6.6.6.6.6.6.6.6.6.6.6.6.6.6.6.6.6.6.6.6.6.6.6.6.6.6.6.6.6.6.6.6.6.6.6.6.6.6.6.6.6.6.6.6.6.6.6.6.",
"6.6.6.6.6.6.6.6.6.6.6.6.6.6.6.6.6.6.6.6.6.6.6.6.6.6.6.6.6.6.6.6.6.6.6.6.6.6.6.6.6.6.6.6.6.6.6.6.6.6.6.6.6.6.6.6.6.6.6.6.6.6.6.6.",
"6.6.6.6.6.6.6.6.6.6.6.6.6.6.6.6.6.6.6.6.6.6.6.6.6.6.6.6.6.6.6.6.6.6.6.6.6.6.6.6.6.6.6.6.6.6.6.6.6.6.6.6.6.6.6.6.6.6.6.6.6.6.6.6.",
"6.6.6.6.6.6.6.6.6.6.6.6.6.6.6.6.6.6.6.6.6.6.6.6.6.6.6.6.6.6.6.6.6.6.6.6.6.6.6.6.6.6.6.6.6.6.6.6.6.6.6.6.6.6.6.6.6.6.6.6.6.6.6.6."
};
