/* XPM */
static char *result[] = {
/* columns rows colors chars-per-pixel */
"64 64 117 2 ",
"   c #1D2222",
".  c #1C2323",
"X  c #1D2323",
"o  c #202020",
"O  c #202021",
"+  c gray13",
"@  c #212122",
"#  c #222222",
"$  c #222223",
"%  c #222324",
"&  c #232324",
"*  c #232325",
"=  c #232425",
"-  c #232627",
";  c #242425",
":  c #242426",
">  c #252527",
",  c #212529",
"<  c #20272B",
"1  c #21272B",
"2  c #252628",
"3  c #27272A",
"4  c #27282B",
"5  c #21282E",
"6  c #22282E",
"7  c #28282C",
"8  c #28292C",
"9  c #29292D",
"0  c #2A2A2E",
"q  c #222A31",
"w  c #2B2C31",
"e  c #2C2C31",
"r  c #2C2D32",
"t  c #2D2D33",
"y  c #2D2E33",
"u  c #2E2E34",
"i  c #2E2F35",
"p  c #2F2F35",
"a  c #2F2F36",
"s  c #2F3036",
"d  c #303037",
"f  c #303138",
"g  c #313138",
"h  c #313139",
"j  c #313239",
"k  c #32333A",
"l  c #33333B",
"z  c #33343C",
"x  c #34343D",
"c  c #34353E",
"v  c #35353E",
"b  c #35363F",
"n  c #363740",
"m  c #373741",
"M  c #383843",
"N  c #393A45",
"B  c #3A3B46",
"V  c #3A3B47",
"C  c #3C3C48",
"Z  c #3C3C49",
"A  c #3C3D4A",
"S  c #3D3D4A",
"D  c #3D3E4A",
"F  c #3D3E4B",
"G  c #3E3F4B",
"H  c #3F404D",
"J  c #3F404E",
"K  c #40414E",
"L  c #40414F",
"P  c #414150",
"I  c #414250",
"U  c #424251",
"Y  c #424352",
"T  c #434353",
"R  c #434453",
"E  c #444555",
"W  c #464757",
"Q  c #464758",
"!  c #474859",
"~  c #48485A",
"^  c #48495A",
"/  c #49495B",
"(  c #494A5B",
")  c #494A5C",
"_  c #494A5D",
"`  c #4A4A5D",
"'  c #4A4B5E",
"]  c #4B4C5F",
"[  c #555555",
"{  c #5F5F5F",
"}  c #4C4D60",
"|  c #4D4E61",
" . c #4D4E62",
".. c #4E4E63",
"X. c #4E4F63",
"o. c #4E4F64",
"O. c #4F5064",
"+. c #4F5065",
"@. c #505167",
"#. c #515267",
"$. c #525368",
"%. c #53546B",
"&. c #54556C",
"*. c #747474",
"=. c #787A7C",
"-. c #898B8C",
";. c #888D8F",
":. c #9A9A9A",
">. c #9DA0A2",
",. c #ACACAC",
"<. c #ACB0B3",
"1. c #B2B3B3",
"2. c #C6C8C8",
"3. c #C8CACC",
"4. c #E4E4E4",
"5. c white",
"6. c None",
/* pixels */
"6.6.6.6.6.6.6.6.6.6.6.6.6.6.6.6.6.6.6.6.6.6.6.6.6.6.6.6.6.6.6.6.6.6.6.6.6.6.6.6.6.6.6.6.6.6.6.6.6.6.6.6.6.6.6.6.6.6.6.6.6.6.6.6.",
"6.6.6.6.6.6.6.6.6.6.6.6.6.6.6.6.6.6.6.6.6.6.6.6.6.6.6.6.6.6.6.6.6.6.6.6.6.6.6.6.6.6.6.6.6.6.6.6.6.6.6.6.6.6.6.6.6.6.6.6.6.6.6.6.",
"6.6.6.6.6.6.6.6.6.6.6.6.6.6.6.6.6.6.6.6.6.6.6.6.6.6.6.6.6.6.6.6.6.6.6.6.6.6.6.6.6.6.6.6.6.6.6.6.6.6.6.6.6.6.6.6.6.6.6.6.6.6.6.6.",
"6.6.6.6.6.6.6.6.6.6.6.6.6.6.6.6.6.6.6.6.6.6.6.6.6.6.6.6.6.6.6.6.6.6.6.6.6.6.6.6.6.6.6.6.6.6.6.6.6.6.6.6.6.6.6.6.6.6.6.6.6.6.6.6.",
"6.6.6.6.6.6.6.6.6.6.6.6.6.6.6.6.6.6.6.6.6.6.6.6.6.6.6.6.6.6.6.6.6.6.6.6.6.6.6.6.6.6.6.6.6.6.6.6.6.6.6.6.6.6.6.6.6.6.6.6.6.6.6.6.",
"6.6.6.6.6.6.6.6.6.6.6.6.6.6.6.6.6.6.6.6.6.6.6.6.6.6.6.6.6.6.6.6.6.6.6.6.6.6.6.6.6.6.6.6.6.6.6.6.6.6.6.6.6.6.6.6.6.6.6.6.6.6.6.6.",
"6.6.6.6.6.6.6.6.6.6.6.6.6.6.6.6.6.6.6.6.6.6.6.6.6.6.6.6.6.6.6.6.6.6.6.6.6.6.6.6.6.6.6.6.6.6.6.6.6.6.6.6.6.6.6.6.6.6.6.6.6.6.6.6.",
"6.6.6.6.6.6.6.6.6.6.6.6.6.6.6.6.6.6.6.6.6.6.6.6.6.6.6.6.6.6.6.6.6.6.6.6.6.6.6.6.6.6.6.6.6.6.6.6.6.6.6.6.6.6.6.6.6.6.6.6.6.6.6.6.",
"6.6.6.6.6.6.6.6.6.6.6.6.6.6.6.6.6.6.6.6.6.6.6.6.6.6.6.6.6.6.6.6.6.6.6.6.6.6.6.6.6.6.6.6.6.6.6.6.6.6.6.6.6.6.6.6.6.6.6.6.6.6.6.6.",
"6.6.6.6.6.6.6.6.6.6.6.6.6.6.6.6.6.6.6.6.6.6.6.6.6.6.6.6.6.6.6.&.&.&.&.6.6.6.6.6.6.6.6.6.6.6.6.6.6.6.6.6.6.6.6.6.6.6.6.6.6.6.6.6.",
"6.6.6.6.6.6.6.6.6.6.6.6.6.6.6.6.6.6.6.6.6.6.6.&.&.&.6.6.6.6.6.&.$.c t T &.&.6.6.6.6.6.6.6.6.6.6.6.6.6.6.6.6.6.6.6.6.6.6.6.6.6.6.",
"6.6.6.6.6.6.6.6.6.6.6.6.6.6.6.6.6.6.6.6.6.&./ x x &.6.6.6.6.6.6.@.0 o r x N &.&.6.6.6.6.6.6.6.6.6.6.6.6.6.6.6.6.6.6.6.6.6.6.6.6.",
"6.6.6.6.6.6.6.6.6.6.6.6.6.6.6.6.6.6.6.6.R B x = B &.6.6.6.6.6.6.6.D 3 o o 3 B B &.6.6.6.6.6.6.6.6.6.6.6.6.6.6.6.6.6.6.6.6.6.6.6.",
"6.6.6.6.6.6.6.6.6.6.6.6.6.6.6.6.6.6.6.W f o > n &.6.6.6.6.6.6.6.6.&.t o o o o o P 6.6.6.6.6.6.6.6.6.6.6.6.6.6.6.6.6.6.6.6.6.6.6.",
"6.6.6.6.6.6.6.6.6.6.6.6.6.6.6.6.6.6.( x o o y &.6.6.6.6.6.6.6.6.6.&.v > o o o o o Y 6.6.6.6.6.6.6.6.6.6.6.6.6.6.6.6.6.6.6.6.6.6.",
"6.6.6.6.6.6.6.6.6.6.6.6.6.6.6.6.6.] d o o ; l &.6.6.6.6.6.6.6.6.6.6.&.x o o o o o o K 6.6.6.6.6.6.6.6.6.6.6.6.6.6.6.6.6.6.6.6.6.",
"6.6.6.6.6.6.6.6.6.6.6.6.6.6.6.&.&.g & o o j X.6.6.6.6.6.6.6.6.6.6.6.&.x o o o o o o > U 6.6.6.6.6.6.6.6.6.6.6.6.6.6.6.6.6.6.6.6.",
"6.6.6.6.6.6.6.6.6.6.6.6.6.6.6.| k * o o o x &.6.6.6.6.6.6.6.6.6.6.6.6./ a o o o o o o I &.6.6.6.6.6.6.6.6.6.6.6.6.6.6.6.6.6.6.6.",
"6.6.6.6.6.6.6.6.6.6.6.6.6.6.6.' 3 o o o o x &.6.6.6.6.6.6.6.o 6.6.6.6.&.x o o o o o o r L 6.6.6.6.6.6.6.6.6.6.6.6.6.6.6.6.6.6.6.",
"6.6.6.6.6.6.6.6.6.6.6.6.6.&.` b = o o o o x &.6.6.6.6.6.6.6.6.6.6.6.6.&.x o o o o o o o B &.6.6.6.6.6.6.6.6.6.6.6.6.6.6.6.6.6.6.",
"6.6.6.6.6.6.6.6.6.6.6.6.&.' x o o o o o o x &.6.6.6.6.6.6.6.6.6.6.6.6.L 0 o o o o o o f ! &.&.6.6.6.6.6.6.6.6.6.6.6.6.6.6.6.6.6.",
"6.6.6.6.6.6.6.6.6.6.6.6.6.E p o o o o o o r T 6.6.6.6.6.6.6.6.6.6.6.R r o o o o o o o I ' I I U 6.6.6.6.6.6.6.6.6.6.6.6.6.6.6.6.",
"6.6.6.6.6.6.6.6.6.6.E 6.6.6.! o o o o o o o y &.6.6.6.6.6.6.6.6.6.^ 0 o o o o o o o o I P 8 o > K 6.6.6.6.6.6.6.6.6.6.6.6.6.6.6.",
"6.6.6.6.6.6.6.6.6.3 # 6.6.6.! o o o o o = 3 g &.&.6.6.6.6.6.6.6.' 9 o o o o o o o o o S X.H > o o ! 6.6.6.6.6.6.6.6.6.6.6.6.6.6.",
"6.6.6.6.6.6.6.6.6.&.t 6.6.6.! o o o o o B &.&.6.6.6.6.6.6.6.6. .3 o o o o o o o o o o o o x ! o o ! 6.6.6.6.6.6.6.6.6.6.6.6.6.6.",
"6.6.6.6.6.6.6.6.6.6.&.6.6.6.6.' 3 o o o B &.6.6.6.6.6.6.6.6.6.&.#.0 o o o o o o o o o o B &.! o o o 6.6.6.6.6.6.6.6.6.6.6.6.6.6.",
"6.6.6.6.6.6.6.6.6.6.6.6.6.6.&.' 3 o o o B &.6.&.&.6.6.6.&.&.6.6.6.X.w o o o o o o ^ X.X.o.6.! o o o 6.6.6.6.6.6.6.6.6.6.6.6.6.6.",
"6.6.6.6.6.6.6.6.6.6.6.6.6.&...b = o o o t L ` F &.6.6.&.' G 6.6.6.&.t o o o o o o m X.&.6.6.J o o x 6.6.6.6.6.6.6.6.6.6.6.6.6.6.",
"6.6.6.6.6.6.6.6.6.6.6.6.6.&.) d % o o o 0 K ! : P 6.6.W c 7 Y 6.6.&.t o o o o o o o ! &.6.6.6.x x ) 6.6.6.6.6.6.6.6.6.6.6.6.6.6.",
"6.6.6.6.6.6.6.6.6.~ ! C 6.6.6.] h * o 3 B ! F o o &.( x o o 4 Q $._ 0 o o o o o o w ^ &.6.6.6.&.&.6.6.6.6.6.6.6.6.6.6.6.6.6.6.6.",
"6.6.6.6.6.6.6.6.~ 7 o o B &.6.6.&.y o b b o o o o ' 2 o o o o 2 Y 7 o o o o @ 0 0 X.6.6.6.6.6.6.6.6.6.6.6.6.6.6.6.6.6.6.6.6.6.6.",
"6.6.6.6.6.6.6. .9 + o o m X.6.6.&.k & # # o o o o = O o o o o O & + o o o # e #.@.6.6.6.6.6.6.@ 6.6.6.6.6.6.6.6.6.6.6.6.6.6.6.6.",
"6.6.6.6.6.6.6. .9 + o $ 3 0 6.6.&.+.z # o o o o o o o o o o o o o o o o $ u o.&.6.6.6.6.6.6.6.6.O.@.6.6.6.6.6.6.6.6.6.6.6.6.6.6.",
"6.6.6.6.6.6.6.6.~ 7 o V ' ' 6.6.6.&.X.b o o o o o o o o o o o o o o o o V | &.6.6.6.6.6.6.6.6.X.f 0 Y 6.6.6.6.6.6.6.6.6.6.6.6.6.",
"6.6.6.6.6.6.6.6.6.~ ! +.&.6.6.6.6.6.&.B o o o o o o o o o o o o o o o o 7 m &.6.&.&.&.&.6.6.6.X.0 o P &.6.6.6.6.6.6.6.6.6.6.6.6.",
"6.6.6.6.6.6.6.6.6.6.6.6.&.&.&.&.6.6.&.B o [ -.1 o o :.,.=., o o o o o o o y &.&.x x } &.6.6.6.6.Y P ^ 6.6.6.6.6.6.6.6.6.6.6.6.6.",
"6.6.6.6.6.6.6.6.6.6.6.6.L x x M X.6.6.W f *.3.q o o 4.5.<.6 o o o o o o o > x x o A ] 6.6.6.6.6.6.6.6.6.6.6.6.6.6.6.6.6.6.6.6.6.",
"6.6.6.6.6.6.6.6.6.6.6.! x o o 0 X.6.6.&.B { >.5 o o 1.2.;.< o o o o o o o o $ y y X.6.6.6.6.6.6.6.6.6.6.6.6.6.6.6.6.6.6.6.6.6.6.",
"6.6.6.6.6.6.6.6.6.6.6.3 = o # i X.6.6.6.Z - . X o o X . .   o o o o o o : 3 e &.&.6.6.6.6.6.6.6.6.6.6.6.6.6.6.6.6.6.6.6.6.6.6.6.",
"6.6.6.6.6.6.6.6.6.6.6.&.B o t &.6.6.6.6.&.I o o o o o o o o o o o o o o P &.&.6.6.6.6.6.6.6.6.6.6.6.6.6.6.6.6.6.6.6.6.6.6.6.6.6.",
"6.6.6.6.6.6.6.6.6.6.6.6.&.&.&.6.6.6.6.6.6.6.&.X.o o o o o o o 3 X.&.&.&.6.6.o 6.6.6.6.6.6.6.6.6.6.6.6.6.6.6.6.6.6.6.6.6.6.6.6.6.",
"6.6.6.6.6.6.6.6.6.6.6.6.6.6.6.6.6.6.6.6.6.6.6.6.X.X.X.X.X.X.X.o.%.6.6.6.6.6.6.6.6.6.6.6.6.6.6.6.6.6.6.6.6.6.6.6.6.6.6.6.6.6.6.6.",
"6.6.6.6.6.6.6.6.6.6.6.6.6.6.6.6.6.6.6.6.6.6.6.6.6.6.6.6.6.6.6.6.6.6.6.6.6.6.6.6.6.6.6.6.6.6.6.6.6.6.6.6.6.6.6.6.6.6.6.6.6.6.6.6.",
"6.6.6.6.6.6.6.6.6.6.6.6.6.6.6.6.o 6.6.6.6.6.6.6.6.6.6.6.6.6.6.6.6.6.6.6.6.6.6.6.6.6.6.6.6.6.6.6.6.6.6.6.6.6.6.6.6.6.6.6.6.6.6.6.",
"6.6.6.6.6.6.6.6.6.6.6.6.6.6.6.6.6.6.6.6.6.6.6.6.6.6.6.6.6.6.6.6.6.6.6.6.6.6.6.6.6.6.6.6.6.6.6.6.6.6.6.6.6.6.6.6.6.6.6.6.6.6.6.6.",
"6.6.6.6.6.6.6.6.6.6.6.6.6.6.6.6.6.6.6.6.6.6.6.6.6.6.6.6.6.6.6.6.6.6.6.6.6.6.6.6.6.6.6.6.6.6.s I 6.6.6.6.6.6.6.6.6.6.6.6.6.6.6.6.",
"6.6.6.6.6.6.6.6.6.6.6.6.6.6.6.6.6.6.6.6.6.6.6.6.6.6.6.6.6.6.6.6.6.6.6.6.6.6.6.6.6.6.6.6.6.6.* y 6.6.6.6.6.6.6.6.6.6.6.6.6.6.6.6.",
"6.6.6.6.6.6.6.6.6.6.6.6.6.6.6.6.6.6.6.6.o o 6.6.6.6.6.6.6.6.6.6.6.6.6.6.6.6.6.6.6.6.6.6.6.6.y &.6.6.6.6.6.6.6.6.6.6.6.6.6.6.6.6.",
"6.6.6.6.6.6.6.6.6.6.6.6.6.6.6.6.6.6.6.6.6.6.6.6.6.6.6.6.6.6.6.6.6.6.6.6.6.6.6.6.6.6.6.6.6.6.6.6.6.6.6.6.6.6.6.6.6.6.6.6.6.6.6.6.",
"6.6.6.6.6.6.6.6.6.6.6.6.6.6.6.6.6.6.6.6.6.6.6.6.6.6.6.6.6.6.6.6.6.6.6.6.6.6.6.6.6.6.6.6.6.6.6.6.6.6.6.6.6.6.6.6.6.6.6.6.6.6.6.6.",
"6.6.6.6.6.6.6.6.6.6.6.6.6.6.6.6.6.6.6.6.6.6.6.6.6.6.6.6.6.6.6.6.6.6.6.6.6.6.6.6.6.6.6.6.6.6.6.6.6.6.6.6.6.6.6.6.6.6.6.6.6.6.6.6.",
"6.6.6.6.6.6.6.6.6.6.6.6.6.6.6.6.6.6.6.6.6.6.6.6.6.6.6.6.6.6.6.6.6.6.6.6.6.6.6.6.6.6.6.6.6.6.6.6.6.6.6.6.6.6.6.6.6.6.6.6.6.6.6.6.",
"6.6.6.6.6.6.6.6.6.6.6.6.6.6.6.6.6.6.6.6.6.6.6.6.6.6.6.6.6.6.6.6.6.6.6.6.6.6.6.6.6.6.6.6.6.6.6.6.6.6.6.6.6.6.6.6.6.6.6.6.6.6.6.6.",
"6.6.6.6.6.6.6.6.6.6.6.6.6.6.6.6.6.6.6.6.6.6.6.6.6.6.6.6.6.6.6.6.6.6.6.6.6.6.6.6.6.6.6.6.6.6.6.6.6.6.6.6.6.6.6.6.6.6.6.6.6.6.6.6.",
"6.6.6.6.6.6.6.6.6.6.6.6.6.6.6.6.6.6.6.6.6.6.6.6.6.6.6.6.6.6.6.6.6.6.6.6.6.6.6.6.6.6.6.6.6.6.6.6.6.6.6.6.6.6.6.6.6.6.6.6.6.6.6.6.",
"6.6.6.6.6.6.6.6.6.6.6.6.6.6.6.6.6.6.6.6.6.6.6.6.6.6.6.6.6.6.6.6.6.6.6.6.6.6.6.6.6.6.6.6.6.6.o 6.6.6.6.6.6.6.6.6.6.6.6.6.6.6.6.6.",
"6.6.6.6.6.6.6.6.6.6.6.6.6.6.6.6.6.6.6.6.6.6.6.6.6.6.6.6.6.6.6.6.6.6.6.6.6.6.6.6.6.6.6.6.6.6.6.6.6.6.6.6.6.6.6.6.6.6.6.6.6.6.6.6.",
"6.6.6.6.6.6.6.6.6.6.6.6.6.6.6.6.6.6.6.6.6.6.6.6.6.6.6.6.6.6.6.6.6.6.6.6.6.6.6.6.6.6.6.6.6.6.6.6.6.6.6.6.6.6.6.6.6.6.6.6.6.6.6.6.",
"6.6.6.6.6.6.6.6.6.6.6.6.6.6.6.6.6.6.6.6.6.6.6.6.6.6.6.6.6.6.6.6.6.6.6.6.6.6.6.6.6.6.6.6.6.6.6.6.6.6.6.6.6.6.6.6.6.6.6.6.6.6.6.6.",
"6.6.6.6.6.6.6.6.6.6.6.6.6.6.6.6.6.6.6.6.6.6.6.6.6.6.6.6.6.6.6.6.6.6.6.6.6.6.6.6.6.6.6.6.6.6.6.6.6.6.6.6.6.6.6.6.6.6.6.6.6.6.6.6.",
"6.6.6.6.6.6.6.6.6.6.6.6.6.6.6.6.6.6.6.6.6.6.6.6.6.6.6.6.6.6.6.6.6.6.6.6.6.6.6.6.6.6.6.6.6.6.6.6.6.6.6.6.6.6.6.6.6.6.6.6.6.6.6.6.",
"6.6.6.6.6.6.6.6.6.6.6.6.6.6.6.6.6.6.6.6.6.6.6.6.6.6.6.6.6.6.6.6.6.6.6.6.6.6.6.6.6.6.6.6.6.6.6.6.6.6.6.6.6.6.6.6.6.6.6.6.6.6.6.6.",
"6.6.6.6.6.6.6.6.6.6.6.6.6.6.6.6.6.6.6.6.6.6.6.6.6.6.6.6.6.6.6.6.6.6.6.6.6.6.6.6.6.6.6.6.6.6.6.6.6.6.6.6.6.6.6.6.6.6.6.6.6.6.6.6.",
"6.6.6.6.6.6.6.6.6.6.6.6.6.6.6.6.6.6.6.6.6.6.6.6.6.6.6.6.6.6.6.6.6.6.6.6.6.6.6.6.6.6.6.6.6.6.6.6.6.6.6.6.6.6.6.6.6.6.6.6.6.6.6.6."
};
