/* XPM */
static char *result[] = {
/* columns rows colors chars-per-pixel */
"64 64 121 2 ",
"   c #1D2223",
".  c #1D2324",
"X  c #202020",
"o  c #202021",
"O  c #202121",
"+  c gray13",
"@  c #222222",
"#  c #222223",
"$  c #212325",
"%  c #222324",
"&  c #232324",
"*  c #232325",
"=  c #232425",
"-  c #212427",
";  c #242426",
":  c #252527",
">  c #242626",
",  c #252628",
"<  c #262628",
"1  c #27272A",
"2  c #21272C",
"3  c #27282B",
"4  c #21292E",
"5  c #22282E",
"6  c #252C2C",
"7  c #272D2D",
"8  c #28282C",
"9  c #28292C",
"0  c #29292D",
"q  c #2A2A2E",
"w  c #292F2F",
"e  c #222A31",
"r  c #2B2B30",
"t  c #2B2C31",
"y  c #2C2C31",
"u  c #2C2D32",
"i  c #2D2D33",
"p  c #2D2E33",
"a  c #2E2E34",
"s  c #2E2F34",
"d  c #2E2E35",
"f  c #2F2F35",
"g  c #2F2F36",
"h  c #2A3131",
"j  c #303037",
"k  c #303138",
"l  c #313139",
"z  c #313239",
"x  c #33333B",
"c  c #34343D",
"v  c #35363F",
"b  c #363741",
"n  c #373741",
"m  c #373842",
"M  c #383843",
"N  c #383944",
"B  c #393944",
"V  c #3A3A45",
"C  c #3A3B46",
"Z  c #3A3B47",
"A  c #3B3B47",
"S  c #3B3C47",
"D  c #3C3C48",
"F  c #3C3C49",
"G  c #3C3D49",
"H  c #3C3D4A",
"J  c #3D3D4A",
"K  c #3D3E4B",
"L  c #3E3E4C",
"P  c #3F404E",
"I  c gray25",
"U  c #40414E",
"Y  c #40414F",
"T  c #414150",
"R  c #414250",
"E  c #414251",
"W  c #424251",
"Q  c #424352",
"!  c #434453",
"~  c #444554",
"^  c #444555",
"/  c #454657",
"(  c #464757",
")  c #464758",
"_  c #474859",
"`  c #47485A",
"'  c #48495A",
"]  c #48495B",
"[  c #49495B",
"{  c #494A5C",
"}  c #4A4A5D",
"|  c #4A4B5E",
" . c #4B4C5E",
".. c #4B4C5F",
"X. c #555657",
"o. c #4C4D60",
"O. c #4D4E62",
"+. c #4E4F63",
"@. c #4E4F64",
"#. c #4F5064",
"$. c #4F5065",
"%. c #505166",
"&. c #505167",
"*. c #515267",
"=. c #525369",
"-. c #53546A",
";. c #53546B",
":. c #54556C",
">. c #5F6061",
",. c #646565",
"<. c DimGray",
"1. c #747474",
"2. c #919598",
"3. c #A8ABAC",
"4. c #ACB0B3",
"5. c #BEBFBF",
"6. c #C8CACC",
"7. c #D4D6D6",
"8. c #E4E4E4",
"9. c white",
"0. c None",
/* pixels */
"0.0.0.0.0.0.0.0.0.0.0.0.0.0.0.0.0.0.0.0.0.0.0.0.0.0.0.0.0.0.0.0.0.0.0.0.0.0.0.0.0.0.0.0.0.0.0.0.0.0.0.0.0.0.0.0.0.0.0.0.0.0.0.0.",
"0.0.0.0.0.0.0.0.0.0.0.0.0.0.0.0.0.0.0.0.0.0.0.0.0.0.0.0.0.0.0.0.0.0.0.0.0.0.0.0.0.0.0.0.0.0.0.0.0.0.0.0.0.0.0.0.0.0.0.0.0.0.0.0.",
"0.0.0.0.0.0.0.0.0.0.0.0.0.0.0.0.0.0.0.0.0.0.0.0.0.0.0.0.0.0.0.0.0.0.0.0.0.0.0.0.0.0.0.0.0.0.0.0.0.0.0.0.0.0.0.0.0.0.0.0.0.0.0.0.",
"0.0.0.0.0.0.0.0.0.0.0.0.0.0.0.0.0.0.0.0.0.0.0.0.0.0.0.0.0.0.0.0.0.0.0.0.0.0.0.0.0.0.0.0.0.0.0.0.0.0.0.0.0.0.0.0.0.0.0.0.0.0.0.0.",
"0.0.0.0.0.0.0.0.0.0.0.0.0.0.0.0.0.0.0.0.0.0.0.0.0.0.0.0.0.0.0.0.0.0.0.0.0.0.0.0.0.0.0.0.0.0.0.0.0.0.0.0.0.0.0.0.0.0.0.0.0.0.0.0.",
"0.0.0.0.0.0.0.0.0.0.0.0.0.0.0.0.0.0.0.0.0.0.0.0.0.0.0.0.0.0.0.0.0.0.0.0.0.0.0.0.0.0.0.0.0.0.0.0.0.0.0.0.0.0.0.0.0.0.0.0.0.0.0.0.",
"0.0.0.0.0.0.0.0.0.0.0.0.0.0.0.0.0.0.0.0.0.0.0.0.0.0.0.0.0.0.0.0.0.0.0.0.0.0.0.0.0.0.0.0.0.0.0.0.0.0.0.0.0.0.0.0.0.0.0.0.0.0.0.0.",
"0.0.0.0.0.0.0.0.0.0.0.0.0.0.0.0.0.0.0.0.0.0.0.0.0.0.0.0.0.0.0.0.0.0.0.0.0.0.0.0.0.0.0.0.0.0.0.0.0.0.0.0.0.0.0.0.0.0.0.0.0.0.0.0.",
"0.0.0.0.0.0.0.0.0.0.0.0.0.0.0.0.0.0.0.0.0.0.0.0.0.0.0.0.0.0.0.0.0.0.0.0.0.0.0.0.0.0.0.0.0.0.0.0.0.0.0.0.0.0.0.0.0.0.0.0.0.0.0.0.",
"0.0.0.0.0.0.0.0.0.0.0.0.0.0.0.0.0.0.0.0.0.0.0.0.0.0.0.0.0.0.0.0.0.0.0.0.0.0.0.0.0.0.0.0.0.0.0.0.0.0.0.0.0.0.0.0.0.0.0.0.0.0.0.0.",
"0.0.0.0.0.0.0.0.0.0.0.0.0.0.0.0.0.0.0.0.0.0.0.0.0.0.0.0.0.0.0.0.0.0.0.0.0.0.0.0.0.0.0.0.0.0.0.0.0.0.0.0.0.0.0.0.0.0.0.0.0.0.0.0.",
"0.0.0.0.0.0.0.0.0.0.0.0.0.0.0.0.0.0.0.0.0.0.0.0.0.0.0.0.0.0.0.0.0.0.0.0.0.0.0.0.0.0.0.0.0.0.0.0.0.0.0.0.0.0.0.0.0.0.0.0.0.0.0.0.",
"0.0.0.0.0.0.0.0.0.0.0.0.0.0.0.0.0.0.0.0.0.0.0.0.0.0.0.0.0.0.0.0.0.0.0.0.0.0.0.0.0.0.0.0.0.0.0.0.0.0.0.0.0.0.0.0.0.0.0.0.0.0.0.0.",
"0.0.0.0.0.0.0.0.0.0.0.0.0.0.0.0.0.0.0.0.0.0.0.0.0.0.0.0.0.0.0.0.0.0.0.0.0.0.0.0.0.0.0.0.0.0.0.0.0.0.0.0.0.0.0.0.0.0.0.0.0.0.0.0.",
"0.0.0.0.0.0.0.0.0.0.0.0.0.0.0.0.0.0.0.0.0.0.0.0.0.0.0.0.0.0.0.0.0.0.0.0.0.0.0.0.0.0.0.0.0.0.0.0.0.0.0.0.0.0.0.0.0.0.0.0.0.0.0.0.",
"0.0.0.0.0.0.0.0.0.0.0.0.0.0.0.0.0.0.0.0.0.0.0.0.0.0.0.0.0.0.0.0.0.0.0.0.0.0.0.0.0.0.0.0.0.0.0.0.0.0.0.0.0.0.0.0.0.0.0.0.0.0.0.0.",
"0.0.0.0.0.0.0.0.0.0.0.0.0.0.0.0.0.0.0.0.0.0.0.0.0.0.0.0.0.0.0.0.0.0.0.0.0.0.0.0.0.0.0.0.0.0.0.0.0.0.0.0.0.0.0.0.0.0.0.0.0.0.0.0.",
"0.0.0.0.0.0.0.0.0.0.0.0.0.0.0.0.0.0.0.0.0.0.0.0.0.0.0.0.0.0.0.0.0.0.0.0.0.0.0.0.0.0.0.0.0.0.0.0.0.0.0.0.0.0.0.0.0.0.0.0.0.0.0.0.",
"0.0.0.0.0.0.0.0.0.0.0.0.0.0.0.0.0.0.0.0.0.0.0.0.0.0.0.0.0.0.0.0.0.0.0.0.0.0.0.0.0.0.0.0.0.0.0.0.0.0.0.0.0.0.0.0.0.0.0.0.0.0.0.0.",
"0.0.0.0.0.0.0.0.0.0.0.0.0.0.0.0.0.0.0.0.0.0.0.0.0.0.0.0.0.0.0.:.:.0.0.0.0.0.0.0.0.0.0.0.0.0.0.0.0.0.0.0.0.0.0.0.0.0.0.0.0.0.0.0.",
"0.0.0.0.0.0.0.0.0.0.0.0.0.0.0.0.0.0.0.0.0.0.:.0.0.0.0.0.0.:.o.A A o.0.0.0.0.0.0.0.0.0.0.0.0.0.0.0.0.0.0.0.0.0.0.0.0.0.0.0.0.0.0.",
"0.0.0.0.0.0.0.0.0.0.0.0.0.0.0.0.0.0.0.0.0.0.$.W 0.0.0.0.] / | = = | 0.0.0.0.0.0.0.0.0.0.0.0.0.0.0.0.0.0.0.0.0.0.0.0.0.0.0.0.0.0.",
"0.0.0.0.0.0.0.0.0.0.0.0.0.0.0.0.0.0.0.0.0.0._ : _ 0.0.:.T q Q f g ..0.0.0.0.0.0.0.0.0.0.0.0.0.0.0.0.0.0.0.0.0.0.0.0.0.0.0.0.0.0.",
"0.0.0.0.0.0.0.0.0.0.0.0.0.0.0.0.0.0.0.0.0.0.Q X X +.+.+.H X 0  .+.0.0.0.0.0.0.0.0.0.0.0.0.0.0.0.0.0.0.0.0.0.0.0.0.0.0.0.0.0.0.0.",
"0.0.0.0.0.0.0.0.0.0.0.0.0.0.0.0.0.0.0.0.:.R X X X X X X X X X X = | :.0.0.0.0.0.0.0.0.0.0.0.0.0.0.0.0.0.0.0.0.0.0.0.0.0.0.0.0.0.",
"0.0.0.0.0.0.0.0.0.0.0.0.0.0.0.0.0.0.0.:.C X X X X X X X X X X X X X X T 0.0.0.0.0.0.0.0.0.0.0.0.0.0.0.0.0.0.0.0.0.0.0.0.0.0.0.0.",
"0.0.0.0.0.0.0.0.0.0.0.0.0.0.0.0.0.0.:.F = X X X X X X X X X X X X X X ; E :.0.0.0.0.0.0.0.0.0.0.0.0.0.0.0.0.0.0.0.0.0.0.0.0.0.0.",
"0.0.0.0.0.0.0.0.0.0.0.0.0.0.0.0.0.0.:.C X X X X X X X X X X X X X X X X k L 0.0.0.0.0.0.0.0.0.0.0.0.0.0.0.0.0.0.0.0.0.0.0.0.0.0.",
"0.0.0.0.0.0.0.0.0.0.0.0.0.0.0.0.0.0.0.Y q I >.- X X <.1.X.$ X X X X X X X p :.0.0.0.0.0.0.0.0.0.0.0.0.0.0.0.0.0.0.0.0.0.0.0.0.0.",
"0.0.0.0.0.0.0.0.0.0.0.0.0.0.0.0.0.0.0.} c 1.6.e X X 8.9.4.5 X X X X X X X q ` 0.0.0.0.0.0.0.0.0.0.0.0.0.0.0.0.0.0.0.0.0.0.0.0.0.",
"0.0.0.0.0.0.0.0.0.0.0.0.o.| ..0.0.0.:.C X ,.3.4 X X 5.7.2.2 X X X X X X X X 1 :.0.0.0.0.0.0.0.0.0.0.0.0.0.0.0.0.0.0.0.0.0.0.0.0.",
"0.0.0.0.0.0.0.0.0.0.0.:.S = g :.0.0.:.F * > 7 . X X w h 6   X X X X X X X @ t +.O.;.0.0.0.0.0.0.0.0.0.0.0.0.0.0.0.0.0.0.0.0.0.0.",
"0.0.0.0.0.0.0.0.0.0.0.:.S = g :.0.0.0.@.N # O X X X X O O X + & o X X X X r ( 1 q o.&.0.0.0.0.X X 0.0.0.0.0.0.0.0.0.0.0.0.0.0.0.",
"0.0.0.0.0.0.0.0.0.0.0.0.o.| ..0.0.0.0.:.$.Z X X X X X X X X 8 Q , X X X X & 0 X | s q Q 0.0.0.X X 0.0.0.0.0.0.0.0.0.0.0.0.0.0.0.",
"0.0.0.0.0.0.0.0.0.0.0.0.0.0.0.0.0.0.0.:.T n _ Q X X X X X X q $.) 3 X X X X X X i ~ _ ..0.0.0.0.0.0.0.0.0.0.0.0.0.0.0.0.0.0.0.0.",
"0.0.0.0.0.0.0.0.0.0.0.0.0.0.0.0.0.0.:.~ q 3 c v T T T k u T ^ -.*.q X X X X X X X z o.0.0.0.0.0.0.0.0.0.0.0.0.0.0.0.0.0.0.0.0.0.",
"0.0.0.0.0.0.0.0.0.0.0.0.0.0.0.0.0.0.:.C X X 8 ! :.0.0.( G c c M #.^ 8 X X X X X X X _ 0.0.0.0.0.0.0.0.0.0.0.0.0.0.0.0.0.0.0.0.0.",
"0.0.0.0.0.0.0.0.0.0.0.0.0.0.0.0.0.:.o.c X X p :.:.0.0.0.! p p l +.:.n : X X X X X X K  .0.0.0.0.0.0.0.0.0.0.0.0.0.0.0.0.0.0.0.0.",
"0.0.0.0.0.0.0.0.0.0.0.0.0.0.0.0.0.:.c X X X p :.0.0.0.0.0.:.:.:.0.:.:.c X X X X X X X J @.0.0.' 0 Q 0.0.0.0.0.0.0.0.0.0.0.0.0.0.",
"0.0.0.0.0.0.0.0.0.0.0.0.0.0.0.0.0.:.c X X X p :.0.0.0.0.0.0.0.0.0.:.:.c X X X X X X X X C :.0.X X X T :.0.0.0.0.0.0.0.0.0.0.0.0.",
"0.0.0.0.0.0.0.0.X 0.0.0.X X X 0.:.p X X X X p :.:.0.0.0.0.0.0.0.&.q X X X X X X X X X R :.:.0.+.q X T :.0.0.0.0.0.0.0.0.0.0.0.0.",
"0.0.0.0.0.0.0.0.0.0.0.0.0.0.0.0.:.p X X X X # u :.0.0.0.0.0.0.0.&.q X X X X X X X X X R :.:.0.0.+.+.0.0.0.0.0.0.0.0.0.0.0.0.0.0.",
"0.0.0.0.0.0.0.0.0.0.0.0.0.0.0.0.:.p X X X X X # p :.0.0.0.0.0.O.j & X X X X X X X X X 9 T :.0.0.p 0.0.0.0.0.0.0.0.0.0.0.0.0.0.0.",
"0.0.0.0.0.0.0.0.0.0.0.0.0.0.0.0.:.p X X X X X X X c 0.0.0.0.0.0.W R R u X X X X X X X X C :.0.0.0.0.0.0.0.0.0.0.0.0.0.0.0.0.0.0.",
"0.0.0.0.0.0.0.0.0.0.0.0.0.0.0.o.F 1 X X X X X = C C 0.0.0.0.0.0.0.:.:.c X X X X X X X X C :.0.0.0.0.0.0.0.0.0.0.0.0.0.0.0.0.0.0.",
"0.0.0.0.0.0.0.0.0.0.0.0.0.0.0...b c 3 X X X : b :.:.0.0.0.0.0.0.0.0.0.H 3 X X X X X X u Y 0.0.0.0.0.0.0.0.0.0.0.0.0.0.0.0.0.0.0.",
"0.0.0.0.0.0.0.0.0.0.0.[ } 0.0.0.:.:.c X X X p :.0.0.0.0.0.0.0.0.0.0.0.:.c X X X X X X R :.0.0.0.0.0.0.0.0.0.0.0.0.0.0.0.0.0.0.0.",
"0.0.0.0.0.0.0.0.0.0.:.c n %.:.0.0.:.c X X X p :.0.0.0.0.0.0.0.0.0.0.0.:.c X X X X X : W O.0.# 1 0.0.0.0.0.0.0.0.0.0.0.0.0.0.0.0.",
"0.0.0.0.0.0.0.0.0.0.:.c : d 0.0.0.:.c X X X p :.0.0.0.0.0.0.0.0.0.0.0.:.c X X X X X U 0.q X r | 0.0.0.0.0.0.0.0.0.0.0.0.0.0.0.0.",
"0.0.0.0.0.0.0.0.0.0.0.0.P _ 0.0.0.:.o.c X X p :.0.0.0.0.0.0.0.0.0.0.0.0.{ K X X X Q *.0.0.D ' 0.0.0.0.0.0.0.0.0.0.0.0.0.0.0.0.0.",
"0.0.0.0.0.0.0.0.0.0.0.0.0.0.0.0.0.0.:.C X X p :.0.0.0.0.0.0.0.0.0.0.0.0.:._ X X X +.:.0.0.a 0.0.0.0.0.0.0.0.0.0.0.0.0.0.0.0.0.0.",
"0.0.0.0.0.0.0.0.0.0.0.0.0.0.0.0.0.0.0.! i X 1 D :.0.0.0.0.0.0.0.0.0.0.0.:._ X X C @.:.:.C 0.0.0.0.0.0.0.0.0.0.0.0.0.0.0.0.0.0.0.",
"0.0.0.0.0.0.0.0.0.0.0.0.0.0.0.m < 0.0.0.! C c 1 :.0.0.0.0.0.0.0.0.0.0.0.:._ X X :.y b C C 0.0.0.0.0.0.0.0.0.0.0.0.0.0.0.0.0.0.0.",
"0.0.0.0.0.0.0.0.0.0.0.0.0.0.0.j % 0.0.0.0.:.[ v T 0.0.0.0.0.0.0.0.0.0.0.^ B % c :.1 X u c 0.0.0.0.0.0.0.0.0.0.0.0.0.0.0.0.0.0.0.",
"0.0.0.0.0.0.0.0.0.0.0.0.0.0.0.| 1 0.0.0.0.0.0.+.i :.0.0.0.0.0.0.0.0.0.:.c * l :.:.l i ! 0.0.0.0.0.0.0.0.0.0.0.0.0.0.0.0.0.0.0.0.",
"0.0.0.0.0.0.0.0.0.0.0.0.0.0.0.0.0.0.0.0.0.0.0.0.:.:.0.0.0.0.0.0.0.0.0.:.V x :.0.0.:.:.0.0.0.0.0.0.0.0.0.0.0.0.0.0.0.0.0.0.0.0.0.",
"0.0.0.0.0.0.0.0.0.0.0.0.0.0.0.0.0.0.0.0.0.0.0.0.0.0.0.0.0.0.0.0.0.0.0.:.=.*.0.0.0.0.0.0.0.0.0.0.0.0.0.0.0.0.0.0.0.0.0.0.0.0.0.0.",
"0.0.0.0.0.0.0.0.0.0.0.0.0.0.0.0.0.0.0.0.0.0.0.0.0.0.0.0.0.0.0.0.0.0.0.0.0.0.0.0.0.0.0.0.0.0.0.0.0.0.0.0.0.0.0.0.0.0.0.0.0.0.0.0.",
"0.0.0.0.0.0.0.0.0.0.0.0.0.0.0.0.0.0.0.0.0.0.0.0.0.0.0.0.0.0.0.0.0.0.0.0.0.0.0.0.0.0.0.0.0.0.0.0.0.0.0.0.0.0.0.0.0.0.0.0.0.0.0.0.",
"0.0.0.0.0.0.0.0.0.0.0.0.0.0.0.0.0.0.0.0.0.0.0.0.0.0.0.0.0.0.0.0.0.0.0.0.0.0.0.0.0.0.0.0.0.0.0.0.0.0.0.0.0.0.0.0.0.0.0.0.0.0.0.0.",
"0.0.0.0.0.0.0.0.0.0.0.0.0.0.0.0.0.0.0.0.0.0.0.0.0.0.0.0.0.0.0.0.0.0.0.0.0.0.0.0.0.0.0.0.0.0.0.0.0.0.0.0.0.0.0.0.0.0.0.0.0.0.0.0.",
"0.0.0.0.0.0.0.0.0.0.0.0.0.0.0.0.0.0.0.0.0.0.0.0.0.0.0.0.0.0.0.0.0.0.0.0.0.0.0.0.0.0.0.0.0.0.0.0.0.0.0.0.0.0.0.0.0.0.0.0.0.0.0.0.",
"0.0.0.0.0.0.0.0.0.0.0.0.0.0.0.0.0.0.0.0.0.0.0.0.0.0.0.0.0.0.0.0.0.0.0.0.0.0.0.0.0.0.0.0.0.0.0.0.0.0.0.0.0.0.0.0.0.0.0.0.0.0.0.0.",
"0.0.0.0.0.0.0.0.0.0.0.0.0.0.0.0.0.0.0.0.0.0.0.0.0.0.0.0.0.0.0.0.0.0.0.0.0.0.0.0.0.0.0.0.0.0.0.0.0.0.0.0.0.0.0.0.0.0.0.0.0.0.0.0."
};
