/* XPM */
static char *result[] = {
/* columns rows colors chars-per-pixel */
"64 64 14 1 ",
"  c #202020",
". c #252628",
"X c #27272A",
"o c #2A2A2E",
"O c #34343D",
"+ c #393A45",
"@ c #3A3A46",
"# c #3A3B46",
"$ c #414150",
"% c #464757",
"& c #474859",
"* c #505167",
"= c #54556C",
"- c None",
/* pixels */
"----------------------------------------------------------------",
"----------------------------------------------------------------",
"----------------------------------------------------------------",
"----------------------------------------------------------------",
"----------------------------------------------------------------",
"----------------------------------------------------------------",
"----------------------------------------------------------------",
"----------------------------------------------------------------",
"----------------------------------------------------------------",
"----------------------------------------------------------------",
"----------------------------------------------------------------",
"----------------------------------------------------------------",
"----------------------------------------------------------------",
"----------------------------------------------------------------",
"----------------------------------------------------------------",
"----------------------------------------------------------------",
"----------------------------------------------------------------",
"--------------------  ------------=-----------------------------",
"-------------------   -----------=+o$---  ----------------------",
"------------------     ----------@X $=--   ---------------------",
"-----------------     ------ ----.O#%---    --------------------",
"----------------     -----------*o&=-----    -------------------",
"---------------     ----------------------    ------------------",
"---------------     ----- ------------   -    ------------------",
"--------------      ----- --------- --   -     -----------------",
"------------  -   --   --   ----- -----        -----------------",
"------------       -   -    ----- -----        -----------------",
"------------        - --    ----- -----        -----------------",
"------------        ----     - -    ---       - ----------------",
"-----------      -  -- -     -       --       - ----------------",
"-----------      -   - -              -       - ----------------",
"-----------      -        -                     ----------------",
"-----------      --       -                   - ----------------",
"-----------  -   --  --   -     -  -   -        - --------------",
"-----------      --  ---  --    -  -----  -     - --------------",
"-----------      -------  ---  --- -----  -     - --------------",
"-----------  -   -------- ---  --------   -     - --------------",
"------------     -------- ---  ------ -   -     - --------------",
"------------     ------------ ---- ----  -     -- --------------",
"------------     -------- ------------- --     -- --------------",
"--------------   ------------------------- -  --  --------------",
"-------------- - -------------------------   --- ---------------",
"---------------  -------------------------   --- ---------------",
"----------------  ------------------------  --------------------",
"----------------- ------------------------ ---------------------",
"----------------------------------------- ----- ----------------",
"----------------------------------------- ----------------------",
"-----------------   --------------------------------------------",
"------------------  -----------------------   ------------------",
"-------------------------------------------   ------------------",
"--------------- ------------------------------------------------",
"----------------------------------------------------------------",
"----------------------------------------------------------------",
"----------------------------------------------------------------",
"----------------------------------------------------------------",
"------------------------------------------- --------------------",
"----------------------------------------------------------------",
"----------------------------------------------------------------",
"----------------------------------------------------------------",
"----------------------------------------------------------------",
"----------------------------------------------------------------",
"----------------------------------------------------------------",
"----------------------------------------------------------------",
"----------------------------------------------------------------"
};
