/* XPM */
static char *right_enemy31672276693[] = {
/* columns rows colors chars-per-pixel */
"64 64 2 1 ",
"  c None",
". c #202020",
/* pixels */
"                                                                ",
"                                                                ",
"                                                                ",
"                                                                ",
"                                                                ",
"                                                                ",
"                                                                ",
"                                                                ",
"                                                                ",
"                                                                ",
"                                                                ",
"                                                                ",
"                                                                ",
"                                                                ",
"                                                                ",
"                                                                ",
"                                             ..                 ",
"                      ..                     ..                 ",
"                      ..                        ..              ",
"                      ..                        ..              ",
"                                                 .              ",
"        .          .. .  .                                      ",
"                  ..     .                       ..             ",
"                  ..    .                        ...            ",
"                 ...   ..                         ...           ",
"                 ...   ..                         .. .  .       ",
"                 ...  . .                         ....          ",
"                 ..  ....                         ....          ",
"                 .   ....  ..                     .....         ",
"                ..  ..... ...   .     .           .....         ",
"                .. ..... .... .     ...  .        .... .        ",
"                .. ..... ...    .   ...  ..  .    .... .        ",
"                .. ..... ...    .. ....  ...   .  ......        ",
"                .. ......... .. .. ..... ....  .  .... .        ",
"                 . ..................... .......  ......        ",
"                   ..................... ........ ......        ",
"                   .............................. ......        ",
"                   .......... .............. . .. ......        ",
"                   ..........  ....... ..... .  . ......        ",
"                   ..........  . .. .. .....    ........        ",
"                   ..........    .      .... .. ........        ",
"                   ..........    .      ..   ..  ......         ",
"                    ..... .... .         .      .......         ",
"                     .... ....           .      ......          ",
"                     ....  ..                  ......           ",
"                     ....                      .....            ",
"                      ...                     . ...             ",
"                      ....                   . ...              ",
"                      ....                   ....               ",
"                       . .                   ...                ",
"                                                                ",
"                                                                ",
"                                                                ",
"                                                                ",
"                                                                ",
"                                                                ",
"                                                                ",
"                                                                ",
"                                                                ",
"                                                                ",
"                                                                ",
"                                                                ",
"                                                                ",
"                                                                "
};
