/* XPM */
static char *right_enemy21672276693[] = {
/* columns rows colors chars-per-pixel */
"64 64 111 2 ",
"   c None",
".  c #1B2323",
"X  c #1E2121",
"o  c #1C2323",
"O  c #202020",
"+  c #202021",
"@  c #202121",
"#  c gray13",
"$  c #202122",
"%  c #212122",
"&  c #202222",
"*  c #202223",
"=  c #212223",
"-  c #222223",
";  c #222324",
":  c #232324",
">  c #232325",
",  c #232425",
"<  c #242425",
"1  c #242426",
"2  c #252527",
"3  c #252528",
"4  c #252628",
"5  c #262628",
"6  c #262629",
"7  c #262729",
"8  c #27272A",
"9  c #22272C",
"0  c #27282B",
"q  c #28282C",
"w  c #28292C",
"e  c #29292D",
"r  c #292A2D",
"t  c #2A2A2E",
"y  c #222A31",
"u  c #222B33",
"i  c #2B2B30",
"p  c #2A2F33",
"a  c #2C2C31",
"s  c #2C2D32",
"d  c #2D2D33",
"f  c #2D2E33",
"g  c #2F2F35",
"h  c #2D353A",
"j  c #323232",
"k  c #303138",
"l  c #313138",
"z  c #313239",
"x  c #32333A",
"c  c #33333B",
"v  c #30373E",
"b  c #34343D",
"n  c #34353E",
"m  c #35363F",
"M  c #393939",
"N  c #3C3C3C",
"B  c #363741",
"V  c #373741",
"C  c #383944",
"Z  c #393944",
"A  c #393A45",
"S  c #3A3B46",
"D  c #3A3B47",
"F  c #3B3C47",
"G  c #3C3D4A",
"H  c #3D3D4A",
"J  c #3D3E4B",
"K  c #3E3E4C",
"L  c #3E3F4C",
"P  c #40404E",
"I  c #40414E",
"U  c #414150",
"Y  c #414250",
"T  c #414251",
"R  c #424251",
"E  c #424352",
"W  c #434353",
"Q  c #444554",
"!  c #444555",
"~  c #454656",
"^  c #474859",
"/  c #48495A",
"(  c #48495B",
")  c #494A5C",
"_  c #494A5D",
"`  c #4A4A5D",
"'  c #4A4B5E",
"]  c #4B4B5E",
"[  c #4B4C5F",
"{  c gray33",
"}  c #4C4D60",
"|  c #4D4E61",
" . c #4D4E62",
".. c #4E4E63",
"X. c #4E4F63",
"o. c #4E4F64",
"O. c #4F5065",
"+. c #505166",
"@. c #515267",
"#. c #525368",
"$. c #52536A",
"%. c #53546B",
"&. c #54556C",
"*. c DimGray",
"=. c #747474",
"-. c #929394",
";. c #ACACAC",
":. c #BEC1C2",
">. c #D6D7D9",
",. c #E3E4E4",
"<. c white",
/* pixels */
"                                                                                                                                ",
"                                                                                                                                ",
"                                                                                                                                ",
"                                                                                                                                ",
"                                                                                                                                ",
"                                                                                                                                ",
"                                                                                                                                ",
"                                                                                                                                ",
"                                                                                                                                ",
"                                                                                                                                ",
"                                                                                                                                ",
"                                                &.                                                                              ",
"                                      &.      &.S ..                              K '                                           ",
"                                    ~ ' &.    U n ..                            &.S G (                                         ",
"                                  ( g S &.  ~ O &.                                &.a C '                                       ",
"                                [ q 7 F [ P O q &.                                &.n < n [   &.                                ",
"                              ' a O G F 7 < 7 o.                                    ..l , V &.&.                                ",
"                              ' q O U F O O 8 &.                                    &.b O 7 a l [                               ",
"                            &.[ 0 O U F O O 8 &.                                      ~ l O O 7 '                               ",
"                            ..n < O l a O O 8 &.&.                                    %.S O O < n '                             ",
"                O           ( O O O O O O 0 S S &.                                    &.S O O O O (                             ",
"              O O         ( C O O O O O O q G O &.                                    &.S O O O O ( &.                          ",
"                O       &.U O O O O O O O O O g &.                              %.[   ' n O O O O ^ &.&.                        ",
"              O         &.U O O O O O O O O 0 &.                                &.l W l O O O O O ^ &.&.                        ",
"                        &.U O O O O O O O O 0 &.  &.&.&.                          &.a O O O O O O ( &.&.                        ",
"                        &.U O O O O O O O O O O &.8 o.&.                          &.g X O O O O O O U &.                        ",
"                        &.@.W O O O O O O O O O 0 O           &.&.          &.&.    ..l O O O O O O U &.  O O                   ",
"                        &.[ n O O O O O O O O O F S           @.L ..      O.F &.    &.b O O O O O O U &.  O                     ",
"                        &.U O O O O O O O O O n &.&.          G 7 F [   &.O.O &.    &.b O O O O O g ( &.                        ",
"                    O     U q O O O O O O < l ^ &.      &.@.P ; O O G O...U O ^ (   &.S 7 O O O O ^ &.                          ",
"                  O O       ' q O O O O O i ~ O &.    [ ' P O O O O O P F O O O O P   &.S O O O O ^                             ",
"                            &.( 0 O O O O O < O ....&.F < ; O O O O O G V O O O O ; ^ @.V O O O O ^                             ",
"                              [ t O O O O O O O 8 7 ..S O O O O O O O < ; O O O O O ~ m , O O O < ^                             ",
"                                [ q O O O O O O O O 0 < O O O O O O O O O O O O O O 0 , O O X < W                               ",
"                                  ( l O O O O O O O O O O O O O O O O O O O O O O O O O O O O 0 [                               ",
"                                    ~ U n O O O O O O O O O O X O O O O O O O O O O F a O a U W                                 ",
"                                    &.&...P G O O G U l O O O ; p -.;.{ O O 9 ;.j O ^ ( P ( ..x 7                               ",
"                                  &.&.&.O.( Q a a ~ ^ n O O O O v >.<.=.O ; u <.N t [ %.&.%.W O O                               ",
"                                        U 0 a &.&.8 O O O O O O h :.,.*.O O u ,.M ^ &.&.      O                                 ",
"                                          &.&.&.&.7 O O O O O X o . . X O O . . O (                                             ",
"                                                  &.&.&.&.^ O O O O O O O 0 %.&.&.                                              ",
"                                                          $.O...O.....O...O.                                                    ",
"                                                                                                                                ",
"                                                                                                                                ",
"                                                                                                                                ",
"                                                                                                                                ",
"                                                                                                                                ",
"                                                                                                                                ",
"                                                                                                                                ",
"                                                                                                                                ",
"                                                                                                                                ",
"                                                                                                                                ",
"                                                                                                                                ",
"                                                                                                                                ",
"                                                                                                                                ",
"                                                                                                                                ",
"                                                                                                                                ",
"                                                                                                                                ",
"                                                                                                                                ",
"                                                                                                                                ",
"                                                                                                                                ",
"                                                                                                                                ",
"                                                                                                                                ",
"                                                                                                                                "
};
