/* XPM */
static char *right_enemy71672276694[] = {
/* columns rows colors chars-per-pixel */
"64 64 14 1 ",
"  c None",
". c #202020",
"X c #252628",
"o c #27272A",
"O c #2A2A2E",
"+ c #34343D",
"@ c #393A45",
"# c #3A3A46",
"$ c #3A3B46",
"% c #414150",
"& c #464757",
"* c #474859",
"= c #505167",
"- c #54556C",
/* pixels */
"                                                                ",
"                                                                ",
"                                                                ",
"                                                                ",
"                                                                ",
"                                                                ",
"                                                                ",
"                                                                ",
"                                                                ",
"                                                                ",
"                                                                ",
"                                                                ",
"                                                                ",
"                                                                ",
"                                                                ",
"                                                                ",
"                                                                ",
"                             -            ..                    ",
"                      ..   %O$-           ...                   ",
"                     ...  -%.X$          .....                  ",
"                    ....   &$+X    .      .....                 ",
"                   ....     -*O=           .....                ",
"                  ....                      .....               ",
"                  .... ...            .     .....               ",
"                 ..... ...  .         .     ......              ",
"                 ........     .     ...  ...  ... ..            ",
"                 ........     .     .... ... .......            ",
"                 ........     .     ....  . ........            ",
"                . .......   .... . .....    ........            ",
"                . .......  ....... ..... .  .. ......           ",
"                . ....... .............. . ... ......           ",
"                ..................... ........ ......           ",
"                . ................... .......  ......           ",
"              . ........ ... .. ..... ...  ..  ... ..           ",
"              . ..... ..     .. ....  ..   ..  ......           ",
"              . ..... ..     .   ..   ..       ......           ",
"              . ..... ...        ..   .        ... ..           ",
"              . ..... ... .      ..   .        .....            ",
"              .  ..... ..    .    .            .....            ",
"              .  .....  .             .        .....            ",
"              ..  .. .                         ...              ",
"               .   ...                         . .              ",
"               .   ...                         ..               ",
"                    ..                        ..                ",
"                     .                        .                 ",
"                .     .                                         ",
"                      .                                         ",
"                                            ...                 ",
"                  ...                       ..                  ",
"                  ...                                           ",
"                                                .               ",
"                                                                ",
"                                                                ",
"                                                                ",
"                                                                ",
"                    .                                           ",
"                                                                ",
"                                                                ",
"                                                                ",
"                                                                ",
"                                                                ",
"                                                                ",
"                                                                ",
"                                                                "
};
