/* XPM */
static char *right_enemy61672276694[] = {
/* columns rows colors chars-per-pixel */
"64 64 97 2 ",
"   c None",
".  c #1F2121",
"X  c #1E2222",
"o  c #1E2525",
"O  c #202020",
"+  c #202121",
"@  c #202223",
"#  c #222222",
"$  c #202224",
"%  c #212224",
"&  c #222324",
"*  c #232324",
"=  c #232325",
"-  c #232424",
";  c #232425",
":  c #242426",
">  c #252527",
",  c #202528",
"<  c #21262A",
"1  c #262628",
"2  c #27272A",
"3  c #28292C",
"4  c #292A2E",
"5  c #2A2A2E",
"6  c #282F2F",
"7  c #2B2C31",
"8  c #2B2E31",
"9  c #2C2C31",
"0  c #2C2D32",
"q  c #2D2D33",
"w  c #2D2E33",
"e  c #2E2F34",
"r  c #2F2F35",
"t  c #2A3131",
"y  c #2F3036",
"u  c #303037",
"i  c #353535",
"p  c #303138",
"a  c #313139",
"s  c #313239",
"d  c #34343D",
"f  c #34353E",
"g  c #35353E",
"h  c #363740",
"j  c #373741",
"k  c #373841",
"l  c #373F44",
"z  c #383944",
"x  c #3A3A46",
"c  c #3A3B46",
"v  c #383F45",
"b  c #3C3C48",
"n  c #3C3C49",
"m  c #3C3D4A",
"M  c #3D3E4B",
"N  c #3E3E4B",
"B  c #3E3F4B",
"V  c #3E3E4C",
"C  c #3F404D",
"Z  c #3E454C",
"A  c #3E464D",
"S  c #40414F",
"D  c gray30",
"F  c #414150",
"G  c #414250",
"H  c #424251",
"J  c #424352",
"K  c #434453",
"L  c #444555",
"P  c #454656",
"I  c #464757",
"U  c #474859",
"Y  c #47485A",
"T  c #48495A",
"R  c #48495B",
"E  c #494A5C",
"W  c #4A4A5D",
"Q  c #4A4B5E",
"!  c #4B4C5F",
"~  c #585858",
"^  c #4C4D60",
"/  c #4D4E62",
"(  c #4E4F63",
")  c #4E4F64",
"_  c #4F5065",
"`  c #505167",
"'  c #515267",
"]  c #515268",
"[  c #52536A",
"{  c #53546A",
"}  c #54556C",
"|  c #696A6A",
" . c #747474",
".. c #BEC0C1",
"X. c #D4D6D6",
"o. c #E4E5E6",
"O. c white",
/* pixels */
"                                                                                                                                ",
"                                                                                                                                ",
"                                                                                                                                ",
"                                                                                                                                ",
"                                                                                                                                ",
"                                                                                                                                ",
"                                                                                                                                ",
"                                                                                                                                ",
"                                                                                                                                ",
"                                                                                                                                ",
"                                                                                                                                ",
"                                                                                                                                ",
"                                                                                                                                ",
"                                                                                                                                ",
"                                                                                                                                ",
"                                                                                                                                ",
"                                                                                                                                ",
"                                                                                                                                ",
"                                                    } }                                                                         ",
"                                                  } M c S                                                                       ",
"                                                } c ; O 4 M }                                                                   ",
"                                                } O O O O q ' K         P F                                                     ",
"                                                } q q q q j ! 4 (     ( c 2 }                                                   ",
"                                                  } } } } [ P 4 (   3 C j 2 ( }                                                 ",
"                                                      } { U O 2 ( { } d O O O }                                                 ",
"                                              }   } } c O O O O O O O O O O O O (                                               ",
"                                            } } } 2 2 ; O O O O O O O O O O O O (                                               ",
"                                            ' c c O O O O O O O O O O O O O O O j )                                             ",
"                                          } ( O O O O O O O O 6 |  .i O X q  .X O _                                             ",
"                                        } } ( O O O O O O O X Z o.O.~ O < A O.O 7 _                                             ",
"                                      } ' Q P O O O O O O O O C ..X.D O o c X.O I }                                             ",
"                                    } ' M ; * O O O O O O O X o 6 t ; O X o t O O _ }                                           ",
"                                { [ ' c : O O O : O O O O O O O O O O O O O O O - ! '                                           ",
"                                } d 5 2 O O O O Q O O O O O O O O O O O O O O O P u 4 F c O                                     ",
"                              ^ s : O O O O ; T } O O O r N O O O O O O O O O U u O O S W                                       ",
"                            T s * O O O O O 2 } d O O u T T O O O O O f F F F f : O O q S                                       ",
"                            U O O O O O O O 2 } S S F c f j H S F F F T       F : O O O c }                                     ",
"                          Q M O O O O O O O 2 { } T T d ; f } } } } }         } 3 O O O c }                                     ",
"                        } F O O O O O O O O 2 ( } 2 2 : f }                 } _ ; O O O j (                                     ",
"                        } S O O O O O O O O O O } } } {                     } O O O O O O f }                                   ",
"                        } F O O O O O O O O O O }                       { _ O O O O O O O d }                                   ",
"                        } F O O O O O O O O O O }                       { _ O O O O O O O d }                                   ",
"                  O O   } F O O O O O O O O O O q }                     } _ O O O O O O X f }                                   ",
"                  O O     T c O O O O O O O : F O f (                   C u O K ; O O O s T }                                   ",
"                    O       U O O O O O O 2 n } c c _                 } U c c } 2 O O O c {                                     ",
"                            U O O O O O O q }   } }                     } } } } 2 O O O c }                                     ",
"                    O       U * q : O O ; k }                                 } 2 O O 2 F }                                     ",
"                            T r ( q O O f } }                                 } 2 O O K } }                                     ",
"                              ( } q O O f }                                   } 3 O O F }                                       ",
"                                  T e O d }                                 } q O O M !     O O                                 ",
"                                  } f O d }                                 } O O M !       O O                                 ",
"                                    S q 4 M                               ) c c c `         O                                   ",
"                                      K u 2 M }                         } ' c } }                                               ",
"                                      F P f f }                           } }                                                   ",
"                                  O O O   } }                                                                                   ",
"                                    O                               O                                                           ",
"                                                                                                                                ",
"                                                                                                                                ",
"                                                                                                                                ",
"                                                                                                                                ",
"                                                                                                                                ",
"                                                                                                                                ",
"                                                                                                                                ",
"                                                                                                                                "
};
