/* XPM */
static char *right_enemy81672276694[] = {
/* columns rows colors chars-per-pixel */
"64 64 113 2 ",
"   c None",
".  c #1F2121",
"X  c #1D2222",
"o  c #1C2323",
"O  c #1D2323",
"+  c #202020",
"@  c #202021",
"#  c gray13",
"$  c #212325",
"%  c #222324",
"&  c #232324",
"*  c #232325",
"=  c #232425",
"-  c #202426",
";  c #212526",
":  c #212427",
">  c #242426",
",  c #252527",
"<  c #212529",
"1  c #20272B",
"2  c #252628",
"3  c #262628",
"4  c #27272A",
"5  c #27282B",
"6  c #22282E",
"7  c #28282C",
"8  c #28292C",
"9  c #2A2A2E",
"0  c #2B2C31",
"q  c #2C2C31",
"w  c #2C2D32",
"e  c #2D2D33",
"r  c #2D2E33",
"t  c #2E2F35",
"y  c #2F2F35",
"u  c #2F2F36",
"i  c #323232",
"p  c #353535",
"a  c #303138",
"s  c #313138",
"d  c #313139",
"f  c #313239",
"g  c #33333B",
"h  c #34343D",
"j  c #34353D",
"k  c #34353E",
"l  c #35353E",
"z  c #3C3C3C",
"x  c #363740",
"c  c #373741",
"v  c #383942",
"b  c #383843",
"n  c #383943",
"m  c #383944",
"M  c #393A45",
"N  c #3A3A45",
"B  c #3A3B46",
"V  c #3C3C48",
"C  c #3C3C49",
"Z  c #3C3D4A",
"A  c #3D3D4A",
"S  c #3D3E4A",
"D  c #3D3E4B",
"F  c #3E3E4B",
"G  c #3E3F4B",
"H  c #40404E",
"J  c #40414E",
"K  c #40414F",
"L  c #44484C",
"P  c #414150",
"I  c #414250",
"U  c #414251",
"Y  c #424251",
"T  c #424352",
"R  c #434353",
"E  c #434453",
"W  c #444554",
"Q  c #444555",
"!  c #454656",
"~  c #454657",
"^  c #464757",
"/  c #464758",
"(  c #474859",
")  c #47485A",
"_  c #48485A",
"`  c #48495A",
"'  c #48495B",
"]  c #494A5B",
"[  c #4A4B5E",
"{  c #4B4C5F",
"}  c #4A5155",
"|  c #4D4E62",
" . c #4E4F63",
".. c #4E4F64",
"X. c #4F5065",
"o. c #505167",
"O. c #515267",
"+. c #525369",
"@. c #53546B",
"#. c #54556C",
"$. c #596066",
"%. c gray40",
"&. c #737474",
"*. c #787A7C",
"=. c #888D8F",
"-. c #909090",
";. c #9A9A9A",
":. c #ACACAC",
">. c #ACB0B3",
",. c #B1B3B3",
"<. c #C6C8C8",
"1. c gray89",
"2. c white",
/* pixels */
"                                                                                                                                ",
"                                                                                                                                ",
"                                                                                                                                ",
"                                                                                                                                ",
"                                                                                                                                ",
"                                                                                                                                ",
"                                                                                                                                ",
"                                                                                                                                ",
"                                                                                                                                ",
"                                              @.#.#.#.                                                                          ",
"                                          @.[ r r #.#.#.        #.@.#.                                                          ",
"                                      @.^ g y + + #.            +.N g ^ #.#.                                                    ",
"                                    T N a + . > N #.              C 3 a B B                                                     ",
"                                  E 0 + + + + 3 #.                #.N 5 . 3 T                                                   ",
"                                / 9 + + + + & d #.                  #.h + + 3 /                                                 ",
"                              T 3 + + + + + y #.                    #.N 3 + + + [                                               ",
"                            ` 3 + + + + + + y @.                      X.c + + + 3  .#.                                          ",
"                            / + + + + + + 9 [                         #.B + + + + r [                                           ",
"                          E y + + + + + + r @.                        #.B + + + + + (                                           ",
"                        #.T + + + + + + + r #.                        #.B + + + + + h ^ #.                                      ",
"                      @.#.[ h + + + + + + 3 F                         #.N + + + + + + d / #.                                    ",
"                    E T T ` ( + + + + + + + 9 T                       ^ a + + + + + + 0 T                                       ",
"                  ` 9 . 3 C ( + + + + + + + + , (                   #.h + + + + + + + T #.    (                                 ",
"                o.9 + , N  .T + + + + + + + + + +  .              #.@.c 5 3 + + + + + H #.    + 3                               ",
"                o.9 + T N + + + + + + + + + + + + + ..#.              #.#. .+ + + + + T @.    3 [                               ",
"                + + + H @.T + + + + + + + + + + + #.#.#.                #. .+ + + + (         #.                                ",
"                + + + T #.   . . .r + + + + + 3 ..        #.#.    #.#.  #. .+ + + + / @.                                        ",
"                b , + c     #.X.C 3 + + + + + 3 #.      / T #.    #.T ^ T c + + + + h [ #.                                      ",
"                o.b h       #.[ 3 + + + + + + 3 #.    ^ h 9 T     T 5 T ^ d + + + + y ^ #.                                      ",
"                  #.#.      #.{ d & + + + + + 3 ( #.[ g + + 3 / X.9 + N / W 0 + + 0 `         ` (                               ",
"                                #.g 9 , + + + + + [ 3 + + + + 3 T 9 + + + 3 ^ + + X.    #.T + + + H                             ",
"                    &             +.+.V & + + + + > . + + + + + & + + + + + + + 3 ..    X.C + + + + T                           ",
"                o.o.                #.o.C & + + + + + + + + + + + + + + + + + & X.@.    9 5 & + + & T                           ",
"               .y 9 `                 #.+.H + + + + + + + + + + + + + + + + 3 [ #.      [ [ H + + H                             ",
"               .3 + (       #.#.#.#.  #.^ 9 + + + + + + + + + + + + + + + + 3 @.          #.+.( (                               ",
"                T T {       #. .b h E @.T + + + + + . . & L :.;.i + < *.%.+ 5 #.      @.#.#.                                    ",
"                                T 9 0 h r + + + + + + + < $.2.1.z + 6 >.-.3 T     #.N g g F                                     ",
"                                #.h r 5 + + + + + + + + O } <.,.p O O =.&.5 #.    #.y + + y `                                   ",
"                                  #.#.C 4 3 + + + + + + . . o . + + X X > r #.    #.d & + & 3                                   ",
"                                      #.#./ + + + + + + + . . + + + + . N #.        #.h + h #.                                  ",
"                                      + +   #.#.#.#.3 + + + + + + + ` #.#.            #.#.#.                                    ",
"                                                  #.X... . . . .....                                                            ",
"                                                                                                                                ",
"                                                                                  +                                             ",
"                                                                                                                                ",
"                    T h                                                                                                         ",
"                    r , +                                                                                                       ",
"                    #.h                                                   + +                                                   ",
"                                                                                                                                ",
"                                                                                                                                ",
"                                                                                                                                ",
"                                                                                                                                ",
"                                                                                                                                ",
"                                                                                                                                ",
"                                                                                                                                ",
"                      +                                                                                                         ",
"                                                                                                                                ",
"                                                                                                                                ",
"                                                                                                                                ",
"                                                                                                                                ",
"                                                                                                                                ",
"                                                                                                                                ",
"                                                                                                                                ",
"                                                                                                                                "
};
