/* XPM */
static char *right_enemy11672276693[] = {
/* columns rows colors chars-per-pixel */
"64 64 107 2 ",
"   c None",
".  c #1B2323",
"X  c #1F2121",
"o  c #1C2323",
"O  c #1E2222",
"+  c #202020",
"@  c gray13",
"#  c #202122",
"$  c #212122",
"%  c #202223",
"&  c #222222",
"*  c #222223",
"=  c #212224",
"-  c #222324",
";  c #232324",
":  c #232325",
">  c #232425",
",  c #212426",
"<  c #242426",
"1  c #252527",
"2  c #212529",
"3  c #21262A",
"4  c #252628",
"5  c #262628",
"6  c #262629",
"7  c #27272A",
"8  c #27282B",
"9  c #28282B",
"0  c #28292C",
"q  c #2A2A2E",
"w  c #2B2B2F",
"e  c #2B2C30",
"r  c #2C2C31",
"t  c #2D2D33",
"y  c #2D2E33",
"u  c #303037",
"i  c #303138",
"p  c #313138",
"a  c #313239",
"s  c #33373B",
"d  c #33343C",
"f  c #34343D",
"g  c #35353E",
"h  c #35363F",
"j  c #33383C",
"k  c #363740",
"l  c #363741",
"z  c #373741",
"x  c #373842",
"c  c #383843",
"v  c #393944",
"b  c #393A45",
"n  c #3A3B46",
"m  c #3A3B47",
"M  c #3C3C48",
"N  c #3C3C49",
"B  c #3C3D49",
"V  c #3C3D4A",
"C  c #3D3D4A",
"Z  c #3D3E4B",
"A  c #3E3E4B",
"S  c #3F3F4D",
"D  c #3A4147",
"F  c #3E454C",
"G  c #3E464D",
"H  c #434343",
"J  c #40404E",
"K  c #40414E",
"L  c #40414F",
"P  c #414150",
"I  c #414250",
"U  c #424251",
"Y  c #424352",
"T  c #434353",
"R  c #434453",
"E  c #444555",
"W  c #464757",
"Q  c #474859",
"!  c #48485A",
"~  c #48495A",
"^  c #48495B",
"/  c #494A5B",
"(  c #494A5C",
")  c #4A4A5D",
"_  c #4A4B5E",
"`  c #4B4B5E",
"'  c #4B4C5F",
"]  c #515151",
"[  c #585858",
"{  c #4C4D60",
"}  c #4D4E62",
"|  c #4E4F63",
" . c #4E4F64",
".. c #4F5065",
"X. c #505166",
"o. c #505167",
"O. c #515267",
"+. c #525368",
"@. c #52536A",
"#. c #53546A",
"$. c #54556C",
"%. c #9B9B9C",
"&. c #ACACAC",
"*. c #CACCCD",
"=. c #E3E4E4",
"-. c #E4E5E6",
";. c white",
/* pixels */
"                                                                                                                                ",
"                                                                                                                                ",
"                                                                                                                                ",
"                                                                                                                                ",
"                                                                                                                                ",
"                                                                                                                                ",
"                                                                                                                                ",
"                                                                                                                                ",
"                                                                                                                                ",
"                                                                                                                                ",
"                                                $.$.#.                                                                          ",
"                                            $.$.f g O.$.                $.$.$.                                                  ",
"                                    L R #._ n Z + n  .                  $.$.$.$.$.                                              ",
"                                  $.g u P v + + f $.                        $.P P                                               ",
"                                  $.f + + + + y $.                          $.t + R                                             ",
"                                  ' u + + + 4 $.$.                          $.$.9 + L _ |                                       ",
"                                $.p : + + + 4 $.                              $.4 + 1 9 N $.                                    ",
"                              ' p : + + + + 9 $.$.                              ^ 1 + + 4 n $.                                  ",
"                              _ 4 + + + + + ; g $.$.                            $.9 + + + g $.                                  ",
"                            _ g 1 + + + + + : n $.$.                            $.9 + + + q S                                   ",
"                      n n   Q + + + + + + + 4 $.                            $.  $.9 + + + + y $.$.                              ",
"                            Q + + + + + + + 1 P                             P   P ; + + + + q P O.                              ",
"                ~ Q         ~ + + + + + + + + + $.                      $. .+ ! 1 + + + + + ; p _                               ",
"              O.q + Q       ~ 4 + + + + + + + + | |                        .4 + + + + + + + y $.                                ",
"              O.q + Q   $.$.$._ 9 + + + + + + + + + O.#.$.                  $.+ + + + + + + y $.                                ",
"                $.$.    $.P t _ 9 + + + + + + + + + + n $.                    $.9 + + + + + y $.                                ",
"                  9     $.P + 1 + + + + + + + + + + ~ ..      $.          #.  $.4 + + + + + + r _                               ",
"                          Q g + + + + + + + + + + n  .        Z |       T Z $.$.Z ; + + + + 9 N |     $.                        ",
"                            ~ + + + + + + + + + + $.          4 Z     #.n 9 #.  $.4 + + + 4 N $.    E P E                       ",
"                            ~ w + + + + + + + + + Q @.$.    F : > '   ~ g 1 ~   $.q + + + f $.$.  $.g + f $.                    ",
"                  _ _         _ 9 + + + + + + + + + | $.O.S + + + E @.g + + + _ #.4 + + + g O.    @.z q z $.                    ",
"                  q 1         _ t + + + + + + + + + ~ | Z : + + + ; R p + + + : ~ 4 + + : z _ 4 +   ..O.@.                      ",
"                  | r J         | t 1 + + + + + + + 4 4 : + + + + + 1 ; + + + + 4 + + + v |   _ 9                               ",
"                                  ' ' g + + + + + + + + + + + + + + + + + + + + + + + Z |                                       ",
"                                      _ Q Q P + + + + + + + + + + + + + + + + + + P Q O.#.                                      ",
"                                          $.@.P + + + + + + + + + + + + + + + + + | #.$.p     $.$.                              ",
"                                $.t P $.$.$.O.g P + + + + + + s %.&.H + > j &.+ + | #.      4 g g ~                             ",
"                                $.g D Q Q ! P + ~ + + + + + : G -.;.[ + 3 G ;.+ t |         q + + E                             ",
"                                  $.c 4 4 + + + + + + + + + O D *.=.] + 3 D =.+ |     +     Q + +                               ",
"                                    $.$.P + + + + + + + + + O O . . O + O . . +  .                                              ",
"                                          $.$.$.$.+ + + + + + + + + + + + + + $.                                                ",
"                                                $. .| | Z + + + + + + + z | |                                                   ",
"                                                      $. .Q Q Q Q Q Q Q _                                                       ",
"                                                                                                                                ",
"                    + +                                                                                                         ",
"                      +                                                                                                         ",
"                                                                                                                                ",
"                                                                          +                                                     ",
"                                                                                                                                ",
"                                                                                                                                ",
"                                                                                                                                ",
"                                                                                                                                ",
"                                                                                                                                ",
"                                                                                                                                ",
"                                                                                                                                ",
"                                                                                                                                ",
"                                                                                                                                ",
"                                                                                                                                ",
"                                                                                                                                ",
"                                                                                                                                ",
"                                                                                                                                ",
"                                                                                                                                ",
"                                                                                                                                ",
"                                                                                                                                "
};
