/* XPM */
static char *right_enemy51672276693[] = {
/* columns rows colors chars-per-pixel */
"64 64 126 2 ",
"   c None",
".  c #1F2121",
"X  c #1E2223",
"o  c #1F2626",
"O  c #202020",
"+  c #202121",
"@  c #202122",
"#  c #222222",
"$  c #222223",
"%  c #222323",
"&  c #202224",
"*  c #212325",
"=  c #222324",
"-  c #232324",
";  c #232425",
":  c #242425",
">  c #242426",
",  c #252527",
"<  c #21262A",
"1  c #252628",
"2  c #262628",
"3  c #262629",
"4  c #27272A",
"5  c #22272C",
"6  c #232A2A",
"7  c #27282B",
"8  c #28282C",
"9  c #28292C",
"0  c #29292D",
"q  c #2A2A2E",
"w  c #2A2B2F",
"e  c #292F2F",
"r  c #2B2B30",
"t  c #2B2C31",
"y  c #2C2C31",
"u  c #2C2D32",
"i  c #2D2D33",
"p  c #2D2E33",
"a  c #2E2F35",
"s  c #2F2F35",
"d  c #2F2F36",
"f  c #293030",
"g  c #2F3036",
"h  c gray19",
"j  c #303037",
"k  c #303137",
"l  c #313336",
"z  c #303138",
"x  c #313138",
"c  c #313139",
"v  c #313239",
"b  c #33333B",
"n  c #34343C",
"m  c #34343D",
"M  c #34353D",
"N  c #35353E",
"B  c #35363F",
"V  c #363740",
"C  c #363741",
"Z  c #373741",
"A  c #373841",
"S  c #383942",
"D  c #383944",
"F  c #393944",
"G  c #3A3A46",
"H  c #3A3B46",
"J  c #3A3B47",
"K  c #3B3B47",
"L  c #3C3C49",
"P  c #3C3D4A",
"I  c #3D3D4A",
"U  c #3D3E4B",
"Y  c #3E3E4C",
"T  c #3E3F4C",
"R  c #3F404D",
"E  c gray26",
"W  c #40414E",
"Q  c #40414F",
"!  c #424A4F",
"~  c gray29",
"^  c #4A4C4E",
"/  c #414150",
"(  c #414250",
")  c #414251",
"_  c #424352",
"`  c #434353",
"'  c #434453",
"]  c #444554",
"[  c #444555",
"{  c #454656",
"}  c #464757",
"|  c #474859",
" . c #47485A",
".. c #48485A",
"X. c #48495A",
"o. c #494A5B",
"O. c #4A4A5D",
"+. c #4A4B5D",
"@. c #4A4B5E",
"#. c #4B4B5E",
"$. c #4B4C5E",
"%. c #4B4C5F",
"&. c #4C5359",
"*. c #4C4D60",
"=. c #4D4E61",
"-. c #4D4E62",
";. c #4E4E63",
":. c #4E4F63",
">. c #4F5065",
",. c #505166",
"<. c #505167",
"1. c #515267",
"2. c #515268",
"3. c #525368",
"4. c #52536A",
"5. c #53546A",
"6. c #54556C",
"7. c DimGray",
"8. c #6F6F6F",
"9. c #7B8083",
"0. c #919599",
"q. c #BEBFBF",
"w. c #C9CBCB",
"e. c #E4E4E4",
"r. c #F1F1F1",
"t. c #F1F2F2",
/* pixels */
"                                                                                                                                ",
"                                                                                                                                ",
"                                                                                                                                ",
"                                                                                                                                ",
"                                                                                                                                ",
"                                                                                                                                ",
"                                                                                                                                ",
"                                                                                                                                ",
"                                                                                                                                ",
"                                                                                                                                ",
"                                                                                                                                ",
"                                                                                                                                ",
"                                                                                                                                ",
"                                                                                                                                ",
"                                                                                                                                ",
"                                                                                                                                ",
"                                                                                                                                ",
"                                                                                                                                ",
"                                                                                                                                ",
"                                                    6.6.                                                                        ",
"                                                  6.U K ( 6.            6.                                                      ",
"                                                  6.2 O m ,.(         [ O.6.                                                    ",
"                                                  6.x p C U 0 2.    X.g K 6.                                                    ",
"                                                    -.-.U O 0 %.>.-.t O C >.                                                    ",
"                                                6.6.7 O O O O O O O O O O 2 6.                                                  ",
"                                              -.O O O O O O O O O O O O O O O 6.                                                ",
"                                            -.2 O O O O O O O O O O O O O O O 7 6.                                              ",
"                                          O.S O O O O O O O O . O O O O O O O O 6.                                              ",
"                                          | O O O O O O O O l 8.8.p O * ^ 7.O m 6.                                              ",
"                                        %.U O O O O O O O * &.t.r.~ O 6 0.e.O X.                                                ",
"                                      6.( O O O O O O O O * ! w.w.E O < 9.q.O O 6.      -.O.%.                                  ",
"                                  6.,.-.R , O O O O O O O O o f f # . X 6 t O 2 6.    6.K * d 6.                                ",
"                    O O         ,.,.K 7 m W O O O O O O * O O O O O O O O O , -.      6.K * d 6.                                ",
"                    O O O     $.g 0 U C , 0 O O O O O C K O O O O O O O O 2 %.6.        -.%.%.                                  ",
"                                X.| A 2 O O O O O O ( -.( O O O O O O S | [ p 6.6.                                              ",
"                                5.U 7 O O O O O O O >.6.-.( K 2 U W W K m x O m 6.                                              ",
"                                6.d O O O O O O O W 5.] m m m (     6.X.z O O O 6.6.                                            ",
"                                ..0 O O O O O O d 6.6.U p d m ,.    6.6.K . O O | 5.                                            ",
"                  >.p K -.    [ , O O O O O O 4 6.6.    6.6.6.        6.K O O O O :.                                            ",
"                ,.0 O O O   X.. O O O O O O O 4 6.6.                  5.K O O O O :.                                            ",
"                ,.0 O ( 6.  6.%.2 O O O O O O O O O -.6.            6.6.K O O O O O X.  O O O       O O                         ",
"                  >.>.      6.O.7 O O O O O O O O O -.6.            6.S O O O O O O X.                                          ",
"                    j       O.t O O O O O O O O O O p Y           6.m 2 O O O O O O |                                           ",
"                            | O O O O O O O O 2 ( ( W |           m , O O O O O O O |                                           ",
"                            X.O O O O O O O O 4 6.6.6.            K K 0 . O O O O O m }                                         ",
"                            X.j - O O O O O - C 6.                5.6.U 0 O O O O x m [                                         ",
"                              O.4 O O O O O 4 6.                      6.K O O O O >.5.        X.                                ",
"                      2 , O   #.y * O O O O 4 6.                      6.K . O O O >.      2.' 2 O.                              ",
"                      O.C . *   %.r O O O O 2 6.                      6.K O O O O >.        0 2 %.                              ",
"                        O.'     5.%.d O O 0 X.                        6.K O O O | 2.        [                                   ",
"                                  6.m O O p 6.                        6.S O O O 6.                                              ",
"                            p 6.6.6.W p O p 6.                        W p O . K 6.                                              ",
"                              K J t | J O d 6.                      6.m d K K 6.      m K                                       ",
"                              j O O ( [ t 0 (                       ( K W 6.5.      . p m                                       ",
"                              $.x d ' 6.' 0 2 6.                  6.C `             O W                                         ",
"                                6.6.      X.j 6.                  6.6.                                                          ",
"                                            2.6.                                                                                ",
"                                                                                                                                ",
"                                                                                                                                ",
"                                                                                                                                ",
"                                                                                                                                ",
"                                                                                                                                ",
"                                                                                                                                ",
"                                                                                                                                "
};
