/* XPM */
static char *right_enemy41672276693[] = {
/* columns rows colors chars-per-pixel */
"64 64 120 2 ",
"   c None",
".  c #1F2121",
"X  c #1E2323",
"o  c #202020",
"O  c #202121",
"+  c #212122",
"@  c #202223",
"#  c #222222",
"$  c #222223",
"%  c #202324",
"&  c #212325",
"*  c #222324",
"=  c #232324",
"-  c #232325",
";  c #232425",
":  c #242425",
">  c #242426",
",  c #252527",
"<  c #252626",
"1  c #21272B",
"2  c #262629",
"3  c #27272A",
"4  c #22272C",
"5  c #22292A",
"6  c #27282B",
"7  c #28282B",
"8  c gray17",
"9  c #28282C",
"0  c #28292C",
"q  c #29292D",
"w  c #2A2A2E",
"e  c #2B2D2E",
"r  c #2B2B30",
"t  c #2B2C30",
"y  c #2C2C31",
"u  c #2C2D32",
"i  c #2D2D33",
"p  c #2D2E33",
"a  c #2F2F35",
"s  c #2F2F36",
"d  c #2A3132",
"f  c #303037",
"g  c #303138",
"h  c #313138",
"j  c #313139",
"k  c #313239",
"l  c #32323A",
"z  c #33333B",
"x  c #33343C",
"c  c #34343C",
"v  c #34343D",
"b  c #34353E",
"n  c #35353E",
"m  c #353B3B",
"M  c #363D3D",
"N  c #373D3D",
"B  c #3C3D3E",
"V  c #363740",
"C  c #373741",
"Z  c #373842",
"A  c #383843",
"S  c #393944",
"D  c #3A3B46",
"F  c #3C3C48",
"G  c #3C3C49",
"H  c #3C3D49",
"J  c #3C3D4A",
"K  c #3D3D4A",
"L  c #3D3E4A",
"P  c #3D3E4B",
"I  c #3E3E4B",
"U  c #3E3F4B",
"Y  c #3E3E4C",
"T  c #3F404E",
"R  c gray27",
"E  c gray29",
"W  c #414150",
"Q  c #414250",
"!  c #414251",
"~  c #424251",
"^  c #424352",
"/  c #434353",
"(  c #434453",
")  c #444555",
"_  c #454656",
"`  c #464757",
"'  c #464D53",
"]  c #474859",
"[  c #48485A",
"{  c #48495A",
"}  c #48495B",
"|  c #494A5C",
" . c #4A4B5D",
".. c #4A4B5E",
"X. c #4B4B5E",
"o. c #4B4C5F",
"O. c #4C5359",
"+. c #515151",
"@. c gray33",
"#. c #545455",
"$. c #4C4D60",
"%. c #4D4E62",
"&. c #4E4F63",
"*. c #4E4F64",
"=. c #4F5065",
"-. c #505167",
";. c #515267",
":. c #515268",
">. c #525369",
",. c #52536A",
"<. c #53546A",
"1. c #54556C",
"2. c #82878A",
"3. c #919599",
"4. c #CBCBCB",
"5. c #D7D7D7",
"6. c #D7D8D8",
"7. c #E4E4E4",
"8. c #F1F1F1",
"9. c #F1F2F2",
/* pixels */
"                                                                                                                                ",
"                                                                                                                                ",
"                                                                                                                                ",
"                                                                                                                                ",
"                                                                                                                                ",
"                                                                                                                                ",
"                                                                                                                                ",
"                                                                                                                                ",
"                                                                                                                                ",
"                                                                                                                                ",
"                                                                                                                                ",
"                                                                                                                                ",
"                                                                                                                                ",
"                                                                                                                                ",
"                                                                                                                                ",
"                                                                                                                                ",
"                                                                                                                                ",
"                            o                                                                                                   ",
"                                                                                  o                                             ",
"                                                                                                                                ",
"                                                                                                                                ",
"                                                                                                                                ",
"                                                          ,.{                                                                   ",
"                                                          ^ 9 ;.    &.&.;.1.1.              o                                   ",
"                                                      1.^ o 9 ;.1.1.i o D 1.                                                    ",
"                                                  1.1.D o o o o o o o o o 3 1.              1.1.1.                              ",
"                                                1.<.i ; o o o o o o o o o 3 1.              3 3 3                               ",
"                                              *.D D ; o o o o o o o o o o ; D 1.          D o o o W                             ",
"                                              &.o o o o o o . o o o o . o o o 1.        ] n o o o ]                             ",
"                          F {               ,.^ o o o o o o t #.@.8 o = B +.o 1.      1.D o o o o `                             ",
"                        9 o i 1.            _ o o o o o o = O.9.8.E o 4 3.7.o ..      1.F 3 o o 9 {                             ",
"                      1.Z = j 1.          ] = o o o o ; , X ' 6.5.R o 4 2.4.o 9 1.        T 3 r [                               ",
"                        9 j &.          ,._ o o o o o C F . 5 M M , o X d m o =.            &.&.                                ",
"                    1.<.o.          1.1._ 3 o o o o o D ^ o . . . o o o . . o <.                                                ",
"                  1.n i F           1.^ 9 o o o o o ^ D 3 o o o o o o o . 3 ]                                                   ",
"                  n 3 o t F     1.1.F 9 o o o o o o &.D o o o o o o o n f o n 1.                                                ",
"                *.3 o o . 3 x   1.F 9 o o o o o o o &...^ W W ^ T ^ W D 9 o o 1.          1.        o                           ",
"                =.8 o o 8 9 .   1.n a 3 o o o o o o &.1.1.1.<.1.1.<...a o o o {         ..[ {     i , o                         ",
"                  3 o . D 1.      &.&.C o o o o o o &.1.1.  1.1.  1.j ; o o o o 1.    1.F , o     1.n                           ",
"                  1.i o D 1.  1.1.i o o o o o o o o &.1.1.          1.n o o o o 1.      <.^ o                                   ",
"                    1.1.1.  ] o o o o o o o o o o o o D <.          1.n o o o o 1.                                              ",
"                              =.&.i o o o o o o o o o = Z 1.      1.1.x o o o o 3 &.          1.                                ",
"                                <.i o o o o o o o o ^ ] o.1.  1.;.n i , o o o o o &.        { j o.                              ",
"                      1.      1.1.i o o o o o o o ^ <.1.        ;.9 o o o o o o o &.      ` d ; f                               ",
"                    Y D ^     *.F 6 o o o o o o o 1.1.            F 3 o o o o o o C {   D j o o o T                             ",
"                  1.9 o j _ 1...8 o o o o o o o o 1.              1.i o o o o o o j &.  o o o o o ]                             ",
"                    i , o n 1.$.g = o o o o o o i 1.              1.a o o o o o i =.<.  i 8 . o r {                             ",
"                    <.C 6 n 1.  1.j ; o o o o 9 1.                1.i o o o o o 1.        ^ 3 r ..                              ",
"                      o...o.  1.  ..f o o o o 3 <.                1.i o o o o o 1.          ..X.                                ",
"                            { j &.1.n o o o o 3 1.                1.i o o o o ] 1.  1.1.                                        ",
"                            f , j &.[ f o o > ^                   1.i o o o o 1.1.  n x n                                       ",
"                            n o o v ..D o o 3 1.                  1.a o o ; D 1.1.1.6 j ^                                       ",
"                            ] o o o d a o o 3 1.                  1.i j D F 1.o o &.F ` 1.                                      ",
"                            { n x 3 o r i o 3 1.                  1.i ^ 1.1.  o n                                               ",
"                              1.1.n a F F o 3 1.                  { x ^         1.                                              ",
"                                  1.1.    0 6 1.                ,.j [                                                           ",
"                                          _ i <.                <.,.                                                            ",
"                                            *.1.                                                                                ",
"                                                                                                                                ",
"                                                                                                                                ",
"                                                                                                                                ",
"                                                                                                                                ",
"                                                                                                                                ",
"                                                                                                                                "
};
